%TF.GenerationSoftware,KiCad,Pcbnew,5.1.12-84ad8e8a86~92~ubuntu20.04.1*%
%TF.CreationDate,2022-06-08T18:54:32+02:00*%
%TF.ProjectId,bvm-a-card-breakout,62766d2d-612d-4636-9172-642d62726561,rev?*%
%TF.SameCoordinates,Original*%
%TF.FileFunction,Copper,L4,Bot*%
%TF.FilePolarity,Positive*%
%FSLAX46Y46*%
G04 Gerber Fmt 4.6, Leading zero omitted, Abs format (unit mm)*
G04 Created by KiCad (PCBNEW 5.1.12-84ad8e8a86~92~ubuntu20.04.1) date 2022-06-08 18:54:32*
%MOMM*%
%LPD*%
G01*
G04 APERTURE LIST*
%TA.AperFunction,ComponentPad*%
%ADD10C,3.200000*%
%TD*%
%TA.AperFunction,ComponentPad*%
%ADD11C,1.400000*%
%TD*%
%TA.AperFunction,ComponentPad*%
%ADD12O,1.700000X1.700000*%
%TD*%
%TA.AperFunction,ComponentPad*%
%ADD13R,1.700000X1.700000*%
%TD*%
%TA.AperFunction,ComponentPad*%
%ADD14C,2.600000*%
%TD*%
%TA.AperFunction,Conductor*%
%ADD15C,0.400000*%
%TD*%
G04 APERTURE END LIST*
D10*
%TO.P,J1,S*%
%TO.N,N/C*%
X124648840Y-162687000D03*
X124648840Y-90297000D03*
D11*
%TO.P,J1,B2*%
%TO.N,B2*%
X124648840Y-96647000D03*
%TO.P,J1,B4*%
%TO.N,B4*%
X124648840Y-99187000D03*
%TO.P,J1,B6*%
%TO.N,B6*%
X124648840Y-101727000D03*
%TO.P,J1,B8*%
%TO.N,B8*%
X124648840Y-104267000D03*
%TO.P,J1,B10*%
%TO.N,B10*%
X124648840Y-106807000D03*
%TO.P,J1,B12*%
%TO.N,B12*%
X124648840Y-109347000D03*
%TO.P,J1,B14*%
%TO.N,B14*%
X124648840Y-111887000D03*
%TO.P,J1,B16*%
%TO.N,B16*%
X124648840Y-114427000D03*
%TO.P,J1,B18*%
%TO.N,B18*%
X124648840Y-116967000D03*
%TO.P,J1,B20*%
%TO.N,B20*%
X124648840Y-119507000D03*
%TO.P,J1,B22*%
%TO.N,B22*%
X124648840Y-122047000D03*
%TO.P,J1,B24*%
%TO.N,B24*%
X124648840Y-124587000D03*
%TO.P,J1,B26*%
%TO.N,B26*%
X124648840Y-127127000D03*
%TO.P,J1,B28*%
%TO.N,B28*%
X124648840Y-129667000D03*
%TO.P,J1,B30*%
%TO.N,B30*%
X124648840Y-132207000D03*
%TO.P,J1,B32*%
%TO.N,B32*%
X124648840Y-134747000D03*
%TO.P,J1,B34*%
%TO.N,B34*%
X124648840Y-137287000D03*
%TO.P,J1,B36*%
%TO.N,B36*%
X124648840Y-139827000D03*
%TO.P,J1,B38*%
%TO.N,B38*%
X124648840Y-142367000D03*
%TO.P,J1,B40*%
%TO.N,B40*%
X124648840Y-144907000D03*
%TO.P,J1,B42*%
%TO.N,B42*%
X124648840Y-147447000D03*
%TO.P,J1,B44*%
%TO.N,B44*%
X124648840Y-149987000D03*
%TO.P,J1,B46*%
%TO.N,B46*%
X124648840Y-152527000D03*
%TO.P,J1,B48*%
%TO.N,B48*%
X124648840Y-155067000D03*
%TO.P,J1,B50*%
%TO.N,B50*%
X124648840Y-157607000D03*
%TO.P,J1,A1*%
%TO.N,A1*%
X130363840Y-95377000D03*
%TO.P,J1,A3*%
%TO.N,A3*%
X130363840Y-97917000D03*
%TO.P,J1,A5*%
%TO.N,A5*%
X130363840Y-100457000D03*
%TO.P,J1,A7*%
%TO.N,A7*%
X130363840Y-102997000D03*
%TO.P,J1,A9*%
%TO.N,A9*%
X130363840Y-105537000D03*
%TO.P,J1,A11*%
%TO.N,A11*%
X130363840Y-108077000D03*
%TO.P,J1,A13*%
%TO.N,A13*%
X130363840Y-110617000D03*
%TO.P,J1,A15*%
%TO.N,A15*%
X130363840Y-113157000D03*
%TO.P,J1,A17*%
%TO.N,A17*%
X130363840Y-115697000D03*
%TO.P,J1,A19*%
%TO.N,A19*%
X130363840Y-118237000D03*
%TO.P,J1,A21*%
%TO.N,A21*%
X130363840Y-120777000D03*
%TO.P,J1,A23*%
%TO.N,A23*%
X130363840Y-123317000D03*
%TO.P,J1,A25*%
%TO.N,A25*%
X130363840Y-125857000D03*
%TO.P,J1,A27*%
%TO.N,A27*%
X130363840Y-128397000D03*
%TO.P,J1,A29*%
%TO.N,A29*%
X130363840Y-130937000D03*
%TO.P,J1,A31*%
%TO.N,A31*%
X130363840Y-133477000D03*
%TO.P,J1,A33*%
%TO.N,A33*%
X130363840Y-136017000D03*
%TO.P,J1,A35*%
%TO.N,A35*%
X130363840Y-138557000D03*
%TO.P,J1,A37*%
%TO.N,A37*%
X130363840Y-141097000D03*
%TO.P,J1,A39*%
%TO.N,A39*%
X130363840Y-143637000D03*
%TO.P,J1,A41*%
%TO.N,A41*%
X130363840Y-146177000D03*
%TO.P,J1,A43*%
%TO.N,A43*%
X130363840Y-148717000D03*
%TO.P,J1,A45*%
%TO.N,A45*%
X130363840Y-151257000D03*
%TO.P,J1,A47*%
%TO.N,A47*%
X130363840Y-153797000D03*
%TO.P,J1,A49*%
%TO.N,A49*%
X130363840Y-156337000D03*
%TO.P,J1,A2*%
%TO.N,A2*%
X128458840Y-96647000D03*
%TO.P,J1,A4*%
%TO.N,A4*%
X128458840Y-99187000D03*
%TO.P,J1,A6*%
%TO.N,A6*%
X128458840Y-101727000D03*
%TO.P,J1,A8*%
%TO.N,A8*%
X128458840Y-104267000D03*
%TO.P,J1,A10*%
%TO.N,A10*%
X128458840Y-106807000D03*
%TO.P,J1,A12*%
%TO.N,A12*%
X128458840Y-109347000D03*
%TO.P,J1,A14*%
%TO.N,A14*%
X128458840Y-111887000D03*
%TO.P,J1,A16*%
%TO.N,A16*%
X128458840Y-114427000D03*
%TO.P,J1,A18*%
%TO.N,A18*%
X128458840Y-116967000D03*
%TO.P,J1,A20*%
%TO.N,A20*%
X128458840Y-119507000D03*
%TO.P,J1,A22*%
%TO.N,A22*%
X128458840Y-122047000D03*
%TO.P,J1,A24*%
%TO.N,A24*%
X128458840Y-124587000D03*
%TO.P,J1,A26*%
%TO.N,A26*%
X128458840Y-127127000D03*
%TO.P,J1,A28*%
%TO.N,A28*%
X128458840Y-129667000D03*
%TO.P,J1,A30*%
%TO.N,A30*%
X128458840Y-132207000D03*
%TO.P,J1,A32*%
%TO.N,A32*%
X128458840Y-134747000D03*
%TO.P,J1,A34*%
%TO.N,A34*%
X128458840Y-137287000D03*
%TO.P,J1,A36*%
%TO.N,A36*%
X128458840Y-139827000D03*
%TO.P,J1,A38*%
%TO.N,A38*%
X128458840Y-142367000D03*
%TO.P,J1,A40*%
%TO.N,A40*%
X128458840Y-144907000D03*
%TO.P,J1,A42*%
%TO.N,A42*%
X128458840Y-147447000D03*
%TO.P,J1,A44*%
%TO.N,A44*%
X128458840Y-149987000D03*
%TO.P,J1,A46*%
%TO.N,A46*%
X128458840Y-152527000D03*
%TO.P,J1,A48*%
%TO.N,A48*%
X128458840Y-155067000D03*
%TO.P,J1,A50*%
%TO.N,A50*%
X128458840Y-157607000D03*
%TO.P,J1,B1*%
%TO.N,B1*%
X126553840Y-95377000D03*
%TO.P,J1,B3*%
%TO.N,B3*%
X126553840Y-97917000D03*
%TO.P,J1,B5*%
%TO.N,B5*%
X126553840Y-100457000D03*
%TO.P,J1,B7*%
%TO.N,B7*%
X126553840Y-102997000D03*
%TO.P,J1,B9*%
%TO.N,B9*%
X126553840Y-105537000D03*
%TO.P,J1,B11*%
%TO.N,B11*%
X126553840Y-108077000D03*
%TO.P,J1,B13*%
%TO.N,B13*%
X126553840Y-110617000D03*
%TO.P,J1,B15*%
%TO.N,B15*%
X126553840Y-113157000D03*
%TO.P,J1,B17*%
%TO.N,B17*%
X126553840Y-115697000D03*
%TO.P,J1,B19*%
%TO.N,B19*%
X126553840Y-118237000D03*
%TO.P,J1,B21*%
%TO.N,B21*%
X126553840Y-120777000D03*
%TO.P,J1,B23*%
%TO.N,B23*%
X126553840Y-123317000D03*
%TO.P,J1,B25*%
%TO.N,B25*%
X126553840Y-125857000D03*
%TO.P,J1,B27*%
%TO.N,B27*%
X126553840Y-128397000D03*
%TO.P,J1,B29*%
%TO.N,B29*%
X126553840Y-130937000D03*
%TO.P,J1,B31*%
%TO.N,B31*%
X126553840Y-133477000D03*
%TO.P,J1,B33*%
%TO.N,B33*%
X126553840Y-136017000D03*
%TO.P,J1,B35*%
%TO.N,B35*%
X126553840Y-138557000D03*
%TO.P,J1,B37*%
%TO.N,B37*%
X126553840Y-141097000D03*
%TO.P,J1,B39*%
%TO.N,B39*%
X126553840Y-143637000D03*
%TO.P,J1,B41*%
%TO.N,B41*%
X126553840Y-146177000D03*
%TO.P,J1,B43*%
%TO.N,B43*%
X126553840Y-148717000D03*
%TO.P,J1,B45*%
%TO.N,B45*%
X126553840Y-151257000D03*
%TO.P,J1,B47*%
%TO.N,B47*%
X126553840Y-153797000D03*
%TO.P,J1,B49*%
%TO.N,B49*%
X126553840Y-156337000D03*
%TD*%
%TO.P,J11,B49*%
%TO.N,B49_2*%
X126552960Y-284129480D03*
%TO.P,J11,B47*%
%TO.N,B47_2*%
X126552960Y-281589480D03*
%TO.P,J11,B45*%
%TO.N,B45_2*%
X126552960Y-279049480D03*
%TO.P,J11,B43*%
%TO.N,B43_2*%
X126552960Y-276509480D03*
%TO.P,J11,B41*%
%TO.N,B41_2*%
X126552960Y-273969480D03*
%TO.P,J11,B39*%
%TO.N,B39_2*%
X126552960Y-271429480D03*
%TO.P,J11,B37*%
%TO.N,B37_2*%
X126552960Y-268889480D03*
%TO.P,J11,B35*%
%TO.N,B35_2*%
X126552960Y-266349480D03*
%TO.P,J11,B33*%
%TO.N,B33_2*%
X126552960Y-263809480D03*
%TO.P,J11,B31*%
%TO.N,B31_2*%
X126552960Y-261269480D03*
%TO.P,J11,B29*%
%TO.N,B29_2*%
X126552960Y-258729480D03*
%TO.P,J11,B27*%
%TO.N,B27_2*%
X126552960Y-256189480D03*
%TO.P,J11,B25*%
%TO.N,B25_2*%
X126552960Y-253649480D03*
%TO.P,J11,B23*%
%TO.N,B23_2*%
X126552960Y-251109480D03*
%TO.P,J11,B21*%
%TO.N,B21_2*%
X126552960Y-248569480D03*
%TO.P,J11,B19*%
%TO.N,B19_2*%
X126552960Y-246029480D03*
%TO.P,J11,B17*%
%TO.N,B17_2*%
X126552960Y-243489480D03*
%TO.P,J11,B15*%
%TO.N,B15_2*%
X126552960Y-240949480D03*
%TO.P,J11,B13*%
%TO.N,B13_2*%
X126552960Y-238409480D03*
%TO.P,J11,B11*%
%TO.N,B11_2*%
X126552960Y-235869480D03*
%TO.P,J11,B9*%
%TO.N,B9_2*%
X126552960Y-233329480D03*
%TO.P,J11,B7*%
%TO.N,B7_2*%
X126552960Y-230789480D03*
%TO.P,J11,B5*%
%TO.N,B5_2*%
X126552960Y-228249480D03*
%TO.P,J11,B3*%
%TO.N,B3_2*%
X126552960Y-225709480D03*
%TO.P,J11,B1*%
%TO.N,B1_2*%
X126552960Y-223169480D03*
%TO.P,J11,A50*%
%TO.N,A50_2*%
X128457960Y-285399480D03*
%TO.P,J11,A48*%
%TO.N,A48_2*%
X128457960Y-282859480D03*
%TO.P,J11,A46*%
%TO.N,A46_2*%
X128457960Y-280319480D03*
%TO.P,J11,A44*%
%TO.N,A44_2*%
X128457960Y-277779480D03*
%TO.P,J11,A42*%
%TO.N,A42_2*%
X128457960Y-275239480D03*
%TO.P,J11,A40*%
%TO.N,A40_2*%
X128457960Y-272699480D03*
%TO.P,J11,A38*%
%TO.N,A38_2*%
X128457960Y-270159480D03*
%TO.P,J11,A36*%
%TO.N,A36_2*%
X128457960Y-267619480D03*
%TO.P,J11,A34*%
%TO.N,A34_2*%
X128457960Y-265079480D03*
%TO.P,J11,A32*%
%TO.N,A32_2*%
X128457960Y-262539480D03*
%TO.P,J11,A30*%
%TO.N,A30_2*%
X128457960Y-259999480D03*
%TO.P,J11,A28*%
%TO.N,A28_2*%
X128457960Y-257459480D03*
%TO.P,J11,A26*%
%TO.N,A26_2*%
X128457960Y-254919480D03*
%TO.P,J11,A24*%
%TO.N,A24_2*%
X128457960Y-252379480D03*
%TO.P,J11,A22*%
%TO.N,A22_2*%
X128457960Y-249839480D03*
%TO.P,J11,A20*%
%TO.N,A20_2*%
X128457960Y-247299480D03*
%TO.P,J11,A18*%
%TO.N,A18_2*%
X128457960Y-244759480D03*
%TO.P,J11,A16*%
%TO.N,A16_2*%
X128457960Y-242219480D03*
%TO.P,J11,A14*%
%TO.N,A14_2*%
X128457960Y-239679480D03*
%TO.P,J11,A12*%
%TO.N,A12_2*%
X128457960Y-237139480D03*
%TO.P,J11,A10*%
%TO.N,A10_2*%
X128457960Y-234599480D03*
%TO.P,J11,A8*%
%TO.N,A8_2*%
X128457960Y-232059480D03*
%TO.P,J11,A6*%
%TO.N,A6_2*%
X128457960Y-229519480D03*
%TO.P,J11,A4*%
%TO.N,A4_2*%
X128457960Y-226979480D03*
%TO.P,J11,A2*%
%TO.N,A2_2*%
X128457960Y-224439480D03*
%TO.P,J11,A49*%
%TO.N,A49_2*%
X130362960Y-284129480D03*
%TO.P,J11,A47*%
%TO.N,A47_2*%
X130362960Y-281589480D03*
%TO.P,J11,A45*%
%TO.N,A45_2*%
X130362960Y-279049480D03*
%TO.P,J11,A43*%
%TO.N,A43_2*%
X130362960Y-276509480D03*
%TO.P,J11,A41*%
%TO.N,A41_2*%
X130362960Y-273969480D03*
%TO.P,J11,A39*%
%TO.N,A39_2*%
X130362960Y-271429480D03*
%TO.P,J11,A37*%
%TO.N,A37_2*%
X130362960Y-268889480D03*
%TO.P,J11,A35*%
%TO.N,A35_2*%
X130362960Y-266349480D03*
%TO.P,J11,A33*%
%TO.N,A33_2*%
X130362960Y-263809480D03*
%TO.P,J11,A31*%
%TO.N,A31_2*%
X130362960Y-261269480D03*
%TO.P,J11,A29*%
%TO.N,A29_2*%
X130362960Y-258729480D03*
%TO.P,J11,A27*%
%TO.N,A27_2*%
X130362960Y-256189480D03*
%TO.P,J11,A25*%
%TO.N,A25_2*%
X130362960Y-253649480D03*
%TO.P,J11,A23*%
%TO.N,A23_2*%
X130362960Y-251109480D03*
%TO.P,J11,A21*%
%TO.N,A21_2*%
X130362960Y-248569480D03*
%TO.P,J11,A19*%
%TO.N,A19_2*%
X130362960Y-246029480D03*
%TO.P,J11,A17*%
%TO.N,A17_2*%
X130362960Y-243489480D03*
%TO.P,J11,A15*%
%TO.N,A15_2*%
X130362960Y-240949480D03*
%TO.P,J11,A13*%
%TO.N,A13_2*%
X130362960Y-238409480D03*
%TO.P,J11,A11*%
%TO.N,A11_2*%
X130362960Y-235869480D03*
%TO.P,J11,A9*%
%TO.N,A9_2*%
X130362960Y-233329480D03*
%TO.P,J11,A7*%
%TO.N,A7_2*%
X130362960Y-230789480D03*
%TO.P,J11,A5*%
%TO.N,A5_2*%
X130362960Y-228249480D03*
%TO.P,J11,A3*%
%TO.N,A3_2*%
X130362960Y-225709480D03*
%TO.P,J11,A1*%
%TO.N,A1_2*%
X130362960Y-223169480D03*
%TO.P,J11,B50*%
%TO.N,B50_2*%
X124647960Y-285399480D03*
%TO.P,J11,B48*%
%TO.N,B48_2*%
X124647960Y-282859480D03*
%TO.P,J11,B46*%
%TO.N,B46_2*%
X124647960Y-280319480D03*
%TO.P,J11,B44*%
%TO.N,B44_2*%
X124647960Y-277779480D03*
%TO.P,J11,B42*%
%TO.N,B42_2*%
X124647960Y-275239480D03*
%TO.P,J11,B40*%
%TO.N,B40_2*%
X124647960Y-272699480D03*
%TO.P,J11,B38*%
%TO.N,B38_2*%
X124647960Y-270159480D03*
%TO.P,J11,B36*%
%TO.N,B36_2*%
X124647960Y-267619480D03*
%TO.P,J11,B34*%
%TO.N,B34_2*%
X124647960Y-265079480D03*
%TO.P,J11,B32*%
%TO.N,B32_2*%
X124647960Y-262539480D03*
%TO.P,J11,B30*%
%TO.N,B30_2*%
X124647960Y-259999480D03*
%TO.P,J11,B28*%
%TO.N,B28_2*%
X124647960Y-257459480D03*
%TO.P,J11,B26*%
%TO.N,B26_2*%
X124647960Y-254919480D03*
%TO.P,J11,B24*%
%TO.N,B24_2*%
X124647960Y-252379480D03*
%TO.P,J11,B22*%
%TO.N,B22_2*%
X124647960Y-249839480D03*
%TO.P,J11,B20*%
%TO.N,B20_2*%
X124647960Y-247299480D03*
%TO.P,J11,B18*%
%TO.N,B18_2*%
X124647960Y-244759480D03*
%TO.P,J11,B16*%
%TO.N,B16_2*%
X124647960Y-242219480D03*
%TO.P,J11,B14*%
%TO.N,B14_2*%
X124647960Y-239679480D03*
%TO.P,J11,B12*%
%TO.N,B12_2*%
X124647960Y-237139480D03*
%TO.P,J11,B10*%
%TO.N,B10_2*%
X124647960Y-234599480D03*
%TO.P,J11,B8*%
%TO.N,B8_2*%
X124647960Y-232059480D03*
%TO.P,J11,B6*%
%TO.N,B6_2*%
X124647960Y-229519480D03*
%TO.P,J11,B4*%
%TO.N,B4_2*%
X124647960Y-226979480D03*
%TO.P,J11,B2*%
%TO.N,B2_2*%
X124647960Y-224439480D03*
D10*
%TO.P,J11,S*%
%TO.N,N/C*%
X124647960Y-218089480D03*
X124647960Y-290479480D03*
%TD*%
%TO.P,J2,S*%
%TO.N,N/C*%
X345588240Y-162683560D03*
X345588240Y-90293560D03*
D11*
%TO.P,J2,B2*%
%TO.N,B2*%
X345588240Y-96643560D03*
%TO.P,J2,B4*%
%TO.N,B4*%
X345588240Y-99183560D03*
%TO.P,J2,B6*%
%TO.N,B6*%
X345588240Y-101723560D03*
%TO.P,J2,B8*%
%TO.N,B8*%
X345588240Y-104263560D03*
%TO.P,J2,B10*%
%TO.N,B10*%
X345588240Y-106803560D03*
%TO.P,J2,B12*%
%TO.N,B12*%
X345588240Y-109343560D03*
%TO.P,J2,B14*%
%TO.N,B14*%
X345588240Y-111883560D03*
%TO.P,J2,B16*%
%TO.N,B16*%
X345588240Y-114423560D03*
%TO.P,J2,B18*%
%TO.N,B18*%
X345588240Y-116963560D03*
%TO.P,J2,B20*%
%TO.N,B20*%
X345588240Y-119503560D03*
%TO.P,J2,B22*%
%TO.N,B22*%
X345588240Y-122043560D03*
%TO.P,J2,B24*%
%TO.N,B24*%
X345588240Y-124583560D03*
%TO.P,J2,B26*%
%TO.N,B26*%
X345588240Y-127123560D03*
%TO.P,J2,B28*%
%TO.N,B28*%
X345588240Y-129663560D03*
%TO.P,J2,B30*%
%TO.N,B30*%
X345588240Y-132203560D03*
%TO.P,J2,B32*%
%TO.N,B32*%
X345588240Y-134743560D03*
%TO.P,J2,B34*%
%TO.N,B34*%
X345588240Y-137283560D03*
%TO.P,J2,B36*%
%TO.N,B36*%
X345588240Y-139823560D03*
%TO.P,J2,B38*%
%TO.N,B38*%
X345588240Y-142363560D03*
%TO.P,J2,B40*%
%TO.N,B40*%
X345588240Y-144903560D03*
%TO.P,J2,B42*%
%TO.N,B42*%
X345588240Y-147443560D03*
%TO.P,J2,B44*%
%TO.N,B44*%
X345588240Y-149983560D03*
%TO.P,J2,B46*%
%TO.N,B46*%
X345588240Y-152523560D03*
%TO.P,J2,B48*%
%TO.N,B48*%
X345588240Y-155063560D03*
%TO.P,J2,B50*%
%TO.N,B50*%
X345588240Y-157603560D03*
%TO.P,J2,A1*%
%TO.N,A1*%
X339873240Y-95373560D03*
%TO.P,J2,A3*%
%TO.N,A3*%
X339873240Y-97913560D03*
%TO.P,J2,A5*%
%TO.N,A5*%
X339873240Y-100453560D03*
%TO.P,J2,A7*%
%TO.N,A7*%
X339873240Y-102993560D03*
%TO.P,J2,A9*%
%TO.N,A9*%
X339873240Y-105533560D03*
%TO.P,J2,A11*%
%TO.N,A11*%
X339873240Y-108073560D03*
%TO.P,J2,A13*%
%TO.N,A13*%
X339873240Y-110613560D03*
%TO.P,J2,A15*%
%TO.N,A15*%
X339873240Y-113153560D03*
%TO.P,J2,A17*%
%TO.N,A17*%
X339873240Y-115693560D03*
%TO.P,J2,A19*%
%TO.N,A19*%
X339873240Y-118233560D03*
%TO.P,J2,A21*%
%TO.N,A21*%
X339873240Y-120773560D03*
%TO.P,J2,A23*%
%TO.N,A23*%
X339873240Y-123313560D03*
%TO.P,J2,A25*%
%TO.N,A25*%
X339873240Y-125853560D03*
%TO.P,J2,A27*%
%TO.N,A27*%
X339873240Y-128393560D03*
%TO.P,J2,A29*%
%TO.N,A29*%
X339873240Y-130933560D03*
%TO.P,J2,A31*%
%TO.N,A31*%
X339873240Y-133473560D03*
%TO.P,J2,A33*%
%TO.N,A33*%
X339873240Y-136013560D03*
%TO.P,J2,A35*%
%TO.N,A35*%
X339873240Y-138553560D03*
%TO.P,J2,A37*%
%TO.N,A37*%
X339873240Y-141093560D03*
%TO.P,J2,A39*%
%TO.N,A39*%
X339873240Y-143633560D03*
%TO.P,J2,A41*%
%TO.N,A41*%
X339873240Y-146173560D03*
%TO.P,J2,A43*%
%TO.N,A43*%
X339873240Y-148713560D03*
%TO.P,J2,A45*%
%TO.N,A45*%
X339873240Y-151253560D03*
%TO.P,J2,A47*%
%TO.N,A47*%
X339873240Y-153793560D03*
%TO.P,J2,A49*%
%TO.N,A49*%
X339873240Y-156333560D03*
%TO.P,J2,A2*%
%TO.N,A2*%
X341778240Y-96643560D03*
%TO.P,J2,A4*%
%TO.N,A4*%
X341778240Y-99183560D03*
%TO.P,J2,A6*%
%TO.N,A6*%
X341778240Y-101723560D03*
%TO.P,J2,A8*%
%TO.N,A8*%
X341778240Y-104263560D03*
%TO.P,J2,A10*%
%TO.N,A10*%
X341778240Y-106803560D03*
%TO.P,J2,A12*%
%TO.N,A12*%
X341778240Y-109343560D03*
%TO.P,J2,A14*%
%TO.N,A14*%
X341778240Y-111883560D03*
%TO.P,J2,A16*%
%TO.N,A16*%
X341778240Y-114423560D03*
%TO.P,J2,A18*%
%TO.N,A18*%
X341778240Y-116963560D03*
%TO.P,J2,A20*%
%TO.N,A20*%
X341778240Y-119503560D03*
%TO.P,J2,A22*%
%TO.N,A22*%
X341778240Y-122043560D03*
%TO.P,J2,A24*%
%TO.N,A24*%
X341778240Y-124583560D03*
%TO.P,J2,A26*%
%TO.N,A26*%
X341778240Y-127123560D03*
%TO.P,J2,A28*%
%TO.N,A28*%
X341778240Y-129663560D03*
%TO.P,J2,A30*%
%TO.N,A30*%
X341778240Y-132203560D03*
%TO.P,J2,A32*%
%TO.N,A32*%
X341778240Y-134743560D03*
%TO.P,J2,A34*%
%TO.N,A34*%
X341778240Y-137283560D03*
%TO.P,J2,A36*%
%TO.N,A36*%
X341778240Y-139823560D03*
%TO.P,J2,A38*%
%TO.N,A38*%
X341778240Y-142363560D03*
%TO.P,J2,A40*%
%TO.N,A40*%
X341778240Y-144903560D03*
%TO.P,J2,A42*%
%TO.N,A42*%
X341778240Y-147443560D03*
%TO.P,J2,A44*%
%TO.N,A44*%
X341778240Y-149983560D03*
%TO.P,J2,A46*%
%TO.N,A46*%
X341778240Y-152523560D03*
%TO.P,J2,A48*%
%TO.N,A48*%
X341778240Y-155063560D03*
%TO.P,J2,A50*%
%TO.N,A50*%
X341778240Y-157603560D03*
%TO.P,J2,B1*%
%TO.N,B1*%
X343683240Y-95373560D03*
%TO.P,J2,B3*%
%TO.N,B3*%
X343683240Y-97913560D03*
%TO.P,J2,B5*%
%TO.N,B5*%
X343683240Y-100453560D03*
%TO.P,J2,B7*%
%TO.N,B7*%
X343683240Y-102993560D03*
%TO.P,J2,B9*%
%TO.N,B9*%
X343683240Y-105533560D03*
%TO.P,J2,B11*%
%TO.N,B11*%
X343683240Y-108073560D03*
%TO.P,J2,B13*%
%TO.N,B13*%
X343683240Y-110613560D03*
%TO.P,J2,B15*%
%TO.N,B15*%
X343683240Y-113153560D03*
%TO.P,J2,B17*%
%TO.N,B17*%
X343683240Y-115693560D03*
%TO.P,J2,B19*%
%TO.N,B19*%
X343683240Y-118233560D03*
%TO.P,J2,B21*%
%TO.N,B21*%
X343683240Y-120773560D03*
%TO.P,J2,B23*%
%TO.N,B23*%
X343683240Y-123313560D03*
%TO.P,J2,B25*%
%TO.N,B25*%
X343683240Y-125853560D03*
%TO.P,J2,B27*%
%TO.N,B27*%
X343683240Y-128393560D03*
%TO.P,J2,B29*%
%TO.N,B29*%
X343683240Y-130933560D03*
%TO.P,J2,B31*%
%TO.N,B31*%
X343683240Y-133473560D03*
%TO.P,J2,B33*%
%TO.N,B33*%
X343683240Y-136013560D03*
%TO.P,J2,B35*%
%TO.N,B35*%
X343683240Y-138553560D03*
%TO.P,J2,B37*%
%TO.N,B37*%
X343683240Y-141093560D03*
%TO.P,J2,B39*%
%TO.N,B39*%
X343683240Y-143633560D03*
%TO.P,J2,B41*%
%TO.N,B41*%
X343683240Y-146173560D03*
%TO.P,J2,B43*%
%TO.N,B43*%
X343683240Y-148713560D03*
%TO.P,J2,B45*%
%TO.N,B45*%
X343683240Y-151253560D03*
%TO.P,J2,B47*%
%TO.N,B47*%
X343683240Y-153793560D03*
%TO.P,J2,B49*%
%TO.N,B49*%
X343683240Y-156333560D03*
%TD*%
D10*
%TO.P,J12,S*%
%TO.N,N/C*%
X345587320Y-290474400D03*
X345587320Y-218084400D03*
D11*
%TO.P,J12,B2*%
%TO.N,B2_2*%
X345587320Y-224434400D03*
%TO.P,J12,B4*%
%TO.N,B4_2*%
X345587320Y-226974400D03*
%TO.P,J12,B6*%
%TO.N,B6_2*%
X345587320Y-229514400D03*
%TO.P,J12,B8*%
%TO.N,B8_2*%
X345587320Y-232054400D03*
%TO.P,J12,B10*%
%TO.N,B10_2*%
X345587320Y-234594400D03*
%TO.P,J12,B12*%
%TO.N,B12_2*%
X345587320Y-237134400D03*
%TO.P,J12,B14*%
%TO.N,B14_2*%
X345587320Y-239674400D03*
%TO.P,J12,B16*%
%TO.N,B16_2*%
X345587320Y-242214400D03*
%TO.P,J12,B18*%
%TO.N,B18_2*%
X345587320Y-244754400D03*
%TO.P,J12,B20*%
%TO.N,B20_2*%
X345587320Y-247294400D03*
%TO.P,J12,B22*%
%TO.N,B22_2*%
X345587320Y-249834400D03*
%TO.P,J12,B24*%
%TO.N,B24_2*%
X345587320Y-252374400D03*
%TO.P,J12,B26*%
%TO.N,B26_2*%
X345587320Y-254914400D03*
%TO.P,J12,B28*%
%TO.N,B28_2*%
X345587320Y-257454400D03*
%TO.P,J12,B30*%
%TO.N,B30_2*%
X345587320Y-259994400D03*
%TO.P,J12,B32*%
%TO.N,B32_2*%
X345587320Y-262534400D03*
%TO.P,J12,B34*%
%TO.N,B34_2*%
X345587320Y-265074400D03*
%TO.P,J12,B36*%
%TO.N,B36_2*%
X345587320Y-267614400D03*
%TO.P,J12,B38*%
%TO.N,B38_2*%
X345587320Y-270154400D03*
%TO.P,J12,B40*%
%TO.N,B40_2*%
X345587320Y-272694400D03*
%TO.P,J12,B42*%
%TO.N,B42_2*%
X345587320Y-275234400D03*
%TO.P,J12,B44*%
%TO.N,B44_2*%
X345587320Y-277774400D03*
%TO.P,J12,B46*%
%TO.N,B46_2*%
X345587320Y-280314400D03*
%TO.P,J12,B48*%
%TO.N,B48_2*%
X345587320Y-282854400D03*
%TO.P,J12,B50*%
%TO.N,B50_2*%
X345587320Y-285394400D03*
%TO.P,J12,A1*%
%TO.N,A1_2*%
X339872320Y-223164400D03*
%TO.P,J12,A3*%
%TO.N,A3_2*%
X339872320Y-225704400D03*
%TO.P,J12,A5*%
%TO.N,A5_2*%
X339872320Y-228244400D03*
%TO.P,J12,A7*%
%TO.N,A7_2*%
X339872320Y-230784400D03*
%TO.P,J12,A9*%
%TO.N,A9_2*%
X339872320Y-233324400D03*
%TO.P,J12,A11*%
%TO.N,A11_2*%
X339872320Y-235864400D03*
%TO.P,J12,A13*%
%TO.N,A13_2*%
X339872320Y-238404400D03*
%TO.P,J12,A15*%
%TO.N,A15_2*%
X339872320Y-240944400D03*
%TO.P,J12,A17*%
%TO.N,A17_2*%
X339872320Y-243484400D03*
%TO.P,J12,A19*%
%TO.N,A19_2*%
X339872320Y-246024400D03*
%TO.P,J12,A21*%
%TO.N,A21_2*%
X339872320Y-248564400D03*
%TO.P,J12,A23*%
%TO.N,A23_2*%
X339872320Y-251104400D03*
%TO.P,J12,A25*%
%TO.N,A25_2*%
X339872320Y-253644400D03*
%TO.P,J12,A27*%
%TO.N,A27_2*%
X339872320Y-256184400D03*
%TO.P,J12,A29*%
%TO.N,A29_2*%
X339872320Y-258724400D03*
%TO.P,J12,A31*%
%TO.N,A31_2*%
X339872320Y-261264400D03*
%TO.P,J12,A33*%
%TO.N,A33_2*%
X339872320Y-263804400D03*
%TO.P,J12,A35*%
%TO.N,A35_2*%
X339872320Y-266344400D03*
%TO.P,J12,A37*%
%TO.N,A37_2*%
X339872320Y-268884400D03*
%TO.P,J12,A39*%
%TO.N,A39_2*%
X339872320Y-271424400D03*
%TO.P,J12,A41*%
%TO.N,A41_2*%
X339872320Y-273964400D03*
%TO.P,J12,A43*%
%TO.N,A43_2*%
X339872320Y-276504400D03*
%TO.P,J12,A45*%
%TO.N,A45_2*%
X339872320Y-279044400D03*
%TO.P,J12,A47*%
%TO.N,A47_2*%
X339872320Y-281584400D03*
%TO.P,J12,A49*%
%TO.N,A49_2*%
X339872320Y-284124400D03*
%TO.P,J12,A2*%
%TO.N,A2_2*%
X341777320Y-224434400D03*
%TO.P,J12,A4*%
%TO.N,A4_2*%
X341777320Y-226974400D03*
%TO.P,J12,A6*%
%TO.N,A6_2*%
X341777320Y-229514400D03*
%TO.P,J12,A8*%
%TO.N,A8_2*%
X341777320Y-232054400D03*
%TO.P,J12,A10*%
%TO.N,A10_2*%
X341777320Y-234594400D03*
%TO.P,J12,A12*%
%TO.N,A12_2*%
X341777320Y-237134400D03*
%TO.P,J12,A14*%
%TO.N,A14_2*%
X341777320Y-239674400D03*
%TO.P,J12,A16*%
%TO.N,A16_2*%
X341777320Y-242214400D03*
%TO.P,J12,A18*%
%TO.N,A18_2*%
X341777320Y-244754400D03*
%TO.P,J12,A20*%
%TO.N,A20_2*%
X341777320Y-247294400D03*
%TO.P,J12,A22*%
%TO.N,A22_2*%
X341777320Y-249834400D03*
%TO.P,J12,A24*%
%TO.N,A24_2*%
X341777320Y-252374400D03*
%TO.P,J12,A26*%
%TO.N,A26_2*%
X341777320Y-254914400D03*
%TO.P,J12,A28*%
%TO.N,A28_2*%
X341777320Y-257454400D03*
%TO.P,J12,A30*%
%TO.N,A30_2*%
X341777320Y-259994400D03*
%TO.P,J12,A32*%
%TO.N,A32_2*%
X341777320Y-262534400D03*
%TO.P,J12,A34*%
%TO.N,A34_2*%
X341777320Y-265074400D03*
%TO.P,J12,A36*%
%TO.N,A36_2*%
X341777320Y-267614400D03*
%TO.P,J12,A38*%
%TO.N,A38_2*%
X341777320Y-270154400D03*
%TO.P,J12,A40*%
%TO.N,A40_2*%
X341777320Y-272694400D03*
%TO.P,J12,A42*%
%TO.N,A42_2*%
X341777320Y-275234400D03*
%TO.P,J12,A44*%
%TO.N,A44_2*%
X341777320Y-277774400D03*
%TO.P,J12,A46*%
%TO.N,A46_2*%
X341777320Y-280314400D03*
%TO.P,J12,A48*%
%TO.N,A48_2*%
X341777320Y-282854400D03*
%TO.P,J12,A50*%
%TO.N,A50_2*%
X341777320Y-285394400D03*
%TO.P,J12,B1*%
%TO.N,B1_2*%
X343682320Y-223164400D03*
%TO.P,J12,B3*%
%TO.N,B3_2*%
X343682320Y-225704400D03*
%TO.P,J12,B5*%
%TO.N,B5_2*%
X343682320Y-228244400D03*
%TO.P,J12,B7*%
%TO.N,B7_2*%
X343682320Y-230784400D03*
%TO.P,J12,B9*%
%TO.N,B9_2*%
X343682320Y-233324400D03*
%TO.P,J12,B11*%
%TO.N,B11_2*%
X343682320Y-235864400D03*
%TO.P,J12,B13*%
%TO.N,B13_2*%
X343682320Y-238404400D03*
%TO.P,J12,B15*%
%TO.N,B15_2*%
X343682320Y-240944400D03*
%TO.P,J12,B17*%
%TO.N,B17_2*%
X343682320Y-243484400D03*
%TO.P,J12,B19*%
%TO.N,B19_2*%
X343682320Y-246024400D03*
%TO.P,J12,B21*%
%TO.N,B21_2*%
X343682320Y-248564400D03*
%TO.P,J12,B23*%
%TO.N,B23_2*%
X343682320Y-251104400D03*
%TO.P,J12,B25*%
%TO.N,B25_2*%
X343682320Y-253644400D03*
%TO.P,J12,B27*%
%TO.N,B27_2*%
X343682320Y-256184400D03*
%TO.P,J12,B29*%
%TO.N,B29_2*%
X343682320Y-258724400D03*
%TO.P,J12,B31*%
%TO.N,B31_2*%
X343682320Y-261264400D03*
%TO.P,J12,B33*%
%TO.N,B33_2*%
X343682320Y-263804400D03*
%TO.P,J12,B35*%
%TO.N,B35_2*%
X343682320Y-266344400D03*
%TO.P,J12,B37*%
%TO.N,B37_2*%
X343682320Y-268884400D03*
%TO.P,J12,B39*%
%TO.N,B39_2*%
X343682320Y-271424400D03*
%TO.P,J12,B41*%
%TO.N,B41_2*%
X343682320Y-273964400D03*
%TO.P,J12,B43*%
%TO.N,B43_2*%
X343682320Y-276504400D03*
%TO.P,J12,B45*%
%TO.N,B45_2*%
X343682320Y-279044400D03*
%TO.P,J12,B47*%
%TO.N,B47_2*%
X343682320Y-281584400D03*
%TO.P,J12,B49*%
%TO.N,B49_2*%
X343682320Y-284124400D03*
%TD*%
D12*
%TO.P,J3,25*%
%TO.N,B49*%
X138488840Y-156320860D03*
%TO.P,J3,24*%
%TO.N,B47*%
X138488840Y-153780860D03*
%TO.P,J3,23*%
%TO.N,B45*%
X138488840Y-151240860D03*
%TO.P,J3,22*%
%TO.N,B43*%
X138488840Y-148700860D03*
%TO.P,J3,21*%
%TO.N,B41*%
X138488840Y-146160860D03*
%TO.P,J3,20*%
%TO.N,B39*%
X138488840Y-143620860D03*
%TO.P,J3,19*%
%TO.N,B37*%
X138488840Y-141080860D03*
%TO.P,J3,18*%
%TO.N,B35*%
X138488840Y-138540860D03*
%TO.P,J3,17*%
%TO.N,B33*%
X138488840Y-136000860D03*
%TO.P,J3,16*%
%TO.N,B31*%
X138488840Y-133460860D03*
%TO.P,J3,15*%
%TO.N,B29*%
X138488840Y-130920860D03*
%TO.P,J3,14*%
%TO.N,B27*%
X138488840Y-128380860D03*
%TO.P,J3,13*%
%TO.N,B25*%
X138488840Y-125840860D03*
%TO.P,J3,12*%
%TO.N,B23*%
X138488840Y-123300860D03*
%TO.P,J3,11*%
%TO.N,B21*%
X138488840Y-120760860D03*
%TO.P,J3,10*%
%TO.N,B19*%
X138488840Y-118220860D03*
%TO.P,J3,9*%
%TO.N,B17*%
X138488840Y-115680860D03*
%TO.P,J3,8*%
%TO.N,B15*%
X138488840Y-113140860D03*
%TO.P,J3,7*%
%TO.N,B13*%
X138488840Y-110600860D03*
%TO.P,J3,6*%
%TO.N,B11*%
X138488840Y-108060860D03*
%TO.P,J3,5*%
%TO.N,B9*%
X138488840Y-105520860D03*
%TO.P,J3,4*%
%TO.N,B7*%
X138488840Y-102980860D03*
%TO.P,J3,3*%
%TO.N,B5*%
X138488840Y-100440860D03*
%TO.P,J3,2*%
%TO.N,B3*%
X138488840Y-97900860D03*
D13*
%TO.P,J3,1*%
%TO.N,B1*%
X138488840Y-95360860D03*
%TD*%
%TO.P,J5,1*%
%TO.N,B2*%
X134763840Y-96635860D03*
D12*
%TO.P,J5,2*%
%TO.N,B4*%
X134763840Y-99175860D03*
%TO.P,J5,3*%
%TO.N,B6*%
X134763840Y-101715860D03*
%TO.P,J5,4*%
%TO.N,B8*%
X134763840Y-104255860D03*
%TO.P,J5,5*%
%TO.N,B10*%
X134763840Y-106795860D03*
%TO.P,J5,6*%
%TO.N,B12*%
X134763840Y-109335860D03*
%TO.P,J5,7*%
%TO.N,B14*%
X134763840Y-111875860D03*
%TO.P,J5,8*%
%TO.N,B16*%
X134763840Y-114415860D03*
%TO.P,J5,9*%
%TO.N,B18*%
X134763840Y-116955860D03*
%TO.P,J5,10*%
%TO.N,B20*%
X134763840Y-119495860D03*
%TO.P,J5,11*%
%TO.N,B22*%
X134763840Y-122035860D03*
%TO.P,J5,12*%
%TO.N,B24*%
X134763840Y-124575860D03*
%TO.P,J5,13*%
%TO.N,B26*%
X134763840Y-127115860D03*
%TO.P,J5,14*%
%TO.N,B28*%
X134763840Y-129655860D03*
%TO.P,J5,15*%
%TO.N,B30*%
X134763840Y-132195860D03*
%TO.P,J5,16*%
%TO.N,B32*%
X134763840Y-134735860D03*
%TO.P,J5,17*%
%TO.N,B34*%
X134763840Y-137275860D03*
%TO.P,J5,18*%
%TO.N,B36*%
X134763840Y-139815860D03*
%TO.P,J5,19*%
%TO.N,B38*%
X134763840Y-142355860D03*
%TO.P,J5,20*%
%TO.N,B40*%
X134763840Y-144895860D03*
%TO.P,J5,21*%
%TO.N,B42*%
X134763840Y-147435860D03*
%TO.P,J5,22*%
%TO.N,B44*%
X134763840Y-149975860D03*
%TO.P,J5,23*%
%TO.N,B46*%
X134763840Y-152515860D03*
%TO.P,J5,24*%
%TO.N,B48*%
X134763840Y-155055860D03*
%TO.P,J5,25*%
%TO.N,B50*%
X134763840Y-157595860D03*
%TD*%
%TO.P,J4,25*%
%TO.N,A49*%
X145938840Y-156320860D03*
%TO.P,J4,24*%
%TO.N,A47*%
X145938840Y-153780860D03*
%TO.P,J4,23*%
%TO.N,A45*%
X145938840Y-151240860D03*
%TO.P,J4,22*%
%TO.N,A43*%
X145938840Y-148700860D03*
%TO.P,J4,21*%
%TO.N,A41*%
X145938840Y-146160860D03*
%TO.P,J4,20*%
%TO.N,A39*%
X145938840Y-143620860D03*
%TO.P,J4,19*%
%TO.N,A37*%
X145938840Y-141080860D03*
%TO.P,J4,18*%
%TO.N,A35*%
X145938840Y-138540860D03*
%TO.P,J4,17*%
%TO.N,A33*%
X145938840Y-136000860D03*
%TO.P,J4,16*%
%TO.N,A31*%
X145938840Y-133460860D03*
%TO.P,J4,15*%
%TO.N,A29*%
X145938840Y-130920860D03*
%TO.P,J4,14*%
%TO.N,A27*%
X145938840Y-128380860D03*
%TO.P,J4,13*%
%TO.N,A25*%
X145938840Y-125840860D03*
%TO.P,J4,12*%
%TO.N,A23*%
X145938840Y-123300860D03*
%TO.P,J4,11*%
%TO.N,A21*%
X145938840Y-120760860D03*
%TO.P,J4,10*%
%TO.N,A19*%
X145938840Y-118220860D03*
%TO.P,J4,9*%
%TO.N,A17*%
X145938840Y-115680860D03*
%TO.P,J4,8*%
%TO.N,A15*%
X145938840Y-113140860D03*
%TO.P,J4,7*%
%TO.N,A13*%
X145938840Y-110600860D03*
%TO.P,J4,6*%
%TO.N,A11*%
X145938840Y-108060860D03*
%TO.P,J4,5*%
%TO.N,A9*%
X145938840Y-105520860D03*
%TO.P,J4,4*%
%TO.N,A7*%
X145938840Y-102980860D03*
%TO.P,J4,3*%
%TO.N,A5*%
X145938840Y-100440860D03*
%TO.P,J4,2*%
%TO.N,A3*%
X145938840Y-97900860D03*
D13*
%TO.P,J4,1*%
%TO.N,A1*%
X145938840Y-95360860D03*
%TD*%
%TO.P,J6,1*%
%TO.N,A2*%
X142213840Y-96635860D03*
D12*
%TO.P,J6,2*%
%TO.N,A4*%
X142213840Y-99175860D03*
%TO.P,J6,3*%
%TO.N,A6*%
X142213840Y-101715860D03*
%TO.P,J6,4*%
%TO.N,A8*%
X142213840Y-104255860D03*
%TO.P,J6,5*%
%TO.N,A10*%
X142213840Y-106795860D03*
%TO.P,J6,6*%
%TO.N,A12*%
X142213840Y-109335860D03*
%TO.P,J6,7*%
%TO.N,A14*%
X142213840Y-111875860D03*
%TO.P,J6,8*%
%TO.N,A16*%
X142213840Y-114415860D03*
%TO.P,J6,9*%
%TO.N,A18*%
X142213840Y-116955860D03*
%TO.P,J6,10*%
%TO.N,A20*%
X142213840Y-119495860D03*
%TO.P,J6,11*%
%TO.N,A22*%
X142213840Y-122035860D03*
%TO.P,J6,12*%
%TO.N,A24*%
X142213840Y-124575860D03*
%TO.P,J6,13*%
%TO.N,A26*%
X142213840Y-127115860D03*
%TO.P,J6,14*%
%TO.N,A28*%
X142213840Y-129655860D03*
%TO.P,J6,15*%
%TO.N,A30*%
X142213840Y-132195860D03*
%TO.P,J6,16*%
%TO.N,A32*%
X142213840Y-134735860D03*
%TO.P,J6,17*%
%TO.N,A34*%
X142213840Y-137275860D03*
%TO.P,J6,18*%
%TO.N,A36*%
X142213840Y-139815860D03*
%TO.P,J6,19*%
%TO.N,A38*%
X142213840Y-142355860D03*
%TO.P,J6,20*%
%TO.N,A40*%
X142213840Y-144895860D03*
%TO.P,J6,21*%
%TO.N,A42*%
X142213840Y-147435860D03*
%TO.P,J6,22*%
%TO.N,A44*%
X142213840Y-149975860D03*
%TO.P,J6,23*%
%TO.N,A46*%
X142213840Y-152515860D03*
%TO.P,J6,24*%
%TO.N,A48*%
X142213840Y-155055860D03*
%TO.P,J6,25*%
%TO.N,A50*%
X142213840Y-157595860D03*
%TD*%
D14*
%TO.P,H2,S*%
%TO.N,N/C*%
X127274000Y-75722360D03*
X132274000Y-75722360D03*
X132274000Y-83222360D03*
X127274000Y-83222360D03*
%TD*%
%TO.P,H1,S*%
%TO.N,N/C*%
X127274000Y-305122360D03*
X132274000Y-305122360D03*
X132274000Y-297622360D03*
X127274000Y-297622360D03*
%TD*%
D12*
%TO.P,J13,25*%
%TO.N,B49_2*%
X138488840Y-284123500D03*
%TO.P,J13,24*%
%TO.N,B47_2*%
X138488840Y-281583500D03*
%TO.P,J13,23*%
%TO.N,B45_2*%
X138488840Y-279043500D03*
%TO.P,J13,22*%
%TO.N,B43_2*%
X138488840Y-276503500D03*
%TO.P,J13,21*%
%TO.N,B41_2*%
X138488840Y-273963500D03*
%TO.P,J13,20*%
%TO.N,B39_2*%
X138488840Y-271423500D03*
%TO.P,J13,19*%
%TO.N,B37_2*%
X138488840Y-268883500D03*
%TO.P,J13,18*%
%TO.N,B35_2*%
X138488840Y-266343500D03*
%TO.P,J13,17*%
%TO.N,B33_2*%
X138488840Y-263803500D03*
%TO.P,J13,16*%
%TO.N,B31_2*%
X138488840Y-261263500D03*
%TO.P,J13,15*%
%TO.N,B29_2*%
X138488840Y-258723500D03*
%TO.P,J13,14*%
%TO.N,B27_2*%
X138488840Y-256183500D03*
%TO.P,J13,13*%
%TO.N,B25_2*%
X138488840Y-253643500D03*
%TO.P,J13,12*%
%TO.N,B23_2*%
X138488840Y-251103500D03*
%TO.P,J13,11*%
%TO.N,B21_2*%
X138488840Y-248563500D03*
%TO.P,J13,10*%
%TO.N,B19_2*%
X138488840Y-246023500D03*
%TO.P,J13,9*%
%TO.N,B17_2*%
X138488840Y-243483500D03*
%TO.P,J13,8*%
%TO.N,B15_2*%
X138488840Y-240943500D03*
%TO.P,J13,7*%
%TO.N,B13_2*%
X138488840Y-238403500D03*
%TO.P,J13,6*%
%TO.N,B11_2*%
X138488840Y-235863500D03*
%TO.P,J13,5*%
%TO.N,B9_2*%
X138488840Y-233323500D03*
%TO.P,J13,4*%
%TO.N,B7_2*%
X138488840Y-230783500D03*
%TO.P,J13,3*%
%TO.N,B5_2*%
X138488840Y-228243500D03*
%TO.P,J13,2*%
%TO.N,B3_2*%
X138488840Y-225703500D03*
D13*
%TO.P,J13,1*%
%TO.N,B1_2*%
X138488840Y-223163500D03*
%TD*%
D12*
%TO.P,J14,25*%
%TO.N,A49_2*%
X145938840Y-284123500D03*
%TO.P,J14,24*%
%TO.N,A47_2*%
X145938840Y-281583500D03*
%TO.P,J14,23*%
%TO.N,A45_2*%
X145938840Y-279043500D03*
%TO.P,J14,22*%
%TO.N,A43_2*%
X145938840Y-276503500D03*
%TO.P,J14,21*%
%TO.N,A41_2*%
X145938840Y-273963500D03*
%TO.P,J14,20*%
%TO.N,A39_2*%
X145938840Y-271423500D03*
%TO.P,J14,19*%
%TO.N,A37_2*%
X145938840Y-268883500D03*
%TO.P,J14,18*%
%TO.N,A35_2*%
X145938840Y-266343500D03*
%TO.P,J14,17*%
%TO.N,A33_2*%
X145938840Y-263803500D03*
%TO.P,J14,16*%
%TO.N,A31_2*%
X145938840Y-261263500D03*
%TO.P,J14,15*%
%TO.N,A29_2*%
X145938840Y-258723500D03*
%TO.P,J14,14*%
%TO.N,A27_2*%
X145938840Y-256183500D03*
%TO.P,J14,13*%
%TO.N,A25_2*%
X145938840Y-253643500D03*
%TO.P,J14,12*%
%TO.N,A23_2*%
X145938840Y-251103500D03*
%TO.P,J14,11*%
%TO.N,A21_2*%
X145938840Y-248563500D03*
%TO.P,J14,10*%
%TO.N,A19_2*%
X145938840Y-246023500D03*
%TO.P,J14,9*%
%TO.N,A17_2*%
X145938840Y-243483500D03*
%TO.P,J14,8*%
%TO.N,A15_2*%
X145938840Y-240943500D03*
%TO.P,J14,7*%
%TO.N,A13_2*%
X145938840Y-238403500D03*
%TO.P,J14,6*%
%TO.N,A11_2*%
X145938840Y-235863500D03*
%TO.P,J14,5*%
%TO.N,A9_2*%
X145938840Y-233323500D03*
%TO.P,J14,4*%
%TO.N,A7_2*%
X145938840Y-230783500D03*
%TO.P,J14,3*%
%TO.N,A5_2*%
X145938840Y-228243500D03*
%TO.P,J14,2*%
%TO.N,A3_2*%
X145938840Y-225703500D03*
D13*
%TO.P,J14,1*%
%TO.N,A1_2*%
X145938840Y-223163500D03*
%TD*%
%TO.P,J15,1*%
%TO.N,B2_2*%
X134763840Y-224438500D03*
D12*
%TO.P,J15,2*%
%TO.N,B4_2*%
X134763840Y-226978500D03*
%TO.P,J15,3*%
%TO.N,B6_2*%
X134763840Y-229518500D03*
%TO.P,J15,4*%
%TO.N,B8_2*%
X134763840Y-232058500D03*
%TO.P,J15,5*%
%TO.N,B10_2*%
X134763840Y-234598500D03*
%TO.P,J15,6*%
%TO.N,B12_2*%
X134763840Y-237138500D03*
%TO.P,J15,7*%
%TO.N,B14_2*%
X134763840Y-239678500D03*
%TO.P,J15,8*%
%TO.N,B16_2*%
X134763840Y-242218500D03*
%TO.P,J15,9*%
%TO.N,B18_2*%
X134763840Y-244758500D03*
%TO.P,J15,10*%
%TO.N,B20_2*%
X134763840Y-247298500D03*
%TO.P,J15,11*%
%TO.N,B22_2*%
X134763840Y-249838500D03*
%TO.P,J15,12*%
%TO.N,B24_2*%
X134763840Y-252378500D03*
%TO.P,J15,13*%
%TO.N,B26_2*%
X134763840Y-254918500D03*
%TO.P,J15,14*%
%TO.N,B28_2*%
X134763840Y-257458500D03*
%TO.P,J15,15*%
%TO.N,B30_2*%
X134763840Y-259998500D03*
%TO.P,J15,16*%
%TO.N,B32_2*%
X134763840Y-262538500D03*
%TO.P,J15,17*%
%TO.N,B34_2*%
X134763840Y-265078500D03*
%TO.P,J15,18*%
%TO.N,B36_2*%
X134763840Y-267618500D03*
%TO.P,J15,19*%
%TO.N,B38_2*%
X134763840Y-270158500D03*
%TO.P,J15,20*%
%TO.N,B40_2*%
X134763840Y-272698500D03*
%TO.P,J15,21*%
%TO.N,B42_2*%
X134763840Y-275238500D03*
%TO.P,J15,22*%
%TO.N,B44_2*%
X134763840Y-277778500D03*
%TO.P,J15,23*%
%TO.N,B46_2*%
X134763840Y-280318500D03*
%TO.P,J15,24*%
%TO.N,B48_2*%
X134763840Y-282858500D03*
%TO.P,J15,25*%
%TO.N,B50_2*%
X134763840Y-285398500D03*
%TD*%
D13*
%TO.P,J16,1*%
%TO.N,A2_2*%
X142213840Y-224438500D03*
D12*
%TO.P,J16,2*%
%TO.N,A4_2*%
X142213840Y-226978500D03*
%TO.P,J16,3*%
%TO.N,A6_2*%
X142213840Y-229518500D03*
%TO.P,J16,4*%
%TO.N,A8_2*%
X142213840Y-232058500D03*
%TO.P,J16,5*%
%TO.N,A10_2*%
X142213840Y-234598500D03*
%TO.P,J16,6*%
%TO.N,A12_2*%
X142213840Y-237138500D03*
%TO.P,J16,7*%
%TO.N,A14_2*%
X142213840Y-239678500D03*
%TO.P,J16,8*%
%TO.N,A16_2*%
X142213840Y-242218500D03*
%TO.P,J16,9*%
%TO.N,A18_2*%
X142213840Y-244758500D03*
%TO.P,J16,10*%
%TO.N,A20_2*%
X142213840Y-247298500D03*
%TO.P,J16,11*%
%TO.N,A22_2*%
X142213840Y-249838500D03*
%TO.P,J16,12*%
%TO.N,A24_2*%
X142213840Y-252378500D03*
%TO.P,J16,13*%
%TO.N,A26_2*%
X142213840Y-254918500D03*
%TO.P,J16,14*%
%TO.N,A28_2*%
X142213840Y-257458500D03*
%TO.P,J16,15*%
%TO.N,A30_2*%
X142213840Y-259998500D03*
%TO.P,J16,16*%
%TO.N,A32_2*%
X142213840Y-262538500D03*
%TO.P,J16,17*%
%TO.N,A34_2*%
X142213840Y-265078500D03*
%TO.P,J16,18*%
%TO.N,A36_2*%
X142213840Y-267618500D03*
%TO.P,J16,19*%
%TO.N,A38_2*%
X142213840Y-270158500D03*
%TO.P,J16,20*%
%TO.N,A40_2*%
X142213840Y-272698500D03*
%TO.P,J16,21*%
%TO.N,A42_2*%
X142213840Y-275238500D03*
%TO.P,J16,22*%
%TO.N,A44_2*%
X142213840Y-277778500D03*
%TO.P,J16,23*%
%TO.N,A46_2*%
X142213840Y-280318500D03*
%TO.P,J16,24*%
%TO.N,A48_2*%
X142213840Y-282858500D03*
%TO.P,J16,25*%
%TO.N,A50_2*%
X142213840Y-285398500D03*
%TD*%
D15*
%TO.N,A50*%
X128456300Y-157593400D02*
X132156300Y-157593400D01*
X137496300Y-157598400D02*
X142211300Y-157598400D01*
X136236300Y-156338400D02*
X137496300Y-157598400D01*
X133411300Y-156338400D02*
X136236300Y-156338400D01*
X132156300Y-157593400D02*
X133411300Y-156338400D01*
X142211300Y-157598400D02*
X341770700Y-157598400D01*
X341770700Y-157598400D02*
X341775700Y-157593400D01*
%TO.N,A48*%
X128456300Y-155053400D02*
X132196300Y-155053400D01*
X137156300Y-155058400D02*
X142211300Y-155058400D01*
X135886300Y-153788400D02*
X137156300Y-155058400D01*
X133461300Y-153788400D02*
X135886300Y-153788400D01*
X132196300Y-155053400D02*
X133461300Y-153788400D01*
X146894260Y-155058400D02*
X147546060Y-154406600D01*
X338528660Y-154406600D02*
X339180460Y-155058400D01*
X142211300Y-155058400D02*
X146894260Y-155058400D01*
X339180460Y-155058400D02*
X341770700Y-155058400D01*
X147546060Y-154406600D02*
X338528660Y-154406600D01*
X341770700Y-155058400D02*
X341775700Y-155053400D01*
%TO.N,A46*%
X137016300Y-152518400D02*
X142211300Y-152518400D01*
X135761300Y-151263400D02*
X137016300Y-152518400D01*
X133086300Y-151263400D02*
X135761300Y-151263400D01*
X131836300Y-152513400D02*
X133086300Y-151263400D01*
X128456300Y-152513400D02*
X131836300Y-152513400D01*
X341770700Y-152518400D02*
X341775700Y-152513400D01*
X147275260Y-152518400D02*
X147914360Y-151879300D01*
X142211300Y-152518400D02*
X147275260Y-152518400D01*
X147914360Y-151879300D02*
X338363560Y-151879300D01*
X338363560Y-151879300D02*
X339002660Y-152518400D01*
X339002660Y-152518400D02*
X341770700Y-152518400D01*
%TO.N,A44*%
X147901660Y-149339300D02*
X338304560Y-149339300D01*
X147262560Y-149978400D02*
X147901660Y-149339300D01*
X128456300Y-149973400D02*
X131951300Y-149973400D01*
X137201300Y-149978400D02*
X142211300Y-149978400D01*
X135936300Y-148713400D02*
X137201300Y-149978400D01*
X133211300Y-148713400D02*
X135936300Y-148713400D01*
X131951300Y-149973400D02*
X133211300Y-148713400D01*
X338943660Y-149978400D02*
X341770700Y-149978400D01*
X142211300Y-149978400D02*
X147262560Y-149978400D01*
X338304560Y-149339300D02*
X338943660Y-149978400D01*
X341770700Y-149978400D02*
X341775700Y-149973400D01*
%TO.N,A42*%
X128456300Y-147433400D02*
X131816300Y-147433400D01*
X137336300Y-147438400D02*
X142211300Y-147438400D01*
X136061300Y-146163400D02*
X137336300Y-147438400D01*
X133086300Y-146163400D02*
X136061300Y-146163400D01*
X131816300Y-147433400D02*
X133086300Y-146163400D01*
X341770700Y-147438400D02*
X341775700Y-147433400D01*
X337982560Y-146799300D02*
X338621660Y-147438400D01*
X147876260Y-146799300D02*
X337982560Y-146799300D01*
X338621660Y-147438400D02*
X341770700Y-147438400D01*
X147237160Y-147438400D02*
X147876260Y-146799300D01*
X142211300Y-147438400D02*
X147237160Y-147438400D01*
%TO.N,A40*%
X128456300Y-144893400D02*
X131856300Y-144893400D01*
X137371300Y-144898400D02*
X142211300Y-144898400D01*
X136111300Y-143638400D02*
X137371300Y-144898400D01*
X133111300Y-143638400D02*
X136111300Y-143638400D01*
X131856300Y-144893400D02*
X133111300Y-143638400D01*
X339256660Y-144898400D02*
X341770700Y-144898400D01*
X341770700Y-144898400D02*
X341775700Y-144893400D01*
X338617560Y-144259300D02*
X339256660Y-144898400D01*
X142211300Y-144898400D02*
X147046660Y-144898400D01*
X147685760Y-144259300D02*
X338617560Y-144259300D01*
X147046660Y-144898400D02*
X147685760Y-144259300D01*
%TO.N,A38*%
X128456300Y-142353400D02*
X131821300Y-142353400D01*
X137106300Y-142358400D02*
X142211300Y-142358400D01*
X135836300Y-141088400D02*
X137106300Y-142358400D01*
X133086300Y-141088400D02*
X135836300Y-141088400D01*
X131821300Y-142353400D02*
X133086300Y-141088400D01*
X341770700Y-142358400D02*
X341775700Y-142353400D01*
X338122260Y-141693900D02*
X338786760Y-142358400D01*
X147072060Y-142358400D02*
X147736560Y-141693900D01*
X142211300Y-142358400D02*
X147072060Y-142358400D01*
X147736560Y-141693900D02*
X338122260Y-141693900D01*
X338786760Y-142358400D02*
X341770700Y-142358400D01*
%TO.N,A36*%
X128456300Y-139813400D02*
X131836300Y-139813400D01*
X137291300Y-139818400D02*
X142211300Y-139818400D01*
X136036300Y-138563400D02*
X137291300Y-139818400D01*
X133086300Y-138563400D02*
X136036300Y-138563400D01*
X131836300Y-139813400D02*
X133086300Y-138563400D01*
X341770700Y-139818400D02*
X341775700Y-139813400D01*
X146767260Y-139818400D02*
X147406360Y-139179300D01*
X147406360Y-139179300D02*
X338566760Y-139179300D01*
X339205860Y-139818400D02*
X341770700Y-139818400D01*
X142211300Y-139818400D02*
X146767260Y-139818400D01*
X338566760Y-139179300D02*
X339205860Y-139818400D01*
%TO.N,A34*%
X128456300Y-137273400D02*
X131776300Y-137273400D01*
X137251300Y-137278400D02*
X142211300Y-137278400D01*
X135986300Y-136013400D02*
X137251300Y-137278400D01*
X133036300Y-136013400D02*
X135986300Y-136013400D01*
X131776300Y-137273400D02*
X133036300Y-136013400D01*
X341770700Y-137278400D02*
X341775700Y-137273400D01*
X147787360Y-136639300D02*
X338109560Y-136639300D01*
X147148260Y-137278400D02*
X147787360Y-136639300D01*
X338109560Y-136639300D02*
X338748660Y-137278400D01*
X338748660Y-137278400D02*
X341770700Y-137278400D01*
X142211300Y-137278400D02*
X147148260Y-137278400D01*
%TO.N,A32*%
X128456300Y-134733400D02*
X131841300Y-134733400D01*
X137261300Y-134738400D02*
X142211300Y-134738400D01*
X135986300Y-133463400D02*
X137261300Y-134738400D01*
X133111300Y-133463400D02*
X135986300Y-133463400D01*
X131841300Y-134733400D02*
X133111300Y-133463400D01*
X147711160Y-134112000D02*
X338528660Y-134112000D01*
X147084760Y-134738400D02*
X147711160Y-134112000D01*
X142211300Y-134738400D02*
X147084760Y-134738400D01*
X338528660Y-134112000D02*
X339155060Y-134738400D01*
X339155060Y-134738400D02*
X341770700Y-134738400D01*
X341770700Y-134738400D02*
X341775700Y-134733400D01*
%TO.N,A30*%
X147634960Y-131546600D02*
X338388960Y-131546600D01*
X339040760Y-132198400D02*
X341770700Y-132198400D01*
X338388960Y-131546600D02*
X339040760Y-132198400D01*
X128456300Y-132193400D02*
X132256300Y-132193400D01*
X137271300Y-132198400D02*
X142211300Y-132198400D01*
X136011300Y-130938400D02*
X137271300Y-132198400D01*
X133511300Y-130938400D02*
X136011300Y-130938400D01*
X132256300Y-132193400D02*
X133511300Y-130938400D01*
X146983160Y-132198400D02*
X147634960Y-131546600D01*
X341770700Y-132198400D02*
X341775700Y-132193400D01*
X142211300Y-132198400D02*
X146983160Y-132198400D01*
%TO.N,A28*%
X341770700Y-129658400D02*
X341775700Y-129653400D01*
X338325460Y-128993900D02*
X338989960Y-129658400D01*
X128456300Y-129653400D02*
X132346300Y-129653400D01*
X137131300Y-129658400D02*
X142211300Y-129658400D01*
X135861300Y-128388400D02*
X137131300Y-129658400D01*
X133611300Y-128388400D02*
X135861300Y-128388400D01*
X132346300Y-129653400D02*
X133611300Y-128388400D01*
X147609560Y-128993900D02*
X338325460Y-128993900D01*
X146945060Y-129658400D02*
X147609560Y-128993900D01*
X142211300Y-129658400D02*
X146945060Y-129658400D01*
X338989960Y-129658400D02*
X341770700Y-129658400D01*
%TO.N,A26*%
X147787360Y-126466600D02*
X338300060Y-126466600D01*
X128456300Y-127113400D02*
X132261300Y-127113400D01*
X137141300Y-127118400D02*
X142211300Y-127118400D01*
X135886300Y-125863400D02*
X137141300Y-127118400D01*
X133511300Y-125863400D02*
X135886300Y-125863400D01*
X132261300Y-127113400D02*
X133511300Y-125863400D01*
X338300060Y-126466600D02*
X338951860Y-127118400D01*
X338951860Y-127118400D02*
X341770700Y-127118400D01*
X142211300Y-127118400D02*
X147135560Y-127118400D01*
X341770700Y-127118400D02*
X341775700Y-127113400D01*
X147135560Y-127118400D02*
X147787360Y-126466600D01*
%TO.N,A24*%
X128456300Y-124573400D02*
X132351300Y-124573400D01*
X137426300Y-124578400D02*
X142211300Y-124578400D01*
X136161300Y-123313400D02*
X137426300Y-124578400D01*
X133611300Y-123313400D02*
X136161300Y-123313400D01*
X132351300Y-124573400D02*
X133611300Y-123313400D01*
X341770700Y-124578400D02*
X341775700Y-124573400D01*
X142211300Y-124578400D02*
X146843460Y-124578400D01*
X146843460Y-124578400D02*
X147495260Y-123926600D01*
X338304560Y-123926600D02*
X338956360Y-124578400D01*
X338956360Y-124578400D02*
X341770700Y-124578400D01*
X147495260Y-123926600D02*
X338304560Y-123926600D01*
%TO.N,A22*%
X142211300Y-122038400D02*
X147110160Y-122038400D01*
X128456300Y-122033400D02*
X132416300Y-122033400D01*
X137311300Y-122038400D02*
X142211300Y-122038400D01*
X136036300Y-120763400D02*
X137311300Y-122038400D01*
X133686300Y-120763400D02*
X136036300Y-120763400D01*
X132416300Y-122033400D02*
X133686300Y-120763400D01*
X338477860Y-121386600D02*
X339129660Y-122038400D01*
X147110160Y-122038400D02*
X147761960Y-121386600D01*
X339129660Y-122038400D02*
X341770700Y-122038400D01*
X341770700Y-122038400D02*
X341775700Y-122033400D01*
X147761960Y-121386600D02*
X338477860Y-121386600D01*
%TO.N,A20*%
X128456300Y-119493400D02*
X132231300Y-119493400D01*
X137221300Y-119498400D02*
X142211300Y-119498400D01*
X135961300Y-118238400D02*
X137221300Y-119498400D01*
X133486300Y-118238400D02*
X135961300Y-118238400D01*
X132231300Y-119493400D02*
X133486300Y-118238400D01*
X338465160Y-118859300D02*
X339104260Y-119498400D01*
X147533360Y-118859300D02*
X338465160Y-118859300D01*
X142211300Y-119498400D02*
X146894260Y-119498400D01*
X146894260Y-119498400D02*
X147533360Y-118859300D01*
X341770700Y-119498400D02*
X341775700Y-119493400D01*
X339104260Y-119498400D02*
X341770700Y-119498400D01*
%TO.N,A18*%
X128456300Y-116953400D02*
X132646300Y-116953400D01*
X137206300Y-116958400D02*
X142211300Y-116958400D01*
X135936300Y-115688400D02*
X137206300Y-116958400D01*
X133911300Y-115688400D02*
X135936300Y-115688400D01*
X132646300Y-116953400D02*
X133911300Y-115688400D01*
X341770700Y-116958400D02*
X341775700Y-116953400D01*
X147059360Y-116958400D02*
X147711160Y-116306600D01*
X142211300Y-116958400D02*
X147059360Y-116958400D01*
X338427060Y-116306600D02*
X339066160Y-116945700D01*
X147711160Y-116306600D02*
X338427060Y-116306600D01*
X339066160Y-116958400D02*
X341770700Y-116958400D01*
X339066160Y-116945700D02*
X339066160Y-116958400D01*
%TO.N,A16*%
X128456300Y-114413400D02*
X132561300Y-114413400D01*
X137291300Y-114418400D02*
X142211300Y-114418400D01*
X136036300Y-113163400D02*
X137291300Y-114418400D01*
X133811300Y-113163400D02*
X136036300Y-113163400D01*
X132561300Y-114413400D02*
X133811300Y-113163400D01*
X142211300Y-114418400D02*
X146995860Y-114418400D01*
X338541360Y-113766600D02*
X339193160Y-114418400D01*
X147647660Y-113766600D02*
X338541360Y-113766600D01*
X339193160Y-114418400D02*
X341770700Y-114418400D01*
X146995860Y-114418400D02*
X147647660Y-113766600D01*
X341770700Y-114418400D02*
X341775700Y-114413400D01*
%TO.N,A14*%
X338956360Y-111819400D02*
X338956360Y-111878400D01*
X128456300Y-111873400D02*
X132251300Y-111873400D01*
X137401300Y-111878400D02*
X142211300Y-111878400D01*
X136136300Y-110613400D02*
X137401300Y-111878400D01*
X133511300Y-110613400D02*
X136136300Y-110613400D01*
X132251300Y-111873400D02*
X133511300Y-110613400D01*
X338388960Y-111252000D02*
X338956360Y-111819400D01*
X341770700Y-111878400D02*
X341775700Y-111873400D01*
X142211300Y-111878400D02*
X147033960Y-111878400D01*
X147033960Y-111878400D02*
X147660360Y-111252000D01*
X147660360Y-111252000D02*
X338388960Y-111252000D01*
X338956360Y-111878400D02*
X341770700Y-111878400D01*
%TO.N,A12*%
X128456300Y-109333400D02*
X132516300Y-109333400D01*
X137211300Y-109338400D02*
X142211300Y-109338400D01*
X135936300Y-108063400D02*
X137211300Y-109338400D01*
X133786300Y-108063400D02*
X135936300Y-108063400D01*
X132516300Y-109333400D02*
X133786300Y-108063400D01*
X147546060Y-108673900D02*
X338380760Y-108673900D01*
X338380760Y-108673900D02*
X339045260Y-109338400D01*
X341770700Y-109338400D02*
X341775700Y-109333400D01*
X339045260Y-109338400D02*
X341770700Y-109338400D01*
X142211300Y-109338400D02*
X146881560Y-109338400D01*
X146881560Y-109338400D02*
X147546060Y-108673900D01*
%TO.N,A10*%
X142211300Y-106798400D02*
X146995860Y-106798400D01*
X128456300Y-106793400D02*
X132131300Y-106793400D01*
X137396300Y-106798400D02*
X142211300Y-106798400D01*
X136111300Y-105513400D02*
X137396300Y-106798400D01*
X133411300Y-105513400D02*
X136111300Y-105513400D01*
X132131300Y-106793400D02*
X133411300Y-105513400D01*
X341770700Y-106798400D02*
X341775700Y-106793400D01*
X146995860Y-106798400D02*
X147673060Y-106121200D01*
X338888360Y-106798400D02*
X341770700Y-106798400D01*
X147673060Y-106121200D02*
X338211160Y-106121200D01*
X338211160Y-106121200D02*
X338888360Y-106798400D01*
%TO.N,A8*%
X339007160Y-104258400D02*
X341770700Y-104258400D01*
X147596860Y-103619300D02*
X338368060Y-103619300D01*
X128456300Y-104253400D02*
X131971300Y-104253400D01*
X137231300Y-104258400D02*
X142211300Y-104258400D01*
X135961300Y-102988400D02*
X137231300Y-104258400D01*
X133236300Y-102988400D02*
X135961300Y-102988400D01*
X131971300Y-104253400D02*
X133236300Y-102988400D01*
X341770700Y-104258400D02*
X341775700Y-104253400D01*
X338368060Y-103619300D02*
X339007160Y-104258400D01*
X146957760Y-104258400D02*
X147596860Y-103619300D01*
X142211300Y-104258400D02*
X146957760Y-104258400D01*
%TO.N,A6*%
X128456300Y-101713400D02*
X132211300Y-101713400D01*
X137291300Y-101718400D02*
X142211300Y-101718400D01*
X136036300Y-100463400D02*
X137291300Y-101718400D01*
X133461300Y-100463400D02*
X136036300Y-100463400D01*
X132211300Y-101713400D02*
X133461300Y-100463400D01*
X338401660Y-101066600D02*
X339053460Y-101718400D01*
X147774660Y-101066600D02*
X338401660Y-101066600D01*
X147122860Y-101718400D02*
X147774660Y-101066600D01*
X339053460Y-101718400D02*
X341770700Y-101718400D01*
X341770700Y-101718400D02*
X341775700Y-101713400D01*
X142211300Y-101718400D02*
X147122860Y-101718400D01*
%TO.N,A4*%
X147444460Y-98539300D02*
X338312760Y-98539300D01*
X128456300Y-99173400D02*
X131876300Y-99173400D01*
X137851300Y-99178400D02*
X142211300Y-99178400D01*
X136586300Y-97913400D02*
X137851300Y-99178400D01*
X133136300Y-97913400D02*
X136586300Y-97913400D01*
X131876300Y-99173400D02*
X133136300Y-97913400D01*
X142211300Y-99178400D02*
X146805360Y-99178400D01*
X341770700Y-99178400D02*
X341775700Y-99173400D01*
X338951860Y-99178400D02*
X341770700Y-99178400D01*
X338312760Y-98539300D02*
X338951860Y-99178400D01*
X146805360Y-99178400D02*
X147444460Y-98539300D01*
%TO.N,A2*%
X128456300Y-96633400D02*
X131741300Y-96633400D01*
X137186300Y-96638400D02*
X142211300Y-96638400D01*
X135861300Y-95313400D02*
X137186300Y-96638400D01*
X133061300Y-95313400D02*
X135861300Y-95313400D01*
X131741300Y-96633400D02*
X133061300Y-95313400D01*
X341770700Y-96638400D02*
X341775700Y-96633400D01*
X338913760Y-96638400D02*
X341770700Y-96638400D01*
X142211300Y-96638400D02*
X147478460Y-96638400D01*
X148168360Y-95948500D02*
X338223860Y-95948500D01*
X147478460Y-96638400D02*
X148168360Y-95948500D01*
X338223860Y-95948500D02*
X338913760Y-96638400D01*
%TO.N,A50_2*%
X128458840Y-285393500D02*
X132158840Y-285393500D01*
X137498840Y-285398500D02*
X142213840Y-285398500D01*
X136238840Y-284138500D02*
X137498840Y-285398500D01*
X133413840Y-284138500D02*
X136238840Y-284138500D01*
X132158840Y-285393500D02*
X133413840Y-284138500D01*
X341773240Y-285398500D02*
X341778240Y-285393500D01*
X142213840Y-285398500D02*
X341773240Y-285398500D01*
%TO.N,A48_2*%
X128458840Y-282853500D02*
X132198840Y-282853500D01*
X137158840Y-282858500D02*
X142213840Y-282858500D01*
X135888840Y-281588500D02*
X137158840Y-282858500D01*
X133463840Y-281588500D02*
X135888840Y-281588500D01*
X132198840Y-282853500D02*
X133463840Y-281588500D01*
X341773240Y-282858500D02*
X341778240Y-282853500D01*
X338531200Y-282206700D02*
X339183000Y-282858500D01*
X339183000Y-282858500D02*
X341773240Y-282858500D01*
X147548600Y-282206700D02*
X338531200Y-282206700D01*
X146896800Y-282858500D02*
X147548600Y-282206700D01*
X142213840Y-282858500D02*
X146896800Y-282858500D01*
%TO.N,A46_2*%
X137018840Y-280318500D02*
X142213840Y-280318500D01*
X135763840Y-279063500D02*
X137018840Y-280318500D01*
X133088840Y-279063500D02*
X135763840Y-279063500D01*
X131838840Y-280313500D02*
X133088840Y-279063500D01*
X128458840Y-280313500D02*
X131838840Y-280313500D01*
X341773240Y-280318500D02*
X341778240Y-280313500D01*
X339005200Y-280318500D02*
X341773240Y-280318500D01*
X338366100Y-279679400D02*
X339005200Y-280318500D01*
X147277800Y-280318500D02*
X147916900Y-279679400D01*
X147916900Y-279679400D02*
X338366100Y-279679400D01*
X142213840Y-280318500D02*
X147277800Y-280318500D01*
%TO.N,A44_2*%
X128458840Y-277773500D02*
X131953840Y-277773500D01*
X137203840Y-277778500D02*
X142213840Y-277778500D01*
X135938840Y-276513500D02*
X137203840Y-277778500D01*
X133213840Y-276513500D02*
X135938840Y-276513500D01*
X131953840Y-277773500D02*
X133213840Y-276513500D01*
X341773240Y-277778500D02*
X341778240Y-277773500D01*
X338946200Y-277778500D02*
X341773240Y-277778500D01*
X338307100Y-277139400D02*
X338946200Y-277778500D01*
X147904200Y-277139400D02*
X338307100Y-277139400D01*
X147265100Y-277778500D02*
X147904200Y-277139400D01*
X142213840Y-277778500D02*
X147265100Y-277778500D01*
%TO.N,A42_2*%
X128458840Y-275233500D02*
X131818840Y-275233500D01*
X137338840Y-275238500D02*
X142213840Y-275238500D01*
X136063840Y-273963500D02*
X137338840Y-275238500D01*
X133088840Y-273963500D02*
X136063840Y-273963500D01*
X131818840Y-275233500D02*
X133088840Y-273963500D01*
X338624200Y-275238500D02*
X341773240Y-275238500D01*
X337985100Y-274599400D02*
X338624200Y-275238500D01*
X341773240Y-275238500D02*
X341778240Y-275233500D01*
X147878800Y-274599400D02*
X337985100Y-274599400D01*
X147239700Y-275238500D02*
X147878800Y-274599400D01*
X142213840Y-275238500D02*
X147239700Y-275238500D01*
%TO.N,A40_2*%
X128458840Y-272693500D02*
X131858840Y-272693500D01*
X137373840Y-272698500D02*
X142213840Y-272698500D01*
X136113840Y-271438500D02*
X137373840Y-272698500D01*
X133113840Y-271438500D02*
X136113840Y-271438500D01*
X131858840Y-272693500D02*
X133113840Y-271438500D01*
X339259200Y-272698500D02*
X341773240Y-272698500D01*
X338620100Y-272059400D02*
X339259200Y-272698500D01*
X147688300Y-272059400D02*
X338620100Y-272059400D01*
X341773240Y-272698500D02*
X341778240Y-272693500D01*
X147049200Y-272698500D02*
X147688300Y-272059400D01*
X142213840Y-272698500D02*
X147049200Y-272698500D01*
%TO.N,A38_2*%
X128458840Y-270153500D02*
X131823840Y-270153500D01*
X137108840Y-270158500D02*
X142213840Y-270158500D01*
X135838840Y-268888500D02*
X137108840Y-270158500D01*
X133088840Y-268888500D02*
X135838840Y-268888500D01*
X131823840Y-270153500D02*
X133088840Y-268888500D01*
X341773240Y-270158500D02*
X341778240Y-270153500D01*
X338789300Y-270158500D02*
X341773240Y-270158500D01*
X338124800Y-269494000D02*
X338789300Y-270158500D01*
X147074600Y-270158500D02*
X147739100Y-269494000D01*
X147739100Y-269494000D02*
X338124800Y-269494000D01*
X142213840Y-270158500D02*
X147074600Y-270158500D01*
%TO.N,A36_2*%
X128458840Y-267613500D02*
X131838840Y-267613500D01*
X137293840Y-267618500D02*
X142213840Y-267618500D01*
X136038840Y-266363500D02*
X137293840Y-267618500D01*
X133088840Y-266363500D02*
X136038840Y-266363500D01*
X131838840Y-267613500D02*
X133088840Y-266363500D01*
X341773240Y-267618500D02*
X341778240Y-267613500D01*
X338569300Y-266979400D02*
X339208400Y-267618500D01*
X147408900Y-266979400D02*
X338569300Y-266979400D01*
X146769800Y-267618500D02*
X147408900Y-266979400D01*
X339208400Y-267618500D02*
X341773240Y-267618500D01*
X142213840Y-267618500D02*
X146769800Y-267618500D01*
%TO.N,A34_2*%
X128458840Y-265073500D02*
X131778840Y-265073500D01*
X137253840Y-265078500D02*
X142213840Y-265078500D01*
X135988840Y-263813500D02*
X137253840Y-265078500D01*
X133038840Y-263813500D02*
X135988840Y-263813500D01*
X131778840Y-265073500D02*
X133038840Y-263813500D01*
X338751200Y-265078500D02*
X341773240Y-265078500D01*
X338112100Y-264439400D02*
X338751200Y-265078500D01*
X341773240Y-265078500D02*
X341778240Y-265073500D01*
X147789900Y-264439400D02*
X338112100Y-264439400D01*
X147150800Y-265078500D02*
X147789900Y-264439400D01*
X142213840Y-265078500D02*
X147150800Y-265078500D01*
%TO.N,A32_2*%
X128458840Y-262533500D02*
X131843840Y-262533500D01*
X137263840Y-262538500D02*
X142213840Y-262538500D01*
X135988840Y-261263500D02*
X137263840Y-262538500D01*
X133113840Y-261263500D02*
X135988840Y-261263500D01*
X131843840Y-262533500D02*
X133113840Y-261263500D01*
X341773240Y-262538500D02*
X341778240Y-262533500D01*
X339157600Y-262538500D02*
X341773240Y-262538500D01*
X338531200Y-261912100D02*
X339157600Y-262538500D01*
X147713700Y-261912100D02*
X338531200Y-261912100D01*
X147087300Y-262538500D02*
X147713700Y-261912100D01*
X142213840Y-262538500D02*
X147087300Y-262538500D01*
%TO.N,A30_2*%
X128458840Y-259993500D02*
X132258840Y-259993500D01*
X137273840Y-259998500D02*
X142213840Y-259998500D01*
X136013840Y-258738500D02*
X137273840Y-259998500D01*
X133513840Y-258738500D02*
X136013840Y-258738500D01*
X132258840Y-259993500D02*
X133513840Y-258738500D01*
X341773240Y-259998500D02*
X341778240Y-259993500D01*
X339043300Y-259998500D02*
X341773240Y-259998500D01*
X338391500Y-259346700D02*
X339043300Y-259998500D01*
X147637500Y-259346700D02*
X338391500Y-259346700D01*
X146985700Y-259998500D02*
X147637500Y-259346700D01*
X142213840Y-259998500D02*
X146985700Y-259998500D01*
%TO.N,A28_2*%
X128458840Y-257453500D02*
X132348840Y-257453500D01*
X137133840Y-257458500D02*
X142213840Y-257458500D01*
X135863840Y-256188500D02*
X137133840Y-257458500D01*
X133613840Y-256188500D02*
X135863840Y-256188500D01*
X132348840Y-257453500D02*
X133613840Y-256188500D01*
X341773240Y-257458500D02*
X341778240Y-257453500D01*
X338992500Y-257458500D02*
X341773240Y-257458500D01*
X338328000Y-256794000D02*
X338992500Y-257458500D01*
X147612100Y-256794000D02*
X338328000Y-256794000D01*
X146947600Y-257458500D02*
X147612100Y-256794000D01*
X142213840Y-257458500D02*
X146947600Y-257458500D01*
%TO.N,A26_2*%
X128458840Y-254913500D02*
X132263840Y-254913500D01*
X137143840Y-254918500D02*
X142213840Y-254918500D01*
X135888840Y-253663500D02*
X137143840Y-254918500D01*
X133513840Y-253663500D02*
X135888840Y-253663500D01*
X132263840Y-254913500D02*
X133513840Y-253663500D01*
X341773240Y-254918500D02*
X341778240Y-254913500D01*
X338954400Y-254918500D02*
X341773240Y-254918500D01*
X147789900Y-254266700D02*
X338302600Y-254266700D01*
X147138100Y-254918500D02*
X147789900Y-254266700D01*
X338302600Y-254266700D02*
X338954400Y-254918500D01*
X142213840Y-254918500D02*
X147138100Y-254918500D01*
%TO.N,A24_2*%
X128458840Y-252373500D02*
X132353840Y-252373500D01*
X137428840Y-252378500D02*
X142213840Y-252378500D01*
X136163840Y-251113500D02*
X137428840Y-252378500D01*
X133613840Y-251113500D02*
X136163840Y-251113500D01*
X132353840Y-252373500D02*
X133613840Y-251113500D01*
X341773240Y-252378500D02*
X341778240Y-252373500D01*
X338958900Y-252378500D02*
X341773240Y-252378500D01*
X338307100Y-251726700D02*
X338958900Y-252378500D01*
X147497800Y-251726700D02*
X338307100Y-251726700D01*
X146846000Y-252378500D02*
X147497800Y-251726700D01*
X142213840Y-252378500D02*
X146846000Y-252378500D01*
%TO.N,A22_2*%
X128458840Y-249833500D02*
X132418840Y-249833500D01*
X137313840Y-249838500D02*
X142213840Y-249838500D01*
X136038840Y-248563500D02*
X137313840Y-249838500D01*
X133688840Y-248563500D02*
X136038840Y-248563500D01*
X132418840Y-249833500D02*
X133688840Y-248563500D01*
X341773240Y-249838500D02*
X341778240Y-249833500D01*
X338480400Y-249186700D02*
X339132200Y-249838500D01*
X147764500Y-249186700D02*
X338480400Y-249186700D01*
X339132200Y-249838500D02*
X341773240Y-249838500D01*
X147112700Y-249838500D02*
X147764500Y-249186700D01*
X142213840Y-249838500D02*
X147112700Y-249838500D01*
%TO.N,A20_2*%
X128458840Y-247293500D02*
X132233840Y-247293500D01*
X137223840Y-247298500D02*
X142213840Y-247298500D01*
X135963840Y-246038500D02*
X137223840Y-247298500D01*
X133488840Y-246038500D02*
X135963840Y-246038500D01*
X132233840Y-247293500D02*
X133488840Y-246038500D01*
X339106800Y-247298500D02*
X341773240Y-247298500D01*
X341773240Y-247298500D02*
X341778240Y-247293500D01*
X338467700Y-246659400D02*
X339106800Y-247298500D01*
X146896800Y-247298500D02*
X147535900Y-246659400D01*
X147535900Y-246659400D02*
X338467700Y-246659400D01*
X142213840Y-247298500D02*
X146896800Y-247298500D01*
%TO.N,A18_2*%
X128458840Y-244753500D02*
X132648840Y-244753500D01*
X137208840Y-244758500D02*
X142213840Y-244758500D01*
X135938840Y-243488500D02*
X137208840Y-244758500D01*
X133913840Y-243488500D02*
X135938840Y-243488500D01*
X132648840Y-244753500D02*
X133913840Y-243488500D01*
X341773240Y-244758500D02*
X341778240Y-244753500D01*
X339068700Y-244745800D02*
X339068700Y-244758500D01*
X338429600Y-244106700D02*
X339068700Y-244745800D01*
X339068700Y-244758500D02*
X341773240Y-244758500D01*
X147713700Y-244106700D02*
X338429600Y-244106700D01*
X147061900Y-244758500D02*
X147713700Y-244106700D01*
X142213840Y-244758500D02*
X147061900Y-244758500D01*
%TO.N,A16_2*%
X128458840Y-242213500D02*
X132563840Y-242213500D01*
X137293840Y-242218500D02*
X142213840Y-242218500D01*
X136038840Y-240963500D02*
X137293840Y-242218500D01*
X133813840Y-240963500D02*
X136038840Y-240963500D01*
X132563840Y-242213500D02*
X133813840Y-240963500D01*
X341773240Y-242218500D02*
X341778240Y-242213500D01*
X339195700Y-242218500D02*
X341773240Y-242218500D01*
X338543900Y-241566700D02*
X339195700Y-242218500D01*
X147650200Y-241566700D02*
X338543900Y-241566700D01*
X146998400Y-242218500D02*
X147650200Y-241566700D01*
X142213840Y-242218500D02*
X146998400Y-242218500D01*
%TO.N,A14_2*%
X128458840Y-239673500D02*
X132253840Y-239673500D01*
X137403840Y-239678500D02*
X142213840Y-239678500D01*
X136138840Y-238413500D02*
X137403840Y-239678500D01*
X133513840Y-238413500D02*
X136138840Y-238413500D01*
X132253840Y-239673500D02*
X133513840Y-238413500D01*
X341773240Y-239678500D02*
X341778240Y-239673500D01*
X338958900Y-239619500D02*
X338958900Y-239678500D01*
X338391500Y-239052100D02*
X338958900Y-239619500D01*
X147662900Y-239052100D02*
X338391500Y-239052100D01*
X338958900Y-239678500D02*
X341773240Y-239678500D01*
X147036500Y-239678500D02*
X147662900Y-239052100D01*
X142213840Y-239678500D02*
X147036500Y-239678500D01*
%TO.N,A12_2*%
X128458840Y-237133500D02*
X132518840Y-237133500D01*
X137213840Y-237138500D02*
X142213840Y-237138500D01*
X135938840Y-235863500D02*
X137213840Y-237138500D01*
X133788840Y-235863500D02*
X135938840Y-235863500D01*
X132518840Y-237133500D02*
X133788840Y-235863500D01*
X341773240Y-237138500D02*
X341778240Y-237133500D01*
X339047800Y-237138500D02*
X341773240Y-237138500D01*
X338383300Y-236474000D02*
X339047800Y-237138500D01*
X147548600Y-236474000D02*
X338383300Y-236474000D01*
X146884100Y-237138500D02*
X147548600Y-236474000D01*
X142213840Y-237138500D02*
X146884100Y-237138500D01*
%TO.N,A10_2*%
X128458840Y-234593500D02*
X132133840Y-234593500D01*
X137398840Y-234598500D02*
X142213840Y-234598500D01*
X136113840Y-233313500D02*
X137398840Y-234598500D01*
X133413840Y-233313500D02*
X136113840Y-233313500D01*
X132133840Y-234593500D02*
X133413840Y-233313500D01*
X338890900Y-234598500D02*
X341773240Y-234598500D01*
X341773240Y-234598500D02*
X341778240Y-234593500D01*
X338213700Y-233921300D02*
X338890900Y-234598500D01*
X147675600Y-233921300D02*
X338213700Y-233921300D01*
X146998400Y-234598500D02*
X147675600Y-233921300D01*
X142213840Y-234598500D02*
X146998400Y-234598500D01*
%TO.N,A8_2*%
X128458840Y-232053500D02*
X131973840Y-232053500D01*
X137233840Y-232058500D02*
X142213840Y-232058500D01*
X135963840Y-230788500D02*
X137233840Y-232058500D01*
X133238840Y-230788500D02*
X135963840Y-230788500D01*
X131973840Y-232053500D02*
X133238840Y-230788500D01*
X341773240Y-232058500D02*
X341778240Y-232053500D01*
X339009700Y-232058500D02*
X341773240Y-232058500D01*
X338370600Y-231419400D02*
X339009700Y-232058500D01*
X147599400Y-231419400D02*
X338370600Y-231419400D01*
X146960300Y-232058500D02*
X147599400Y-231419400D01*
X142213840Y-232058500D02*
X146960300Y-232058500D01*
%TO.N,A6_2*%
X128458840Y-229513500D02*
X132213840Y-229513500D01*
X137293840Y-229518500D02*
X142213840Y-229518500D01*
X136038840Y-228263500D02*
X137293840Y-229518500D01*
X133463840Y-228263500D02*
X136038840Y-228263500D01*
X132213840Y-229513500D02*
X133463840Y-228263500D01*
X341773240Y-229518500D02*
X341778240Y-229513500D01*
X338404200Y-228866700D02*
X339056000Y-229518500D01*
X339056000Y-229518500D02*
X341773240Y-229518500D01*
X147777200Y-228866700D02*
X338404200Y-228866700D01*
X147125400Y-229518500D02*
X147777200Y-228866700D01*
X142213840Y-229518500D02*
X147125400Y-229518500D01*
%TO.N,A4_2*%
X128458840Y-226973500D02*
X131878840Y-226973500D01*
X137853840Y-226978500D02*
X142213840Y-226978500D01*
X136588840Y-225713500D02*
X137853840Y-226978500D01*
X133138840Y-225713500D02*
X136588840Y-225713500D01*
X131878840Y-226973500D02*
X133138840Y-225713500D01*
X341773240Y-226978500D02*
X341778240Y-226973500D01*
X338954400Y-226978500D02*
X341773240Y-226978500D01*
X147447000Y-226339400D02*
X338315300Y-226339400D01*
X146807900Y-226978500D02*
X147447000Y-226339400D01*
X338315300Y-226339400D02*
X338954400Y-226978500D01*
X142213840Y-226978500D02*
X146807900Y-226978500D01*
%TO.N,A2_2*%
X128458840Y-224433500D02*
X131743840Y-224433500D01*
X137188840Y-224438500D02*
X142213840Y-224438500D01*
X135863840Y-223113500D02*
X137188840Y-224438500D01*
X133063840Y-223113500D02*
X135863840Y-223113500D01*
X131743840Y-224433500D02*
X133063840Y-223113500D01*
X341773240Y-224438500D02*
X341778240Y-224433500D01*
X338916300Y-224438500D02*
X341773240Y-224438500D01*
X338226400Y-223748600D02*
X338916300Y-224438500D01*
X148170900Y-223748600D02*
X338226400Y-223748600D01*
X147481000Y-224438500D02*
X148170900Y-223748600D01*
X142213840Y-224438500D02*
X147481000Y-224438500D01*
%TD*%
M02*
