G04 #@! TF.FileFunction,Copper,L4,Bot,Signal*
%FSLAX46Y46*%
G04 Gerber Fmt 4.6, Leading zero omitted, Abs format (unit mm)*
G04 Created by KiCad (PCBNEW 4.0.7-e2-6376~61~ubuntu18.04.1) date Tue Sep  1 21:44:29 2020*
%MOMM*%
%LPD*%
G01*
G04 APERTURE LIST*
%ADD10C,0.100000*%
%ADD11C,1.400000*%
%ADD12C,3.200000*%
%ADD13R,1.700000X1.700000*%
%ADD14O,1.700000X1.700000*%
%ADD15C,0.400000*%
G04 APERTURE END LIST*
D10*
D11*
X190760000Y-128485000D03*
X190760000Y-125945000D03*
X190760000Y-123405000D03*
X190760000Y-120865000D03*
X190760000Y-118325000D03*
X190760000Y-115785000D03*
X190760000Y-113245000D03*
X190760000Y-110705000D03*
X190760000Y-108165000D03*
X190760000Y-105625000D03*
X190760000Y-103085000D03*
X190760000Y-100545000D03*
X190760000Y-98005000D03*
X190760000Y-95465000D03*
X190760000Y-92925000D03*
X190760000Y-90385000D03*
X190760000Y-87845000D03*
X190760000Y-85305000D03*
X190760000Y-82765000D03*
X190760000Y-80225000D03*
X190760000Y-77685000D03*
X190760000Y-75145000D03*
X190760000Y-72605000D03*
X190760000Y-70065000D03*
X190760000Y-67525000D03*
X188855000Y-129755000D03*
X188855000Y-127215000D03*
X188855000Y-124675000D03*
X188855000Y-122135000D03*
X188855000Y-119595000D03*
X188855000Y-117055000D03*
X188855000Y-114515000D03*
X188855000Y-111975000D03*
X188855000Y-109435000D03*
X188855000Y-106895000D03*
X188855000Y-104355000D03*
X188855000Y-101815000D03*
X188855000Y-99275000D03*
X188855000Y-96735000D03*
X188855000Y-94195000D03*
X188855000Y-91655000D03*
X188855000Y-89115000D03*
X188855000Y-86575000D03*
X188855000Y-84035000D03*
X188855000Y-81495000D03*
X188855000Y-78955000D03*
X188855000Y-76415000D03*
X188855000Y-73875000D03*
X188855000Y-71335000D03*
X188855000Y-68795000D03*
X186950000Y-128485000D03*
X186950000Y-125945000D03*
X186950000Y-123405000D03*
X186950000Y-120865000D03*
X186950000Y-118325000D03*
X186950000Y-115785000D03*
X186950000Y-113245000D03*
X186950000Y-110705000D03*
X186950000Y-108165000D03*
X186950000Y-105625000D03*
X186950000Y-103085000D03*
X186950000Y-100545000D03*
X186950000Y-98005000D03*
X186950000Y-95465000D03*
X186950000Y-92925000D03*
X186950000Y-90385000D03*
X186950000Y-87845000D03*
X186950000Y-85305000D03*
X186950000Y-82765000D03*
X186950000Y-80225000D03*
X186950000Y-77685000D03*
X186950000Y-75145000D03*
X186950000Y-72605000D03*
X186950000Y-70065000D03*
X186950000Y-67525000D03*
X192665000Y-129755000D03*
X192665000Y-127215000D03*
X192665000Y-124675000D03*
X192665000Y-122135000D03*
X192665000Y-119595000D03*
X192665000Y-117055000D03*
X192665000Y-114515000D03*
X192665000Y-111975000D03*
X192665000Y-109435000D03*
X192665000Y-106895000D03*
X192665000Y-104355000D03*
X192665000Y-101815000D03*
X192665000Y-99275000D03*
X192665000Y-96735000D03*
X192665000Y-94195000D03*
X192665000Y-91655000D03*
X192665000Y-89115000D03*
X192665000Y-86575000D03*
X192665000Y-84035000D03*
X192665000Y-81495000D03*
X192665000Y-78955000D03*
X192665000Y-76415000D03*
X192665000Y-73875000D03*
X192665000Y-71335000D03*
X192665000Y-68795000D03*
D12*
X192665000Y-61810000D03*
X192665000Y-134200000D03*
D11*
X163140000Y-128485000D03*
X163140000Y-125945000D03*
X163140000Y-123405000D03*
X163140000Y-120865000D03*
X163140000Y-118325000D03*
X163140000Y-115785000D03*
X163140000Y-113245000D03*
X163140000Y-110705000D03*
X163140000Y-108165000D03*
X163140000Y-105625000D03*
X163140000Y-103085000D03*
X163140000Y-100545000D03*
X163140000Y-98005000D03*
X163140000Y-95465000D03*
X163140000Y-92925000D03*
X163140000Y-90385000D03*
X163140000Y-87845000D03*
X163140000Y-85305000D03*
X163140000Y-82765000D03*
X163140000Y-80225000D03*
X163140000Y-77685000D03*
X163140000Y-75145000D03*
X163140000Y-72605000D03*
X163140000Y-70065000D03*
X163140000Y-67525000D03*
X165045000Y-129755000D03*
X165045000Y-127215000D03*
X165045000Y-124675000D03*
X165045000Y-122135000D03*
X165045000Y-119595000D03*
X165045000Y-117055000D03*
X165045000Y-114515000D03*
X165045000Y-111975000D03*
X165045000Y-109435000D03*
X165045000Y-106895000D03*
X165045000Y-104355000D03*
X165045000Y-101815000D03*
X165045000Y-99275000D03*
X165045000Y-96735000D03*
X165045000Y-94195000D03*
X165045000Y-91655000D03*
X165045000Y-89115000D03*
X165045000Y-86575000D03*
X165045000Y-84035000D03*
X165045000Y-81495000D03*
X165045000Y-78955000D03*
X165045000Y-76415000D03*
X165045000Y-73875000D03*
X165045000Y-71335000D03*
X165045000Y-68795000D03*
X166950000Y-128485000D03*
X166950000Y-125945000D03*
X166950000Y-123405000D03*
X166950000Y-120865000D03*
X166950000Y-118325000D03*
X166950000Y-115785000D03*
X166950000Y-113245000D03*
X166950000Y-110705000D03*
X166950000Y-108165000D03*
X166950000Y-105625000D03*
X166950000Y-103085000D03*
X166950000Y-100545000D03*
X166950000Y-98005000D03*
X166950000Y-95465000D03*
X166950000Y-92925000D03*
X166950000Y-90385000D03*
X166950000Y-87845000D03*
X166950000Y-85305000D03*
X166950000Y-82765000D03*
X166950000Y-80225000D03*
X166950000Y-77685000D03*
X166950000Y-75145000D03*
X166950000Y-72605000D03*
X166950000Y-70065000D03*
X166950000Y-67525000D03*
X161235000Y-129755000D03*
X161235000Y-127215000D03*
X161235000Y-124675000D03*
X161235000Y-122135000D03*
X161235000Y-119595000D03*
X161235000Y-117055000D03*
X161235000Y-114515000D03*
X161235000Y-111975000D03*
X161235000Y-109435000D03*
X161235000Y-106895000D03*
X161235000Y-104355000D03*
X161235000Y-101815000D03*
X161235000Y-99275000D03*
X161235000Y-96735000D03*
X161235000Y-94195000D03*
X161235000Y-91655000D03*
X161235000Y-89115000D03*
X161235000Y-86575000D03*
X161235000Y-84035000D03*
X161235000Y-81495000D03*
X161235000Y-78955000D03*
X161235000Y-76415000D03*
X161235000Y-73875000D03*
X161235000Y-71335000D03*
X161235000Y-68795000D03*
D12*
X161235000Y-61810000D03*
X161235000Y-134200000D03*
D13*
X175075000Y-67525000D03*
D14*
X175075000Y-70065000D03*
X175075000Y-72605000D03*
X175075000Y-75145000D03*
X175075000Y-77685000D03*
X175075000Y-80225000D03*
X175075000Y-82765000D03*
X175075000Y-85305000D03*
X175075000Y-87845000D03*
X175075000Y-90385000D03*
X175075000Y-92925000D03*
X175075000Y-95465000D03*
X175075000Y-98005000D03*
X175075000Y-100545000D03*
X175075000Y-103085000D03*
X175075000Y-105625000D03*
X175075000Y-108165000D03*
X175075000Y-110705000D03*
X175075000Y-113245000D03*
X175075000Y-115785000D03*
X175075000Y-118325000D03*
X175075000Y-120865000D03*
X175075000Y-123405000D03*
X175075000Y-125945000D03*
X175075000Y-128485000D03*
D13*
X182525000Y-67525000D03*
D14*
X182525000Y-70065000D03*
X182525000Y-72605000D03*
X182525000Y-75145000D03*
X182525000Y-77685000D03*
X182525000Y-80225000D03*
X182525000Y-82765000D03*
X182525000Y-85305000D03*
X182525000Y-87845000D03*
X182525000Y-90385000D03*
X182525000Y-92925000D03*
X182525000Y-95465000D03*
X182525000Y-98005000D03*
X182525000Y-100545000D03*
X182525000Y-103085000D03*
X182525000Y-105625000D03*
X182525000Y-108165000D03*
X182525000Y-110705000D03*
X182525000Y-113245000D03*
X182525000Y-115785000D03*
X182525000Y-118325000D03*
X182525000Y-120865000D03*
X182525000Y-123405000D03*
X182525000Y-125945000D03*
X182525000Y-128485000D03*
D13*
X171350000Y-68800000D03*
D14*
X171350000Y-71340000D03*
X171350000Y-73880000D03*
X171350000Y-76420000D03*
X171350000Y-78960000D03*
X171350000Y-81500000D03*
X171350000Y-84040000D03*
X171350000Y-86580000D03*
X171350000Y-89120000D03*
X171350000Y-91660000D03*
X171350000Y-94200000D03*
X171350000Y-96740000D03*
X171350000Y-99280000D03*
X171350000Y-101820000D03*
X171350000Y-104360000D03*
X171350000Y-106900000D03*
X171350000Y-109440000D03*
X171350000Y-111980000D03*
X171350000Y-114520000D03*
X171350000Y-117060000D03*
X171350000Y-119600000D03*
X171350000Y-122140000D03*
X171350000Y-124680000D03*
X171350000Y-127220000D03*
X171350000Y-129760000D03*
D13*
X178800000Y-68800000D03*
D14*
X178800000Y-71340000D03*
X178800000Y-73880000D03*
X178800000Y-76420000D03*
X178800000Y-78960000D03*
X178800000Y-81500000D03*
X178800000Y-84040000D03*
X178800000Y-86580000D03*
X178800000Y-89120000D03*
X178800000Y-91660000D03*
X178800000Y-94200000D03*
X178800000Y-96740000D03*
X178800000Y-99280000D03*
X178800000Y-101820000D03*
X178800000Y-104360000D03*
X178800000Y-106900000D03*
X178800000Y-109440000D03*
X178800000Y-111980000D03*
X178800000Y-114520000D03*
X178800000Y-117060000D03*
X178800000Y-119600000D03*
X178800000Y-122140000D03*
X178800000Y-124680000D03*
X178800000Y-127220000D03*
X178800000Y-129760000D03*
D15*
X178800000Y-129760000D02*
X188850000Y-129760000D01*
X188850000Y-129760000D02*
X188855000Y-129755000D01*
X165045000Y-129755000D02*
X168745000Y-129755000D01*
X174085000Y-129760000D02*
X178800000Y-129760000D01*
X172825000Y-128500000D02*
X174085000Y-129760000D01*
X170000000Y-128500000D02*
X172825000Y-128500000D01*
X168745000Y-129755000D02*
X170000000Y-128500000D01*
X178800000Y-127220000D02*
X188850000Y-127220000D01*
X188850000Y-127220000D02*
X188855000Y-127215000D01*
X165045000Y-127215000D02*
X168785000Y-127215000D01*
X173745000Y-127220000D02*
X178800000Y-127220000D01*
X172475000Y-125950000D02*
X173745000Y-127220000D01*
X170050000Y-125950000D02*
X172475000Y-125950000D01*
X168785000Y-127215000D02*
X170050000Y-125950000D01*
X165045000Y-124675000D02*
X168425000Y-124675000D01*
X173605000Y-124680000D02*
X178800000Y-124680000D01*
X172350000Y-123425000D02*
X173605000Y-124680000D01*
X169675000Y-123425000D02*
X172350000Y-123425000D01*
X168425000Y-124675000D02*
X169675000Y-123425000D01*
X178800000Y-124680000D02*
X188850000Y-124680000D01*
X188850000Y-124680000D02*
X188855000Y-124675000D01*
X165045000Y-122135000D02*
X168540000Y-122135000D01*
X173790000Y-122140000D02*
X178800000Y-122140000D01*
X172525000Y-120875000D02*
X173790000Y-122140000D01*
X169800000Y-120875000D02*
X172525000Y-120875000D01*
X168540000Y-122135000D02*
X169800000Y-120875000D01*
X178800000Y-122140000D02*
X188850000Y-122140000D01*
X188850000Y-122140000D02*
X188855000Y-122135000D01*
X165045000Y-119595000D02*
X168405000Y-119595000D01*
X173925000Y-119600000D02*
X178800000Y-119600000D01*
X172650000Y-118325000D02*
X173925000Y-119600000D01*
X169675000Y-118325000D02*
X172650000Y-118325000D01*
X168405000Y-119595000D02*
X169675000Y-118325000D01*
X178800000Y-119600000D02*
X188850000Y-119600000D01*
X188850000Y-119600000D02*
X188855000Y-119595000D01*
X165045000Y-117055000D02*
X168445000Y-117055000D01*
X173960000Y-117060000D02*
X178800000Y-117060000D01*
X172700000Y-115800000D02*
X173960000Y-117060000D01*
X169700000Y-115800000D02*
X172700000Y-115800000D01*
X168445000Y-117055000D02*
X169700000Y-115800000D01*
X178800000Y-117060000D02*
X188850000Y-117060000D01*
X188850000Y-117060000D02*
X188855000Y-117055000D01*
X165045000Y-114515000D02*
X168410000Y-114515000D01*
X173695000Y-114520000D02*
X178800000Y-114520000D01*
X172425000Y-113250000D02*
X173695000Y-114520000D01*
X169675000Y-113250000D02*
X172425000Y-113250000D01*
X168410000Y-114515000D02*
X169675000Y-113250000D01*
X178800000Y-114520000D02*
X188850000Y-114520000D01*
X188850000Y-114520000D02*
X188855000Y-114515000D01*
X165045000Y-111975000D02*
X168425000Y-111975000D01*
X173880000Y-111980000D02*
X178800000Y-111980000D01*
X172625000Y-110725000D02*
X173880000Y-111980000D01*
X169675000Y-110725000D02*
X172625000Y-110725000D01*
X168425000Y-111975000D02*
X169675000Y-110725000D01*
X178800000Y-111980000D02*
X188850000Y-111980000D01*
X188850000Y-111980000D02*
X188855000Y-111975000D01*
X165045000Y-109435000D02*
X168365000Y-109435000D01*
X173840000Y-109440000D02*
X178800000Y-109440000D01*
X172575000Y-108175000D02*
X173840000Y-109440000D01*
X169625000Y-108175000D02*
X172575000Y-108175000D01*
X168365000Y-109435000D02*
X169625000Y-108175000D01*
X178800000Y-109440000D02*
X188850000Y-109440000D01*
X188850000Y-109440000D02*
X188855000Y-109435000D01*
X178800000Y-106900000D02*
X188850000Y-106900000D01*
X188850000Y-106900000D02*
X188855000Y-106895000D01*
X165045000Y-106895000D02*
X168430000Y-106895000D01*
X173850000Y-106900000D02*
X178800000Y-106900000D01*
X172575000Y-105625000D02*
X173850000Y-106900000D01*
X169700000Y-105625000D02*
X172575000Y-105625000D01*
X168430000Y-106895000D02*
X169700000Y-105625000D01*
X178800000Y-104360000D02*
X188850000Y-104360000D01*
X188850000Y-104360000D02*
X188855000Y-104355000D01*
X165045000Y-104355000D02*
X168845000Y-104355000D01*
X173860000Y-104360000D02*
X178800000Y-104360000D01*
X172600000Y-103100000D02*
X173860000Y-104360000D01*
X170100000Y-103100000D02*
X172600000Y-103100000D01*
X168845000Y-104355000D02*
X170100000Y-103100000D01*
X178800000Y-101820000D02*
X188850000Y-101820000D01*
X188850000Y-101820000D02*
X188855000Y-101815000D01*
X165045000Y-101815000D02*
X168935000Y-101815000D01*
X173720000Y-101820000D02*
X178800000Y-101820000D01*
X172450000Y-100550000D02*
X173720000Y-101820000D01*
X170200000Y-100550000D02*
X172450000Y-100550000D01*
X168935000Y-101815000D02*
X170200000Y-100550000D01*
X165045000Y-99275000D02*
X168850000Y-99275000D01*
X173730000Y-99280000D02*
X178800000Y-99280000D01*
X172475000Y-98025000D02*
X173730000Y-99280000D01*
X170100000Y-98025000D02*
X172475000Y-98025000D01*
X168850000Y-99275000D02*
X170100000Y-98025000D01*
X178800000Y-99280000D02*
X188850000Y-99280000D01*
X188850000Y-99280000D02*
X188855000Y-99275000D01*
X165045000Y-96735000D02*
X168940000Y-96735000D01*
X174015000Y-96740000D02*
X178800000Y-96740000D01*
X172750000Y-95475000D02*
X174015000Y-96740000D01*
X170200000Y-95475000D02*
X172750000Y-95475000D01*
X168940000Y-96735000D02*
X170200000Y-95475000D01*
X178800000Y-96740000D02*
X188850000Y-96740000D01*
X188850000Y-96740000D02*
X188855000Y-96735000D01*
X165045000Y-94195000D02*
X169005000Y-94195000D01*
X173900000Y-94200000D02*
X178800000Y-94200000D01*
X172625000Y-92925000D02*
X173900000Y-94200000D01*
X170275000Y-92925000D02*
X172625000Y-92925000D01*
X169005000Y-94195000D02*
X170275000Y-92925000D01*
X178800000Y-94200000D02*
X188850000Y-94200000D01*
X188850000Y-94200000D02*
X188855000Y-94195000D01*
X165045000Y-91655000D02*
X168820000Y-91655000D01*
X173810000Y-91660000D02*
X178800000Y-91660000D01*
X172550000Y-90400000D02*
X173810000Y-91660000D01*
X170075000Y-90400000D02*
X172550000Y-90400000D01*
X168820000Y-91655000D02*
X170075000Y-90400000D01*
X178800000Y-91660000D02*
X188850000Y-91660000D01*
X188850000Y-91660000D02*
X188855000Y-91655000D01*
X165045000Y-89115000D02*
X169235000Y-89115000D01*
X173795000Y-89120000D02*
X178800000Y-89120000D01*
X172525000Y-87850000D02*
X173795000Y-89120000D01*
X170500000Y-87850000D02*
X172525000Y-87850000D01*
X169235000Y-89115000D02*
X170500000Y-87850000D01*
X178800000Y-89120000D02*
X188850000Y-89120000D01*
X188850000Y-89120000D02*
X188855000Y-89115000D01*
X165045000Y-86575000D02*
X169150000Y-86575000D01*
X173880000Y-86580000D02*
X178800000Y-86580000D01*
X172625000Y-85325000D02*
X173880000Y-86580000D01*
X170400000Y-85325000D02*
X172625000Y-85325000D01*
X169150000Y-86575000D02*
X170400000Y-85325000D01*
X178800000Y-86580000D02*
X188850000Y-86580000D01*
X188850000Y-86580000D02*
X188855000Y-86575000D01*
X178800000Y-84040000D02*
X188850000Y-84040000D01*
X188850000Y-84040000D02*
X188855000Y-84035000D01*
X165045000Y-84035000D02*
X168840000Y-84035000D01*
X173990000Y-84040000D02*
X178800000Y-84040000D01*
X172725000Y-82775000D02*
X173990000Y-84040000D01*
X170100000Y-82775000D02*
X172725000Y-82775000D01*
X168840000Y-84035000D02*
X170100000Y-82775000D01*
X178800000Y-81500000D02*
X188850000Y-81500000D01*
X188850000Y-81500000D02*
X188855000Y-81495000D01*
X165045000Y-81495000D02*
X169105000Y-81495000D01*
X173800000Y-81500000D02*
X178800000Y-81500000D01*
X172525000Y-80225000D02*
X173800000Y-81500000D01*
X170375000Y-80225000D02*
X172525000Y-80225000D01*
X169105000Y-81495000D02*
X170375000Y-80225000D01*
X178800000Y-78960000D02*
X188850000Y-78960000D01*
X188850000Y-78960000D02*
X188855000Y-78955000D01*
X165045000Y-78955000D02*
X168720000Y-78955000D01*
X173985000Y-78960000D02*
X178800000Y-78960000D01*
X172700000Y-77675000D02*
X173985000Y-78960000D01*
X170000000Y-77675000D02*
X172700000Y-77675000D01*
X168720000Y-78955000D02*
X170000000Y-77675000D01*
X178800000Y-76420000D02*
X188850000Y-76420000D01*
X188850000Y-76420000D02*
X188855000Y-76415000D01*
X165045000Y-76415000D02*
X168560000Y-76415000D01*
X173820000Y-76420000D02*
X178800000Y-76420000D01*
X172550000Y-75150000D02*
X173820000Y-76420000D01*
X169825000Y-75150000D02*
X172550000Y-75150000D01*
X168560000Y-76415000D02*
X169825000Y-75150000D01*
X178800000Y-73880000D02*
X188850000Y-73880000D01*
X188850000Y-73880000D02*
X188855000Y-73875000D01*
X165045000Y-73875000D02*
X168800000Y-73875000D01*
X173880000Y-73880000D02*
X178800000Y-73880000D01*
X172625000Y-72625000D02*
X173880000Y-73880000D01*
X170050000Y-72625000D02*
X172625000Y-72625000D01*
X168800000Y-73875000D02*
X170050000Y-72625000D01*
X178800000Y-71340000D02*
X188850000Y-71340000D01*
X188850000Y-71340000D02*
X188855000Y-71335000D01*
X165045000Y-71335000D02*
X168465000Y-71335000D01*
X174440000Y-71340000D02*
X178800000Y-71340000D01*
X173175000Y-70075000D02*
X174440000Y-71340000D01*
X169725000Y-70075000D02*
X173175000Y-70075000D01*
X168465000Y-71335000D02*
X169725000Y-70075000D01*
X178800000Y-68800000D02*
X188850000Y-68800000D01*
X188850000Y-68800000D02*
X188855000Y-68795000D01*
X165045000Y-68795000D02*
X168330000Y-68795000D01*
X173775000Y-68800000D02*
X178800000Y-68800000D01*
X172450000Y-67475000D02*
X173775000Y-68800000D01*
X169650000Y-67475000D02*
X172450000Y-67475000D01*
X168330000Y-68795000D02*
X169650000Y-67475000D01*
M02*
