G04 #@! TF.FileFunction,Copper,L1,Top,Signal*
%FSLAX46Y46*%
G04 Gerber Fmt 4.6, Leading zero omitted, Abs format (unit mm)*
G04 Created by KiCad (PCBNEW 4.0.7-e2-6376~61~ubuntu18.04.1) date Tue Sep  1 21:44:29 2020*
%MOMM*%
%LPD*%
G01*
G04 APERTURE LIST*
%ADD10C,0.100000*%
%ADD11C,1.400000*%
%ADD12C,3.200000*%
%ADD13R,1.700000X1.700000*%
%ADD14O,1.700000X1.700000*%
%ADD15C,0.400000*%
G04 APERTURE END LIST*
D10*
D11*
X190760000Y-128485000D03*
X190760000Y-125945000D03*
X190760000Y-123405000D03*
X190760000Y-120865000D03*
X190760000Y-118325000D03*
X190760000Y-115785000D03*
X190760000Y-113245000D03*
X190760000Y-110705000D03*
X190760000Y-108165000D03*
X190760000Y-105625000D03*
X190760000Y-103085000D03*
X190760000Y-100545000D03*
X190760000Y-98005000D03*
X190760000Y-95465000D03*
X190760000Y-92925000D03*
X190760000Y-90385000D03*
X190760000Y-87845000D03*
X190760000Y-85305000D03*
X190760000Y-82765000D03*
X190760000Y-80225000D03*
X190760000Y-77685000D03*
X190760000Y-75145000D03*
X190760000Y-72605000D03*
X190760000Y-70065000D03*
X190760000Y-67525000D03*
X188855000Y-129755000D03*
X188855000Y-127215000D03*
X188855000Y-124675000D03*
X188855000Y-122135000D03*
X188855000Y-119595000D03*
X188855000Y-117055000D03*
X188855000Y-114515000D03*
X188855000Y-111975000D03*
X188855000Y-109435000D03*
X188855000Y-106895000D03*
X188855000Y-104355000D03*
X188855000Y-101815000D03*
X188855000Y-99275000D03*
X188855000Y-96735000D03*
X188855000Y-94195000D03*
X188855000Y-91655000D03*
X188855000Y-89115000D03*
X188855000Y-86575000D03*
X188855000Y-84035000D03*
X188855000Y-81495000D03*
X188855000Y-78955000D03*
X188855000Y-76415000D03*
X188855000Y-73875000D03*
X188855000Y-71335000D03*
X188855000Y-68795000D03*
X186950000Y-128485000D03*
X186950000Y-125945000D03*
X186950000Y-123405000D03*
X186950000Y-120865000D03*
X186950000Y-118325000D03*
X186950000Y-115785000D03*
X186950000Y-113245000D03*
X186950000Y-110705000D03*
X186950000Y-108165000D03*
X186950000Y-105625000D03*
X186950000Y-103085000D03*
X186950000Y-100545000D03*
X186950000Y-98005000D03*
X186950000Y-95465000D03*
X186950000Y-92925000D03*
X186950000Y-90385000D03*
X186950000Y-87845000D03*
X186950000Y-85305000D03*
X186950000Y-82765000D03*
X186950000Y-80225000D03*
X186950000Y-77685000D03*
X186950000Y-75145000D03*
X186950000Y-72605000D03*
X186950000Y-70065000D03*
X186950000Y-67525000D03*
X192665000Y-129755000D03*
X192665000Y-127215000D03*
X192665000Y-124675000D03*
X192665000Y-122135000D03*
X192665000Y-119595000D03*
X192665000Y-117055000D03*
X192665000Y-114515000D03*
X192665000Y-111975000D03*
X192665000Y-109435000D03*
X192665000Y-106895000D03*
X192665000Y-104355000D03*
X192665000Y-101815000D03*
X192665000Y-99275000D03*
X192665000Y-96735000D03*
X192665000Y-94195000D03*
X192665000Y-91655000D03*
X192665000Y-89115000D03*
X192665000Y-86575000D03*
X192665000Y-84035000D03*
X192665000Y-81495000D03*
X192665000Y-78955000D03*
X192665000Y-76415000D03*
X192665000Y-73875000D03*
X192665000Y-71335000D03*
X192665000Y-68795000D03*
D12*
X192665000Y-61810000D03*
X192665000Y-134200000D03*
D11*
X163140000Y-128485000D03*
X163140000Y-125945000D03*
X163140000Y-123405000D03*
X163140000Y-120865000D03*
X163140000Y-118325000D03*
X163140000Y-115785000D03*
X163140000Y-113245000D03*
X163140000Y-110705000D03*
X163140000Y-108165000D03*
X163140000Y-105625000D03*
X163140000Y-103085000D03*
X163140000Y-100545000D03*
X163140000Y-98005000D03*
X163140000Y-95465000D03*
X163140000Y-92925000D03*
X163140000Y-90385000D03*
X163140000Y-87845000D03*
X163140000Y-85305000D03*
X163140000Y-82765000D03*
X163140000Y-80225000D03*
X163140000Y-77685000D03*
X163140000Y-75145000D03*
X163140000Y-72605000D03*
X163140000Y-70065000D03*
X163140000Y-67525000D03*
X165045000Y-129755000D03*
X165045000Y-127215000D03*
X165045000Y-124675000D03*
X165045000Y-122135000D03*
X165045000Y-119595000D03*
X165045000Y-117055000D03*
X165045000Y-114515000D03*
X165045000Y-111975000D03*
X165045000Y-109435000D03*
X165045000Y-106895000D03*
X165045000Y-104355000D03*
X165045000Y-101815000D03*
X165045000Y-99275000D03*
X165045000Y-96735000D03*
X165045000Y-94195000D03*
X165045000Y-91655000D03*
X165045000Y-89115000D03*
X165045000Y-86575000D03*
X165045000Y-84035000D03*
X165045000Y-81495000D03*
X165045000Y-78955000D03*
X165045000Y-76415000D03*
X165045000Y-73875000D03*
X165045000Y-71335000D03*
X165045000Y-68795000D03*
X166950000Y-128485000D03*
X166950000Y-125945000D03*
X166950000Y-123405000D03*
X166950000Y-120865000D03*
X166950000Y-118325000D03*
X166950000Y-115785000D03*
X166950000Y-113245000D03*
X166950000Y-110705000D03*
X166950000Y-108165000D03*
X166950000Y-105625000D03*
X166950000Y-103085000D03*
X166950000Y-100545000D03*
X166950000Y-98005000D03*
X166950000Y-95465000D03*
X166950000Y-92925000D03*
X166950000Y-90385000D03*
X166950000Y-87845000D03*
X166950000Y-85305000D03*
X166950000Y-82765000D03*
X166950000Y-80225000D03*
X166950000Y-77685000D03*
X166950000Y-75145000D03*
X166950000Y-72605000D03*
X166950000Y-70065000D03*
X166950000Y-67525000D03*
X161235000Y-129755000D03*
X161235000Y-127215000D03*
X161235000Y-124675000D03*
X161235000Y-122135000D03*
X161235000Y-119595000D03*
X161235000Y-117055000D03*
X161235000Y-114515000D03*
X161235000Y-111975000D03*
X161235000Y-109435000D03*
X161235000Y-106895000D03*
X161235000Y-104355000D03*
X161235000Y-101815000D03*
X161235000Y-99275000D03*
X161235000Y-96735000D03*
X161235000Y-94195000D03*
X161235000Y-91655000D03*
X161235000Y-89115000D03*
X161235000Y-86575000D03*
X161235000Y-84035000D03*
X161235000Y-81495000D03*
X161235000Y-78955000D03*
X161235000Y-76415000D03*
X161235000Y-73875000D03*
X161235000Y-71335000D03*
X161235000Y-68795000D03*
D12*
X161235000Y-61810000D03*
X161235000Y-134200000D03*
D13*
X175075000Y-67525000D03*
D14*
X175075000Y-70065000D03*
X175075000Y-72605000D03*
X175075000Y-75145000D03*
X175075000Y-77685000D03*
X175075000Y-80225000D03*
X175075000Y-82765000D03*
X175075000Y-85305000D03*
X175075000Y-87845000D03*
X175075000Y-90385000D03*
X175075000Y-92925000D03*
X175075000Y-95465000D03*
X175075000Y-98005000D03*
X175075000Y-100545000D03*
X175075000Y-103085000D03*
X175075000Y-105625000D03*
X175075000Y-108165000D03*
X175075000Y-110705000D03*
X175075000Y-113245000D03*
X175075000Y-115785000D03*
X175075000Y-118325000D03*
X175075000Y-120865000D03*
X175075000Y-123405000D03*
X175075000Y-125945000D03*
X175075000Y-128485000D03*
D13*
X182525000Y-67525000D03*
D14*
X182525000Y-70065000D03*
X182525000Y-72605000D03*
X182525000Y-75145000D03*
X182525000Y-77685000D03*
X182525000Y-80225000D03*
X182525000Y-82765000D03*
X182525000Y-85305000D03*
X182525000Y-87845000D03*
X182525000Y-90385000D03*
X182525000Y-92925000D03*
X182525000Y-95465000D03*
X182525000Y-98005000D03*
X182525000Y-100545000D03*
X182525000Y-103085000D03*
X182525000Y-105625000D03*
X182525000Y-108165000D03*
X182525000Y-110705000D03*
X182525000Y-113245000D03*
X182525000Y-115785000D03*
X182525000Y-118325000D03*
X182525000Y-120865000D03*
X182525000Y-123405000D03*
X182525000Y-125945000D03*
X182525000Y-128485000D03*
D13*
X171350000Y-68800000D03*
D14*
X171350000Y-71340000D03*
X171350000Y-73880000D03*
X171350000Y-76420000D03*
X171350000Y-78960000D03*
X171350000Y-81500000D03*
X171350000Y-84040000D03*
X171350000Y-86580000D03*
X171350000Y-89120000D03*
X171350000Y-91660000D03*
X171350000Y-94200000D03*
X171350000Y-96740000D03*
X171350000Y-99280000D03*
X171350000Y-101820000D03*
X171350000Y-104360000D03*
X171350000Y-106900000D03*
X171350000Y-109440000D03*
X171350000Y-111980000D03*
X171350000Y-114520000D03*
X171350000Y-117060000D03*
X171350000Y-119600000D03*
X171350000Y-122140000D03*
X171350000Y-124680000D03*
X171350000Y-127220000D03*
X171350000Y-129760000D03*
D13*
X178800000Y-68800000D03*
D14*
X178800000Y-71340000D03*
X178800000Y-73880000D03*
X178800000Y-76420000D03*
X178800000Y-78960000D03*
X178800000Y-81500000D03*
X178800000Y-84040000D03*
X178800000Y-86580000D03*
X178800000Y-89120000D03*
X178800000Y-91660000D03*
X178800000Y-94200000D03*
X178800000Y-96740000D03*
X178800000Y-99280000D03*
X178800000Y-101820000D03*
X178800000Y-104360000D03*
X178800000Y-106900000D03*
X178800000Y-109440000D03*
X178800000Y-111980000D03*
X178800000Y-114520000D03*
X178800000Y-117060000D03*
X178800000Y-119600000D03*
X178800000Y-122140000D03*
X178800000Y-124680000D03*
X178800000Y-127220000D03*
X178800000Y-129760000D03*
D15*
X171350000Y-129760000D02*
X173910000Y-129760000D01*
X190820000Y-131600000D02*
X192665000Y-129755000D01*
X175750000Y-131600000D02*
X190820000Y-131600000D01*
X173910000Y-129760000D02*
X175750000Y-131600000D01*
X161235000Y-129755000D02*
X162905000Y-129755000D01*
X169340000Y-129760000D02*
X171350000Y-129760000D01*
X168075000Y-131025000D02*
X169340000Y-129760000D01*
X164175000Y-131025000D02*
X168075000Y-131025000D01*
X162905000Y-129755000D02*
X164175000Y-131025000D01*
X171350000Y-127220000D02*
X175995000Y-127220000D01*
X190465000Y-127215000D02*
X192665000Y-127215000D01*
X189300000Y-126050000D02*
X190465000Y-127215000D01*
X188450000Y-126050000D02*
X189300000Y-126050000D01*
X187275000Y-127225000D02*
X188450000Y-126050000D01*
X181450000Y-127225000D02*
X187275000Y-127225000D01*
X180175000Y-128500000D02*
X181450000Y-127225000D01*
X177275000Y-128500000D02*
X180175000Y-128500000D01*
X175995000Y-127220000D02*
X177275000Y-128500000D01*
X161235000Y-127215000D02*
X163460000Y-127215000D01*
X166645000Y-127220000D02*
X171350000Y-127220000D01*
X165500000Y-126075000D02*
X166645000Y-127220000D01*
X164600000Y-126075000D02*
X165500000Y-126075000D01*
X163460000Y-127215000D02*
X164600000Y-126075000D01*
X171350000Y-124680000D02*
X176230000Y-124680000D01*
X190425000Y-124675000D02*
X192665000Y-124675000D01*
X189225000Y-123475000D02*
X190425000Y-124675000D01*
X188475000Y-123475000D02*
X189225000Y-123475000D01*
X187275000Y-124675000D02*
X188475000Y-123475000D01*
X181475000Y-124675000D02*
X187275000Y-124675000D01*
X180200000Y-125950000D02*
X181475000Y-124675000D01*
X177500000Y-125950000D02*
X180200000Y-125950000D01*
X176230000Y-124680000D02*
X177500000Y-125950000D01*
X161235000Y-124675000D02*
X163475000Y-124675000D01*
X166630000Y-124680000D02*
X171350000Y-124680000D01*
X165475000Y-123525000D02*
X166630000Y-124680000D01*
X164625000Y-123525000D02*
X165475000Y-123525000D01*
X163475000Y-124675000D02*
X164625000Y-123525000D01*
X171350000Y-122140000D02*
X176315000Y-122140000D01*
X190435000Y-122135000D02*
X192665000Y-122135000D01*
X189275000Y-120975000D02*
X190435000Y-122135000D01*
X188425000Y-120975000D02*
X189275000Y-120975000D01*
X187275000Y-122125000D02*
X188425000Y-120975000D01*
X181450000Y-122125000D02*
X187275000Y-122125000D01*
X180175000Y-123400000D02*
X181450000Y-122125000D01*
X177575000Y-123400000D02*
X180175000Y-123400000D01*
X176315000Y-122140000D02*
X177575000Y-123400000D01*
X161235000Y-122135000D02*
X163440000Y-122135000D01*
X166640000Y-122140000D02*
X171350000Y-122140000D01*
X165425000Y-120925000D02*
X166640000Y-122140000D01*
X164650000Y-120925000D02*
X165425000Y-120925000D01*
X163440000Y-122135000D02*
X164650000Y-120925000D01*
X171350000Y-119600000D02*
X176125000Y-119600000D01*
X190445000Y-119595000D02*
X192665000Y-119595000D01*
X189300000Y-118450000D02*
X190445000Y-119595000D01*
X188425000Y-118450000D02*
X189300000Y-118450000D01*
X187275000Y-119600000D02*
X188425000Y-118450000D01*
X181300000Y-119600000D02*
X187275000Y-119600000D01*
X180025000Y-120875000D02*
X181300000Y-119600000D01*
X177400000Y-120875000D02*
X180025000Y-120875000D01*
X176125000Y-119600000D02*
X177400000Y-120875000D01*
X161235000Y-119595000D02*
X163455000Y-119595000D01*
X166625000Y-119600000D02*
X171350000Y-119600000D01*
X165475000Y-118450000D02*
X166625000Y-119600000D01*
X164600000Y-118450000D02*
X165475000Y-118450000D01*
X163455000Y-119595000D02*
X164600000Y-118450000D01*
X171350000Y-117060000D02*
X176285000Y-117060000D01*
X190455000Y-117055000D02*
X192665000Y-117055000D01*
X189300000Y-115900000D02*
X190455000Y-117055000D01*
X188425000Y-115900000D02*
X189300000Y-115900000D01*
X187275000Y-117050000D02*
X188425000Y-115900000D01*
X181575000Y-117050000D02*
X187275000Y-117050000D01*
X180300000Y-118325000D02*
X181575000Y-117050000D01*
X177550000Y-118325000D02*
X180300000Y-118325000D01*
X176285000Y-117060000D02*
X177550000Y-118325000D01*
X161235000Y-117055000D02*
X163470000Y-117055000D01*
X166610000Y-117060000D02*
X171350000Y-117060000D01*
X165400000Y-115850000D02*
X166610000Y-117060000D01*
X164675000Y-115850000D02*
X165400000Y-115850000D01*
X163470000Y-117055000D02*
X164675000Y-115850000D01*
X171350000Y-114520000D02*
X176070000Y-114520000D01*
X190415000Y-114515000D02*
X192665000Y-114515000D01*
X189225000Y-113325000D02*
X190415000Y-114515000D01*
X188450000Y-113325000D02*
X189225000Y-113325000D01*
X187250000Y-114525000D02*
X188450000Y-113325000D01*
X181300000Y-114525000D02*
X187250000Y-114525000D01*
X180025000Y-115800000D02*
X181300000Y-114525000D01*
X177350000Y-115800000D02*
X180025000Y-115800000D01*
X176070000Y-114520000D02*
X177350000Y-115800000D01*
X161235000Y-114515000D02*
X163485000Y-114515000D01*
X166645000Y-114520000D02*
X171350000Y-114520000D01*
X165475000Y-113350000D02*
X166645000Y-114520000D01*
X164650000Y-113350000D02*
X165475000Y-113350000D01*
X163485000Y-114515000D02*
X164650000Y-113350000D01*
X171350000Y-111980000D02*
X176430000Y-111980000D01*
X190450000Y-111975000D02*
X192665000Y-111975000D01*
X189300000Y-110825000D02*
X190450000Y-111975000D01*
X188425000Y-110825000D02*
X189300000Y-110825000D01*
X187275000Y-111975000D02*
X188425000Y-110825000D01*
X181350000Y-111975000D02*
X187275000Y-111975000D01*
X180075000Y-113250000D02*
X181350000Y-111975000D01*
X177700000Y-113250000D02*
X180075000Y-113250000D01*
X176430000Y-111980000D02*
X177700000Y-113250000D01*
X161235000Y-111975000D02*
X163475000Y-111975000D01*
X166630000Y-111980000D02*
X171350000Y-111980000D01*
X165500000Y-110850000D02*
X166630000Y-111980000D01*
X164600000Y-110850000D02*
X165500000Y-110850000D01*
X163475000Y-111975000D02*
X164600000Y-110850000D01*
X171350000Y-109440000D02*
X176340000Y-109440000D01*
X190435000Y-109435000D02*
X192665000Y-109435000D01*
X189300000Y-108300000D02*
X190435000Y-109435000D01*
X188375000Y-108300000D02*
X189300000Y-108300000D01*
X187250000Y-109425000D02*
X188375000Y-108300000D01*
X181675000Y-109425000D02*
X187250000Y-109425000D01*
X180375000Y-110725000D02*
X181675000Y-109425000D01*
X177625000Y-110725000D02*
X180375000Y-110725000D01*
X176340000Y-109440000D02*
X177625000Y-110725000D01*
X161235000Y-109435000D02*
X163465000Y-109435000D01*
X166640000Y-109440000D02*
X171350000Y-109440000D01*
X165500000Y-108300000D02*
X166640000Y-109440000D01*
X164600000Y-108300000D02*
X165500000Y-108300000D01*
X163465000Y-109435000D02*
X164600000Y-108300000D01*
X171350000Y-106900000D02*
X176275000Y-106900000D01*
X190470000Y-106895000D02*
X192665000Y-106895000D01*
X189325000Y-105750000D02*
X190470000Y-106895000D01*
X188400000Y-105750000D02*
X189325000Y-105750000D01*
X187250000Y-106900000D02*
X188400000Y-105750000D01*
X181425000Y-106900000D02*
X187250000Y-106900000D01*
X180150000Y-108175000D02*
X181425000Y-106900000D01*
X177550000Y-108175000D02*
X180150000Y-108175000D01*
X176275000Y-106900000D02*
X177550000Y-108175000D01*
X161235000Y-106895000D02*
X163455000Y-106895000D01*
X166650000Y-106900000D02*
X171350000Y-106900000D01*
X165500000Y-105750000D02*
X166650000Y-106900000D01*
X164600000Y-105750000D02*
X165500000Y-105750000D01*
X163455000Y-106895000D02*
X164600000Y-105750000D01*
X171350000Y-104360000D02*
X176235000Y-104360000D01*
X190455000Y-104355000D02*
X192665000Y-104355000D01*
X189325000Y-103225000D02*
X190455000Y-104355000D01*
X188400000Y-103225000D02*
X189325000Y-103225000D01*
X187275000Y-104350000D02*
X188400000Y-103225000D01*
X181375000Y-104350000D02*
X187275000Y-104350000D01*
X180100000Y-105625000D02*
X181375000Y-104350000D01*
X177500000Y-105625000D02*
X180100000Y-105625000D01*
X176235000Y-104360000D02*
X177500000Y-105625000D01*
X161235000Y-104355000D02*
X163470000Y-104355000D01*
X166660000Y-104360000D02*
X171350000Y-104360000D01*
X165500000Y-103200000D02*
X166660000Y-104360000D01*
X164625000Y-103200000D02*
X165500000Y-103200000D01*
X163470000Y-104355000D02*
X164625000Y-103200000D01*
X171350000Y-101820000D02*
X176270000Y-101820000D01*
X190440000Y-101815000D02*
X192665000Y-101815000D01*
X189275000Y-100650000D02*
X190440000Y-101815000D01*
X188450000Y-100650000D02*
X189275000Y-100650000D01*
X187275000Y-101825000D02*
X188450000Y-100650000D01*
X181450000Y-101825000D02*
X187275000Y-101825000D01*
X180175000Y-103100000D02*
X181450000Y-101825000D01*
X177550000Y-103100000D02*
X180175000Y-103100000D01*
X176270000Y-101820000D02*
X177550000Y-103100000D01*
X161235000Y-101815000D02*
X163460000Y-101815000D01*
X166620000Y-101820000D02*
X171350000Y-101820000D01*
X165475000Y-100675000D02*
X166620000Y-101820000D01*
X164600000Y-100675000D02*
X165475000Y-100675000D01*
X163460000Y-101815000D02*
X164600000Y-100675000D01*
X171350000Y-99280000D02*
X176280000Y-99280000D01*
X190425000Y-99275000D02*
X192665000Y-99275000D01*
X189300000Y-98150000D02*
X190425000Y-99275000D01*
X188400000Y-98150000D02*
X189300000Y-98150000D01*
X187275000Y-99275000D02*
X188400000Y-98150000D01*
X181375000Y-99275000D02*
X187275000Y-99275000D01*
X180100000Y-100550000D02*
X181375000Y-99275000D01*
X177550000Y-100550000D02*
X180100000Y-100550000D01*
X176280000Y-99280000D02*
X177550000Y-100550000D01*
X161235000Y-99275000D02*
X163475000Y-99275000D01*
X166655000Y-99280000D02*
X171350000Y-99280000D01*
X165525000Y-98150000D02*
X166655000Y-99280000D01*
X164600000Y-98150000D02*
X165525000Y-98150000D01*
X163475000Y-99275000D02*
X164600000Y-98150000D01*
X171350000Y-96740000D02*
X176290000Y-96740000D01*
X190435000Y-96735000D02*
X192665000Y-96735000D01*
X189275000Y-95575000D02*
X190435000Y-96735000D01*
X188450000Y-95575000D02*
X189275000Y-95575000D01*
X187275000Y-96750000D02*
X188450000Y-95575000D01*
X181425000Y-96750000D02*
X187275000Y-96750000D01*
X180175000Y-98000000D02*
X181425000Y-96750000D01*
X177550000Y-98000000D02*
X180175000Y-98000000D01*
X176290000Y-96740000D02*
X177550000Y-98000000D01*
X161235000Y-96735000D02*
X163440000Y-96735000D01*
X166640000Y-96740000D02*
X171350000Y-96740000D01*
X165525000Y-95625000D02*
X166640000Y-96740000D01*
X164550000Y-95625000D02*
X165525000Y-95625000D01*
X163440000Y-96735000D02*
X164550000Y-95625000D01*
X171350000Y-94200000D02*
X176400000Y-94200000D01*
X190445000Y-94195000D02*
X192665000Y-94195000D01*
X189300000Y-93050000D02*
X190445000Y-94195000D01*
X188425000Y-93050000D02*
X189300000Y-93050000D01*
X187275000Y-94200000D02*
X188425000Y-93050000D01*
X181475000Y-94200000D02*
X187275000Y-94200000D01*
X180200000Y-95475000D02*
X181475000Y-94200000D01*
X177675000Y-95475000D02*
X180200000Y-95475000D01*
X176400000Y-94200000D02*
X177675000Y-95475000D01*
X161235000Y-94195000D02*
X163455000Y-94195000D01*
X166625000Y-94200000D02*
X171350000Y-94200000D01*
X165475000Y-93050000D02*
X166625000Y-94200000D01*
X164600000Y-93050000D02*
X165475000Y-93050000D01*
X163455000Y-94195000D02*
X164600000Y-93050000D01*
X171350000Y-91660000D02*
X176310000Y-91660000D01*
X190430000Y-91655000D02*
X192665000Y-91655000D01*
X189275000Y-90500000D02*
X190430000Y-91655000D01*
X188425000Y-90500000D02*
X189275000Y-90500000D01*
X187275000Y-91650000D02*
X188425000Y-90500000D01*
X181300000Y-91650000D02*
X187275000Y-91650000D01*
X180025000Y-92925000D02*
X181300000Y-91650000D01*
X177575000Y-92925000D02*
X180025000Y-92925000D01*
X176310000Y-91660000D02*
X177575000Y-92925000D01*
X161235000Y-91655000D02*
X163445000Y-91655000D01*
X166660000Y-91660000D02*
X171350000Y-91660000D01*
X165525000Y-90525000D02*
X166660000Y-91660000D01*
X164575000Y-90525000D02*
X165525000Y-90525000D01*
X163445000Y-91655000D02*
X164575000Y-90525000D01*
X171350000Y-89120000D02*
X176295000Y-89120000D01*
X190440000Y-89115000D02*
X192665000Y-89115000D01*
X189275000Y-87950000D02*
X190440000Y-89115000D01*
X188450000Y-87950000D02*
X189275000Y-87950000D01*
X187300000Y-89100000D02*
X188450000Y-87950000D01*
X181475000Y-89100000D02*
X187300000Y-89100000D01*
X180200000Y-90375000D02*
X181475000Y-89100000D01*
X177550000Y-90375000D02*
X180200000Y-90375000D01*
X176295000Y-89120000D02*
X177550000Y-90375000D01*
X161235000Y-89115000D02*
X163435000Y-89115000D01*
X166645000Y-89120000D02*
X171350000Y-89120000D01*
X165500000Y-87975000D02*
X166645000Y-89120000D01*
X164575000Y-87975000D02*
X165500000Y-87975000D01*
X163435000Y-89115000D02*
X164575000Y-87975000D01*
X171350000Y-86580000D02*
X176355000Y-86580000D01*
X190450000Y-86575000D02*
X192665000Y-86575000D01*
X189225000Y-85350000D02*
X190450000Y-86575000D01*
X188500000Y-85350000D02*
X189225000Y-85350000D01*
X187275000Y-86575000D02*
X188500000Y-85350000D01*
X181450000Y-86575000D02*
X187275000Y-86575000D01*
X180175000Y-87850000D02*
X181450000Y-86575000D01*
X177625000Y-87850000D02*
X180175000Y-87850000D01*
X176355000Y-86580000D02*
X177625000Y-87850000D01*
X161235000Y-86575000D02*
X163475000Y-86575000D01*
X166655000Y-86580000D02*
X171350000Y-86580000D01*
X165525000Y-85450000D02*
X166655000Y-86580000D01*
X164600000Y-85450000D02*
X165525000Y-85450000D01*
X163475000Y-86575000D02*
X164600000Y-85450000D01*
X171350000Y-84040000D02*
X176515000Y-84040000D01*
X190435000Y-84035000D02*
X192665000Y-84035000D01*
X189300000Y-82900000D02*
X190435000Y-84035000D01*
X188400000Y-82900000D02*
X189300000Y-82900000D01*
X187275000Y-84025000D02*
X188400000Y-82900000D01*
X181525000Y-84025000D02*
X187275000Y-84025000D01*
X180225000Y-85325000D02*
X181525000Y-84025000D01*
X177800000Y-85325000D02*
X180225000Y-85325000D01*
X176515000Y-84040000D02*
X177800000Y-85325000D01*
X161235000Y-84035000D02*
X163465000Y-84035000D01*
X166640000Y-84040000D02*
X171350000Y-84040000D01*
X165475000Y-82875000D02*
X166640000Y-84040000D01*
X164625000Y-82875000D02*
X165475000Y-82875000D01*
X163465000Y-84035000D02*
X164625000Y-82875000D01*
X171350000Y-81500000D02*
X176500000Y-81500000D01*
X190470000Y-81495000D02*
X192665000Y-81495000D01*
X189325000Y-80350000D02*
X190470000Y-81495000D01*
X188400000Y-80350000D02*
X189325000Y-80350000D01*
X187250000Y-81500000D02*
X188400000Y-80350000D01*
X181475000Y-81500000D02*
X187250000Y-81500000D01*
X180200000Y-82775000D02*
X181475000Y-81500000D01*
X177775000Y-82775000D02*
X180200000Y-82775000D01*
X176500000Y-81500000D02*
X177775000Y-82775000D01*
X161235000Y-81495000D02*
X163455000Y-81495000D01*
X166650000Y-81500000D02*
X171350000Y-81500000D01*
X165525000Y-80375000D02*
X166650000Y-81500000D01*
X164575000Y-80375000D02*
X165525000Y-80375000D01*
X163455000Y-81495000D02*
X164575000Y-80375000D01*
X171350000Y-78960000D02*
X176410000Y-78960000D01*
X190455000Y-78955000D02*
X192665000Y-78955000D01*
X189300000Y-77800000D02*
X190455000Y-78955000D01*
X188425000Y-77800000D02*
X189300000Y-77800000D01*
X187275000Y-78950000D02*
X188425000Y-77800000D01*
X181675000Y-78950000D02*
X187275000Y-78950000D01*
X180400000Y-80225000D02*
X181675000Y-78950000D01*
X177675000Y-80225000D02*
X180400000Y-80225000D01*
X176410000Y-78960000D02*
X177675000Y-80225000D01*
X161235000Y-78955000D02*
X163445000Y-78955000D01*
X166635000Y-78960000D02*
X171350000Y-78960000D01*
X165525000Y-77850000D02*
X166635000Y-78960000D01*
X164550000Y-77850000D02*
X165525000Y-77850000D01*
X163445000Y-78955000D02*
X164550000Y-77850000D01*
X171350000Y-76420000D02*
X176120000Y-76420000D01*
X190415000Y-76415000D02*
X192665000Y-76415000D01*
X189300000Y-75300000D02*
X190415000Y-76415000D01*
X188400000Y-75300000D02*
X189300000Y-75300000D01*
X187275000Y-76425000D02*
X188400000Y-75300000D01*
X181475000Y-76425000D02*
X187275000Y-76425000D01*
X180200000Y-77700000D02*
X181475000Y-76425000D01*
X177400000Y-77700000D02*
X180200000Y-77700000D01*
X176120000Y-76420000D02*
X177400000Y-77700000D01*
X161235000Y-76415000D02*
X163435000Y-76415000D01*
X166620000Y-76420000D02*
X171350000Y-76420000D01*
X165475000Y-75275000D02*
X166620000Y-76420000D01*
X164575000Y-75275000D02*
X165475000Y-75275000D01*
X163435000Y-76415000D02*
X164575000Y-75275000D01*
X171350000Y-73880000D02*
X176380000Y-73880000D01*
X190425000Y-73875000D02*
X192665000Y-73875000D01*
X189225000Y-72675000D02*
X190425000Y-73875000D01*
X188475000Y-72675000D02*
X189225000Y-72675000D01*
X187275000Y-73875000D02*
X188475000Y-72675000D01*
X181350000Y-73875000D02*
X187275000Y-73875000D01*
X180075000Y-75150000D02*
X181350000Y-73875000D01*
X177650000Y-75150000D02*
X180075000Y-75150000D01*
X176380000Y-73880000D02*
X177650000Y-75150000D01*
X161235000Y-73875000D02*
X163450000Y-73875000D01*
X166630000Y-73880000D02*
X171350000Y-73880000D01*
X165425000Y-72675000D02*
X166630000Y-73880000D01*
X164650000Y-72675000D02*
X165425000Y-72675000D01*
X163450000Y-73875000D02*
X164650000Y-72675000D01*
X171350000Y-71340000D02*
X176840000Y-71340000D01*
X190460000Y-71335000D02*
X192665000Y-71335000D01*
X189350000Y-70225000D02*
X190460000Y-71335000D01*
X188375000Y-70225000D02*
X189350000Y-70225000D01*
X187250000Y-71350000D02*
X188375000Y-70225000D01*
X181275000Y-71350000D02*
X187250000Y-71350000D01*
X180000000Y-72625000D02*
X181275000Y-71350000D01*
X178125000Y-72625000D02*
X180000000Y-72625000D01*
X176840000Y-71340000D02*
X178125000Y-72625000D01*
X161235000Y-71335000D02*
X163440000Y-71335000D01*
X166640000Y-71340000D02*
X171350000Y-71340000D01*
X165500000Y-70200000D02*
X166640000Y-71340000D01*
X164575000Y-70200000D02*
X165500000Y-70200000D01*
X163440000Y-71335000D02*
X164575000Y-70200000D01*
X171350000Y-68800000D02*
X176125000Y-68800000D01*
X190470000Y-68795000D02*
X192665000Y-68795000D01*
X189300000Y-67625000D02*
X190470000Y-68795000D01*
X188425000Y-67625000D02*
X189300000Y-67625000D01*
X187250000Y-68800000D02*
X188425000Y-67625000D01*
X181425000Y-68800000D02*
X187250000Y-68800000D01*
X180150000Y-70075000D02*
X181425000Y-68800000D01*
X177400000Y-70075000D02*
X180150000Y-70075000D01*
X176125000Y-68800000D02*
X177400000Y-70075000D01*
X161235000Y-68795000D02*
X163455000Y-68795000D01*
X166650000Y-68800000D02*
X171350000Y-68800000D01*
X165525000Y-67675000D02*
X166650000Y-68800000D01*
X164575000Y-67675000D02*
X165525000Y-67675000D01*
X163455000Y-68795000D02*
X164575000Y-67675000D01*
M02*
