%TF.GenerationSoftware,KiCad,Pcbnew,5.1.12-84ad8e8a86~92~ubuntu20.04.1*%
%TF.CreationDate,2022-06-08T18:54:32+02:00*%
%TF.ProjectId,bvm-a-card-breakout,62766d2d-612d-4636-9172-642d62726561,rev?*%
%TF.SameCoordinates,Original*%
%TF.FileFunction,Legend,Top*%
%TF.FilePolarity,Positive*%
%FSLAX46Y46*%
G04 Gerber Fmt 4.6, Leading zero omitted, Abs format (unit mm)*
G04 Created by KiCad (PCBNEW 5.1.12-84ad8e8a86~92~ubuntu20.04.1) date 2022-06-08 18:54:32*
%MOMM*%
%LPD*%
G01*
G04 APERTURE LIST*
%ADD10C,0.100000*%
%ADD11C,0.150000*%
%ADD12C,0.300000*%
%ADD13C,0.200000*%
%ADD14C,0.120000*%
G04 APERTURE END LIST*
D10*
X140455638Y-226807257D02*
X140455638Y-227327257D01*
X140336590Y-226510114D02*
X140217542Y-227067257D01*
X140527066Y-227067257D01*
X140455638Y-229087257D02*
X140360400Y-229087257D01*
X140312780Y-229124400D01*
X140288971Y-229161542D01*
X140241352Y-229272971D01*
X140217542Y-229421542D01*
X140217542Y-229718685D01*
X140241352Y-229792971D01*
X140265161Y-229830114D01*
X140312780Y-229867257D01*
X140408019Y-229867257D01*
X140455638Y-229830114D01*
X140479447Y-229792971D01*
X140503257Y-229718685D01*
X140503257Y-229532971D01*
X140479447Y-229458685D01*
X140455638Y-229421542D01*
X140408019Y-229384400D01*
X140312780Y-229384400D01*
X140265161Y-229421542D01*
X140241352Y-229458685D01*
X140217542Y-229532971D01*
X140312780Y-231961542D02*
X140265161Y-231924400D01*
X140241352Y-231887257D01*
X140217542Y-231812971D01*
X140217542Y-231775828D01*
X140241352Y-231701542D01*
X140265161Y-231664400D01*
X140312780Y-231627257D01*
X140408019Y-231627257D01*
X140455638Y-231664400D01*
X140479447Y-231701542D01*
X140503257Y-231775828D01*
X140503257Y-231812971D01*
X140479447Y-231887257D01*
X140455638Y-231924400D01*
X140408019Y-231961542D01*
X140312780Y-231961542D01*
X140265161Y-231998685D01*
X140241352Y-232035828D01*
X140217542Y-232110114D01*
X140217542Y-232258685D01*
X140241352Y-232332971D01*
X140265161Y-232370114D01*
X140312780Y-232407257D01*
X140408019Y-232407257D01*
X140455638Y-232370114D01*
X140479447Y-232332971D01*
X140503257Y-232258685D01*
X140503257Y-232110114D01*
X140479447Y-232035828D01*
X140455638Y-231998685D01*
X140408019Y-231961542D01*
X140265161Y-234947257D02*
X139979447Y-234947257D01*
X140122304Y-234947257D02*
X140122304Y-234167257D01*
X140074685Y-234278685D01*
X140027066Y-234352971D01*
X139979447Y-234390114D01*
X140574685Y-234167257D02*
X140622304Y-234167257D01*
X140669923Y-234204400D01*
X140693733Y-234241542D01*
X140717542Y-234315828D01*
X140741352Y-234464400D01*
X140741352Y-234650114D01*
X140717542Y-234798685D01*
X140693733Y-234872971D01*
X140669923Y-234910114D01*
X140622304Y-234947257D01*
X140574685Y-234947257D01*
X140527066Y-234910114D01*
X140503257Y-234872971D01*
X140479447Y-234798685D01*
X140455638Y-234650114D01*
X140455638Y-234464400D01*
X140479447Y-234315828D01*
X140503257Y-234241542D01*
X140527066Y-234204400D01*
X140574685Y-234167257D01*
X140265161Y-237487257D02*
X139979447Y-237487257D01*
X140122304Y-237487257D02*
X140122304Y-236707257D01*
X140074685Y-236818685D01*
X140027066Y-236892971D01*
X139979447Y-236930114D01*
X140455638Y-236781542D02*
X140479447Y-236744400D01*
X140527066Y-236707257D01*
X140646114Y-236707257D01*
X140693733Y-236744400D01*
X140717542Y-236781542D01*
X140741352Y-236855828D01*
X140741352Y-236930114D01*
X140717542Y-237041542D01*
X140431828Y-237487257D01*
X140741352Y-237487257D01*
X140265161Y-240027257D02*
X139979447Y-240027257D01*
X140122304Y-240027257D02*
X140122304Y-239247257D01*
X140074685Y-239358685D01*
X140027066Y-239432971D01*
X139979447Y-239470114D01*
X140693733Y-239507257D02*
X140693733Y-240027257D01*
X140574685Y-239210114D02*
X140455638Y-239767257D01*
X140765161Y-239767257D01*
X140265161Y-242567257D02*
X139979447Y-242567257D01*
X140122304Y-242567257D02*
X140122304Y-241787257D01*
X140074685Y-241898685D01*
X140027066Y-241972971D01*
X139979447Y-242010114D01*
X140693733Y-241787257D02*
X140598495Y-241787257D01*
X140550876Y-241824400D01*
X140527066Y-241861542D01*
X140479447Y-241972971D01*
X140455638Y-242121542D01*
X140455638Y-242418685D01*
X140479447Y-242492971D01*
X140503257Y-242530114D01*
X140550876Y-242567257D01*
X140646114Y-242567257D01*
X140693733Y-242530114D01*
X140717542Y-242492971D01*
X140741352Y-242418685D01*
X140741352Y-242232971D01*
X140717542Y-242158685D01*
X140693733Y-242121542D01*
X140646114Y-242084400D01*
X140550876Y-242084400D01*
X140503257Y-242121542D01*
X140479447Y-242158685D01*
X140455638Y-242232971D01*
X140265161Y-245107257D02*
X139979447Y-245107257D01*
X140122304Y-245107257D02*
X140122304Y-244327257D01*
X140074685Y-244438685D01*
X140027066Y-244512971D01*
X139979447Y-244550114D01*
X140550876Y-244661542D02*
X140503257Y-244624400D01*
X140479447Y-244587257D01*
X140455638Y-244512971D01*
X140455638Y-244475828D01*
X140479447Y-244401542D01*
X140503257Y-244364400D01*
X140550876Y-244327257D01*
X140646114Y-244327257D01*
X140693733Y-244364400D01*
X140717542Y-244401542D01*
X140741352Y-244475828D01*
X140741352Y-244512971D01*
X140717542Y-244587257D01*
X140693733Y-244624400D01*
X140646114Y-244661542D01*
X140550876Y-244661542D01*
X140503257Y-244698685D01*
X140479447Y-244735828D01*
X140455638Y-244810114D01*
X140455638Y-244958685D01*
X140479447Y-245032971D01*
X140503257Y-245070114D01*
X140550876Y-245107257D01*
X140646114Y-245107257D01*
X140693733Y-245070114D01*
X140717542Y-245032971D01*
X140741352Y-244958685D01*
X140741352Y-244810114D01*
X140717542Y-244735828D01*
X140693733Y-244698685D01*
X140646114Y-244661542D01*
X139979447Y-246941542D02*
X140003257Y-246904400D01*
X140050876Y-246867257D01*
X140169923Y-246867257D01*
X140217542Y-246904400D01*
X140241352Y-246941542D01*
X140265161Y-247015828D01*
X140265161Y-247090114D01*
X140241352Y-247201542D01*
X139955638Y-247647257D01*
X140265161Y-247647257D01*
X140574685Y-246867257D02*
X140622304Y-246867257D01*
X140669923Y-246904400D01*
X140693733Y-246941542D01*
X140717542Y-247015828D01*
X140741352Y-247164400D01*
X140741352Y-247350114D01*
X140717542Y-247498685D01*
X140693733Y-247572971D01*
X140669923Y-247610114D01*
X140622304Y-247647257D01*
X140574685Y-247647257D01*
X140527066Y-247610114D01*
X140503257Y-247572971D01*
X140479447Y-247498685D01*
X140455638Y-247350114D01*
X140455638Y-247164400D01*
X140479447Y-247015828D01*
X140503257Y-246941542D01*
X140527066Y-246904400D01*
X140574685Y-246867257D01*
X139979447Y-249481542D02*
X140003257Y-249444400D01*
X140050876Y-249407257D01*
X140169923Y-249407257D01*
X140217542Y-249444400D01*
X140241352Y-249481542D01*
X140265161Y-249555828D01*
X140265161Y-249630114D01*
X140241352Y-249741542D01*
X139955638Y-250187257D01*
X140265161Y-250187257D01*
X140455638Y-249481542D02*
X140479447Y-249444400D01*
X140527066Y-249407257D01*
X140646114Y-249407257D01*
X140693733Y-249444400D01*
X140717542Y-249481542D01*
X140741352Y-249555828D01*
X140741352Y-249630114D01*
X140717542Y-249741542D01*
X140431828Y-250187257D01*
X140741352Y-250187257D01*
X139979447Y-252021542D02*
X140003257Y-251984400D01*
X140050876Y-251947257D01*
X140169923Y-251947257D01*
X140217542Y-251984400D01*
X140241352Y-252021542D01*
X140265161Y-252095828D01*
X140265161Y-252170114D01*
X140241352Y-252281542D01*
X139955638Y-252727257D01*
X140265161Y-252727257D01*
X140693733Y-252207257D02*
X140693733Y-252727257D01*
X140574685Y-251910114D02*
X140455638Y-252467257D01*
X140765161Y-252467257D01*
X139979447Y-254561542D02*
X140003257Y-254524400D01*
X140050876Y-254487257D01*
X140169923Y-254487257D01*
X140217542Y-254524400D01*
X140241352Y-254561542D01*
X140265161Y-254635828D01*
X140265161Y-254710114D01*
X140241352Y-254821542D01*
X139955638Y-255267257D01*
X140265161Y-255267257D01*
X140693733Y-254487257D02*
X140598495Y-254487257D01*
X140550876Y-254524400D01*
X140527066Y-254561542D01*
X140479447Y-254672971D01*
X140455638Y-254821542D01*
X140455638Y-255118685D01*
X140479447Y-255192971D01*
X140503257Y-255230114D01*
X140550876Y-255267257D01*
X140646114Y-255267257D01*
X140693733Y-255230114D01*
X140717542Y-255192971D01*
X140741352Y-255118685D01*
X140741352Y-254932971D01*
X140717542Y-254858685D01*
X140693733Y-254821542D01*
X140646114Y-254784400D01*
X140550876Y-254784400D01*
X140503257Y-254821542D01*
X140479447Y-254858685D01*
X140455638Y-254932971D01*
X139979447Y-257101542D02*
X140003257Y-257064400D01*
X140050876Y-257027257D01*
X140169923Y-257027257D01*
X140217542Y-257064400D01*
X140241352Y-257101542D01*
X140265161Y-257175828D01*
X140265161Y-257250114D01*
X140241352Y-257361542D01*
X139955638Y-257807257D01*
X140265161Y-257807257D01*
X140550876Y-257361542D02*
X140503257Y-257324400D01*
X140479447Y-257287257D01*
X140455638Y-257212971D01*
X140455638Y-257175828D01*
X140479447Y-257101542D01*
X140503257Y-257064400D01*
X140550876Y-257027257D01*
X140646114Y-257027257D01*
X140693733Y-257064400D01*
X140717542Y-257101542D01*
X140741352Y-257175828D01*
X140741352Y-257212971D01*
X140717542Y-257287257D01*
X140693733Y-257324400D01*
X140646114Y-257361542D01*
X140550876Y-257361542D01*
X140503257Y-257398685D01*
X140479447Y-257435828D01*
X140455638Y-257510114D01*
X140455638Y-257658685D01*
X140479447Y-257732971D01*
X140503257Y-257770114D01*
X140550876Y-257807257D01*
X140646114Y-257807257D01*
X140693733Y-257770114D01*
X140717542Y-257732971D01*
X140741352Y-257658685D01*
X140741352Y-257510114D01*
X140717542Y-257435828D01*
X140693733Y-257398685D01*
X140646114Y-257361542D01*
X139955638Y-259567257D02*
X140265161Y-259567257D01*
X140098495Y-259864400D01*
X140169923Y-259864400D01*
X140217542Y-259901542D01*
X140241352Y-259938685D01*
X140265161Y-260012971D01*
X140265161Y-260198685D01*
X140241352Y-260272971D01*
X140217542Y-260310114D01*
X140169923Y-260347257D01*
X140027066Y-260347257D01*
X139979447Y-260310114D01*
X139955638Y-260272971D01*
X140574685Y-259567257D02*
X140622304Y-259567257D01*
X140669923Y-259604400D01*
X140693733Y-259641542D01*
X140717542Y-259715828D01*
X140741352Y-259864400D01*
X140741352Y-260050114D01*
X140717542Y-260198685D01*
X140693733Y-260272971D01*
X140669923Y-260310114D01*
X140622304Y-260347257D01*
X140574685Y-260347257D01*
X140527066Y-260310114D01*
X140503257Y-260272971D01*
X140479447Y-260198685D01*
X140455638Y-260050114D01*
X140455638Y-259864400D01*
X140479447Y-259715828D01*
X140503257Y-259641542D01*
X140527066Y-259604400D01*
X140574685Y-259567257D01*
X139955638Y-262107257D02*
X140265161Y-262107257D01*
X140098495Y-262404400D01*
X140169923Y-262404400D01*
X140217542Y-262441542D01*
X140241352Y-262478685D01*
X140265161Y-262552971D01*
X140265161Y-262738685D01*
X140241352Y-262812971D01*
X140217542Y-262850114D01*
X140169923Y-262887257D01*
X140027066Y-262887257D01*
X139979447Y-262850114D01*
X139955638Y-262812971D01*
X140455638Y-262181542D02*
X140479447Y-262144400D01*
X140527066Y-262107257D01*
X140646114Y-262107257D01*
X140693733Y-262144400D01*
X140717542Y-262181542D01*
X140741352Y-262255828D01*
X140741352Y-262330114D01*
X140717542Y-262441542D01*
X140431828Y-262887257D01*
X140741352Y-262887257D01*
X139955638Y-264647257D02*
X140265161Y-264647257D01*
X140098495Y-264944400D01*
X140169923Y-264944400D01*
X140217542Y-264981542D01*
X140241352Y-265018685D01*
X140265161Y-265092971D01*
X140265161Y-265278685D01*
X140241352Y-265352971D01*
X140217542Y-265390114D01*
X140169923Y-265427257D01*
X140027066Y-265427257D01*
X139979447Y-265390114D01*
X139955638Y-265352971D01*
X140693733Y-264907257D02*
X140693733Y-265427257D01*
X140574685Y-264610114D02*
X140455638Y-265167257D01*
X140765161Y-265167257D01*
X139955638Y-267187257D02*
X140265161Y-267187257D01*
X140098495Y-267484400D01*
X140169923Y-267484400D01*
X140217542Y-267521542D01*
X140241352Y-267558685D01*
X140265161Y-267632971D01*
X140265161Y-267818685D01*
X140241352Y-267892971D01*
X140217542Y-267930114D01*
X140169923Y-267967257D01*
X140027066Y-267967257D01*
X139979447Y-267930114D01*
X139955638Y-267892971D01*
X140693733Y-267187257D02*
X140598495Y-267187257D01*
X140550876Y-267224400D01*
X140527066Y-267261542D01*
X140479447Y-267372971D01*
X140455638Y-267521542D01*
X140455638Y-267818685D01*
X140479447Y-267892971D01*
X140503257Y-267930114D01*
X140550876Y-267967257D01*
X140646114Y-267967257D01*
X140693733Y-267930114D01*
X140717542Y-267892971D01*
X140741352Y-267818685D01*
X140741352Y-267632971D01*
X140717542Y-267558685D01*
X140693733Y-267521542D01*
X140646114Y-267484400D01*
X140550876Y-267484400D01*
X140503257Y-267521542D01*
X140479447Y-267558685D01*
X140455638Y-267632971D01*
X139955638Y-269727257D02*
X140265161Y-269727257D01*
X140098495Y-270024400D01*
X140169923Y-270024400D01*
X140217542Y-270061542D01*
X140241352Y-270098685D01*
X140265161Y-270172971D01*
X140265161Y-270358685D01*
X140241352Y-270432971D01*
X140217542Y-270470114D01*
X140169923Y-270507257D01*
X140027066Y-270507257D01*
X139979447Y-270470114D01*
X139955638Y-270432971D01*
X140550876Y-270061542D02*
X140503257Y-270024400D01*
X140479447Y-269987257D01*
X140455638Y-269912971D01*
X140455638Y-269875828D01*
X140479447Y-269801542D01*
X140503257Y-269764400D01*
X140550876Y-269727257D01*
X140646114Y-269727257D01*
X140693733Y-269764400D01*
X140717542Y-269801542D01*
X140741352Y-269875828D01*
X140741352Y-269912971D01*
X140717542Y-269987257D01*
X140693733Y-270024400D01*
X140646114Y-270061542D01*
X140550876Y-270061542D01*
X140503257Y-270098685D01*
X140479447Y-270135828D01*
X140455638Y-270210114D01*
X140455638Y-270358685D01*
X140479447Y-270432971D01*
X140503257Y-270470114D01*
X140550876Y-270507257D01*
X140646114Y-270507257D01*
X140693733Y-270470114D01*
X140717542Y-270432971D01*
X140741352Y-270358685D01*
X140741352Y-270210114D01*
X140717542Y-270135828D01*
X140693733Y-270098685D01*
X140646114Y-270061542D01*
X140217542Y-272527257D02*
X140217542Y-273047257D01*
X140098495Y-272230114D02*
X139979447Y-272787257D01*
X140288971Y-272787257D01*
X140574685Y-272267257D02*
X140622304Y-272267257D01*
X140669923Y-272304400D01*
X140693733Y-272341542D01*
X140717542Y-272415828D01*
X140741352Y-272564400D01*
X140741352Y-272750114D01*
X140717542Y-272898685D01*
X140693733Y-272972971D01*
X140669923Y-273010114D01*
X140622304Y-273047257D01*
X140574685Y-273047257D01*
X140527066Y-273010114D01*
X140503257Y-272972971D01*
X140479447Y-272898685D01*
X140455638Y-272750114D01*
X140455638Y-272564400D01*
X140479447Y-272415828D01*
X140503257Y-272341542D01*
X140527066Y-272304400D01*
X140574685Y-272267257D01*
X140217542Y-275067257D02*
X140217542Y-275587257D01*
X140098495Y-274770114D02*
X139979447Y-275327257D01*
X140288971Y-275327257D01*
X140455638Y-274881542D02*
X140479447Y-274844400D01*
X140527066Y-274807257D01*
X140646114Y-274807257D01*
X140693733Y-274844400D01*
X140717542Y-274881542D01*
X140741352Y-274955828D01*
X140741352Y-275030114D01*
X140717542Y-275141542D01*
X140431828Y-275587257D01*
X140741352Y-275587257D01*
X140217542Y-277607257D02*
X140217542Y-278127257D01*
X140098495Y-277310114D02*
X139979447Y-277867257D01*
X140288971Y-277867257D01*
X140693733Y-277607257D02*
X140693733Y-278127257D01*
X140574685Y-277310114D02*
X140455638Y-277867257D01*
X140765161Y-277867257D01*
X140217542Y-280147257D02*
X140217542Y-280667257D01*
X140098495Y-279850114D02*
X139979447Y-280407257D01*
X140288971Y-280407257D01*
X140693733Y-279887257D02*
X140598495Y-279887257D01*
X140550876Y-279924400D01*
X140527066Y-279961542D01*
X140479447Y-280072971D01*
X140455638Y-280221542D01*
X140455638Y-280518685D01*
X140479447Y-280592971D01*
X140503257Y-280630114D01*
X140550876Y-280667257D01*
X140646114Y-280667257D01*
X140693733Y-280630114D01*
X140717542Y-280592971D01*
X140741352Y-280518685D01*
X140741352Y-280332971D01*
X140717542Y-280258685D01*
X140693733Y-280221542D01*
X140646114Y-280184400D01*
X140550876Y-280184400D01*
X140503257Y-280221542D01*
X140479447Y-280258685D01*
X140455638Y-280332971D01*
X140217542Y-282687257D02*
X140217542Y-283207257D01*
X140098495Y-282390114D02*
X139979447Y-282947257D01*
X140288971Y-282947257D01*
X140550876Y-282761542D02*
X140503257Y-282724400D01*
X140479447Y-282687257D01*
X140455638Y-282612971D01*
X140455638Y-282575828D01*
X140479447Y-282501542D01*
X140503257Y-282464400D01*
X140550876Y-282427257D01*
X140646114Y-282427257D01*
X140693733Y-282464400D01*
X140717542Y-282501542D01*
X140741352Y-282575828D01*
X140741352Y-282612971D01*
X140717542Y-282687257D01*
X140693733Y-282724400D01*
X140646114Y-282761542D01*
X140550876Y-282761542D01*
X140503257Y-282798685D01*
X140479447Y-282835828D01*
X140455638Y-282910114D01*
X140455638Y-283058685D01*
X140479447Y-283132971D01*
X140503257Y-283170114D01*
X140550876Y-283207257D01*
X140646114Y-283207257D01*
X140693733Y-283170114D01*
X140717542Y-283132971D01*
X140741352Y-283058685D01*
X140741352Y-282910114D01*
X140717542Y-282835828D01*
X140693733Y-282798685D01*
X140646114Y-282761542D01*
X132988038Y-226807257D02*
X132988038Y-227327257D01*
X132868990Y-226510114D02*
X132749942Y-227067257D01*
X133059466Y-227067257D01*
X132988038Y-229087257D02*
X132892800Y-229087257D01*
X132845180Y-229124400D01*
X132821371Y-229161542D01*
X132773752Y-229272971D01*
X132749942Y-229421542D01*
X132749942Y-229718685D01*
X132773752Y-229792971D01*
X132797561Y-229830114D01*
X132845180Y-229867257D01*
X132940419Y-229867257D01*
X132988038Y-229830114D01*
X133011847Y-229792971D01*
X133035657Y-229718685D01*
X133035657Y-229532971D01*
X133011847Y-229458685D01*
X132988038Y-229421542D01*
X132940419Y-229384400D01*
X132845180Y-229384400D01*
X132797561Y-229421542D01*
X132773752Y-229458685D01*
X132749942Y-229532971D01*
X132845180Y-231961542D02*
X132797561Y-231924400D01*
X132773752Y-231887257D01*
X132749942Y-231812971D01*
X132749942Y-231775828D01*
X132773752Y-231701542D01*
X132797561Y-231664400D01*
X132845180Y-231627257D01*
X132940419Y-231627257D01*
X132988038Y-231664400D01*
X133011847Y-231701542D01*
X133035657Y-231775828D01*
X133035657Y-231812971D01*
X133011847Y-231887257D01*
X132988038Y-231924400D01*
X132940419Y-231961542D01*
X132845180Y-231961542D01*
X132797561Y-231998685D01*
X132773752Y-232035828D01*
X132749942Y-232110114D01*
X132749942Y-232258685D01*
X132773752Y-232332971D01*
X132797561Y-232370114D01*
X132845180Y-232407257D01*
X132940419Y-232407257D01*
X132988038Y-232370114D01*
X133011847Y-232332971D01*
X133035657Y-232258685D01*
X133035657Y-232110114D01*
X133011847Y-232035828D01*
X132988038Y-231998685D01*
X132940419Y-231961542D01*
X132797561Y-234947257D02*
X132511847Y-234947257D01*
X132654704Y-234947257D02*
X132654704Y-234167257D01*
X132607085Y-234278685D01*
X132559466Y-234352971D01*
X132511847Y-234390114D01*
X133107085Y-234167257D02*
X133154704Y-234167257D01*
X133202323Y-234204400D01*
X133226133Y-234241542D01*
X133249942Y-234315828D01*
X133273752Y-234464400D01*
X133273752Y-234650114D01*
X133249942Y-234798685D01*
X133226133Y-234872971D01*
X133202323Y-234910114D01*
X133154704Y-234947257D01*
X133107085Y-234947257D01*
X133059466Y-234910114D01*
X133035657Y-234872971D01*
X133011847Y-234798685D01*
X132988038Y-234650114D01*
X132988038Y-234464400D01*
X133011847Y-234315828D01*
X133035657Y-234241542D01*
X133059466Y-234204400D01*
X133107085Y-234167257D01*
X132797561Y-237487257D02*
X132511847Y-237487257D01*
X132654704Y-237487257D02*
X132654704Y-236707257D01*
X132607085Y-236818685D01*
X132559466Y-236892971D01*
X132511847Y-236930114D01*
X132988038Y-236781542D02*
X133011847Y-236744400D01*
X133059466Y-236707257D01*
X133178514Y-236707257D01*
X133226133Y-236744400D01*
X133249942Y-236781542D01*
X133273752Y-236855828D01*
X133273752Y-236930114D01*
X133249942Y-237041542D01*
X132964228Y-237487257D01*
X133273752Y-237487257D01*
X132797561Y-240027257D02*
X132511847Y-240027257D01*
X132654704Y-240027257D02*
X132654704Y-239247257D01*
X132607085Y-239358685D01*
X132559466Y-239432971D01*
X132511847Y-239470114D01*
X133226133Y-239507257D02*
X133226133Y-240027257D01*
X133107085Y-239210114D02*
X132988038Y-239767257D01*
X133297561Y-239767257D01*
X132797561Y-242567257D02*
X132511847Y-242567257D01*
X132654704Y-242567257D02*
X132654704Y-241787257D01*
X132607085Y-241898685D01*
X132559466Y-241972971D01*
X132511847Y-242010114D01*
X133226133Y-241787257D02*
X133130895Y-241787257D01*
X133083276Y-241824400D01*
X133059466Y-241861542D01*
X133011847Y-241972971D01*
X132988038Y-242121542D01*
X132988038Y-242418685D01*
X133011847Y-242492971D01*
X133035657Y-242530114D01*
X133083276Y-242567257D01*
X133178514Y-242567257D01*
X133226133Y-242530114D01*
X133249942Y-242492971D01*
X133273752Y-242418685D01*
X133273752Y-242232971D01*
X133249942Y-242158685D01*
X133226133Y-242121542D01*
X133178514Y-242084400D01*
X133083276Y-242084400D01*
X133035657Y-242121542D01*
X133011847Y-242158685D01*
X132988038Y-242232971D01*
X132797561Y-245107257D02*
X132511847Y-245107257D01*
X132654704Y-245107257D02*
X132654704Y-244327257D01*
X132607085Y-244438685D01*
X132559466Y-244512971D01*
X132511847Y-244550114D01*
X133083276Y-244661542D02*
X133035657Y-244624400D01*
X133011847Y-244587257D01*
X132988038Y-244512971D01*
X132988038Y-244475828D01*
X133011847Y-244401542D01*
X133035657Y-244364400D01*
X133083276Y-244327257D01*
X133178514Y-244327257D01*
X133226133Y-244364400D01*
X133249942Y-244401542D01*
X133273752Y-244475828D01*
X133273752Y-244512971D01*
X133249942Y-244587257D01*
X133226133Y-244624400D01*
X133178514Y-244661542D01*
X133083276Y-244661542D01*
X133035657Y-244698685D01*
X133011847Y-244735828D01*
X132988038Y-244810114D01*
X132988038Y-244958685D01*
X133011847Y-245032971D01*
X133035657Y-245070114D01*
X133083276Y-245107257D01*
X133178514Y-245107257D01*
X133226133Y-245070114D01*
X133249942Y-245032971D01*
X133273752Y-244958685D01*
X133273752Y-244810114D01*
X133249942Y-244735828D01*
X133226133Y-244698685D01*
X133178514Y-244661542D01*
X132511847Y-246941542D02*
X132535657Y-246904400D01*
X132583276Y-246867257D01*
X132702323Y-246867257D01*
X132749942Y-246904400D01*
X132773752Y-246941542D01*
X132797561Y-247015828D01*
X132797561Y-247090114D01*
X132773752Y-247201542D01*
X132488038Y-247647257D01*
X132797561Y-247647257D01*
X133107085Y-246867257D02*
X133154704Y-246867257D01*
X133202323Y-246904400D01*
X133226133Y-246941542D01*
X133249942Y-247015828D01*
X133273752Y-247164400D01*
X133273752Y-247350114D01*
X133249942Y-247498685D01*
X133226133Y-247572971D01*
X133202323Y-247610114D01*
X133154704Y-247647257D01*
X133107085Y-247647257D01*
X133059466Y-247610114D01*
X133035657Y-247572971D01*
X133011847Y-247498685D01*
X132988038Y-247350114D01*
X132988038Y-247164400D01*
X133011847Y-247015828D01*
X133035657Y-246941542D01*
X133059466Y-246904400D01*
X133107085Y-246867257D01*
X132511847Y-249481542D02*
X132535657Y-249444400D01*
X132583276Y-249407257D01*
X132702323Y-249407257D01*
X132749942Y-249444400D01*
X132773752Y-249481542D01*
X132797561Y-249555828D01*
X132797561Y-249630114D01*
X132773752Y-249741542D01*
X132488038Y-250187257D01*
X132797561Y-250187257D01*
X132988038Y-249481542D02*
X133011847Y-249444400D01*
X133059466Y-249407257D01*
X133178514Y-249407257D01*
X133226133Y-249444400D01*
X133249942Y-249481542D01*
X133273752Y-249555828D01*
X133273752Y-249630114D01*
X133249942Y-249741542D01*
X132964228Y-250187257D01*
X133273752Y-250187257D01*
X132511847Y-252021542D02*
X132535657Y-251984400D01*
X132583276Y-251947257D01*
X132702323Y-251947257D01*
X132749942Y-251984400D01*
X132773752Y-252021542D01*
X132797561Y-252095828D01*
X132797561Y-252170114D01*
X132773752Y-252281542D01*
X132488038Y-252727257D01*
X132797561Y-252727257D01*
X133226133Y-252207257D02*
X133226133Y-252727257D01*
X133107085Y-251910114D02*
X132988038Y-252467257D01*
X133297561Y-252467257D01*
X132511847Y-254561542D02*
X132535657Y-254524400D01*
X132583276Y-254487257D01*
X132702323Y-254487257D01*
X132749942Y-254524400D01*
X132773752Y-254561542D01*
X132797561Y-254635828D01*
X132797561Y-254710114D01*
X132773752Y-254821542D01*
X132488038Y-255267257D01*
X132797561Y-255267257D01*
X133226133Y-254487257D02*
X133130895Y-254487257D01*
X133083276Y-254524400D01*
X133059466Y-254561542D01*
X133011847Y-254672971D01*
X132988038Y-254821542D01*
X132988038Y-255118685D01*
X133011847Y-255192971D01*
X133035657Y-255230114D01*
X133083276Y-255267257D01*
X133178514Y-255267257D01*
X133226133Y-255230114D01*
X133249942Y-255192971D01*
X133273752Y-255118685D01*
X133273752Y-254932971D01*
X133249942Y-254858685D01*
X133226133Y-254821542D01*
X133178514Y-254784400D01*
X133083276Y-254784400D01*
X133035657Y-254821542D01*
X133011847Y-254858685D01*
X132988038Y-254932971D01*
X132511847Y-257101542D02*
X132535657Y-257064400D01*
X132583276Y-257027257D01*
X132702323Y-257027257D01*
X132749942Y-257064400D01*
X132773752Y-257101542D01*
X132797561Y-257175828D01*
X132797561Y-257250114D01*
X132773752Y-257361542D01*
X132488038Y-257807257D01*
X132797561Y-257807257D01*
X133083276Y-257361542D02*
X133035657Y-257324400D01*
X133011847Y-257287257D01*
X132988038Y-257212971D01*
X132988038Y-257175828D01*
X133011847Y-257101542D01*
X133035657Y-257064400D01*
X133083276Y-257027257D01*
X133178514Y-257027257D01*
X133226133Y-257064400D01*
X133249942Y-257101542D01*
X133273752Y-257175828D01*
X133273752Y-257212971D01*
X133249942Y-257287257D01*
X133226133Y-257324400D01*
X133178514Y-257361542D01*
X133083276Y-257361542D01*
X133035657Y-257398685D01*
X133011847Y-257435828D01*
X132988038Y-257510114D01*
X132988038Y-257658685D01*
X133011847Y-257732971D01*
X133035657Y-257770114D01*
X133083276Y-257807257D01*
X133178514Y-257807257D01*
X133226133Y-257770114D01*
X133249942Y-257732971D01*
X133273752Y-257658685D01*
X133273752Y-257510114D01*
X133249942Y-257435828D01*
X133226133Y-257398685D01*
X133178514Y-257361542D01*
X132488038Y-259567257D02*
X132797561Y-259567257D01*
X132630895Y-259864400D01*
X132702323Y-259864400D01*
X132749942Y-259901542D01*
X132773752Y-259938685D01*
X132797561Y-260012971D01*
X132797561Y-260198685D01*
X132773752Y-260272971D01*
X132749942Y-260310114D01*
X132702323Y-260347257D01*
X132559466Y-260347257D01*
X132511847Y-260310114D01*
X132488038Y-260272971D01*
X133107085Y-259567257D02*
X133154704Y-259567257D01*
X133202323Y-259604400D01*
X133226133Y-259641542D01*
X133249942Y-259715828D01*
X133273752Y-259864400D01*
X133273752Y-260050114D01*
X133249942Y-260198685D01*
X133226133Y-260272971D01*
X133202323Y-260310114D01*
X133154704Y-260347257D01*
X133107085Y-260347257D01*
X133059466Y-260310114D01*
X133035657Y-260272971D01*
X133011847Y-260198685D01*
X132988038Y-260050114D01*
X132988038Y-259864400D01*
X133011847Y-259715828D01*
X133035657Y-259641542D01*
X133059466Y-259604400D01*
X133107085Y-259567257D01*
X132488038Y-262107257D02*
X132797561Y-262107257D01*
X132630895Y-262404400D01*
X132702323Y-262404400D01*
X132749942Y-262441542D01*
X132773752Y-262478685D01*
X132797561Y-262552971D01*
X132797561Y-262738685D01*
X132773752Y-262812971D01*
X132749942Y-262850114D01*
X132702323Y-262887257D01*
X132559466Y-262887257D01*
X132511847Y-262850114D01*
X132488038Y-262812971D01*
X132988038Y-262181542D02*
X133011847Y-262144400D01*
X133059466Y-262107257D01*
X133178514Y-262107257D01*
X133226133Y-262144400D01*
X133249942Y-262181542D01*
X133273752Y-262255828D01*
X133273752Y-262330114D01*
X133249942Y-262441542D01*
X132964228Y-262887257D01*
X133273752Y-262887257D01*
X132488038Y-264647257D02*
X132797561Y-264647257D01*
X132630895Y-264944400D01*
X132702323Y-264944400D01*
X132749942Y-264981542D01*
X132773752Y-265018685D01*
X132797561Y-265092971D01*
X132797561Y-265278685D01*
X132773752Y-265352971D01*
X132749942Y-265390114D01*
X132702323Y-265427257D01*
X132559466Y-265427257D01*
X132511847Y-265390114D01*
X132488038Y-265352971D01*
X133226133Y-264907257D02*
X133226133Y-265427257D01*
X133107085Y-264610114D02*
X132988038Y-265167257D01*
X133297561Y-265167257D01*
X132488038Y-267187257D02*
X132797561Y-267187257D01*
X132630895Y-267484400D01*
X132702323Y-267484400D01*
X132749942Y-267521542D01*
X132773752Y-267558685D01*
X132797561Y-267632971D01*
X132797561Y-267818685D01*
X132773752Y-267892971D01*
X132749942Y-267930114D01*
X132702323Y-267967257D01*
X132559466Y-267967257D01*
X132511847Y-267930114D01*
X132488038Y-267892971D01*
X133226133Y-267187257D02*
X133130895Y-267187257D01*
X133083276Y-267224400D01*
X133059466Y-267261542D01*
X133011847Y-267372971D01*
X132988038Y-267521542D01*
X132988038Y-267818685D01*
X133011847Y-267892971D01*
X133035657Y-267930114D01*
X133083276Y-267967257D01*
X133178514Y-267967257D01*
X133226133Y-267930114D01*
X133249942Y-267892971D01*
X133273752Y-267818685D01*
X133273752Y-267632971D01*
X133249942Y-267558685D01*
X133226133Y-267521542D01*
X133178514Y-267484400D01*
X133083276Y-267484400D01*
X133035657Y-267521542D01*
X133011847Y-267558685D01*
X132988038Y-267632971D01*
X132488038Y-269727257D02*
X132797561Y-269727257D01*
X132630895Y-270024400D01*
X132702323Y-270024400D01*
X132749942Y-270061542D01*
X132773752Y-270098685D01*
X132797561Y-270172971D01*
X132797561Y-270358685D01*
X132773752Y-270432971D01*
X132749942Y-270470114D01*
X132702323Y-270507257D01*
X132559466Y-270507257D01*
X132511847Y-270470114D01*
X132488038Y-270432971D01*
X133083276Y-270061542D02*
X133035657Y-270024400D01*
X133011847Y-269987257D01*
X132988038Y-269912971D01*
X132988038Y-269875828D01*
X133011847Y-269801542D01*
X133035657Y-269764400D01*
X133083276Y-269727257D01*
X133178514Y-269727257D01*
X133226133Y-269764400D01*
X133249942Y-269801542D01*
X133273752Y-269875828D01*
X133273752Y-269912971D01*
X133249942Y-269987257D01*
X133226133Y-270024400D01*
X133178514Y-270061542D01*
X133083276Y-270061542D01*
X133035657Y-270098685D01*
X133011847Y-270135828D01*
X132988038Y-270210114D01*
X132988038Y-270358685D01*
X133011847Y-270432971D01*
X133035657Y-270470114D01*
X133083276Y-270507257D01*
X133178514Y-270507257D01*
X133226133Y-270470114D01*
X133249942Y-270432971D01*
X133273752Y-270358685D01*
X133273752Y-270210114D01*
X133249942Y-270135828D01*
X133226133Y-270098685D01*
X133178514Y-270061542D01*
X132749942Y-272527257D02*
X132749942Y-273047257D01*
X132630895Y-272230114D02*
X132511847Y-272787257D01*
X132821371Y-272787257D01*
X133107085Y-272267257D02*
X133154704Y-272267257D01*
X133202323Y-272304400D01*
X133226133Y-272341542D01*
X133249942Y-272415828D01*
X133273752Y-272564400D01*
X133273752Y-272750114D01*
X133249942Y-272898685D01*
X133226133Y-272972971D01*
X133202323Y-273010114D01*
X133154704Y-273047257D01*
X133107085Y-273047257D01*
X133059466Y-273010114D01*
X133035657Y-272972971D01*
X133011847Y-272898685D01*
X132988038Y-272750114D01*
X132988038Y-272564400D01*
X133011847Y-272415828D01*
X133035657Y-272341542D01*
X133059466Y-272304400D01*
X133107085Y-272267257D01*
X132749942Y-275067257D02*
X132749942Y-275587257D01*
X132630895Y-274770114D02*
X132511847Y-275327257D01*
X132821371Y-275327257D01*
X132988038Y-274881542D02*
X133011847Y-274844400D01*
X133059466Y-274807257D01*
X133178514Y-274807257D01*
X133226133Y-274844400D01*
X133249942Y-274881542D01*
X133273752Y-274955828D01*
X133273752Y-275030114D01*
X133249942Y-275141542D01*
X132964228Y-275587257D01*
X133273752Y-275587257D01*
X132749942Y-277607257D02*
X132749942Y-278127257D01*
X132630895Y-277310114D02*
X132511847Y-277867257D01*
X132821371Y-277867257D01*
X133226133Y-277607257D02*
X133226133Y-278127257D01*
X133107085Y-277310114D02*
X132988038Y-277867257D01*
X133297561Y-277867257D01*
X132749942Y-280147257D02*
X132749942Y-280667257D01*
X132630895Y-279850114D02*
X132511847Y-280407257D01*
X132821371Y-280407257D01*
X133226133Y-279887257D02*
X133130895Y-279887257D01*
X133083276Y-279924400D01*
X133059466Y-279961542D01*
X133011847Y-280072971D01*
X132988038Y-280221542D01*
X132988038Y-280518685D01*
X133011847Y-280592971D01*
X133035657Y-280630114D01*
X133083276Y-280667257D01*
X133178514Y-280667257D01*
X133226133Y-280630114D01*
X133249942Y-280592971D01*
X133273752Y-280518685D01*
X133273752Y-280332971D01*
X133249942Y-280258685D01*
X133226133Y-280221542D01*
X133178514Y-280184400D01*
X133083276Y-280184400D01*
X133035657Y-280221542D01*
X133011847Y-280258685D01*
X132988038Y-280332971D01*
X132749942Y-282687257D02*
X132749942Y-283207257D01*
X132630895Y-282390114D02*
X132511847Y-282947257D01*
X132821371Y-282947257D01*
X133083276Y-282761542D02*
X133035657Y-282724400D01*
X133011847Y-282687257D01*
X132988038Y-282612971D01*
X132988038Y-282575828D01*
X133011847Y-282501542D01*
X133035657Y-282464400D01*
X133083276Y-282427257D01*
X133178514Y-282427257D01*
X133226133Y-282464400D01*
X133249942Y-282501542D01*
X133273752Y-282575828D01*
X133273752Y-282612971D01*
X133249942Y-282687257D01*
X133226133Y-282724400D01*
X133178514Y-282761542D01*
X133083276Y-282761542D01*
X133035657Y-282798685D01*
X133011847Y-282835828D01*
X132988038Y-282910114D01*
X132988038Y-283058685D01*
X133011847Y-283132971D01*
X133035657Y-283170114D01*
X133083276Y-283207257D01*
X133178514Y-283207257D01*
X133226133Y-283170114D01*
X133249942Y-283132971D01*
X133273752Y-283058685D01*
X133273752Y-282910114D01*
X133249942Y-282835828D01*
X133226133Y-282798685D01*
X133178514Y-282761542D01*
X136459933Y-225277257D02*
X136769457Y-225277257D01*
X136602790Y-225574400D01*
X136674219Y-225574400D01*
X136721838Y-225611542D01*
X136745647Y-225648685D01*
X136769457Y-225722971D01*
X136769457Y-225908685D01*
X136745647Y-225982971D01*
X136721838Y-226020114D01*
X136674219Y-226057257D01*
X136531361Y-226057257D01*
X136483742Y-226020114D01*
X136459933Y-225982971D01*
X136745647Y-227817257D02*
X136507552Y-227817257D01*
X136483742Y-228188685D01*
X136507552Y-228151542D01*
X136555171Y-228114400D01*
X136674219Y-228114400D01*
X136721838Y-228151542D01*
X136745647Y-228188685D01*
X136769457Y-228262971D01*
X136769457Y-228448685D01*
X136745647Y-228522971D01*
X136721838Y-228560114D01*
X136674219Y-228597257D01*
X136555171Y-228597257D01*
X136507552Y-228560114D01*
X136483742Y-228522971D01*
X136459933Y-230357257D02*
X136793266Y-230357257D01*
X136578980Y-231137257D01*
X136531361Y-233677257D02*
X136626600Y-233677257D01*
X136674219Y-233640114D01*
X136698028Y-233602971D01*
X136745647Y-233491542D01*
X136769457Y-233342971D01*
X136769457Y-233045828D01*
X136745647Y-232971542D01*
X136721838Y-232934400D01*
X136674219Y-232897257D01*
X136578980Y-232897257D01*
X136531361Y-232934400D01*
X136507552Y-232971542D01*
X136483742Y-233045828D01*
X136483742Y-233231542D01*
X136507552Y-233305828D01*
X136531361Y-233342971D01*
X136578980Y-233380114D01*
X136674219Y-233380114D01*
X136721838Y-233342971D01*
X136745647Y-233305828D01*
X136769457Y-233231542D01*
X136531361Y-236217257D02*
X136245647Y-236217257D01*
X136388504Y-236217257D02*
X136388504Y-235437257D01*
X136340885Y-235548685D01*
X136293266Y-235622971D01*
X136245647Y-235660114D01*
X137007552Y-236217257D02*
X136721838Y-236217257D01*
X136864695Y-236217257D02*
X136864695Y-235437257D01*
X136817076Y-235548685D01*
X136769457Y-235622971D01*
X136721838Y-235660114D01*
X136531361Y-238757257D02*
X136245647Y-238757257D01*
X136388504Y-238757257D02*
X136388504Y-237977257D01*
X136340885Y-238088685D01*
X136293266Y-238162971D01*
X136245647Y-238200114D01*
X136698028Y-237977257D02*
X137007552Y-237977257D01*
X136840885Y-238274400D01*
X136912314Y-238274400D01*
X136959933Y-238311542D01*
X136983742Y-238348685D01*
X137007552Y-238422971D01*
X137007552Y-238608685D01*
X136983742Y-238682971D01*
X136959933Y-238720114D01*
X136912314Y-238757257D01*
X136769457Y-238757257D01*
X136721838Y-238720114D01*
X136698028Y-238682971D01*
X136531361Y-241297257D02*
X136245647Y-241297257D01*
X136388504Y-241297257D02*
X136388504Y-240517257D01*
X136340885Y-240628685D01*
X136293266Y-240702971D01*
X136245647Y-240740114D01*
X136983742Y-240517257D02*
X136745647Y-240517257D01*
X136721838Y-240888685D01*
X136745647Y-240851542D01*
X136793266Y-240814400D01*
X136912314Y-240814400D01*
X136959933Y-240851542D01*
X136983742Y-240888685D01*
X137007552Y-240962971D01*
X137007552Y-241148685D01*
X136983742Y-241222971D01*
X136959933Y-241260114D01*
X136912314Y-241297257D01*
X136793266Y-241297257D01*
X136745647Y-241260114D01*
X136721838Y-241222971D01*
X136531361Y-243837257D02*
X136245647Y-243837257D01*
X136388504Y-243837257D02*
X136388504Y-243057257D01*
X136340885Y-243168685D01*
X136293266Y-243242971D01*
X136245647Y-243280114D01*
X136698028Y-243057257D02*
X137031361Y-243057257D01*
X136817076Y-243837257D01*
X136531361Y-246377257D02*
X136245647Y-246377257D01*
X136388504Y-246377257D02*
X136388504Y-245597257D01*
X136340885Y-245708685D01*
X136293266Y-245782971D01*
X136245647Y-245820114D01*
X136769457Y-246377257D02*
X136864695Y-246377257D01*
X136912314Y-246340114D01*
X136936123Y-246302971D01*
X136983742Y-246191542D01*
X137007552Y-246042971D01*
X137007552Y-245745828D01*
X136983742Y-245671542D01*
X136959933Y-245634400D01*
X136912314Y-245597257D01*
X136817076Y-245597257D01*
X136769457Y-245634400D01*
X136745647Y-245671542D01*
X136721838Y-245745828D01*
X136721838Y-245931542D01*
X136745647Y-246005828D01*
X136769457Y-246042971D01*
X136817076Y-246080114D01*
X136912314Y-246080114D01*
X136959933Y-246042971D01*
X136983742Y-246005828D01*
X137007552Y-245931542D01*
X136245647Y-248211542D02*
X136269457Y-248174400D01*
X136317076Y-248137257D01*
X136436123Y-248137257D01*
X136483742Y-248174400D01*
X136507552Y-248211542D01*
X136531361Y-248285828D01*
X136531361Y-248360114D01*
X136507552Y-248471542D01*
X136221838Y-248917257D01*
X136531361Y-248917257D01*
X137007552Y-248917257D02*
X136721838Y-248917257D01*
X136864695Y-248917257D02*
X136864695Y-248137257D01*
X136817076Y-248248685D01*
X136769457Y-248322971D01*
X136721838Y-248360114D01*
X136245647Y-250751542D02*
X136269457Y-250714400D01*
X136317076Y-250677257D01*
X136436123Y-250677257D01*
X136483742Y-250714400D01*
X136507552Y-250751542D01*
X136531361Y-250825828D01*
X136531361Y-250900114D01*
X136507552Y-251011542D01*
X136221838Y-251457257D01*
X136531361Y-251457257D01*
X136698028Y-250677257D02*
X137007552Y-250677257D01*
X136840885Y-250974400D01*
X136912314Y-250974400D01*
X136959933Y-251011542D01*
X136983742Y-251048685D01*
X137007552Y-251122971D01*
X137007552Y-251308685D01*
X136983742Y-251382971D01*
X136959933Y-251420114D01*
X136912314Y-251457257D01*
X136769457Y-251457257D01*
X136721838Y-251420114D01*
X136698028Y-251382971D01*
X136245647Y-253291542D02*
X136269457Y-253254400D01*
X136317076Y-253217257D01*
X136436123Y-253217257D01*
X136483742Y-253254400D01*
X136507552Y-253291542D01*
X136531361Y-253365828D01*
X136531361Y-253440114D01*
X136507552Y-253551542D01*
X136221838Y-253997257D01*
X136531361Y-253997257D01*
X136983742Y-253217257D02*
X136745647Y-253217257D01*
X136721838Y-253588685D01*
X136745647Y-253551542D01*
X136793266Y-253514400D01*
X136912314Y-253514400D01*
X136959933Y-253551542D01*
X136983742Y-253588685D01*
X137007552Y-253662971D01*
X137007552Y-253848685D01*
X136983742Y-253922971D01*
X136959933Y-253960114D01*
X136912314Y-253997257D01*
X136793266Y-253997257D01*
X136745647Y-253960114D01*
X136721838Y-253922971D01*
X136245647Y-255831542D02*
X136269457Y-255794400D01*
X136317076Y-255757257D01*
X136436123Y-255757257D01*
X136483742Y-255794400D01*
X136507552Y-255831542D01*
X136531361Y-255905828D01*
X136531361Y-255980114D01*
X136507552Y-256091542D01*
X136221838Y-256537257D01*
X136531361Y-256537257D01*
X136698028Y-255757257D02*
X137031361Y-255757257D01*
X136817076Y-256537257D01*
X136245647Y-258371542D02*
X136269457Y-258334400D01*
X136317076Y-258297257D01*
X136436123Y-258297257D01*
X136483742Y-258334400D01*
X136507552Y-258371542D01*
X136531361Y-258445828D01*
X136531361Y-258520114D01*
X136507552Y-258631542D01*
X136221838Y-259077257D01*
X136531361Y-259077257D01*
X136769457Y-259077257D02*
X136864695Y-259077257D01*
X136912314Y-259040114D01*
X136936123Y-259002971D01*
X136983742Y-258891542D01*
X137007552Y-258742971D01*
X137007552Y-258445828D01*
X136983742Y-258371542D01*
X136959933Y-258334400D01*
X136912314Y-258297257D01*
X136817076Y-258297257D01*
X136769457Y-258334400D01*
X136745647Y-258371542D01*
X136721838Y-258445828D01*
X136721838Y-258631542D01*
X136745647Y-258705828D01*
X136769457Y-258742971D01*
X136817076Y-258780114D01*
X136912314Y-258780114D01*
X136959933Y-258742971D01*
X136983742Y-258705828D01*
X137007552Y-258631542D01*
X136221838Y-260837257D02*
X136531361Y-260837257D01*
X136364695Y-261134400D01*
X136436123Y-261134400D01*
X136483742Y-261171542D01*
X136507552Y-261208685D01*
X136531361Y-261282971D01*
X136531361Y-261468685D01*
X136507552Y-261542971D01*
X136483742Y-261580114D01*
X136436123Y-261617257D01*
X136293266Y-261617257D01*
X136245647Y-261580114D01*
X136221838Y-261542971D01*
X137007552Y-261617257D02*
X136721838Y-261617257D01*
X136864695Y-261617257D02*
X136864695Y-260837257D01*
X136817076Y-260948685D01*
X136769457Y-261022971D01*
X136721838Y-261060114D01*
X136221838Y-263377257D02*
X136531361Y-263377257D01*
X136364695Y-263674400D01*
X136436123Y-263674400D01*
X136483742Y-263711542D01*
X136507552Y-263748685D01*
X136531361Y-263822971D01*
X136531361Y-264008685D01*
X136507552Y-264082971D01*
X136483742Y-264120114D01*
X136436123Y-264157257D01*
X136293266Y-264157257D01*
X136245647Y-264120114D01*
X136221838Y-264082971D01*
X136698028Y-263377257D02*
X137007552Y-263377257D01*
X136840885Y-263674400D01*
X136912314Y-263674400D01*
X136959933Y-263711542D01*
X136983742Y-263748685D01*
X137007552Y-263822971D01*
X137007552Y-264008685D01*
X136983742Y-264082971D01*
X136959933Y-264120114D01*
X136912314Y-264157257D01*
X136769457Y-264157257D01*
X136721838Y-264120114D01*
X136698028Y-264082971D01*
X136221838Y-265917257D02*
X136531361Y-265917257D01*
X136364695Y-266214400D01*
X136436123Y-266214400D01*
X136483742Y-266251542D01*
X136507552Y-266288685D01*
X136531361Y-266362971D01*
X136531361Y-266548685D01*
X136507552Y-266622971D01*
X136483742Y-266660114D01*
X136436123Y-266697257D01*
X136293266Y-266697257D01*
X136245647Y-266660114D01*
X136221838Y-266622971D01*
X136983742Y-265917257D02*
X136745647Y-265917257D01*
X136721838Y-266288685D01*
X136745647Y-266251542D01*
X136793266Y-266214400D01*
X136912314Y-266214400D01*
X136959933Y-266251542D01*
X136983742Y-266288685D01*
X137007552Y-266362971D01*
X137007552Y-266548685D01*
X136983742Y-266622971D01*
X136959933Y-266660114D01*
X136912314Y-266697257D01*
X136793266Y-266697257D01*
X136745647Y-266660114D01*
X136721838Y-266622971D01*
X136221838Y-268457257D02*
X136531361Y-268457257D01*
X136364695Y-268754400D01*
X136436123Y-268754400D01*
X136483742Y-268791542D01*
X136507552Y-268828685D01*
X136531361Y-268902971D01*
X136531361Y-269088685D01*
X136507552Y-269162971D01*
X136483742Y-269200114D01*
X136436123Y-269237257D01*
X136293266Y-269237257D01*
X136245647Y-269200114D01*
X136221838Y-269162971D01*
X136698028Y-268457257D02*
X137031361Y-268457257D01*
X136817076Y-269237257D01*
X136221838Y-270997257D02*
X136531361Y-270997257D01*
X136364695Y-271294400D01*
X136436123Y-271294400D01*
X136483742Y-271331542D01*
X136507552Y-271368685D01*
X136531361Y-271442971D01*
X136531361Y-271628685D01*
X136507552Y-271702971D01*
X136483742Y-271740114D01*
X136436123Y-271777257D01*
X136293266Y-271777257D01*
X136245647Y-271740114D01*
X136221838Y-271702971D01*
X136769457Y-271777257D02*
X136864695Y-271777257D01*
X136912314Y-271740114D01*
X136936123Y-271702971D01*
X136983742Y-271591542D01*
X137007552Y-271442971D01*
X137007552Y-271145828D01*
X136983742Y-271071542D01*
X136959933Y-271034400D01*
X136912314Y-270997257D01*
X136817076Y-270997257D01*
X136769457Y-271034400D01*
X136745647Y-271071542D01*
X136721838Y-271145828D01*
X136721838Y-271331542D01*
X136745647Y-271405828D01*
X136769457Y-271442971D01*
X136817076Y-271480114D01*
X136912314Y-271480114D01*
X136959933Y-271442971D01*
X136983742Y-271405828D01*
X137007552Y-271331542D01*
X136483742Y-273797257D02*
X136483742Y-274317257D01*
X136364695Y-273500114D02*
X136245647Y-274057257D01*
X136555171Y-274057257D01*
X137007552Y-274317257D02*
X136721838Y-274317257D01*
X136864695Y-274317257D02*
X136864695Y-273537257D01*
X136817076Y-273648685D01*
X136769457Y-273722971D01*
X136721838Y-273760114D01*
X136483742Y-276337257D02*
X136483742Y-276857257D01*
X136364695Y-276040114D02*
X136245647Y-276597257D01*
X136555171Y-276597257D01*
X136698028Y-276077257D02*
X137007552Y-276077257D01*
X136840885Y-276374400D01*
X136912314Y-276374400D01*
X136959933Y-276411542D01*
X136983742Y-276448685D01*
X137007552Y-276522971D01*
X137007552Y-276708685D01*
X136983742Y-276782971D01*
X136959933Y-276820114D01*
X136912314Y-276857257D01*
X136769457Y-276857257D01*
X136721838Y-276820114D01*
X136698028Y-276782971D01*
X136483742Y-278877257D02*
X136483742Y-279397257D01*
X136364695Y-278580114D02*
X136245647Y-279137257D01*
X136555171Y-279137257D01*
X136983742Y-278617257D02*
X136745647Y-278617257D01*
X136721838Y-278988685D01*
X136745647Y-278951542D01*
X136793266Y-278914400D01*
X136912314Y-278914400D01*
X136959933Y-278951542D01*
X136983742Y-278988685D01*
X137007552Y-279062971D01*
X137007552Y-279248685D01*
X136983742Y-279322971D01*
X136959933Y-279360114D01*
X136912314Y-279397257D01*
X136793266Y-279397257D01*
X136745647Y-279360114D01*
X136721838Y-279322971D01*
X136483742Y-281417257D02*
X136483742Y-281937257D01*
X136364695Y-281120114D02*
X136245647Y-281677257D01*
X136555171Y-281677257D01*
X136698028Y-281157257D02*
X137031361Y-281157257D01*
X136817076Y-281937257D01*
X143927533Y-225277257D02*
X144237057Y-225277257D01*
X144070390Y-225574400D01*
X144141819Y-225574400D01*
X144189438Y-225611542D01*
X144213247Y-225648685D01*
X144237057Y-225722971D01*
X144237057Y-225908685D01*
X144213247Y-225982971D01*
X144189438Y-226020114D01*
X144141819Y-226057257D01*
X143998961Y-226057257D01*
X143951342Y-226020114D01*
X143927533Y-225982971D01*
X144213247Y-227817257D02*
X143975152Y-227817257D01*
X143951342Y-228188685D01*
X143975152Y-228151542D01*
X144022771Y-228114400D01*
X144141819Y-228114400D01*
X144189438Y-228151542D01*
X144213247Y-228188685D01*
X144237057Y-228262971D01*
X144237057Y-228448685D01*
X144213247Y-228522971D01*
X144189438Y-228560114D01*
X144141819Y-228597257D01*
X144022771Y-228597257D01*
X143975152Y-228560114D01*
X143951342Y-228522971D01*
X143927533Y-230357257D02*
X144260866Y-230357257D01*
X144046580Y-231137257D01*
X143998961Y-233677257D02*
X144094200Y-233677257D01*
X144141819Y-233640114D01*
X144165628Y-233602971D01*
X144213247Y-233491542D01*
X144237057Y-233342971D01*
X144237057Y-233045828D01*
X144213247Y-232971542D01*
X144189438Y-232934400D01*
X144141819Y-232897257D01*
X144046580Y-232897257D01*
X143998961Y-232934400D01*
X143975152Y-232971542D01*
X143951342Y-233045828D01*
X143951342Y-233231542D01*
X143975152Y-233305828D01*
X143998961Y-233342971D01*
X144046580Y-233380114D01*
X144141819Y-233380114D01*
X144189438Y-233342971D01*
X144213247Y-233305828D01*
X144237057Y-233231542D01*
X143998961Y-236217257D02*
X143713247Y-236217257D01*
X143856104Y-236217257D02*
X143856104Y-235437257D01*
X143808485Y-235548685D01*
X143760866Y-235622971D01*
X143713247Y-235660114D01*
X144475152Y-236217257D02*
X144189438Y-236217257D01*
X144332295Y-236217257D02*
X144332295Y-235437257D01*
X144284676Y-235548685D01*
X144237057Y-235622971D01*
X144189438Y-235660114D01*
X143998961Y-238757257D02*
X143713247Y-238757257D01*
X143856104Y-238757257D02*
X143856104Y-237977257D01*
X143808485Y-238088685D01*
X143760866Y-238162971D01*
X143713247Y-238200114D01*
X144165628Y-237977257D02*
X144475152Y-237977257D01*
X144308485Y-238274400D01*
X144379914Y-238274400D01*
X144427533Y-238311542D01*
X144451342Y-238348685D01*
X144475152Y-238422971D01*
X144475152Y-238608685D01*
X144451342Y-238682971D01*
X144427533Y-238720114D01*
X144379914Y-238757257D01*
X144237057Y-238757257D01*
X144189438Y-238720114D01*
X144165628Y-238682971D01*
X143998961Y-241297257D02*
X143713247Y-241297257D01*
X143856104Y-241297257D02*
X143856104Y-240517257D01*
X143808485Y-240628685D01*
X143760866Y-240702971D01*
X143713247Y-240740114D01*
X144451342Y-240517257D02*
X144213247Y-240517257D01*
X144189438Y-240888685D01*
X144213247Y-240851542D01*
X144260866Y-240814400D01*
X144379914Y-240814400D01*
X144427533Y-240851542D01*
X144451342Y-240888685D01*
X144475152Y-240962971D01*
X144475152Y-241148685D01*
X144451342Y-241222971D01*
X144427533Y-241260114D01*
X144379914Y-241297257D01*
X144260866Y-241297257D01*
X144213247Y-241260114D01*
X144189438Y-241222971D01*
X143998961Y-243837257D02*
X143713247Y-243837257D01*
X143856104Y-243837257D02*
X143856104Y-243057257D01*
X143808485Y-243168685D01*
X143760866Y-243242971D01*
X143713247Y-243280114D01*
X144165628Y-243057257D02*
X144498961Y-243057257D01*
X144284676Y-243837257D01*
X143998961Y-246377257D02*
X143713247Y-246377257D01*
X143856104Y-246377257D02*
X143856104Y-245597257D01*
X143808485Y-245708685D01*
X143760866Y-245782971D01*
X143713247Y-245820114D01*
X144237057Y-246377257D02*
X144332295Y-246377257D01*
X144379914Y-246340114D01*
X144403723Y-246302971D01*
X144451342Y-246191542D01*
X144475152Y-246042971D01*
X144475152Y-245745828D01*
X144451342Y-245671542D01*
X144427533Y-245634400D01*
X144379914Y-245597257D01*
X144284676Y-245597257D01*
X144237057Y-245634400D01*
X144213247Y-245671542D01*
X144189438Y-245745828D01*
X144189438Y-245931542D01*
X144213247Y-246005828D01*
X144237057Y-246042971D01*
X144284676Y-246080114D01*
X144379914Y-246080114D01*
X144427533Y-246042971D01*
X144451342Y-246005828D01*
X144475152Y-245931542D01*
X143713247Y-248211542D02*
X143737057Y-248174400D01*
X143784676Y-248137257D01*
X143903723Y-248137257D01*
X143951342Y-248174400D01*
X143975152Y-248211542D01*
X143998961Y-248285828D01*
X143998961Y-248360114D01*
X143975152Y-248471542D01*
X143689438Y-248917257D01*
X143998961Y-248917257D01*
X144475152Y-248917257D02*
X144189438Y-248917257D01*
X144332295Y-248917257D02*
X144332295Y-248137257D01*
X144284676Y-248248685D01*
X144237057Y-248322971D01*
X144189438Y-248360114D01*
X143713247Y-250751542D02*
X143737057Y-250714400D01*
X143784676Y-250677257D01*
X143903723Y-250677257D01*
X143951342Y-250714400D01*
X143975152Y-250751542D01*
X143998961Y-250825828D01*
X143998961Y-250900114D01*
X143975152Y-251011542D01*
X143689438Y-251457257D01*
X143998961Y-251457257D01*
X144165628Y-250677257D02*
X144475152Y-250677257D01*
X144308485Y-250974400D01*
X144379914Y-250974400D01*
X144427533Y-251011542D01*
X144451342Y-251048685D01*
X144475152Y-251122971D01*
X144475152Y-251308685D01*
X144451342Y-251382971D01*
X144427533Y-251420114D01*
X144379914Y-251457257D01*
X144237057Y-251457257D01*
X144189438Y-251420114D01*
X144165628Y-251382971D01*
X143713247Y-253291542D02*
X143737057Y-253254400D01*
X143784676Y-253217257D01*
X143903723Y-253217257D01*
X143951342Y-253254400D01*
X143975152Y-253291542D01*
X143998961Y-253365828D01*
X143998961Y-253440114D01*
X143975152Y-253551542D01*
X143689438Y-253997257D01*
X143998961Y-253997257D01*
X144451342Y-253217257D02*
X144213247Y-253217257D01*
X144189438Y-253588685D01*
X144213247Y-253551542D01*
X144260866Y-253514400D01*
X144379914Y-253514400D01*
X144427533Y-253551542D01*
X144451342Y-253588685D01*
X144475152Y-253662971D01*
X144475152Y-253848685D01*
X144451342Y-253922971D01*
X144427533Y-253960114D01*
X144379914Y-253997257D01*
X144260866Y-253997257D01*
X144213247Y-253960114D01*
X144189438Y-253922971D01*
X143713247Y-255831542D02*
X143737057Y-255794400D01*
X143784676Y-255757257D01*
X143903723Y-255757257D01*
X143951342Y-255794400D01*
X143975152Y-255831542D01*
X143998961Y-255905828D01*
X143998961Y-255980114D01*
X143975152Y-256091542D01*
X143689438Y-256537257D01*
X143998961Y-256537257D01*
X144165628Y-255757257D02*
X144498961Y-255757257D01*
X144284676Y-256537257D01*
X143713247Y-258371542D02*
X143737057Y-258334400D01*
X143784676Y-258297257D01*
X143903723Y-258297257D01*
X143951342Y-258334400D01*
X143975152Y-258371542D01*
X143998961Y-258445828D01*
X143998961Y-258520114D01*
X143975152Y-258631542D01*
X143689438Y-259077257D01*
X143998961Y-259077257D01*
X144237057Y-259077257D02*
X144332295Y-259077257D01*
X144379914Y-259040114D01*
X144403723Y-259002971D01*
X144451342Y-258891542D01*
X144475152Y-258742971D01*
X144475152Y-258445828D01*
X144451342Y-258371542D01*
X144427533Y-258334400D01*
X144379914Y-258297257D01*
X144284676Y-258297257D01*
X144237057Y-258334400D01*
X144213247Y-258371542D01*
X144189438Y-258445828D01*
X144189438Y-258631542D01*
X144213247Y-258705828D01*
X144237057Y-258742971D01*
X144284676Y-258780114D01*
X144379914Y-258780114D01*
X144427533Y-258742971D01*
X144451342Y-258705828D01*
X144475152Y-258631542D01*
X143689438Y-260837257D02*
X143998961Y-260837257D01*
X143832295Y-261134400D01*
X143903723Y-261134400D01*
X143951342Y-261171542D01*
X143975152Y-261208685D01*
X143998961Y-261282971D01*
X143998961Y-261468685D01*
X143975152Y-261542971D01*
X143951342Y-261580114D01*
X143903723Y-261617257D01*
X143760866Y-261617257D01*
X143713247Y-261580114D01*
X143689438Y-261542971D01*
X144475152Y-261617257D02*
X144189438Y-261617257D01*
X144332295Y-261617257D02*
X144332295Y-260837257D01*
X144284676Y-260948685D01*
X144237057Y-261022971D01*
X144189438Y-261060114D01*
X143689438Y-263377257D02*
X143998961Y-263377257D01*
X143832295Y-263674400D01*
X143903723Y-263674400D01*
X143951342Y-263711542D01*
X143975152Y-263748685D01*
X143998961Y-263822971D01*
X143998961Y-264008685D01*
X143975152Y-264082971D01*
X143951342Y-264120114D01*
X143903723Y-264157257D01*
X143760866Y-264157257D01*
X143713247Y-264120114D01*
X143689438Y-264082971D01*
X144165628Y-263377257D02*
X144475152Y-263377257D01*
X144308485Y-263674400D01*
X144379914Y-263674400D01*
X144427533Y-263711542D01*
X144451342Y-263748685D01*
X144475152Y-263822971D01*
X144475152Y-264008685D01*
X144451342Y-264082971D01*
X144427533Y-264120114D01*
X144379914Y-264157257D01*
X144237057Y-264157257D01*
X144189438Y-264120114D01*
X144165628Y-264082971D01*
X143689438Y-265917257D02*
X143998961Y-265917257D01*
X143832295Y-266214400D01*
X143903723Y-266214400D01*
X143951342Y-266251542D01*
X143975152Y-266288685D01*
X143998961Y-266362971D01*
X143998961Y-266548685D01*
X143975152Y-266622971D01*
X143951342Y-266660114D01*
X143903723Y-266697257D01*
X143760866Y-266697257D01*
X143713247Y-266660114D01*
X143689438Y-266622971D01*
X144451342Y-265917257D02*
X144213247Y-265917257D01*
X144189438Y-266288685D01*
X144213247Y-266251542D01*
X144260866Y-266214400D01*
X144379914Y-266214400D01*
X144427533Y-266251542D01*
X144451342Y-266288685D01*
X144475152Y-266362971D01*
X144475152Y-266548685D01*
X144451342Y-266622971D01*
X144427533Y-266660114D01*
X144379914Y-266697257D01*
X144260866Y-266697257D01*
X144213247Y-266660114D01*
X144189438Y-266622971D01*
X143689438Y-268457257D02*
X143998961Y-268457257D01*
X143832295Y-268754400D01*
X143903723Y-268754400D01*
X143951342Y-268791542D01*
X143975152Y-268828685D01*
X143998961Y-268902971D01*
X143998961Y-269088685D01*
X143975152Y-269162971D01*
X143951342Y-269200114D01*
X143903723Y-269237257D01*
X143760866Y-269237257D01*
X143713247Y-269200114D01*
X143689438Y-269162971D01*
X144165628Y-268457257D02*
X144498961Y-268457257D01*
X144284676Y-269237257D01*
X143689438Y-270997257D02*
X143998961Y-270997257D01*
X143832295Y-271294400D01*
X143903723Y-271294400D01*
X143951342Y-271331542D01*
X143975152Y-271368685D01*
X143998961Y-271442971D01*
X143998961Y-271628685D01*
X143975152Y-271702971D01*
X143951342Y-271740114D01*
X143903723Y-271777257D01*
X143760866Y-271777257D01*
X143713247Y-271740114D01*
X143689438Y-271702971D01*
X144237057Y-271777257D02*
X144332295Y-271777257D01*
X144379914Y-271740114D01*
X144403723Y-271702971D01*
X144451342Y-271591542D01*
X144475152Y-271442971D01*
X144475152Y-271145828D01*
X144451342Y-271071542D01*
X144427533Y-271034400D01*
X144379914Y-270997257D01*
X144284676Y-270997257D01*
X144237057Y-271034400D01*
X144213247Y-271071542D01*
X144189438Y-271145828D01*
X144189438Y-271331542D01*
X144213247Y-271405828D01*
X144237057Y-271442971D01*
X144284676Y-271480114D01*
X144379914Y-271480114D01*
X144427533Y-271442971D01*
X144451342Y-271405828D01*
X144475152Y-271331542D01*
X143951342Y-273797257D02*
X143951342Y-274317257D01*
X143832295Y-273500114D02*
X143713247Y-274057257D01*
X144022771Y-274057257D01*
X144475152Y-274317257D02*
X144189438Y-274317257D01*
X144332295Y-274317257D02*
X144332295Y-273537257D01*
X144284676Y-273648685D01*
X144237057Y-273722971D01*
X144189438Y-273760114D01*
X143951342Y-276337257D02*
X143951342Y-276857257D01*
X143832295Y-276040114D02*
X143713247Y-276597257D01*
X144022771Y-276597257D01*
X144165628Y-276077257D02*
X144475152Y-276077257D01*
X144308485Y-276374400D01*
X144379914Y-276374400D01*
X144427533Y-276411542D01*
X144451342Y-276448685D01*
X144475152Y-276522971D01*
X144475152Y-276708685D01*
X144451342Y-276782971D01*
X144427533Y-276820114D01*
X144379914Y-276857257D01*
X144237057Y-276857257D01*
X144189438Y-276820114D01*
X144165628Y-276782971D01*
X143951342Y-278877257D02*
X143951342Y-279397257D01*
X143832295Y-278580114D02*
X143713247Y-279137257D01*
X144022771Y-279137257D01*
X144451342Y-278617257D02*
X144213247Y-278617257D01*
X144189438Y-278988685D01*
X144213247Y-278951542D01*
X144260866Y-278914400D01*
X144379914Y-278914400D01*
X144427533Y-278951542D01*
X144451342Y-278988685D01*
X144475152Y-279062971D01*
X144475152Y-279248685D01*
X144451342Y-279322971D01*
X144427533Y-279360114D01*
X144379914Y-279397257D01*
X144260866Y-279397257D01*
X144213247Y-279360114D01*
X144189438Y-279322971D01*
X143951342Y-281417257D02*
X143951342Y-281937257D01*
X143832295Y-281120114D02*
X143713247Y-281677257D01*
X144022771Y-281677257D01*
X144165628Y-281157257D02*
X144498961Y-281157257D01*
X144284676Y-281937257D01*
X143927533Y-97464457D02*
X144237057Y-97464457D01*
X144070390Y-97761600D01*
X144141819Y-97761600D01*
X144189438Y-97798742D01*
X144213247Y-97835885D01*
X144237057Y-97910171D01*
X144237057Y-98095885D01*
X144213247Y-98170171D01*
X144189438Y-98207314D01*
X144141819Y-98244457D01*
X143998961Y-98244457D01*
X143951342Y-98207314D01*
X143927533Y-98170171D01*
X144213247Y-100004457D02*
X143975152Y-100004457D01*
X143951342Y-100375885D01*
X143975152Y-100338742D01*
X144022771Y-100301600D01*
X144141819Y-100301600D01*
X144189438Y-100338742D01*
X144213247Y-100375885D01*
X144237057Y-100450171D01*
X144237057Y-100635885D01*
X144213247Y-100710171D01*
X144189438Y-100747314D01*
X144141819Y-100784457D01*
X144022771Y-100784457D01*
X143975152Y-100747314D01*
X143951342Y-100710171D01*
X143927533Y-102544457D02*
X144260866Y-102544457D01*
X144046580Y-103324457D01*
X143998961Y-105864457D02*
X144094200Y-105864457D01*
X144141819Y-105827314D01*
X144165628Y-105790171D01*
X144213247Y-105678742D01*
X144237057Y-105530171D01*
X144237057Y-105233028D01*
X144213247Y-105158742D01*
X144189438Y-105121600D01*
X144141819Y-105084457D01*
X144046580Y-105084457D01*
X143998961Y-105121600D01*
X143975152Y-105158742D01*
X143951342Y-105233028D01*
X143951342Y-105418742D01*
X143975152Y-105493028D01*
X143998961Y-105530171D01*
X144046580Y-105567314D01*
X144141819Y-105567314D01*
X144189438Y-105530171D01*
X144213247Y-105493028D01*
X144237057Y-105418742D01*
X143998961Y-108404457D02*
X143713247Y-108404457D01*
X143856104Y-108404457D02*
X143856104Y-107624457D01*
X143808485Y-107735885D01*
X143760866Y-107810171D01*
X143713247Y-107847314D01*
X144475152Y-108404457D02*
X144189438Y-108404457D01*
X144332295Y-108404457D02*
X144332295Y-107624457D01*
X144284676Y-107735885D01*
X144237057Y-107810171D01*
X144189438Y-107847314D01*
X143998961Y-110944457D02*
X143713247Y-110944457D01*
X143856104Y-110944457D02*
X143856104Y-110164457D01*
X143808485Y-110275885D01*
X143760866Y-110350171D01*
X143713247Y-110387314D01*
X144165628Y-110164457D02*
X144475152Y-110164457D01*
X144308485Y-110461600D01*
X144379914Y-110461600D01*
X144427533Y-110498742D01*
X144451342Y-110535885D01*
X144475152Y-110610171D01*
X144475152Y-110795885D01*
X144451342Y-110870171D01*
X144427533Y-110907314D01*
X144379914Y-110944457D01*
X144237057Y-110944457D01*
X144189438Y-110907314D01*
X144165628Y-110870171D01*
X143998961Y-113484457D02*
X143713247Y-113484457D01*
X143856104Y-113484457D02*
X143856104Y-112704457D01*
X143808485Y-112815885D01*
X143760866Y-112890171D01*
X143713247Y-112927314D01*
X144451342Y-112704457D02*
X144213247Y-112704457D01*
X144189438Y-113075885D01*
X144213247Y-113038742D01*
X144260866Y-113001600D01*
X144379914Y-113001600D01*
X144427533Y-113038742D01*
X144451342Y-113075885D01*
X144475152Y-113150171D01*
X144475152Y-113335885D01*
X144451342Y-113410171D01*
X144427533Y-113447314D01*
X144379914Y-113484457D01*
X144260866Y-113484457D01*
X144213247Y-113447314D01*
X144189438Y-113410171D01*
X143998961Y-116024457D02*
X143713247Y-116024457D01*
X143856104Y-116024457D02*
X143856104Y-115244457D01*
X143808485Y-115355885D01*
X143760866Y-115430171D01*
X143713247Y-115467314D01*
X144165628Y-115244457D02*
X144498961Y-115244457D01*
X144284676Y-116024457D01*
X143998961Y-118564457D02*
X143713247Y-118564457D01*
X143856104Y-118564457D02*
X143856104Y-117784457D01*
X143808485Y-117895885D01*
X143760866Y-117970171D01*
X143713247Y-118007314D01*
X144237057Y-118564457D02*
X144332295Y-118564457D01*
X144379914Y-118527314D01*
X144403723Y-118490171D01*
X144451342Y-118378742D01*
X144475152Y-118230171D01*
X144475152Y-117933028D01*
X144451342Y-117858742D01*
X144427533Y-117821600D01*
X144379914Y-117784457D01*
X144284676Y-117784457D01*
X144237057Y-117821600D01*
X144213247Y-117858742D01*
X144189438Y-117933028D01*
X144189438Y-118118742D01*
X144213247Y-118193028D01*
X144237057Y-118230171D01*
X144284676Y-118267314D01*
X144379914Y-118267314D01*
X144427533Y-118230171D01*
X144451342Y-118193028D01*
X144475152Y-118118742D01*
X143713247Y-120398742D02*
X143737057Y-120361600D01*
X143784676Y-120324457D01*
X143903723Y-120324457D01*
X143951342Y-120361600D01*
X143975152Y-120398742D01*
X143998961Y-120473028D01*
X143998961Y-120547314D01*
X143975152Y-120658742D01*
X143689438Y-121104457D01*
X143998961Y-121104457D01*
X144475152Y-121104457D02*
X144189438Y-121104457D01*
X144332295Y-121104457D02*
X144332295Y-120324457D01*
X144284676Y-120435885D01*
X144237057Y-120510171D01*
X144189438Y-120547314D01*
X143713247Y-122938742D02*
X143737057Y-122901600D01*
X143784676Y-122864457D01*
X143903723Y-122864457D01*
X143951342Y-122901600D01*
X143975152Y-122938742D01*
X143998961Y-123013028D01*
X143998961Y-123087314D01*
X143975152Y-123198742D01*
X143689438Y-123644457D01*
X143998961Y-123644457D01*
X144165628Y-122864457D02*
X144475152Y-122864457D01*
X144308485Y-123161600D01*
X144379914Y-123161600D01*
X144427533Y-123198742D01*
X144451342Y-123235885D01*
X144475152Y-123310171D01*
X144475152Y-123495885D01*
X144451342Y-123570171D01*
X144427533Y-123607314D01*
X144379914Y-123644457D01*
X144237057Y-123644457D01*
X144189438Y-123607314D01*
X144165628Y-123570171D01*
X143713247Y-125478742D02*
X143737057Y-125441600D01*
X143784676Y-125404457D01*
X143903723Y-125404457D01*
X143951342Y-125441600D01*
X143975152Y-125478742D01*
X143998961Y-125553028D01*
X143998961Y-125627314D01*
X143975152Y-125738742D01*
X143689438Y-126184457D01*
X143998961Y-126184457D01*
X144451342Y-125404457D02*
X144213247Y-125404457D01*
X144189438Y-125775885D01*
X144213247Y-125738742D01*
X144260866Y-125701600D01*
X144379914Y-125701600D01*
X144427533Y-125738742D01*
X144451342Y-125775885D01*
X144475152Y-125850171D01*
X144475152Y-126035885D01*
X144451342Y-126110171D01*
X144427533Y-126147314D01*
X144379914Y-126184457D01*
X144260866Y-126184457D01*
X144213247Y-126147314D01*
X144189438Y-126110171D01*
X143713247Y-128018742D02*
X143737057Y-127981600D01*
X143784676Y-127944457D01*
X143903723Y-127944457D01*
X143951342Y-127981600D01*
X143975152Y-128018742D01*
X143998961Y-128093028D01*
X143998961Y-128167314D01*
X143975152Y-128278742D01*
X143689438Y-128724457D01*
X143998961Y-128724457D01*
X144165628Y-127944457D02*
X144498961Y-127944457D01*
X144284676Y-128724457D01*
X143713247Y-130558742D02*
X143737057Y-130521600D01*
X143784676Y-130484457D01*
X143903723Y-130484457D01*
X143951342Y-130521600D01*
X143975152Y-130558742D01*
X143998961Y-130633028D01*
X143998961Y-130707314D01*
X143975152Y-130818742D01*
X143689438Y-131264457D01*
X143998961Y-131264457D01*
X144237057Y-131264457D02*
X144332295Y-131264457D01*
X144379914Y-131227314D01*
X144403723Y-131190171D01*
X144451342Y-131078742D01*
X144475152Y-130930171D01*
X144475152Y-130633028D01*
X144451342Y-130558742D01*
X144427533Y-130521600D01*
X144379914Y-130484457D01*
X144284676Y-130484457D01*
X144237057Y-130521600D01*
X144213247Y-130558742D01*
X144189438Y-130633028D01*
X144189438Y-130818742D01*
X144213247Y-130893028D01*
X144237057Y-130930171D01*
X144284676Y-130967314D01*
X144379914Y-130967314D01*
X144427533Y-130930171D01*
X144451342Y-130893028D01*
X144475152Y-130818742D01*
X143689438Y-133024457D02*
X143998961Y-133024457D01*
X143832295Y-133321600D01*
X143903723Y-133321600D01*
X143951342Y-133358742D01*
X143975152Y-133395885D01*
X143998961Y-133470171D01*
X143998961Y-133655885D01*
X143975152Y-133730171D01*
X143951342Y-133767314D01*
X143903723Y-133804457D01*
X143760866Y-133804457D01*
X143713247Y-133767314D01*
X143689438Y-133730171D01*
X144475152Y-133804457D02*
X144189438Y-133804457D01*
X144332295Y-133804457D02*
X144332295Y-133024457D01*
X144284676Y-133135885D01*
X144237057Y-133210171D01*
X144189438Y-133247314D01*
X143689438Y-135564457D02*
X143998961Y-135564457D01*
X143832295Y-135861600D01*
X143903723Y-135861600D01*
X143951342Y-135898742D01*
X143975152Y-135935885D01*
X143998961Y-136010171D01*
X143998961Y-136195885D01*
X143975152Y-136270171D01*
X143951342Y-136307314D01*
X143903723Y-136344457D01*
X143760866Y-136344457D01*
X143713247Y-136307314D01*
X143689438Y-136270171D01*
X144165628Y-135564457D02*
X144475152Y-135564457D01*
X144308485Y-135861600D01*
X144379914Y-135861600D01*
X144427533Y-135898742D01*
X144451342Y-135935885D01*
X144475152Y-136010171D01*
X144475152Y-136195885D01*
X144451342Y-136270171D01*
X144427533Y-136307314D01*
X144379914Y-136344457D01*
X144237057Y-136344457D01*
X144189438Y-136307314D01*
X144165628Y-136270171D01*
X143689438Y-138104457D02*
X143998961Y-138104457D01*
X143832295Y-138401600D01*
X143903723Y-138401600D01*
X143951342Y-138438742D01*
X143975152Y-138475885D01*
X143998961Y-138550171D01*
X143998961Y-138735885D01*
X143975152Y-138810171D01*
X143951342Y-138847314D01*
X143903723Y-138884457D01*
X143760866Y-138884457D01*
X143713247Y-138847314D01*
X143689438Y-138810171D01*
X144451342Y-138104457D02*
X144213247Y-138104457D01*
X144189438Y-138475885D01*
X144213247Y-138438742D01*
X144260866Y-138401600D01*
X144379914Y-138401600D01*
X144427533Y-138438742D01*
X144451342Y-138475885D01*
X144475152Y-138550171D01*
X144475152Y-138735885D01*
X144451342Y-138810171D01*
X144427533Y-138847314D01*
X144379914Y-138884457D01*
X144260866Y-138884457D01*
X144213247Y-138847314D01*
X144189438Y-138810171D01*
X143689438Y-140644457D02*
X143998961Y-140644457D01*
X143832295Y-140941600D01*
X143903723Y-140941600D01*
X143951342Y-140978742D01*
X143975152Y-141015885D01*
X143998961Y-141090171D01*
X143998961Y-141275885D01*
X143975152Y-141350171D01*
X143951342Y-141387314D01*
X143903723Y-141424457D01*
X143760866Y-141424457D01*
X143713247Y-141387314D01*
X143689438Y-141350171D01*
X144165628Y-140644457D02*
X144498961Y-140644457D01*
X144284676Y-141424457D01*
X143689438Y-143184457D02*
X143998961Y-143184457D01*
X143832295Y-143481600D01*
X143903723Y-143481600D01*
X143951342Y-143518742D01*
X143975152Y-143555885D01*
X143998961Y-143630171D01*
X143998961Y-143815885D01*
X143975152Y-143890171D01*
X143951342Y-143927314D01*
X143903723Y-143964457D01*
X143760866Y-143964457D01*
X143713247Y-143927314D01*
X143689438Y-143890171D01*
X144237057Y-143964457D02*
X144332295Y-143964457D01*
X144379914Y-143927314D01*
X144403723Y-143890171D01*
X144451342Y-143778742D01*
X144475152Y-143630171D01*
X144475152Y-143333028D01*
X144451342Y-143258742D01*
X144427533Y-143221600D01*
X144379914Y-143184457D01*
X144284676Y-143184457D01*
X144237057Y-143221600D01*
X144213247Y-143258742D01*
X144189438Y-143333028D01*
X144189438Y-143518742D01*
X144213247Y-143593028D01*
X144237057Y-143630171D01*
X144284676Y-143667314D01*
X144379914Y-143667314D01*
X144427533Y-143630171D01*
X144451342Y-143593028D01*
X144475152Y-143518742D01*
X143951342Y-145984457D02*
X143951342Y-146504457D01*
X143832295Y-145687314D02*
X143713247Y-146244457D01*
X144022771Y-146244457D01*
X144475152Y-146504457D02*
X144189438Y-146504457D01*
X144332295Y-146504457D02*
X144332295Y-145724457D01*
X144284676Y-145835885D01*
X144237057Y-145910171D01*
X144189438Y-145947314D01*
X143951342Y-148524457D02*
X143951342Y-149044457D01*
X143832295Y-148227314D02*
X143713247Y-148784457D01*
X144022771Y-148784457D01*
X144165628Y-148264457D02*
X144475152Y-148264457D01*
X144308485Y-148561600D01*
X144379914Y-148561600D01*
X144427533Y-148598742D01*
X144451342Y-148635885D01*
X144475152Y-148710171D01*
X144475152Y-148895885D01*
X144451342Y-148970171D01*
X144427533Y-149007314D01*
X144379914Y-149044457D01*
X144237057Y-149044457D01*
X144189438Y-149007314D01*
X144165628Y-148970171D01*
X143951342Y-151064457D02*
X143951342Y-151584457D01*
X143832295Y-150767314D02*
X143713247Y-151324457D01*
X144022771Y-151324457D01*
X144451342Y-150804457D02*
X144213247Y-150804457D01*
X144189438Y-151175885D01*
X144213247Y-151138742D01*
X144260866Y-151101600D01*
X144379914Y-151101600D01*
X144427533Y-151138742D01*
X144451342Y-151175885D01*
X144475152Y-151250171D01*
X144475152Y-151435885D01*
X144451342Y-151510171D01*
X144427533Y-151547314D01*
X144379914Y-151584457D01*
X144260866Y-151584457D01*
X144213247Y-151547314D01*
X144189438Y-151510171D01*
X143951342Y-153604457D02*
X143951342Y-154124457D01*
X143832295Y-153307314D02*
X143713247Y-153864457D01*
X144022771Y-153864457D01*
X144165628Y-153344457D02*
X144498961Y-153344457D01*
X144284676Y-154124457D01*
X136459933Y-97464457D02*
X136769457Y-97464457D01*
X136602790Y-97761600D01*
X136674219Y-97761600D01*
X136721838Y-97798742D01*
X136745647Y-97835885D01*
X136769457Y-97910171D01*
X136769457Y-98095885D01*
X136745647Y-98170171D01*
X136721838Y-98207314D01*
X136674219Y-98244457D01*
X136531361Y-98244457D01*
X136483742Y-98207314D01*
X136459933Y-98170171D01*
X136745647Y-100004457D02*
X136507552Y-100004457D01*
X136483742Y-100375885D01*
X136507552Y-100338742D01*
X136555171Y-100301600D01*
X136674219Y-100301600D01*
X136721838Y-100338742D01*
X136745647Y-100375885D01*
X136769457Y-100450171D01*
X136769457Y-100635885D01*
X136745647Y-100710171D01*
X136721838Y-100747314D01*
X136674219Y-100784457D01*
X136555171Y-100784457D01*
X136507552Y-100747314D01*
X136483742Y-100710171D01*
X136459933Y-102544457D02*
X136793266Y-102544457D01*
X136578980Y-103324457D01*
X136531361Y-105864457D02*
X136626600Y-105864457D01*
X136674219Y-105827314D01*
X136698028Y-105790171D01*
X136745647Y-105678742D01*
X136769457Y-105530171D01*
X136769457Y-105233028D01*
X136745647Y-105158742D01*
X136721838Y-105121600D01*
X136674219Y-105084457D01*
X136578980Y-105084457D01*
X136531361Y-105121600D01*
X136507552Y-105158742D01*
X136483742Y-105233028D01*
X136483742Y-105418742D01*
X136507552Y-105493028D01*
X136531361Y-105530171D01*
X136578980Y-105567314D01*
X136674219Y-105567314D01*
X136721838Y-105530171D01*
X136745647Y-105493028D01*
X136769457Y-105418742D01*
X136531361Y-108404457D02*
X136245647Y-108404457D01*
X136388504Y-108404457D02*
X136388504Y-107624457D01*
X136340885Y-107735885D01*
X136293266Y-107810171D01*
X136245647Y-107847314D01*
X137007552Y-108404457D02*
X136721838Y-108404457D01*
X136864695Y-108404457D02*
X136864695Y-107624457D01*
X136817076Y-107735885D01*
X136769457Y-107810171D01*
X136721838Y-107847314D01*
X136531361Y-110944457D02*
X136245647Y-110944457D01*
X136388504Y-110944457D02*
X136388504Y-110164457D01*
X136340885Y-110275885D01*
X136293266Y-110350171D01*
X136245647Y-110387314D01*
X136698028Y-110164457D02*
X137007552Y-110164457D01*
X136840885Y-110461600D01*
X136912314Y-110461600D01*
X136959933Y-110498742D01*
X136983742Y-110535885D01*
X137007552Y-110610171D01*
X137007552Y-110795885D01*
X136983742Y-110870171D01*
X136959933Y-110907314D01*
X136912314Y-110944457D01*
X136769457Y-110944457D01*
X136721838Y-110907314D01*
X136698028Y-110870171D01*
X136531361Y-113484457D02*
X136245647Y-113484457D01*
X136388504Y-113484457D02*
X136388504Y-112704457D01*
X136340885Y-112815885D01*
X136293266Y-112890171D01*
X136245647Y-112927314D01*
X136983742Y-112704457D02*
X136745647Y-112704457D01*
X136721838Y-113075885D01*
X136745647Y-113038742D01*
X136793266Y-113001600D01*
X136912314Y-113001600D01*
X136959933Y-113038742D01*
X136983742Y-113075885D01*
X137007552Y-113150171D01*
X137007552Y-113335885D01*
X136983742Y-113410171D01*
X136959933Y-113447314D01*
X136912314Y-113484457D01*
X136793266Y-113484457D01*
X136745647Y-113447314D01*
X136721838Y-113410171D01*
X136531361Y-116024457D02*
X136245647Y-116024457D01*
X136388504Y-116024457D02*
X136388504Y-115244457D01*
X136340885Y-115355885D01*
X136293266Y-115430171D01*
X136245647Y-115467314D01*
X136698028Y-115244457D02*
X137031361Y-115244457D01*
X136817076Y-116024457D01*
X136531361Y-118564457D02*
X136245647Y-118564457D01*
X136388504Y-118564457D02*
X136388504Y-117784457D01*
X136340885Y-117895885D01*
X136293266Y-117970171D01*
X136245647Y-118007314D01*
X136769457Y-118564457D02*
X136864695Y-118564457D01*
X136912314Y-118527314D01*
X136936123Y-118490171D01*
X136983742Y-118378742D01*
X137007552Y-118230171D01*
X137007552Y-117933028D01*
X136983742Y-117858742D01*
X136959933Y-117821600D01*
X136912314Y-117784457D01*
X136817076Y-117784457D01*
X136769457Y-117821600D01*
X136745647Y-117858742D01*
X136721838Y-117933028D01*
X136721838Y-118118742D01*
X136745647Y-118193028D01*
X136769457Y-118230171D01*
X136817076Y-118267314D01*
X136912314Y-118267314D01*
X136959933Y-118230171D01*
X136983742Y-118193028D01*
X137007552Y-118118742D01*
X136245647Y-120398742D02*
X136269457Y-120361600D01*
X136317076Y-120324457D01*
X136436123Y-120324457D01*
X136483742Y-120361600D01*
X136507552Y-120398742D01*
X136531361Y-120473028D01*
X136531361Y-120547314D01*
X136507552Y-120658742D01*
X136221838Y-121104457D01*
X136531361Y-121104457D01*
X137007552Y-121104457D02*
X136721838Y-121104457D01*
X136864695Y-121104457D02*
X136864695Y-120324457D01*
X136817076Y-120435885D01*
X136769457Y-120510171D01*
X136721838Y-120547314D01*
X136245647Y-122938742D02*
X136269457Y-122901600D01*
X136317076Y-122864457D01*
X136436123Y-122864457D01*
X136483742Y-122901600D01*
X136507552Y-122938742D01*
X136531361Y-123013028D01*
X136531361Y-123087314D01*
X136507552Y-123198742D01*
X136221838Y-123644457D01*
X136531361Y-123644457D01*
X136698028Y-122864457D02*
X137007552Y-122864457D01*
X136840885Y-123161600D01*
X136912314Y-123161600D01*
X136959933Y-123198742D01*
X136983742Y-123235885D01*
X137007552Y-123310171D01*
X137007552Y-123495885D01*
X136983742Y-123570171D01*
X136959933Y-123607314D01*
X136912314Y-123644457D01*
X136769457Y-123644457D01*
X136721838Y-123607314D01*
X136698028Y-123570171D01*
X136245647Y-125478742D02*
X136269457Y-125441600D01*
X136317076Y-125404457D01*
X136436123Y-125404457D01*
X136483742Y-125441600D01*
X136507552Y-125478742D01*
X136531361Y-125553028D01*
X136531361Y-125627314D01*
X136507552Y-125738742D01*
X136221838Y-126184457D01*
X136531361Y-126184457D01*
X136983742Y-125404457D02*
X136745647Y-125404457D01*
X136721838Y-125775885D01*
X136745647Y-125738742D01*
X136793266Y-125701600D01*
X136912314Y-125701600D01*
X136959933Y-125738742D01*
X136983742Y-125775885D01*
X137007552Y-125850171D01*
X137007552Y-126035885D01*
X136983742Y-126110171D01*
X136959933Y-126147314D01*
X136912314Y-126184457D01*
X136793266Y-126184457D01*
X136745647Y-126147314D01*
X136721838Y-126110171D01*
X136245647Y-128018742D02*
X136269457Y-127981600D01*
X136317076Y-127944457D01*
X136436123Y-127944457D01*
X136483742Y-127981600D01*
X136507552Y-128018742D01*
X136531361Y-128093028D01*
X136531361Y-128167314D01*
X136507552Y-128278742D01*
X136221838Y-128724457D01*
X136531361Y-128724457D01*
X136698028Y-127944457D02*
X137031361Y-127944457D01*
X136817076Y-128724457D01*
X136245647Y-130558742D02*
X136269457Y-130521600D01*
X136317076Y-130484457D01*
X136436123Y-130484457D01*
X136483742Y-130521600D01*
X136507552Y-130558742D01*
X136531361Y-130633028D01*
X136531361Y-130707314D01*
X136507552Y-130818742D01*
X136221838Y-131264457D01*
X136531361Y-131264457D01*
X136769457Y-131264457D02*
X136864695Y-131264457D01*
X136912314Y-131227314D01*
X136936123Y-131190171D01*
X136983742Y-131078742D01*
X137007552Y-130930171D01*
X137007552Y-130633028D01*
X136983742Y-130558742D01*
X136959933Y-130521600D01*
X136912314Y-130484457D01*
X136817076Y-130484457D01*
X136769457Y-130521600D01*
X136745647Y-130558742D01*
X136721838Y-130633028D01*
X136721838Y-130818742D01*
X136745647Y-130893028D01*
X136769457Y-130930171D01*
X136817076Y-130967314D01*
X136912314Y-130967314D01*
X136959933Y-130930171D01*
X136983742Y-130893028D01*
X137007552Y-130818742D01*
X136221838Y-133024457D02*
X136531361Y-133024457D01*
X136364695Y-133321600D01*
X136436123Y-133321600D01*
X136483742Y-133358742D01*
X136507552Y-133395885D01*
X136531361Y-133470171D01*
X136531361Y-133655885D01*
X136507552Y-133730171D01*
X136483742Y-133767314D01*
X136436123Y-133804457D01*
X136293266Y-133804457D01*
X136245647Y-133767314D01*
X136221838Y-133730171D01*
X137007552Y-133804457D02*
X136721838Y-133804457D01*
X136864695Y-133804457D02*
X136864695Y-133024457D01*
X136817076Y-133135885D01*
X136769457Y-133210171D01*
X136721838Y-133247314D01*
X136221838Y-135564457D02*
X136531361Y-135564457D01*
X136364695Y-135861600D01*
X136436123Y-135861600D01*
X136483742Y-135898742D01*
X136507552Y-135935885D01*
X136531361Y-136010171D01*
X136531361Y-136195885D01*
X136507552Y-136270171D01*
X136483742Y-136307314D01*
X136436123Y-136344457D01*
X136293266Y-136344457D01*
X136245647Y-136307314D01*
X136221838Y-136270171D01*
X136698028Y-135564457D02*
X137007552Y-135564457D01*
X136840885Y-135861600D01*
X136912314Y-135861600D01*
X136959933Y-135898742D01*
X136983742Y-135935885D01*
X137007552Y-136010171D01*
X137007552Y-136195885D01*
X136983742Y-136270171D01*
X136959933Y-136307314D01*
X136912314Y-136344457D01*
X136769457Y-136344457D01*
X136721838Y-136307314D01*
X136698028Y-136270171D01*
X136221838Y-138104457D02*
X136531361Y-138104457D01*
X136364695Y-138401600D01*
X136436123Y-138401600D01*
X136483742Y-138438742D01*
X136507552Y-138475885D01*
X136531361Y-138550171D01*
X136531361Y-138735885D01*
X136507552Y-138810171D01*
X136483742Y-138847314D01*
X136436123Y-138884457D01*
X136293266Y-138884457D01*
X136245647Y-138847314D01*
X136221838Y-138810171D01*
X136983742Y-138104457D02*
X136745647Y-138104457D01*
X136721838Y-138475885D01*
X136745647Y-138438742D01*
X136793266Y-138401600D01*
X136912314Y-138401600D01*
X136959933Y-138438742D01*
X136983742Y-138475885D01*
X137007552Y-138550171D01*
X137007552Y-138735885D01*
X136983742Y-138810171D01*
X136959933Y-138847314D01*
X136912314Y-138884457D01*
X136793266Y-138884457D01*
X136745647Y-138847314D01*
X136721838Y-138810171D01*
X136221838Y-140644457D02*
X136531361Y-140644457D01*
X136364695Y-140941600D01*
X136436123Y-140941600D01*
X136483742Y-140978742D01*
X136507552Y-141015885D01*
X136531361Y-141090171D01*
X136531361Y-141275885D01*
X136507552Y-141350171D01*
X136483742Y-141387314D01*
X136436123Y-141424457D01*
X136293266Y-141424457D01*
X136245647Y-141387314D01*
X136221838Y-141350171D01*
X136698028Y-140644457D02*
X137031361Y-140644457D01*
X136817076Y-141424457D01*
X136221838Y-143184457D02*
X136531361Y-143184457D01*
X136364695Y-143481600D01*
X136436123Y-143481600D01*
X136483742Y-143518742D01*
X136507552Y-143555885D01*
X136531361Y-143630171D01*
X136531361Y-143815885D01*
X136507552Y-143890171D01*
X136483742Y-143927314D01*
X136436123Y-143964457D01*
X136293266Y-143964457D01*
X136245647Y-143927314D01*
X136221838Y-143890171D01*
X136769457Y-143964457D02*
X136864695Y-143964457D01*
X136912314Y-143927314D01*
X136936123Y-143890171D01*
X136983742Y-143778742D01*
X137007552Y-143630171D01*
X137007552Y-143333028D01*
X136983742Y-143258742D01*
X136959933Y-143221600D01*
X136912314Y-143184457D01*
X136817076Y-143184457D01*
X136769457Y-143221600D01*
X136745647Y-143258742D01*
X136721838Y-143333028D01*
X136721838Y-143518742D01*
X136745647Y-143593028D01*
X136769457Y-143630171D01*
X136817076Y-143667314D01*
X136912314Y-143667314D01*
X136959933Y-143630171D01*
X136983742Y-143593028D01*
X137007552Y-143518742D01*
X136483742Y-145984457D02*
X136483742Y-146504457D01*
X136364695Y-145687314D02*
X136245647Y-146244457D01*
X136555171Y-146244457D01*
X137007552Y-146504457D02*
X136721838Y-146504457D01*
X136864695Y-146504457D02*
X136864695Y-145724457D01*
X136817076Y-145835885D01*
X136769457Y-145910171D01*
X136721838Y-145947314D01*
X136483742Y-148524457D02*
X136483742Y-149044457D01*
X136364695Y-148227314D02*
X136245647Y-148784457D01*
X136555171Y-148784457D01*
X136698028Y-148264457D02*
X137007552Y-148264457D01*
X136840885Y-148561600D01*
X136912314Y-148561600D01*
X136959933Y-148598742D01*
X136983742Y-148635885D01*
X137007552Y-148710171D01*
X137007552Y-148895885D01*
X136983742Y-148970171D01*
X136959933Y-149007314D01*
X136912314Y-149044457D01*
X136769457Y-149044457D01*
X136721838Y-149007314D01*
X136698028Y-148970171D01*
X136483742Y-151064457D02*
X136483742Y-151584457D01*
X136364695Y-150767314D02*
X136245647Y-151324457D01*
X136555171Y-151324457D01*
X136983742Y-150804457D02*
X136745647Y-150804457D01*
X136721838Y-151175885D01*
X136745647Y-151138742D01*
X136793266Y-151101600D01*
X136912314Y-151101600D01*
X136959933Y-151138742D01*
X136983742Y-151175885D01*
X137007552Y-151250171D01*
X137007552Y-151435885D01*
X136983742Y-151510171D01*
X136959933Y-151547314D01*
X136912314Y-151584457D01*
X136793266Y-151584457D01*
X136745647Y-151547314D01*
X136721838Y-151510171D01*
X136483742Y-153604457D02*
X136483742Y-154124457D01*
X136364695Y-153307314D02*
X136245647Y-153864457D01*
X136555171Y-153864457D01*
X136698028Y-153344457D02*
X137031361Y-153344457D01*
X136817076Y-154124457D01*
X140455638Y-98956357D02*
X140455638Y-99476357D01*
X140336590Y-98659214D02*
X140217542Y-99216357D01*
X140527066Y-99216357D01*
X140455638Y-101236357D02*
X140360400Y-101236357D01*
X140312780Y-101273500D01*
X140288971Y-101310642D01*
X140241352Y-101422071D01*
X140217542Y-101570642D01*
X140217542Y-101867785D01*
X140241352Y-101942071D01*
X140265161Y-101979214D01*
X140312780Y-102016357D01*
X140408019Y-102016357D01*
X140455638Y-101979214D01*
X140479447Y-101942071D01*
X140503257Y-101867785D01*
X140503257Y-101682071D01*
X140479447Y-101607785D01*
X140455638Y-101570642D01*
X140408019Y-101533500D01*
X140312780Y-101533500D01*
X140265161Y-101570642D01*
X140241352Y-101607785D01*
X140217542Y-101682071D01*
X140312780Y-104110642D02*
X140265161Y-104073500D01*
X140241352Y-104036357D01*
X140217542Y-103962071D01*
X140217542Y-103924928D01*
X140241352Y-103850642D01*
X140265161Y-103813500D01*
X140312780Y-103776357D01*
X140408019Y-103776357D01*
X140455638Y-103813500D01*
X140479447Y-103850642D01*
X140503257Y-103924928D01*
X140503257Y-103962071D01*
X140479447Y-104036357D01*
X140455638Y-104073500D01*
X140408019Y-104110642D01*
X140312780Y-104110642D01*
X140265161Y-104147785D01*
X140241352Y-104184928D01*
X140217542Y-104259214D01*
X140217542Y-104407785D01*
X140241352Y-104482071D01*
X140265161Y-104519214D01*
X140312780Y-104556357D01*
X140408019Y-104556357D01*
X140455638Y-104519214D01*
X140479447Y-104482071D01*
X140503257Y-104407785D01*
X140503257Y-104259214D01*
X140479447Y-104184928D01*
X140455638Y-104147785D01*
X140408019Y-104110642D01*
X140265161Y-107096357D02*
X139979447Y-107096357D01*
X140122304Y-107096357D02*
X140122304Y-106316357D01*
X140074685Y-106427785D01*
X140027066Y-106502071D01*
X139979447Y-106539214D01*
X140574685Y-106316357D02*
X140622304Y-106316357D01*
X140669923Y-106353500D01*
X140693733Y-106390642D01*
X140717542Y-106464928D01*
X140741352Y-106613500D01*
X140741352Y-106799214D01*
X140717542Y-106947785D01*
X140693733Y-107022071D01*
X140669923Y-107059214D01*
X140622304Y-107096357D01*
X140574685Y-107096357D01*
X140527066Y-107059214D01*
X140503257Y-107022071D01*
X140479447Y-106947785D01*
X140455638Y-106799214D01*
X140455638Y-106613500D01*
X140479447Y-106464928D01*
X140503257Y-106390642D01*
X140527066Y-106353500D01*
X140574685Y-106316357D01*
X140265161Y-109636357D02*
X139979447Y-109636357D01*
X140122304Y-109636357D02*
X140122304Y-108856357D01*
X140074685Y-108967785D01*
X140027066Y-109042071D01*
X139979447Y-109079214D01*
X140455638Y-108930642D02*
X140479447Y-108893500D01*
X140527066Y-108856357D01*
X140646114Y-108856357D01*
X140693733Y-108893500D01*
X140717542Y-108930642D01*
X140741352Y-109004928D01*
X140741352Y-109079214D01*
X140717542Y-109190642D01*
X140431828Y-109636357D01*
X140741352Y-109636357D01*
X140265161Y-112176357D02*
X139979447Y-112176357D01*
X140122304Y-112176357D02*
X140122304Y-111396357D01*
X140074685Y-111507785D01*
X140027066Y-111582071D01*
X139979447Y-111619214D01*
X140693733Y-111656357D02*
X140693733Y-112176357D01*
X140574685Y-111359214D02*
X140455638Y-111916357D01*
X140765161Y-111916357D01*
X140265161Y-114716357D02*
X139979447Y-114716357D01*
X140122304Y-114716357D02*
X140122304Y-113936357D01*
X140074685Y-114047785D01*
X140027066Y-114122071D01*
X139979447Y-114159214D01*
X140693733Y-113936357D02*
X140598495Y-113936357D01*
X140550876Y-113973500D01*
X140527066Y-114010642D01*
X140479447Y-114122071D01*
X140455638Y-114270642D01*
X140455638Y-114567785D01*
X140479447Y-114642071D01*
X140503257Y-114679214D01*
X140550876Y-114716357D01*
X140646114Y-114716357D01*
X140693733Y-114679214D01*
X140717542Y-114642071D01*
X140741352Y-114567785D01*
X140741352Y-114382071D01*
X140717542Y-114307785D01*
X140693733Y-114270642D01*
X140646114Y-114233500D01*
X140550876Y-114233500D01*
X140503257Y-114270642D01*
X140479447Y-114307785D01*
X140455638Y-114382071D01*
X140265161Y-117256357D02*
X139979447Y-117256357D01*
X140122304Y-117256357D02*
X140122304Y-116476357D01*
X140074685Y-116587785D01*
X140027066Y-116662071D01*
X139979447Y-116699214D01*
X140550876Y-116810642D02*
X140503257Y-116773500D01*
X140479447Y-116736357D01*
X140455638Y-116662071D01*
X140455638Y-116624928D01*
X140479447Y-116550642D01*
X140503257Y-116513500D01*
X140550876Y-116476357D01*
X140646114Y-116476357D01*
X140693733Y-116513500D01*
X140717542Y-116550642D01*
X140741352Y-116624928D01*
X140741352Y-116662071D01*
X140717542Y-116736357D01*
X140693733Y-116773500D01*
X140646114Y-116810642D01*
X140550876Y-116810642D01*
X140503257Y-116847785D01*
X140479447Y-116884928D01*
X140455638Y-116959214D01*
X140455638Y-117107785D01*
X140479447Y-117182071D01*
X140503257Y-117219214D01*
X140550876Y-117256357D01*
X140646114Y-117256357D01*
X140693733Y-117219214D01*
X140717542Y-117182071D01*
X140741352Y-117107785D01*
X140741352Y-116959214D01*
X140717542Y-116884928D01*
X140693733Y-116847785D01*
X140646114Y-116810642D01*
X139979447Y-119090642D02*
X140003257Y-119053500D01*
X140050876Y-119016357D01*
X140169923Y-119016357D01*
X140217542Y-119053500D01*
X140241352Y-119090642D01*
X140265161Y-119164928D01*
X140265161Y-119239214D01*
X140241352Y-119350642D01*
X139955638Y-119796357D01*
X140265161Y-119796357D01*
X140574685Y-119016357D02*
X140622304Y-119016357D01*
X140669923Y-119053500D01*
X140693733Y-119090642D01*
X140717542Y-119164928D01*
X140741352Y-119313500D01*
X140741352Y-119499214D01*
X140717542Y-119647785D01*
X140693733Y-119722071D01*
X140669923Y-119759214D01*
X140622304Y-119796357D01*
X140574685Y-119796357D01*
X140527066Y-119759214D01*
X140503257Y-119722071D01*
X140479447Y-119647785D01*
X140455638Y-119499214D01*
X140455638Y-119313500D01*
X140479447Y-119164928D01*
X140503257Y-119090642D01*
X140527066Y-119053500D01*
X140574685Y-119016357D01*
X139979447Y-121630642D02*
X140003257Y-121593500D01*
X140050876Y-121556357D01*
X140169923Y-121556357D01*
X140217542Y-121593500D01*
X140241352Y-121630642D01*
X140265161Y-121704928D01*
X140265161Y-121779214D01*
X140241352Y-121890642D01*
X139955638Y-122336357D01*
X140265161Y-122336357D01*
X140455638Y-121630642D02*
X140479447Y-121593500D01*
X140527066Y-121556357D01*
X140646114Y-121556357D01*
X140693733Y-121593500D01*
X140717542Y-121630642D01*
X140741352Y-121704928D01*
X140741352Y-121779214D01*
X140717542Y-121890642D01*
X140431828Y-122336357D01*
X140741352Y-122336357D01*
X139979447Y-124170642D02*
X140003257Y-124133500D01*
X140050876Y-124096357D01*
X140169923Y-124096357D01*
X140217542Y-124133500D01*
X140241352Y-124170642D01*
X140265161Y-124244928D01*
X140265161Y-124319214D01*
X140241352Y-124430642D01*
X139955638Y-124876357D01*
X140265161Y-124876357D01*
X140693733Y-124356357D02*
X140693733Y-124876357D01*
X140574685Y-124059214D02*
X140455638Y-124616357D01*
X140765161Y-124616357D01*
X139979447Y-126710642D02*
X140003257Y-126673500D01*
X140050876Y-126636357D01*
X140169923Y-126636357D01*
X140217542Y-126673500D01*
X140241352Y-126710642D01*
X140265161Y-126784928D01*
X140265161Y-126859214D01*
X140241352Y-126970642D01*
X139955638Y-127416357D01*
X140265161Y-127416357D01*
X140693733Y-126636357D02*
X140598495Y-126636357D01*
X140550876Y-126673500D01*
X140527066Y-126710642D01*
X140479447Y-126822071D01*
X140455638Y-126970642D01*
X140455638Y-127267785D01*
X140479447Y-127342071D01*
X140503257Y-127379214D01*
X140550876Y-127416357D01*
X140646114Y-127416357D01*
X140693733Y-127379214D01*
X140717542Y-127342071D01*
X140741352Y-127267785D01*
X140741352Y-127082071D01*
X140717542Y-127007785D01*
X140693733Y-126970642D01*
X140646114Y-126933500D01*
X140550876Y-126933500D01*
X140503257Y-126970642D01*
X140479447Y-127007785D01*
X140455638Y-127082071D01*
X139979447Y-129250642D02*
X140003257Y-129213500D01*
X140050876Y-129176357D01*
X140169923Y-129176357D01*
X140217542Y-129213500D01*
X140241352Y-129250642D01*
X140265161Y-129324928D01*
X140265161Y-129399214D01*
X140241352Y-129510642D01*
X139955638Y-129956357D01*
X140265161Y-129956357D01*
X140550876Y-129510642D02*
X140503257Y-129473500D01*
X140479447Y-129436357D01*
X140455638Y-129362071D01*
X140455638Y-129324928D01*
X140479447Y-129250642D01*
X140503257Y-129213500D01*
X140550876Y-129176357D01*
X140646114Y-129176357D01*
X140693733Y-129213500D01*
X140717542Y-129250642D01*
X140741352Y-129324928D01*
X140741352Y-129362071D01*
X140717542Y-129436357D01*
X140693733Y-129473500D01*
X140646114Y-129510642D01*
X140550876Y-129510642D01*
X140503257Y-129547785D01*
X140479447Y-129584928D01*
X140455638Y-129659214D01*
X140455638Y-129807785D01*
X140479447Y-129882071D01*
X140503257Y-129919214D01*
X140550876Y-129956357D01*
X140646114Y-129956357D01*
X140693733Y-129919214D01*
X140717542Y-129882071D01*
X140741352Y-129807785D01*
X140741352Y-129659214D01*
X140717542Y-129584928D01*
X140693733Y-129547785D01*
X140646114Y-129510642D01*
X139955638Y-131716357D02*
X140265161Y-131716357D01*
X140098495Y-132013500D01*
X140169923Y-132013500D01*
X140217542Y-132050642D01*
X140241352Y-132087785D01*
X140265161Y-132162071D01*
X140265161Y-132347785D01*
X140241352Y-132422071D01*
X140217542Y-132459214D01*
X140169923Y-132496357D01*
X140027066Y-132496357D01*
X139979447Y-132459214D01*
X139955638Y-132422071D01*
X140574685Y-131716357D02*
X140622304Y-131716357D01*
X140669923Y-131753500D01*
X140693733Y-131790642D01*
X140717542Y-131864928D01*
X140741352Y-132013500D01*
X140741352Y-132199214D01*
X140717542Y-132347785D01*
X140693733Y-132422071D01*
X140669923Y-132459214D01*
X140622304Y-132496357D01*
X140574685Y-132496357D01*
X140527066Y-132459214D01*
X140503257Y-132422071D01*
X140479447Y-132347785D01*
X140455638Y-132199214D01*
X140455638Y-132013500D01*
X140479447Y-131864928D01*
X140503257Y-131790642D01*
X140527066Y-131753500D01*
X140574685Y-131716357D01*
X139955638Y-134256357D02*
X140265161Y-134256357D01*
X140098495Y-134553500D01*
X140169923Y-134553500D01*
X140217542Y-134590642D01*
X140241352Y-134627785D01*
X140265161Y-134702071D01*
X140265161Y-134887785D01*
X140241352Y-134962071D01*
X140217542Y-134999214D01*
X140169923Y-135036357D01*
X140027066Y-135036357D01*
X139979447Y-134999214D01*
X139955638Y-134962071D01*
X140455638Y-134330642D02*
X140479447Y-134293500D01*
X140527066Y-134256357D01*
X140646114Y-134256357D01*
X140693733Y-134293500D01*
X140717542Y-134330642D01*
X140741352Y-134404928D01*
X140741352Y-134479214D01*
X140717542Y-134590642D01*
X140431828Y-135036357D01*
X140741352Y-135036357D01*
X139955638Y-136796357D02*
X140265161Y-136796357D01*
X140098495Y-137093500D01*
X140169923Y-137093500D01*
X140217542Y-137130642D01*
X140241352Y-137167785D01*
X140265161Y-137242071D01*
X140265161Y-137427785D01*
X140241352Y-137502071D01*
X140217542Y-137539214D01*
X140169923Y-137576357D01*
X140027066Y-137576357D01*
X139979447Y-137539214D01*
X139955638Y-137502071D01*
X140693733Y-137056357D02*
X140693733Y-137576357D01*
X140574685Y-136759214D02*
X140455638Y-137316357D01*
X140765161Y-137316357D01*
X139955638Y-139336357D02*
X140265161Y-139336357D01*
X140098495Y-139633500D01*
X140169923Y-139633500D01*
X140217542Y-139670642D01*
X140241352Y-139707785D01*
X140265161Y-139782071D01*
X140265161Y-139967785D01*
X140241352Y-140042071D01*
X140217542Y-140079214D01*
X140169923Y-140116357D01*
X140027066Y-140116357D01*
X139979447Y-140079214D01*
X139955638Y-140042071D01*
X140693733Y-139336357D02*
X140598495Y-139336357D01*
X140550876Y-139373500D01*
X140527066Y-139410642D01*
X140479447Y-139522071D01*
X140455638Y-139670642D01*
X140455638Y-139967785D01*
X140479447Y-140042071D01*
X140503257Y-140079214D01*
X140550876Y-140116357D01*
X140646114Y-140116357D01*
X140693733Y-140079214D01*
X140717542Y-140042071D01*
X140741352Y-139967785D01*
X140741352Y-139782071D01*
X140717542Y-139707785D01*
X140693733Y-139670642D01*
X140646114Y-139633500D01*
X140550876Y-139633500D01*
X140503257Y-139670642D01*
X140479447Y-139707785D01*
X140455638Y-139782071D01*
X139955638Y-141876357D02*
X140265161Y-141876357D01*
X140098495Y-142173500D01*
X140169923Y-142173500D01*
X140217542Y-142210642D01*
X140241352Y-142247785D01*
X140265161Y-142322071D01*
X140265161Y-142507785D01*
X140241352Y-142582071D01*
X140217542Y-142619214D01*
X140169923Y-142656357D01*
X140027066Y-142656357D01*
X139979447Y-142619214D01*
X139955638Y-142582071D01*
X140550876Y-142210642D02*
X140503257Y-142173500D01*
X140479447Y-142136357D01*
X140455638Y-142062071D01*
X140455638Y-142024928D01*
X140479447Y-141950642D01*
X140503257Y-141913500D01*
X140550876Y-141876357D01*
X140646114Y-141876357D01*
X140693733Y-141913500D01*
X140717542Y-141950642D01*
X140741352Y-142024928D01*
X140741352Y-142062071D01*
X140717542Y-142136357D01*
X140693733Y-142173500D01*
X140646114Y-142210642D01*
X140550876Y-142210642D01*
X140503257Y-142247785D01*
X140479447Y-142284928D01*
X140455638Y-142359214D01*
X140455638Y-142507785D01*
X140479447Y-142582071D01*
X140503257Y-142619214D01*
X140550876Y-142656357D01*
X140646114Y-142656357D01*
X140693733Y-142619214D01*
X140717542Y-142582071D01*
X140741352Y-142507785D01*
X140741352Y-142359214D01*
X140717542Y-142284928D01*
X140693733Y-142247785D01*
X140646114Y-142210642D01*
X140217542Y-144676357D02*
X140217542Y-145196357D01*
X140098495Y-144379214D02*
X139979447Y-144936357D01*
X140288971Y-144936357D01*
X140574685Y-144416357D02*
X140622304Y-144416357D01*
X140669923Y-144453500D01*
X140693733Y-144490642D01*
X140717542Y-144564928D01*
X140741352Y-144713500D01*
X140741352Y-144899214D01*
X140717542Y-145047785D01*
X140693733Y-145122071D01*
X140669923Y-145159214D01*
X140622304Y-145196357D01*
X140574685Y-145196357D01*
X140527066Y-145159214D01*
X140503257Y-145122071D01*
X140479447Y-145047785D01*
X140455638Y-144899214D01*
X140455638Y-144713500D01*
X140479447Y-144564928D01*
X140503257Y-144490642D01*
X140527066Y-144453500D01*
X140574685Y-144416357D01*
X140217542Y-147216357D02*
X140217542Y-147736357D01*
X140098495Y-146919214D02*
X139979447Y-147476357D01*
X140288971Y-147476357D01*
X140455638Y-147030642D02*
X140479447Y-146993500D01*
X140527066Y-146956357D01*
X140646114Y-146956357D01*
X140693733Y-146993500D01*
X140717542Y-147030642D01*
X140741352Y-147104928D01*
X140741352Y-147179214D01*
X140717542Y-147290642D01*
X140431828Y-147736357D01*
X140741352Y-147736357D01*
X140217542Y-149756357D02*
X140217542Y-150276357D01*
X140098495Y-149459214D02*
X139979447Y-150016357D01*
X140288971Y-150016357D01*
X140693733Y-149756357D02*
X140693733Y-150276357D01*
X140574685Y-149459214D02*
X140455638Y-150016357D01*
X140765161Y-150016357D01*
X140217542Y-152296357D02*
X140217542Y-152816357D01*
X140098495Y-151999214D02*
X139979447Y-152556357D01*
X140288971Y-152556357D01*
X140693733Y-152036357D02*
X140598495Y-152036357D01*
X140550876Y-152073500D01*
X140527066Y-152110642D01*
X140479447Y-152222071D01*
X140455638Y-152370642D01*
X140455638Y-152667785D01*
X140479447Y-152742071D01*
X140503257Y-152779214D01*
X140550876Y-152816357D01*
X140646114Y-152816357D01*
X140693733Y-152779214D01*
X140717542Y-152742071D01*
X140741352Y-152667785D01*
X140741352Y-152482071D01*
X140717542Y-152407785D01*
X140693733Y-152370642D01*
X140646114Y-152333500D01*
X140550876Y-152333500D01*
X140503257Y-152370642D01*
X140479447Y-152407785D01*
X140455638Y-152482071D01*
X140217542Y-154836357D02*
X140217542Y-155356357D01*
X140098495Y-154539214D02*
X139979447Y-155096357D01*
X140288971Y-155096357D01*
X140550876Y-154910642D02*
X140503257Y-154873500D01*
X140479447Y-154836357D01*
X140455638Y-154762071D01*
X140455638Y-154724928D01*
X140479447Y-154650642D01*
X140503257Y-154613500D01*
X140550876Y-154576357D01*
X140646114Y-154576357D01*
X140693733Y-154613500D01*
X140717542Y-154650642D01*
X140741352Y-154724928D01*
X140741352Y-154762071D01*
X140717542Y-154836357D01*
X140693733Y-154873500D01*
X140646114Y-154910642D01*
X140550876Y-154910642D01*
X140503257Y-154947785D01*
X140479447Y-154984928D01*
X140455638Y-155059214D01*
X140455638Y-155207785D01*
X140479447Y-155282071D01*
X140503257Y-155319214D01*
X140550876Y-155356357D01*
X140646114Y-155356357D01*
X140693733Y-155319214D01*
X140717542Y-155282071D01*
X140741352Y-155207785D01*
X140741352Y-155059214D01*
X140717542Y-154984928D01*
X140693733Y-154947785D01*
X140646114Y-154910642D01*
X132988038Y-98943657D02*
X132988038Y-99463657D01*
X132868990Y-98646514D02*
X132749942Y-99203657D01*
X133059466Y-99203657D01*
X132988038Y-101223657D02*
X132892800Y-101223657D01*
X132845180Y-101260800D01*
X132821371Y-101297942D01*
X132773752Y-101409371D01*
X132749942Y-101557942D01*
X132749942Y-101855085D01*
X132773752Y-101929371D01*
X132797561Y-101966514D01*
X132845180Y-102003657D01*
X132940419Y-102003657D01*
X132988038Y-101966514D01*
X133011847Y-101929371D01*
X133035657Y-101855085D01*
X133035657Y-101669371D01*
X133011847Y-101595085D01*
X132988038Y-101557942D01*
X132940419Y-101520800D01*
X132845180Y-101520800D01*
X132797561Y-101557942D01*
X132773752Y-101595085D01*
X132749942Y-101669371D01*
X132845180Y-104097942D02*
X132797561Y-104060800D01*
X132773752Y-104023657D01*
X132749942Y-103949371D01*
X132749942Y-103912228D01*
X132773752Y-103837942D01*
X132797561Y-103800800D01*
X132845180Y-103763657D01*
X132940419Y-103763657D01*
X132988038Y-103800800D01*
X133011847Y-103837942D01*
X133035657Y-103912228D01*
X133035657Y-103949371D01*
X133011847Y-104023657D01*
X132988038Y-104060800D01*
X132940419Y-104097942D01*
X132845180Y-104097942D01*
X132797561Y-104135085D01*
X132773752Y-104172228D01*
X132749942Y-104246514D01*
X132749942Y-104395085D01*
X132773752Y-104469371D01*
X132797561Y-104506514D01*
X132845180Y-104543657D01*
X132940419Y-104543657D01*
X132988038Y-104506514D01*
X133011847Y-104469371D01*
X133035657Y-104395085D01*
X133035657Y-104246514D01*
X133011847Y-104172228D01*
X132988038Y-104135085D01*
X132940419Y-104097942D01*
X132797561Y-107083657D02*
X132511847Y-107083657D01*
X132654704Y-107083657D02*
X132654704Y-106303657D01*
X132607085Y-106415085D01*
X132559466Y-106489371D01*
X132511847Y-106526514D01*
X133107085Y-106303657D02*
X133154704Y-106303657D01*
X133202323Y-106340800D01*
X133226133Y-106377942D01*
X133249942Y-106452228D01*
X133273752Y-106600800D01*
X133273752Y-106786514D01*
X133249942Y-106935085D01*
X133226133Y-107009371D01*
X133202323Y-107046514D01*
X133154704Y-107083657D01*
X133107085Y-107083657D01*
X133059466Y-107046514D01*
X133035657Y-107009371D01*
X133011847Y-106935085D01*
X132988038Y-106786514D01*
X132988038Y-106600800D01*
X133011847Y-106452228D01*
X133035657Y-106377942D01*
X133059466Y-106340800D01*
X133107085Y-106303657D01*
X132797561Y-109623657D02*
X132511847Y-109623657D01*
X132654704Y-109623657D02*
X132654704Y-108843657D01*
X132607085Y-108955085D01*
X132559466Y-109029371D01*
X132511847Y-109066514D01*
X132988038Y-108917942D02*
X133011847Y-108880800D01*
X133059466Y-108843657D01*
X133178514Y-108843657D01*
X133226133Y-108880800D01*
X133249942Y-108917942D01*
X133273752Y-108992228D01*
X133273752Y-109066514D01*
X133249942Y-109177942D01*
X132964228Y-109623657D01*
X133273752Y-109623657D01*
X132797561Y-112163657D02*
X132511847Y-112163657D01*
X132654704Y-112163657D02*
X132654704Y-111383657D01*
X132607085Y-111495085D01*
X132559466Y-111569371D01*
X132511847Y-111606514D01*
X133226133Y-111643657D02*
X133226133Y-112163657D01*
X133107085Y-111346514D02*
X132988038Y-111903657D01*
X133297561Y-111903657D01*
X132797561Y-114703657D02*
X132511847Y-114703657D01*
X132654704Y-114703657D02*
X132654704Y-113923657D01*
X132607085Y-114035085D01*
X132559466Y-114109371D01*
X132511847Y-114146514D01*
X133226133Y-113923657D02*
X133130895Y-113923657D01*
X133083276Y-113960800D01*
X133059466Y-113997942D01*
X133011847Y-114109371D01*
X132988038Y-114257942D01*
X132988038Y-114555085D01*
X133011847Y-114629371D01*
X133035657Y-114666514D01*
X133083276Y-114703657D01*
X133178514Y-114703657D01*
X133226133Y-114666514D01*
X133249942Y-114629371D01*
X133273752Y-114555085D01*
X133273752Y-114369371D01*
X133249942Y-114295085D01*
X133226133Y-114257942D01*
X133178514Y-114220800D01*
X133083276Y-114220800D01*
X133035657Y-114257942D01*
X133011847Y-114295085D01*
X132988038Y-114369371D01*
X132797561Y-117243657D02*
X132511847Y-117243657D01*
X132654704Y-117243657D02*
X132654704Y-116463657D01*
X132607085Y-116575085D01*
X132559466Y-116649371D01*
X132511847Y-116686514D01*
X133083276Y-116797942D02*
X133035657Y-116760800D01*
X133011847Y-116723657D01*
X132988038Y-116649371D01*
X132988038Y-116612228D01*
X133011847Y-116537942D01*
X133035657Y-116500800D01*
X133083276Y-116463657D01*
X133178514Y-116463657D01*
X133226133Y-116500800D01*
X133249942Y-116537942D01*
X133273752Y-116612228D01*
X133273752Y-116649371D01*
X133249942Y-116723657D01*
X133226133Y-116760800D01*
X133178514Y-116797942D01*
X133083276Y-116797942D01*
X133035657Y-116835085D01*
X133011847Y-116872228D01*
X132988038Y-116946514D01*
X132988038Y-117095085D01*
X133011847Y-117169371D01*
X133035657Y-117206514D01*
X133083276Y-117243657D01*
X133178514Y-117243657D01*
X133226133Y-117206514D01*
X133249942Y-117169371D01*
X133273752Y-117095085D01*
X133273752Y-116946514D01*
X133249942Y-116872228D01*
X133226133Y-116835085D01*
X133178514Y-116797942D01*
X132511847Y-119077942D02*
X132535657Y-119040800D01*
X132583276Y-119003657D01*
X132702323Y-119003657D01*
X132749942Y-119040800D01*
X132773752Y-119077942D01*
X132797561Y-119152228D01*
X132797561Y-119226514D01*
X132773752Y-119337942D01*
X132488038Y-119783657D01*
X132797561Y-119783657D01*
X133107085Y-119003657D02*
X133154704Y-119003657D01*
X133202323Y-119040800D01*
X133226133Y-119077942D01*
X133249942Y-119152228D01*
X133273752Y-119300800D01*
X133273752Y-119486514D01*
X133249942Y-119635085D01*
X133226133Y-119709371D01*
X133202323Y-119746514D01*
X133154704Y-119783657D01*
X133107085Y-119783657D01*
X133059466Y-119746514D01*
X133035657Y-119709371D01*
X133011847Y-119635085D01*
X132988038Y-119486514D01*
X132988038Y-119300800D01*
X133011847Y-119152228D01*
X133035657Y-119077942D01*
X133059466Y-119040800D01*
X133107085Y-119003657D01*
X132511847Y-121617942D02*
X132535657Y-121580800D01*
X132583276Y-121543657D01*
X132702323Y-121543657D01*
X132749942Y-121580800D01*
X132773752Y-121617942D01*
X132797561Y-121692228D01*
X132797561Y-121766514D01*
X132773752Y-121877942D01*
X132488038Y-122323657D01*
X132797561Y-122323657D01*
X132988038Y-121617942D02*
X133011847Y-121580800D01*
X133059466Y-121543657D01*
X133178514Y-121543657D01*
X133226133Y-121580800D01*
X133249942Y-121617942D01*
X133273752Y-121692228D01*
X133273752Y-121766514D01*
X133249942Y-121877942D01*
X132964228Y-122323657D01*
X133273752Y-122323657D01*
X132511847Y-124157942D02*
X132535657Y-124120800D01*
X132583276Y-124083657D01*
X132702323Y-124083657D01*
X132749942Y-124120800D01*
X132773752Y-124157942D01*
X132797561Y-124232228D01*
X132797561Y-124306514D01*
X132773752Y-124417942D01*
X132488038Y-124863657D01*
X132797561Y-124863657D01*
X133226133Y-124343657D02*
X133226133Y-124863657D01*
X133107085Y-124046514D02*
X132988038Y-124603657D01*
X133297561Y-124603657D01*
X132511847Y-126697942D02*
X132535657Y-126660800D01*
X132583276Y-126623657D01*
X132702323Y-126623657D01*
X132749942Y-126660800D01*
X132773752Y-126697942D01*
X132797561Y-126772228D01*
X132797561Y-126846514D01*
X132773752Y-126957942D01*
X132488038Y-127403657D01*
X132797561Y-127403657D01*
X133226133Y-126623657D02*
X133130895Y-126623657D01*
X133083276Y-126660800D01*
X133059466Y-126697942D01*
X133011847Y-126809371D01*
X132988038Y-126957942D01*
X132988038Y-127255085D01*
X133011847Y-127329371D01*
X133035657Y-127366514D01*
X133083276Y-127403657D01*
X133178514Y-127403657D01*
X133226133Y-127366514D01*
X133249942Y-127329371D01*
X133273752Y-127255085D01*
X133273752Y-127069371D01*
X133249942Y-126995085D01*
X133226133Y-126957942D01*
X133178514Y-126920800D01*
X133083276Y-126920800D01*
X133035657Y-126957942D01*
X133011847Y-126995085D01*
X132988038Y-127069371D01*
X132511847Y-129237942D02*
X132535657Y-129200800D01*
X132583276Y-129163657D01*
X132702323Y-129163657D01*
X132749942Y-129200800D01*
X132773752Y-129237942D01*
X132797561Y-129312228D01*
X132797561Y-129386514D01*
X132773752Y-129497942D01*
X132488038Y-129943657D01*
X132797561Y-129943657D01*
X133083276Y-129497942D02*
X133035657Y-129460800D01*
X133011847Y-129423657D01*
X132988038Y-129349371D01*
X132988038Y-129312228D01*
X133011847Y-129237942D01*
X133035657Y-129200800D01*
X133083276Y-129163657D01*
X133178514Y-129163657D01*
X133226133Y-129200800D01*
X133249942Y-129237942D01*
X133273752Y-129312228D01*
X133273752Y-129349371D01*
X133249942Y-129423657D01*
X133226133Y-129460800D01*
X133178514Y-129497942D01*
X133083276Y-129497942D01*
X133035657Y-129535085D01*
X133011847Y-129572228D01*
X132988038Y-129646514D01*
X132988038Y-129795085D01*
X133011847Y-129869371D01*
X133035657Y-129906514D01*
X133083276Y-129943657D01*
X133178514Y-129943657D01*
X133226133Y-129906514D01*
X133249942Y-129869371D01*
X133273752Y-129795085D01*
X133273752Y-129646514D01*
X133249942Y-129572228D01*
X133226133Y-129535085D01*
X133178514Y-129497942D01*
X132488038Y-131703657D02*
X132797561Y-131703657D01*
X132630895Y-132000800D01*
X132702323Y-132000800D01*
X132749942Y-132037942D01*
X132773752Y-132075085D01*
X132797561Y-132149371D01*
X132797561Y-132335085D01*
X132773752Y-132409371D01*
X132749942Y-132446514D01*
X132702323Y-132483657D01*
X132559466Y-132483657D01*
X132511847Y-132446514D01*
X132488038Y-132409371D01*
X133107085Y-131703657D02*
X133154704Y-131703657D01*
X133202323Y-131740800D01*
X133226133Y-131777942D01*
X133249942Y-131852228D01*
X133273752Y-132000800D01*
X133273752Y-132186514D01*
X133249942Y-132335085D01*
X133226133Y-132409371D01*
X133202323Y-132446514D01*
X133154704Y-132483657D01*
X133107085Y-132483657D01*
X133059466Y-132446514D01*
X133035657Y-132409371D01*
X133011847Y-132335085D01*
X132988038Y-132186514D01*
X132988038Y-132000800D01*
X133011847Y-131852228D01*
X133035657Y-131777942D01*
X133059466Y-131740800D01*
X133107085Y-131703657D01*
X132488038Y-134243657D02*
X132797561Y-134243657D01*
X132630895Y-134540800D01*
X132702323Y-134540800D01*
X132749942Y-134577942D01*
X132773752Y-134615085D01*
X132797561Y-134689371D01*
X132797561Y-134875085D01*
X132773752Y-134949371D01*
X132749942Y-134986514D01*
X132702323Y-135023657D01*
X132559466Y-135023657D01*
X132511847Y-134986514D01*
X132488038Y-134949371D01*
X132988038Y-134317942D02*
X133011847Y-134280800D01*
X133059466Y-134243657D01*
X133178514Y-134243657D01*
X133226133Y-134280800D01*
X133249942Y-134317942D01*
X133273752Y-134392228D01*
X133273752Y-134466514D01*
X133249942Y-134577942D01*
X132964228Y-135023657D01*
X133273752Y-135023657D01*
X132488038Y-136783657D02*
X132797561Y-136783657D01*
X132630895Y-137080800D01*
X132702323Y-137080800D01*
X132749942Y-137117942D01*
X132773752Y-137155085D01*
X132797561Y-137229371D01*
X132797561Y-137415085D01*
X132773752Y-137489371D01*
X132749942Y-137526514D01*
X132702323Y-137563657D01*
X132559466Y-137563657D01*
X132511847Y-137526514D01*
X132488038Y-137489371D01*
X133226133Y-137043657D02*
X133226133Y-137563657D01*
X133107085Y-136746514D02*
X132988038Y-137303657D01*
X133297561Y-137303657D01*
X132488038Y-139323657D02*
X132797561Y-139323657D01*
X132630895Y-139620800D01*
X132702323Y-139620800D01*
X132749942Y-139657942D01*
X132773752Y-139695085D01*
X132797561Y-139769371D01*
X132797561Y-139955085D01*
X132773752Y-140029371D01*
X132749942Y-140066514D01*
X132702323Y-140103657D01*
X132559466Y-140103657D01*
X132511847Y-140066514D01*
X132488038Y-140029371D01*
X133226133Y-139323657D02*
X133130895Y-139323657D01*
X133083276Y-139360800D01*
X133059466Y-139397942D01*
X133011847Y-139509371D01*
X132988038Y-139657942D01*
X132988038Y-139955085D01*
X133011847Y-140029371D01*
X133035657Y-140066514D01*
X133083276Y-140103657D01*
X133178514Y-140103657D01*
X133226133Y-140066514D01*
X133249942Y-140029371D01*
X133273752Y-139955085D01*
X133273752Y-139769371D01*
X133249942Y-139695085D01*
X133226133Y-139657942D01*
X133178514Y-139620800D01*
X133083276Y-139620800D01*
X133035657Y-139657942D01*
X133011847Y-139695085D01*
X132988038Y-139769371D01*
X132488038Y-141863657D02*
X132797561Y-141863657D01*
X132630895Y-142160800D01*
X132702323Y-142160800D01*
X132749942Y-142197942D01*
X132773752Y-142235085D01*
X132797561Y-142309371D01*
X132797561Y-142495085D01*
X132773752Y-142569371D01*
X132749942Y-142606514D01*
X132702323Y-142643657D01*
X132559466Y-142643657D01*
X132511847Y-142606514D01*
X132488038Y-142569371D01*
X133083276Y-142197942D02*
X133035657Y-142160800D01*
X133011847Y-142123657D01*
X132988038Y-142049371D01*
X132988038Y-142012228D01*
X133011847Y-141937942D01*
X133035657Y-141900800D01*
X133083276Y-141863657D01*
X133178514Y-141863657D01*
X133226133Y-141900800D01*
X133249942Y-141937942D01*
X133273752Y-142012228D01*
X133273752Y-142049371D01*
X133249942Y-142123657D01*
X133226133Y-142160800D01*
X133178514Y-142197942D01*
X133083276Y-142197942D01*
X133035657Y-142235085D01*
X133011847Y-142272228D01*
X132988038Y-142346514D01*
X132988038Y-142495085D01*
X133011847Y-142569371D01*
X133035657Y-142606514D01*
X133083276Y-142643657D01*
X133178514Y-142643657D01*
X133226133Y-142606514D01*
X133249942Y-142569371D01*
X133273752Y-142495085D01*
X133273752Y-142346514D01*
X133249942Y-142272228D01*
X133226133Y-142235085D01*
X133178514Y-142197942D01*
X132749942Y-144663657D02*
X132749942Y-145183657D01*
X132630895Y-144366514D02*
X132511847Y-144923657D01*
X132821371Y-144923657D01*
X133107085Y-144403657D02*
X133154704Y-144403657D01*
X133202323Y-144440800D01*
X133226133Y-144477942D01*
X133249942Y-144552228D01*
X133273752Y-144700800D01*
X133273752Y-144886514D01*
X133249942Y-145035085D01*
X133226133Y-145109371D01*
X133202323Y-145146514D01*
X133154704Y-145183657D01*
X133107085Y-145183657D01*
X133059466Y-145146514D01*
X133035657Y-145109371D01*
X133011847Y-145035085D01*
X132988038Y-144886514D01*
X132988038Y-144700800D01*
X133011847Y-144552228D01*
X133035657Y-144477942D01*
X133059466Y-144440800D01*
X133107085Y-144403657D01*
X132749942Y-147203657D02*
X132749942Y-147723657D01*
X132630895Y-146906514D02*
X132511847Y-147463657D01*
X132821371Y-147463657D01*
X132988038Y-147017942D02*
X133011847Y-146980800D01*
X133059466Y-146943657D01*
X133178514Y-146943657D01*
X133226133Y-146980800D01*
X133249942Y-147017942D01*
X133273752Y-147092228D01*
X133273752Y-147166514D01*
X133249942Y-147277942D01*
X132964228Y-147723657D01*
X133273752Y-147723657D01*
X132749942Y-149743657D02*
X132749942Y-150263657D01*
X132630895Y-149446514D02*
X132511847Y-150003657D01*
X132821371Y-150003657D01*
X133226133Y-149743657D02*
X133226133Y-150263657D01*
X133107085Y-149446514D02*
X132988038Y-150003657D01*
X133297561Y-150003657D01*
X132749942Y-152283657D02*
X132749942Y-152803657D01*
X132630895Y-151986514D02*
X132511847Y-152543657D01*
X132821371Y-152543657D01*
X133226133Y-152023657D02*
X133130895Y-152023657D01*
X133083276Y-152060800D01*
X133059466Y-152097942D01*
X133011847Y-152209371D01*
X132988038Y-152357942D01*
X132988038Y-152655085D01*
X133011847Y-152729371D01*
X133035657Y-152766514D01*
X133083276Y-152803657D01*
X133178514Y-152803657D01*
X133226133Y-152766514D01*
X133249942Y-152729371D01*
X133273752Y-152655085D01*
X133273752Y-152469371D01*
X133249942Y-152395085D01*
X133226133Y-152357942D01*
X133178514Y-152320800D01*
X133083276Y-152320800D01*
X133035657Y-152357942D01*
X133011847Y-152395085D01*
X132988038Y-152469371D01*
X132749942Y-154823657D02*
X132749942Y-155343657D01*
X132630895Y-154526514D02*
X132511847Y-155083657D01*
X132821371Y-155083657D01*
X133083276Y-154897942D02*
X133035657Y-154860800D01*
X133011847Y-154823657D01*
X132988038Y-154749371D01*
X132988038Y-154712228D01*
X133011847Y-154637942D01*
X133035657Y-154600800D01*
X133083276Y-154563657D01*
X133178514Y-154563657D01*
X133226133Y-154600800D01*
X133249942Y-154637942D01*
X133273752Y-154712228D01*
X133273752Y-154749371D01*
X133249942Y-154823657D01*
X133226133Y-154860800D01*
X133178514Y-154897942D01*
X133083276Y-154897942D01*
X133035657Y-154935085D01*
X133011847Y-154972228D01*
X132988038Y-155046514D01*
X132988038Y-155195085D01*
X133011847Y-155269371D01*
X133035657Y-155306514D01*
X133083276Y-155343657D01*
X133178514Y-155343657D01*
X133226133Y-155306514D01*
X133249942Y-155269371D01*
X133273752Y-155195085D01*
X133273752Y-155046514D01*
X133249942Y-154972228D01*
X133226133Y-154935085D01*
X133178514Y-154897942D01*
D11*
X223974476Y-79192833D02*
X223926857Y-79145214D01*
X223831619Y-79002357D01*
X223784000Y-78907119D01*
X223736380Y-78764261D01*
X223688761Y-78526166D01*
X223688761Y-78335690D01*
X223736380Y-78097595D01*
X223784000Y-77954738D01*
X223831619Y-77859500D01*
X223926857Y-77716642D01*
X223974476Y-77669023D01*
X224307809Y-77907119D02*
X224355428Y-77859500D01*
X224450666Y-77811880D01*
X224688761Y-77811880D01*
X224784000Y-77859500D01*
X224831619Y-77907119D01*
X224879238Y-78002357D01*
X224879238Y-78097595D01*
X224831619Y-78240452D01*
X224260190Y-78811880D01*
X224879238Y-78811880D01*
X225498285Y-77811880D02*
X225593523Y-77811880D01*
X225688761Y-77859500D01*
X225736380Y-77907119D01*
X225784000Y-78002357D01*
X225831619Y-78192833D01*
X225831619Y-78430928D01*
X225784000Y-78621404D01*
X225736380Y-78716642D01*
X225688761Y-78764261D01*
X225593523Y-78811880D01*
X225498285Y-78811880D01*
X225403047Y-78764261D01*
X225355428Y-78716642D01*
X225307809Y-78621404D01*
X225260190Y-78430928D01*
X225260190Y-78192833D01*
X225307809Y-78002357D01*
X225355428Y-77907119D01*
X225403047Y-77859500D01*
X225498285Y-77811880D01*
X226212571Y-77907119D02*
X226260190Y-77859500D01*
X226355428Y-77811880D01*
X226593523Y-77811880D01*
X226688761Y-77859500D01*
X226736380Y-77907119D01*
X226784000Y-78002357D01*
X226784000Y-78097595D01*
X226736380Y-78240452D01*
X226164952Y-78811880D01*
X226784000Y-78811880D01*
X227164952Y-77907119D02*
X227212571Y-77859500D01*
X227307809Y-77811880D01*
X227545904Y-77811880D01*
X227641142Y-77859500D01*
X227688761Y-77907119D01*
X227736380Y-78002357D01*
X227736380Y-78097595D01*
X227688761Y-78240452D01*
X227117333Y-78811880D01*
X227736380Y-78811880D01*
X228069714Y-79192833D02*
X228117333Y-79145214D01*
X228212571Y-79002357D01*
X228260190Y-78907119D01*
X228307809Y-78764261D01*
X228355428Y-78526166D01*
X228355428Y-78335690D01*
X228307809Y-78097595D01*
X228260190Y-77954738D01*
X228212571Y-77859500D01*
X228117333Y-77716642D01*
X228069714Y-77669023D01*
X229593523Y-78811880D02*
X229593523Y-77811880D01*
X229926857Y-78526166D01*
X230260190Y-77811880D01*
X230260190Y-78811880D01*
X231164952Y-78811880D02*
X231164952Y-78288071D01*
X231117333Y-78192833D01*
X231022095Y-78145214D01*
X230831619Y-78145214D01*
X230736380Y-78192833D01*
X231164952Y-78764261D02*
X231069714Y-78811880D01*
X230831619Y-78811880D01*
X230736380Y-78764261D01*
X230688761Y-78669023D01*
X230688761Y-78573785D01*
X230736380Y-78478547D01*
X230831619Y-78430928D01*
X231069714Y-78430928D01*
X231164952Y-78383309D01*
X231641142Y-78811880D02*
X231641142Y-78145214D01*
X231641142Y-78335690D02*
X231688761Y-78240452D01*
X231736380Y-78192833D01*
X231831619Y-78145214D01*
X231926857Y-78145214D01*
X232117333Y-78145214D02*
X232498285Y-78145214D01*
X232260190Y-77811880D02*
X232260190Y-78669023D01*
X232307809Y-78764261D01*
X232403047Y-78811880D01*
X232498285Y-78811880D01*
X232831619Y-78811880D02*
X232831619Y-78145214D01*
X232831619Y-77811880D02*
X232784000Y-77859500D01*
X232831619Y-77907119D01*
X232879238Y-77859500D01*
X232831619Y-77811880D01*
X232831619Y-77907119D01*
X233307809Y-78145214D02*
X233307809Y-78811880D01*
X233307809Y-78240452D02*
X233355428Y-78192833D01*
X233450666Y-78145214D01*
X233593523Y-78145214D01*
X233688761Y-78192833D01*
X233736380Y-78288071D01*
X233736380Y-78811880D01*
X234974476Y-78811880D02*
X234974476Y-77811880D01*
X234974476Y-78288071D02*
X235545904Y-78288071D01*
X235545904Y-78811880D02*
X235545904Y-77811880D01*
X236403047Y-78764261D02*
X236307809Y-78811880D01*
X236117333Y-78811880D01*
X236022095Y-78764261D01*
X235974476Y-78669023D01*
X235974476Y-78288071D01*
X236022095Y-78192833D01*
X236117333Y-78145214D01*
X236307809Y-78145214D01*
X236403047Y-78192833D01*
X236450666Y-78288071D01*
X236450666Y-78383309D01*
X235974476Y-78478547D01*
X236879238Y-78145214D02*
X236879238Y-79002357D01*
X236831619Y-79097595D01*
X236736380Y-79145214D01*
X236688761Y-79145214D01*
X236879238Y-77811880D02*
X236831619Y-77859500D01*
X236879238Y-77907119D01*
X236926857Y-77859500D01*
X236879238Y-77811880D01*
X236879238Y-77907119D01*
X237355428Y-78145214D02*
X237355428Y-78811880D01*
X237355428Y-78240452D02*
X237403047Y-78192833D01*
X237498285Y-78145214D01*
X237641142Y-78145214D01*
X237736380Y-78192833D01*
X237784000Y-78288071D01*
X237784000Y-78811880D01*
X238117333Y-78145214D02*
X238498285Y-78145214D01*
X238260190Y-78811880D02*
X238260190Y-77954738D01*
X238307809Y-77859500D01*
X238403047Y-77811880D01*
X238498285Y-77811880D01*
X239212571Y-78764261D02*
X239117333Y-78811880D01*
X238926857Y-78811880D01*
X238831619Y-78764261D01*
X238784000Y-78669023D01*
X238784000Y-78288071D01*
X238831619Y-78192833D01*
X238926857Y-78145214D01*
X239117333Y-78145214D01*
X239212571Y-78192833D01*
X239260190Y-78288071D01*
X239260190Y-78383309D01*
X238784000Y-78478547D01*
X239831619Y-78811880D02*
X239736380Y-78764261D01*
X239688761Y-78669023D01*
X239688761Y-77811880D01*
X240069714Y-78145214D02*
X240450666Y-78145214D01*
X240212571Y-77811880D02*
X240212571Y-78669023D01*
X240260190Y-78764261D01*
X240355428Y-78811880D01*
X240450666Y-78811880D01*
X240831619Y-78764261D02*
X240831619Y-78811880D01*
X240784000Y-78907119D01*
X240736380Y-78954738D01*
X242022095Y-78811880D02*
X242022095Y-78145214D01*
X242022095Y-78240452D02*
X242069714Y-78192833D01*
X242164952Y-78145214D01*
X242307809Y-78145214D01*
X242403047Y-78192833D01*
X242450666Y-78288071D01*
X242450666Y-78811880D01*
X242450666Y-78288071D02*
X242498285Y-78192833D01*
X242593523Y-78145214D01*
X242736380Y-78145214D01*
X242831619Y-78192833D01*
X242879238Y-78288071D01*
X242879238Y-78811880D01*
X243784000Y-78811880D02*
X243784000Y-78288071D01*
X243736380Y-78192833D01*
X243641142Y-78145214D01*
X243450666Y-78145214D01*
X243355428Y-78192833D01*
X243784000Y-78764261D02*
X243688761Y-78811880D01*
X243450666Y-78811880D01*
X243355428Y-78764261D01*
X243307809Y-78669023D01*
X243307809Y-78573785D01*
X243355428Y-78478547D01*
X243450666Y-78430928D01*
X243688761Y-78430928D01*
X243784000Y-78383309D01*
X244260190Y-78811880D02*
X244260190Y-78145214D01*
X244260190Y-78335690D02*
X244307809Y-78240452D01*
X244355428Y-78192833D01*
X244450666Y-78145214D01*
X244545904Y-78145214D01*
X244736380Y-78145214D02*
X245117333Y-78145214D01*
X244879238Y-77811880D02*
X244879238Y-78669023D01*
X244926857Y-78764261D01*
X245022095Y-78811880D01*
X245117333Y-78811880D01*
X245450666Y-78811880D02*
X245450666Y-78145214D01*
X245450666Y-77811880D02*
X245403047Y-77859500D01*
X245450666Y-77907119D01*
X245498285Y-77859500D01*
X245450666Y-77811880D01*
X245450666Y-77907119D01*
X245926857Y-78145214D02*
X245926857Y-78811880D01*
X245926857Y-78240452D02*
X245974476Y-78192833D01*
X246069714Y-78145214D01*
X246212571Y-78145214D01*
X246307809Y-78192833D01*
X246355428Y-78288071D01*
X246355428Y-78811880D01*
X247450666Y-78335690D02*
X247403047Y-78288071D01*
X247307809Y-78240452D01*
X247212571Y-78240452D01*
X247117333Y-78288071D01*
X247069714Y-78335690D01*
X247022095Y-78430928D01*
X247022095Y-78526166D01*
X247069714Y-78621404D01*
X247117333Y-78669023D01*
X247212571Y-78716642D01*
X247307809Y-78716642D01*
X247403047Y-78669023D01*
X247450666Y-78621404D01*
X247450666Y-78240452D02*
X247450666Y-78621404D01*
X247498285Y-78669023D01*
X247545904Y-78669023D01*
X247641142Y-78621404D01*
X247688761Y-78526166D01*
X247688761Y-78288071D01*
X247593523Y-78145214D01*
X247450666Y-78049976D01*
X247260190Y-78002357D01*
X247069714Y-78049976D01*
X246926857Y-78145214D01*
X246831619Y-78288071D01*
X246783999Y-78478547D01*
X246831619Y-78669023D01*
X246926857Y-78811880D01*
X247069714Y-78907119D01*
X247260190Y-78954738D01*
X247450666Y-78907119D01*
X247593523Y-78811880D01*
X248117333Y-78811880D02*
X248117333Y-77811880D01*
X248545904Y-78811880D02*
X248545904Y-78288071D01*
X248498285Y-78192833D01*
X248403047Y-78145214D01*
X248260190Y-78145214D01*
X248164952Y-78192833D01*
X248117333Y-78240452D01*
X249403047Y-78764261D02*
X249307809Y-78811880D01*
X249117333Y-78811880D01*
X249022095Y-78764261D01*
X248974476Y-78669023D01*
X248974476Y-78288071D01*
X249022095Y-78192833D01*
X249117333Y-78145214D01*
X249307809Y-78145214D01*
X249403047Y-78192833D01*
X249450666Y-78288071D01*
X249450666Y-78383309D01*
X248974476Y-78478547D01*
X249879238Y-78145214D02*
X249879238Y-79002357D01*
X249831619Y-79097595D01*
X249736380Y-79145214D01*
X249688761Y-79145214D01*
X249879238Y-77811880D02*
X249831619Y-77859500D01*
X249879238Y-77907119D01*
X249926857Y-77859500D01*
X249879238Y-77811880D01*
X249879238Y-77907119D01*
X250355428Y-78145214D02*
X250355428Y-78811880D01*
X250355428Y-78240452D02*
X250403047Y-78192833D01*
X250498285Y-78145214D01*
X250641142Y-78145214D01*
X250736380Y-78192833D01*
X250784000Y-78288071D01*
X250784000Y-78811880D01*
X251117333Y-78145214D02*
X251498285Y-78145214D01*
X251260190Y-78811880D02*
X251260190Y-77954738D01*
X251307809Y-77859500D01*
X251403047Y-77811880D01*
X251498285Y-77811880D01*
X252212571Y-78764261D02*
X252117333Y-78811880D01*
X251926857Y-78811880D01*
X251831619Y-78764261D01*
X251783999Y-78669023D01*
X251783999Y-78288071D01*
X251831619Y-78192833D01*
X251926857Y-78145214D01*
X252117333Y-78145214D01*
X252212571Y-78192833D01*
X252260190Y-78288071D01*
X252260190Y-78383309D01*
X251783999Y-78478547D01*
X252831619Y-78811880D02*
X252736380Y-78764261D01*
X252688761Y-78669023D01*
X252688761Y-77811880D01*
X253069714Y-78145214D02*
X253450666Y-78145214D01*
X253212571Y-77811880D02*
X253212571Y-78669023D01*
X253260190Y-78764261D01*
X253355428Y-78811880D01*
X253450666Y-78811880D01*
X253783999Y-78716642D02*
X253831619Y-78764261D01*
X253783999Y-78811880D01*
X253736380Y-78764261D01*
X253783999Y-78716642D01*
X253783999Y-78811880D01*
X254688761Y-78764261D02*
X254593523Y-78811880D01*
X254403047Y-78811880D01*
X254307809Y-78764261D01*
X254260190Y-78716642D01*
X254212571Y-78621404D01*
X254212571Y-78335690D01*
X254260190Y-78240452D01*
X254307809Y-78192833D01*
X254403047Y-78145214D01*
X254593523Y-78145214D01*
X254688761Y-78192833D01*
X255260190Y-78811880D02*
X255164952Y-78764261D01*
X255117333Y-78716642D01*
X255069714Y-78621404D01*
X255069714Y-78335690D01*
X255117333Y-78240452D01*
X255164952Y-78192833D01*
X255260190Y-78145214D01*
X255403047Y-78145214D01*
X255498285Y-78192833D01*
X255545904Y-78240452D01*
X255593523Y-78335690D01*
X255593523Y-78621404D01*
X255545904Y-78716642D01*
X255498285Y-78764261D01*
X255403047Y-78811880D01*
X255260190Y-78811880D01*
X256022095Y-78811880D02*
X256022095Y-78145214D01*
X256022095Y-78240452D02*
X256069714Y-78192833D01*
X256164952Y-78145214D01*
X256307809Y-78145214D01*
X256403047Y-78192833D01*
X256450666Y-78288071D01*
X256450666Y-78811880D01*
X256450666Y-78288071D02*
X256498285Y-78192833D01*
X256593523Y-78145214D01*
X256736380Y-78145214D01*
X256831619Y-78192833D01*
X256879238Y-78288071D01*
X256879238Y-78811880D01*
X233212571Y-79795214D02*
X233403047Y-80461880D01*
X233593523Y-79985690D01*
X233784000Y-80461880D01*
X233974476Y-79795214D01*
X234260190Y-79795214D02*
X234450666Y-80461880D01*
X234641142Y-79985690D01*
X234831619Y-80461880D01*
X235022095Y-79795214D01*
X235307809Y-79795214D02*
X235498285Y-80461880D01*
X235688761Y-79985690D01*
X235879238Y-80461880D01*
X236069714Y-79795214D01*
X236450666Y-80366642D02*
X236498285Y-80414261D01*
X236450666Y-80461880D01*
X236403047Y-80414261D01*
X236450666Y-80366642D01*
X236450666Y-80461880D01*
X236926857Y-80461880D02*
X236926857Y-79795214D01*
X236926857Y-79461880D02*
X236879238Y-79509500D01*
X236926857Y-79557119D01*
X236974476Y-79509500D01*
X236926857Y-79461880D01*
X236926857Y-79557119D01*
X237403047Y-80461880D02*
X237403047Y-79795214D01*
X237403047Y-79890452D02*
X237450666Y-79842833D01*
X237545904Y-79795214D01*
X237688761Y-79795214D01*
X237784000Y-79842833D01*
X237831619Y-79938071D01*
X237831619Y-80461880D01*
X237831619Y-79938071D02*
X237879238Y-79842833D01*
X237974476Y-79795214D01*
X238117333Y-79795214D01*
X238212571Y-79842833D01*
X238260190Y-79938071D01*
X238260190Y-80461880D01*
X238736380Y-80461880D02*
X238736380Y-79795214D01*
X238736380Y-79890452D02*
X238784000Y-79842833D01*
X238879238Y-79795214D01*
X239022095Y-79795214D01*
X239117333Y-79842833D01*
X239164952Y-79938071D01*
X239164952Y-80461880D01*
X239164952Y-79938071D02*
X239212571Y-79842833D01*
X239307809Y-79795214D01*
X239450666Y-79795214D01*
X239545904Y-79842833D01*
X239593523Y-79938071D01*
X239593523Y-80461880D01*
X240450666Y-80414261D02*
X240355428Y-80461880D01*
X240164952Y-80461880D01*
X240069714Y-80414261D01*
X240022095Y-80319023D01*
X240022095Y-79938071D01*
X240069714Y-79842833D01*
X240164952Y-79795214D01*
X240355428Y-79795214D01*
X240450666Y-79842833D01*
X240498285Y-79938071D01*
X240498285Y-80033309D01*
X240022095Y-80128547D01*
X240926857Y-80461880D02*
X240926857Y-79795214D01*
X240926857Y-79985690D02*
X240974476Y-79890452D01*
X241022095Y-79842833D01*
X241117333Y-79795214D01*
X241212571Y-79795214D01*
X241545904Y-80461880D02*
X241545904Y-79461880D01*
X241974476Y-80461880D02*
X241974476Y-79938071D01*
X241926857Y-79842833D01*
X241831619Y-79795214D01*
X241688761Y-79795214D01*
X241593523Y-79842833D01*
X241545904Y-79890452D01*
X242879238Y-80461880D02*
X242879238Y-79938071D01*
X242831619Y-79842833D01*
X242736380Y-79795214D01*
X242545904Y-79795214D01*
X242450666Y-79842833D01*
X242879238Y-80414261D02*
X242784000Y-80461880D01*
X242545904Y-80461880D01*
X242450666Y-80414261D01*
X242403047Y-80319023D01*
X242403047Y-80223785D01*
X242450666Y-80128547D01*
X242545904Y-80080928D01*
X242784000Y-80080928D01*
X242879238Y-80033309D01*
X243260190Y-80461880D02*
X243784000Y-79795214D01*
X243260190Y-79795214D02*
X243784000Y-80461880D01*
X244164952Y-80366642D02*
X244212571Y-80414261D01*
X244164952Y-80461880D01*
X244117333Y-80414261D01*
X244164952Y-80366642D01*
X244164952Y-80461880D01*
X245069714Y-80414261D02*
X244974476Y-80461880D01*
X244784000Y-80461880D01*
X244688761Y-80414261D01*
X244641142Y-80366642D01*
X244593523Y-80271404D01*
X244593523Y-79985690D01*
X244641142Y-79890452D01*
X244688761Y-79842833D01*
X244784000Y-79795214D01*
X244974476Y-79795214D01*
X245069714Y-79842833D01*
X245641142Y-80461880D02*
X245545904Y-80414261D01*
X245498285Y-80366642D01*
X245450666Y-80271404D01*
X245450666Y-79985690D01*
X245498285Y-79890452D01*
X245545904Y-79842833D01*
X245641142Y-79795214D01*
X245784000Y-79795214D01*
X245879238Y-79842833D01*
X245926857Y-79890452D01*
X245974476Y-79985690D01*
X245974476Y-80271404D01*
X245926857Y-80366642D01*
X245879238Y-80414261D01*
X245784000Y-80461880D01*
X245641142Y-80461880D01*
X246403047Y-80461880D02*
X246403047Y-79795214D01*
X246403047Y-79890452D02*
X246450666Y-79842833D01*
X246545904Y-79795214D01*
X246688761Y-79795214D01*
X246784000Y-79842833D01*
X246831619Y-79938071D01*
X246831619Y-80461880D01*
X246831619Y-79938071D02*
X246879238Y-79842833D01*
X246974476Y-79795214D01*
X247117333Y-79795214D01*
X247212571Y-79842833D01*
X247260190Y-79938071D01*
X247260190Y-80461880D01*
D12*
X229375357Y-75775357D02*
X229589642Y-75846785D01*
X229661071Y-75918214D01*
X229732500Y-76061071D01*
X229732500Y-76275357D01*
X229661071Y-76418214D01*
X229589642Y-76489642D01*
X229446785Y-76561071D01*
X228875357Y-76561071D01*
X228875357Y-75061071D01*
X229375357Y-75061071D01*
X229518214Y-75132500D01*
X229589642Y-75203928D01*
X229661071Y-75346785D01*
X229661071Y-75489642D01*
X229589642Y-75632500D01*
X229518214Y-75703928D01*
X229375357Y-75775357D01*
X228875357Y-75775357D01*
X230161071Y-75061071D02*
X230661071Y-76561071D01*
X231161071Y-75061071D01*
X231661071Y-76561071D02*
X231661071Y-75061071D01*
X232161071Y-76132500D01*
X232661071Y-75061071D01*
X232661071Y-76561071D01*
X233375357Y-75989642D02*
X234518214Y-75989642D01*
X235161071Y-76132500D02*
X235875357Y-76132500D01*
X235018214Y-76561071D02*
X235518214Y-75061071D01*
X236018214Y-76561071D01*
X238518214Y-76418214D02*
X238446785Y-76489642D01*
X238232500Y-76561071D01*
X238089642Y-76561071D01*
X237875357Y-76489642D01*
X237732500Y-76346785D01*
X237661071Y-76203928D01*
X237589642Y-75918214D01*
X237589642Y-75703928D01*
X237661071Y-75418214D01*
X237732500Y-75275357D01*
X237875357Y-75132500D01*
X238089642Y-75061071D01*
X238232500Y-75061071D01*
X238446785Y-75132500D01*
X238518214Y-75203928D01*
X239803928Y-76561071D02*
X239803928Y-75775357D01*
X239732500Y-75632500D01*
X239589642Y-75561071D01*
X239303928Y-75561071D01*
X239161071Y-75632500D01*
X239803928Y-76489642D02*
X239661071Y-76561071D01*
X239303928Y-76561071D01*
X239161071Y-76489642D01*
X239089642Y-76346785D01*
X239089642Y-76203928D01*
X239161071Y-76061071D01*
X239303928Y-75989642D01*
X239661071Y-75989642D01*
X239803928Y-75918214D01*
X240518214Y-76561071D02*
X240518214Y-75561071D01*
X240518214Y-75846785D02*
X240589642Y-75703928D01*
X240661071Y-75632500D01*
X240803928Y-75561071D01*
X240946785Y-75561071D01*
X242089642Y-76561071D02*
X242089642Y-75061071D01*
X242089642Y-76489642D02*
X241946785Y-76561071D01*
X241661071Y-76561071D01*
X241518214Y-76489642D01*
X241446785Y-76418214D01*
X241375357Y-76275357D01*
X241375357Y-75846785D01*
X241446785Y-75703928D01*
X241518214Y-75632500D01*
X241661071Y-75561071D01*
X241946785Y-75561071D01*
X242089642Y-75632500D01*
X244446785Y-75775357D02*
X244661071Y-75846785D01*
X244732500Y-75918214D01*
X244803928Y-76061071D01*
X244803928Y-76275357D01*
X244732500Y-76418214D01*
X244661071Y-76489642D01*
X244518214Y-76561071D01*
X243946785Y-76561071D01*
X243946785Y-75061071D01*
X244446785Y-75061071D01*
X244589642Y-75132500D01*
X244661071Y-75203928D01*
X244732500Y-75346785D01*
X244732500Y-75489642D01*
X244661071Y-75632500D01*
X244589642Y-75703928D01*
X244446785Y-75775357D01*
X243946785Y-75775357D01*
X245446785Y-76561071D02*
X245446785Y-75561071D01*
X245446785Y-75846785D02*
X245518214Y-75703928D01*
X245589642Y-75632500D01*
X245732500Y-75561071D01*
X245875357Y-75561071D01*
X246946785Y-76489642D02*
X246803928Y-76561071D01*
X246518214Y-76561071D01*
X246375357Y-76489642D01*
X246303928Y-76346785D01*
X246303928Y-75775357D01*
X246375357Y-75632500D01*
X246518214Y-75561071D01*
X246803928Y-75561071D01*
X246946785Y-75632500D01*
X247018214Y-75775357D01*
X247018214Y-75918214D01*
X246303928Y-76061071D01*
X248303928Y-76561071D02*
X248303928Y-75775357D01*
X248232500Y-75632500D01*
X248089642Y-75561071D01*
X247803928Y-75561071D01*
X247661071Y-75632500D01*
X248303928Y-76489642D02*
X248161071Y-76561071D01*
X247803928Y-76561071D01*
X247661071Y-76489642D01*
X247589642Y-76346785D01*
X247589642Y-76203928D01*
X247661071Y-76061071D01*
X247803928Y-75989642D01*
X248161071Y-75989642D01*
X248303928Y-75918214D01*
X249018214Y-76561071D02*
X249018214Y-75061071D01*
X249161071Y-75989642D02*
X249589642Y-76561071D01*
X249589642Y-75561071D02*
X249018214Y-76132500D01*
X250446785Y-76561071D02*
X250303928Y-76489642D01*
X250232500Y-76418214D01*
X250161071Y-76275357D01*
X250161071Y-75846785D01*
X250232500Y-75703928D01*
X250303928Y-75632500D01*
X250446785Y-75561071D01*
X250661071Y-75561071D01*
X250803928Y-75632500D01*
X250875357Y-75703928D01*
X250946785Y-75846785D01*
X250946785Y-76275357D01*
X250875357Y-76418214D01*
X250803928Y-76489642D01*
X250661071Y-76561071D01*
X250446785Y-76561071D01*
X252232500Y-75561071D02*
X252232500Y-76561071D01*
X251589642Y-75561071D02*
X251589642Y-76346785D01*
X251661071Y-76489642D01*
X251803928Y-76561071D01*
X252018214Y-76561071D01*
X252161071Y-76489642D01*
X252232500Y-76418214D01*
X252732500Y-75561071D02*
X253303928Y-75561071D01*
X252946785Y-75061071D02*
X252946785Y-76346785D01*
X253018214Y-76489642D01*
X253161071Y-76561071D01*
X253303928Y-76561071D01*
D11*
X348574000Y-88672360D02*
X348074000Y-88672360D01*
X348574000Y-88672360D02*
X348574000Y-89172360D01*
X348074000Y-88672360D02*
X348574000Y-88672360D01*
X347984059Y-122049755D02*
X347984059Y-122621183D01*
X346984059Y-122335469D02*
X347984059Y-122335469D01*
X347984059Y-122859279D02*
X346984059Y-123525945D01*
X347984059Y-123525945D02*
X346984059Y-122859279D01*
X347888820Y-123859279D02*
X347936440Y-123906898D01*
X347984059Y-124002136D01*
X347984059Y-124240231D01*
X347936440Y-124335469D01*
X347888820Y-124383088D01*
X347793582Y-124430707D01*
X347698344Y-124430707D01*
X347555487Y-124383088D01*
X346984059Y-123811660D01*
X346984059Y-124430707D01*
X347650725Y-125287850D02*
X346984059Y-125287850D01*
X348031678Y-125049755D02*
X347317392Y-124811660D01*
X347317392Y-125430707D01*
X347365011Y-125811660D02*
X347365011Y-126573564D01*
X346984059Y-127573564D02*
X346984059Y-127002136D01*
X346984059Y-127287850D02*
X347984059Y-127287850D01*
X347841201Y-127192612D01*
X347745963Y-127097374D01*
X347698344Y-127002136D01*
X347984059Y-128192612D02*
X347984059Y-128287850D01*
X347936440Y-128383088D01*
X347888820Y-128430707D01*
X347793582Y-128478326D01*
X347603106Y-128525945D01*
X347365011Y-128525945D01*
X347174535Y-128478326D01*
X347079297Y-128430707D01*
X347031678Y-128383088D01*
X346984059Y-128287850D01*
X346984059Y-128192612D01*
X347031678Y-128097374D01*
X347079297Y-128049755D01*
X347174535Y-128002136D01*
X347365011Y-127954517D01*
X347603106Y-127954517D01*
X347793582Y-128002136D01*
X347888820Y-128049755D01*
X347936440Y-128097374D01*
X347984059Y-128192612D01*
X347984059Y-129144993D02*
X347984059Y-129240231D01*
X347936440Y-129335469D01*
X347888820Y-129383088D01*
X347793582Y-129430707D01*
X347603106Y-129478326D01*
X347365011Y-129478326D01*
X347174535Y-129430707D01*
X347079297Y-129383088D01*
X347031678Y-129335469D01*
X346984059Y-129240231D01*
X346984059Y-129144993D01*
X347031678Y-129049755D01*
X347079297Y-129002136D01*
X347174535Y-128954517D01*
X347365011Y-128906898D01*
X347603106Y-128906898D01*
X347793582Y-128954517D01*
X347888820Y-129002136D01*
X347936440Y-129049755D01*
X347984059Y-129144993D01*
X346984059Y-130478326D02*
X347460249Y-130144993D01*
X346984059Y-129906898D02*
X347984059Y-129906898D01*
X347984059Y-130287850D01*
X347936440Y-130383088D01*
X347888820Y-130430707D01*
X347793582Y-130478326D01*
X347650725Y-130478326D01*
X347555487Y-130430707D01*
X347507868Y-130383088D01*
X347460249Y-130287850D01*
X347460249Y-129906898D01*
X122352820Y-130560864D02*
X122352820Y-129989436D01*
X123352820Y-130275150D02*
X122352820Y-130275150D01*
X122352820Y-129751340D02*
X123352820Y-129084674D01*
X122352820Y-129084674D02*
X123352820Y-129751340D01*
X122448059Y-128751340D02*
X122400440Y-128703721D01*
X122352820Y-128608483D01*
X122352820Y-128370388D01*
X122400440Y-128275150D01*
X122448059Y-128227531D01*
X122543297Y-128179912D01*
X122638535Y-128179912D01*
X122781392Y-128227531D01*
X123352820Y-128798960D01*
X123352820Y-128179912D01*
X122352820Y-127275150D02*
X122352820Y-127751340D01*
X122829011Y-127798960D01*
X122781392Y-127751340D01*
X122733773Y-127656102D01*
X122733773Y-127418007D01*
X122781392Y-127322769D01*
X122829011Y-127275150D01*
X122924249Y-127227531D01*
X123162344Y-127227531D01*
X123257582Y-127275150D01*
X123305201Y-127322769D01*
X123352820Y-127418007D01*
X123352820Y-127656102D01*
X123305201Y-127751340D01*
X123257582Y-127798960D01*
X122971868Y-126798960D02*
X122971868Y-126037055D01*
X123352820Y-125037055D02*
X123352820Y-125608483D01*
X123352820Y-125322769D02*
X122352820Y-125322769D01*
X122495678Y-125418007D01*
X122590916Y-125513245D01*
X122638535Y-125608483D01*
X122352820Y-124418007D02*
X122352820Y-124322769D01*
X122400440Y-124227531D01*
X122448059Y-124179912D01*
X122543297Y-124132293D01*
X122733773Y-124084674D01*
X122971868Y-124084674D01*
X123162344Y-124132293D01*
X123257582Y-124179912D01*
X123305201Y-124227531D01*
X123352820Y-124322769D01*
X123352820Y-124418007D01*
X123305201Y-124513245D01*
X123257582Y-124560864D01*
X123162344Y-124608483D01*
X122971868Y-124656102D01*
X122733773Y-124656102D01*
X122543297Y-124608483D01*
X122448059Y-124560864D01*
X122400440Y-124513245D01*
X122352820Y-124418007D01*
X122352820Y-123465626D02*
X122352820Y-123370388D01*
X122400440Y-123275150D01*
X122448059Y-123227531D01*
X122543297Y-123179912D01*
X122733773Y-123132293D01*
X122971868Y-123132293D01*
X123162344Y-123179912D01*
X123257582Y-123227531D01*
X123305201Y-123275150D01*
X123352820Y-123370388D01*
X123352820Y-123465626D01*
X123305201Y-123560864D01*
X123257582Y-123608483D01*
X123162344Y-123656102D01*
X122971868Y-123703721D01*
X122733773Y-123703721D01*
X122543297Y-123656102D01*
X122448059Y-123608483D01*
X122400440Y-123560864D01*
X122352820Y-123465626D01*
X123352820Y-122703721D02*
X122352820Y-122703721D01*
X122352820Y-122322769D01*
X122400440Y-122227531D01*
X122448059Y-122179912D01*
X122543297Y-122132293D01*
X122686154Y-122132293D01*
X122781392Y-122179912D01*
X122829011Y-122227531D01*
X122876630Y-122322769D01*
X122876630Y-122703721D01*
D12*
X134756697Y-92318002D02*
X134828125Y-92103717D01*
X134899554Y-92032288D01*
X135042411Y-91960860D01*
X135256697Y-91960860D01*
X135399554Y-92032288D01*
X135470982Y-92103717D01*
X135542411Y-92246574D01*
X135542411Y-92818002D01*
X134042411Y-92818002D01*
X134042411Y-92318002D01*
X134113840Y-92175145D01*
X134185268Y-92103717D01*
X134328125Y-92032288D01*
X134470982Y-92032288D01*
X134613840Y-92103717D01*
X134685268Y-92175145D01*
X134756697Y-92318002D01*
X134756697Y-92818002D01*
X134185268Y-91389431D02*
X134113840Y-91318002D01*
X134042411Y-91175145D01*
X134042411Y-90818002D01*
X134113840Y-90675145D01*
X134185268Y-90603717D01*
X134328125Y-90532288D01*
X134470982Y-90532288D01*
X134685268Y-90603717D01*
X135542411Y-91460860D01*
X135542411Y-90532288D01*
X138331697Y-92318002D02*
X138403125Y-92103717D01*
X138474554Y-92032288D01*
X138617411Y-91960860D01*
X138831697Y-91960860D01*
X138974554Y-92032288D01*
X139045982Y-92103717D01*
X139117411Y-92246574D01*
X139117411Y-92818002D01*
X137617411Y-92818002D01*
X137617411Y-92318002D01*
X137688840Y-92175145D01*
X137760268Y-92103717D01*
X137903125Y-92032288D01*
X138045982Y-92032288D01*
X138188840Y-92103717D01*
X138260268Y-92175145D01*
X138331697Y-92318002D01*
X138331697Y-92818002D01*
X139117411Y-90532288D02*
X139117411Y-91389431D01*
X139117411Y-90960860D02*
X137617411Y-90960860D01*
X137831697Y-91103717D01*
X137974554Y-91246574D01*
X138045982Y-91389431D01*
X142438840Y-92782288D02*
X142438840Y-92068002D01*
X142867411Y-92925145D02*
X141367411Y-92425145D01*
X142867411Y-91925145D01*
X141510268Y-91496574D02*
X141438840Y-91425145D01*
X141367411Y-91282288D01*
X141367411Y-90925145D01*
X141438840Y-90782288D01*
X141510268Y-90710860D01*
X141653125Y-90639431D01*
X141795982Y-90639431D01*
X142010268Y-90710860D01*
X142867411Y-91568002D01*
X142867411Y-90639431D01*
X146188840Y-92782288D02*
X146188840Y-92068002D01*
X146617411Y-92925145D02*
X145117411Y-92425145D01*
X146617411Y-91925145D01*
X146617411Y-90639431D02*
X146617411Y-91496574D01*
X146617411Y-91068002D02*
X145117411Y-91068002D01*
X145331697Y-91210860D01*
X145474554Y-91353717D01*
X145545982Y-91496574D01*
X146363840Y-163446574D02*
X146363840Y-162732288D01*
X146792411Y-163589431D02*
X145292411Y-163089431D01*
X146792411Y-162589431D01*
X145792411Y-161446574D02*
X146792411Y-161446574D01*
X145220982Y-161803717D02*
X146292411Y-162160860D01*
X146292411Y-161232288D01*
X146792411Y-160589431D02*
X146792411Y-160303717D01*
X146720982Y-160160860D01*
X146649554Y-160089431D01*
X146435268Y-159946574D01*
X146149554Y-159875145D01*
X145578125Y-159875145D01*
X145435268Y-159946574D01*
X145363840Y-160018002D01*
X145292411Y-160160860D01*
X145292411Y-160446574D01*
X145363840Y-160589431D01*
X145435268Y-160660860D01*
X145578125Y-160732288D01*
X145935268Y-160732288D01*
X146078125Y-160660860D01*
X146149554Y-160589431D01*
X146220982Y-160446574D01*
X146220982Y-160160860D01*
X146149554Y-160018002D01*
X146078125Y-159946574D01*
X145935268Y-159875145D01*
X142663840Y-163446574D02*
X142663840Y-162732288D01*
X143092411Y-163589431D02*
X141592411Y-163089431D01*
X143092411Y-162589431D01*
X141592411Y-161375145D02*
X141592411Y-162089431D01*
X142306697Y-162160860D01*
X142235268Y-162089431D01*
X142163840Y-161946574D01*
X142163840Y-161589431D01*
X142235268Y-161446574D01*
X142306697Y-161375145D01*
X142449554Y-161303717D01*
X142806697Y-161303717D01*
X142949554Y-161375145D01*
X143020982Y-161446574D01*
X143092411Y-161589431D01*
X143092411Y-161946574D01*
X143020982Y-162089431D01*
X142949554Y-162160860D01*
X141592411Y-160375145D02*
X141592411Y-160232288D01*
X141663840Y-160089431D01*
X141735268Y-160018002D01*
X141878125Y-159946574D01*
X142163840Y-159875145D01*
X142520982Y-159875145D01*
X142806697Y-159946574D01*
X142949554Y-160018002D01*
X143020982Y-160089431D01*
X143092411Y-160232288D01*
X143092411Y-160375145D01*
X143020982Y-160518002D01*
X142949554Y-160589431D01*
X142806697Y-160660860D01*
X142520982Y-160732288D01*
X142163840Y-160732288D01*
X141878125Y-160660860D01*
X141735268Y-160589431D01*
X141663840Y-160518002D01*
X141592411Y-160375145D01*
X138531697Y-162982288D02*
X138603125Y-162768002D01*
X138674554Y-162696574D01*
X138817411Y-162625145D01*
X139031697Y-162625145D01*
X139174554Y-162696574D01*
X139245982Y-162768002D01*
X139317411Y-162910860D01*
X139317411Y-163482288D01*
X137817411Y-163482288D01*
X137817411Y-162982288D01*
X137888840Y-162839431D01*
X137960268Y-162768002D01*
X138103125Y-162696574D01*
X138245982Y-162696574D01*
X138388840Y-162768002D01*
X138460268Y-162839431D01*
X138531697Y-162982288D01*
X138531697Y-163482288D01*
X138317411Y-161339431D02*
X139317411Y-161339431D01*
X137745982Y-161696574D02*
X138817411Y-162053717D01*
X138817411Y-161125145D01*
X139317411Y-160482288D02*
X139317411Y-160196574D01*
X139245982Y-160053717D01*
X139174554Y-159982288D01*
X138960268Y-159839431D01*
X138674554Y-159768002D01*
X138103125Y-159768002D01*
X137960268Y-159839431D01*
X137888840Y-159910860D01*
X137817411Y-160053717D01*
X137817411Y-160339431D01*
X137888840Y-160482288D01*
X137960268Y-160553717D01*
X138103125Y-160625145D01*
X138460268Y-160625145D01*
X138603125Y-160553717D01*
X138674554Y-160482288D01*
X138745982Y-160339431D01*
X138745982Y-160053717D01*
X138674554Y-159910860D01*
X138603125Y-159839431D01*
X138460268Y-159768002D01*
X134756697Y-162982288D02*
X134828125Y-162768002D01*
X134899554Y-162696574D01*
X135042411Y-162625145D01*
X135256697Y-162625145D01*
X135399554Y-162696574D01*
X135470982Y-162768002D01*
X135542411Y-162910860D01*
X135542411Y-163482288D01*
X134042411Y-163482288D01*
X134042411Y-162982288D01*
X134113840Y-162839431D01*
X134185268Y-162768002D01*
X134328125Y-162696574D01*
X134470982Y-162696574D01*
X134613840Y-162768002D01*
X134685268Y-162839431D01*
X134756697Y-162982288D01*
X134756697Y-163482288D01*
X134042411Y-161268002D02*
X134042411Y-161982288D01*
X134756697Y-162053717D01*
X134685268Y-161982288D01*
X134613840Y-161839431D01*
X134613840Y-161482288D01*
X134685268Y-161339431D01*
X134756697Y-161268002D01*
X134899554Y-161196574D01*
X135256697Y-161196574D01*
X135399554Y-161268002D01*
X135470982Y-161339431D01*
X135542411Y-161482288D01*
X135542411Y-161839431D01*
X135470982Y-161982288D01*
X135399554Y-162053717D01*
X134042411Y-160268002D02*
X134042411Y-160125145D01*
X134113840Y-159982288D01*
X134185268Y-159910860D01*
X134328125Y-159839431D01*
X134613840Y-159768002D01*
X134970982Y-159768002D01*
X135256697Y-159839431D01*
X135399554Y-159910860D01*
X135470982Y-159982288D01*
X135542411Y-160125145D01*
X135542411Y-160268002D01*
X135470982Y-160410860D01*
X135399554Y-160482288D01*
X135256697Y-160553717D01*
X134970982Y-160625145D01*
X134613840Y-160625145D01*
X134328125Y-160553717D01*
X134185268Y-160482288D01*
X134113840Y-160410860D01*
X134042411Y-160268002D01*
D11*
X348574000Y-292172360D02*
X347574000Y-292172360D01*
X347574000Y-292172360D02*
X348574000Y-292172360D01*
X348574000Y-291172360D02*
X348574000Y-292172360D01*
D12*
X137152571Y-305550931D02*
X136652571Y-304836645D01*
X136295428Y-305550931D02*
X136295428Y-304050931D01*
X136866857Y-304050931D01*
X137009714Y-304122360D01*
X137081142Y-304193788D01*
X137152571Y-304336645D01*
X137152571Y-304550931D01*
X137081142Y-304693788D01*
X137009714Y-304765217D01*
X136866857Y-304836645D01*
X136295428Y-304836645D01*
X138366857Y-305479502D02*
X138224000Y-305550931D01*
X137938285Y-305550931D01*
X137795428Y-305479502D01*
X137724000Y-305336645D01*
X137724000Y-304765217D01*
X137795428Y-304622360D01*
X137938285Y-304550931D01*
X138224000Y-304550931D01*
X138366857Y-304622360D01*
X138438285Y-304765217D01*
X138438285Y-304908074D01*
X137724000Y-305050931D01*
X138938285Y-304550931D02*
X139295428Y-305550931D01*
X139652571Y-304550931D01*
X140224000Y-305408074D02*
X140295428Y-305479502D01*
X140224000Y-305550931D01*
X140152571Y-305479502D01*
X140224000Y-305408074D01*
X140224000Y-305550931D01*
X142009714Y-305122360D02*
X142724000Y-305122360D01*
X141866857Y-305550931D02*
X142366857Y-304050931D01*
X142866857Y-305550931D01*
D13*
%TO.C,J1*%
X130998840Y-164592000D02*
X130998840Y-126492000D01*
X121600840Y-164592000D02*
X130998840Y-164592000D01*
X130998840Y-88392000D02*
X121600840Y-88392000D01*
X130998840Y-126492000D02*
X130998840Y-88392000D01*
X115250840Y-164592000D02*
X121600840Y-164592000D01*
X115250840Y-88392000D02*
X115250840Y-164592000D01*
X121600840Y-88392000D02*
X115250840Y-88392000D01*
%TO.C,J11*%
X130997960Y-292384480D02*
X130997960Y-254284480D01*
X121599960Y-292384480D02*
X130997960Y-292384480D01*
X130997960Y-216184480D02*
X121599960Y-216184480D01*
X130997960Y-254284480D02*
X130997960Y-216184480D01*
X115249960Y-292384480D02*
X121599960Y-292384480D01*
X115249960Y-216184480D02*
X115249960Y-292384480D01*
X121599960Y-216184480D02*
X115249960Y-216184480D01*
%TO.C,J2*%
X355367240Y-93341560D02*
X355367240Y-159635560D01*
X355367240Y-93341560D02*
X356129240Y-92579560D01*
X356129240Y-92071560D02*
X356129240Y-92579560D01*
X354986240Y-90928560D02*
X348636240Y-90928560D01*
X354986240Y-162048560D02*
X348636240Y-162048560D01*
X356129240Y-160905560D02*
X356129240Y-160397560D01*
X356129240Y-160397560D02*
X355367240Y-159635560D01*
X354986240Y-162048560D02*
X356129240Y-160905560D01*
X354986240Y-90928560D02*
X356129240Y-92071560D01*
X339238240Y-126488560D02*
X339238240Y-88388560D01*
X339238240Y-88388560D02*
X348636240Y-88388560D01*
X348636240Y-88388560D02*
X348636240Y-126488560D01*
X348636240Y-126488560D02*
X348636240Y-164588560D01*
X348636240Y-164588560D02*
X339238240Y-164588560D01*
X339238240Y-164588560D02*
X339238240Y-126488560D01*
%TO.C,J12*%
X355366320Y-221132400D02*
X355366320Y-287426400D01*
X355366320Y-221132400D02*
X356128320Y-220370400D01*
X356128320Y-219862400D02*
X356128320Y-220370400D01*
X354985320Y-218719400D02*
X348635320Y-218719400D01*
X354985320Y-289839400D02*
X348635320Y-289839400D01*
X356128320Y-288696400D02*
X356128320Y-288188400D01*
X356128320Y-288188400D02*
X355366320Y-287426400D01*
X354985320Y-289839400D02*
X356128320Y-288696400D01*
X354985320Y-218719400D02*
X356128320Y-219862400D01*
X339237320Y-254279400D02*
X339237320Y-216179400D01*
X339237320Y-216179400D02*
X348635320Y-216179400D01*
X348635320Y-216179400D02*
X348635320Y-254279400D01*
X348635320Y-254279400D02*
X348635320Y-292379400D01*
X348635320Y-292379400D02*
X339237320Y-292379400D01*
X339237320Y-292379400D02*
X339237320Y-254279400D01*
D14*
%TO.C,J3*%
X137158840Y-157650860D02*
X139818840Y-157650860D01*
X137158840Y-96630860D02*
X137158840Y-157650860D01*
X139818840Y-96630860D02*
X139818840Y-157650860D01*
X137158840Y-96630860D02*
X139818840Y-96630860D01*
X137158840Y-95360860D02*
X137158840Y-94030860D01*
X137158840Y-94030860D02*
X138488840Y-94030860D01*
%TO.C,J5*%
X133433840Y-95305860D02*
X134763840Y-95305860D01*
X133433840Y-96635860D02*
X133433840Y-95305860D01*
X133433840Y-97905860D02*
X136093840Y-97905860D01*
X136093840Y-97905860D02*
X136093840Y-158925860D01*
X133433840Y-97905860D02*
X133433840Y-158925860D01*
X133433840Y-158925860D02*
X136093840Y-158925860D01*
%TO.C,J4*%
X144608840Y-157650860D02*
X147268840Y-157650860D01*
X144608840Y-96630860D02*
X144608840Y-157650860D01*
X147268840Y-96630860D02*
X147268840Y-157650860D01*
X144608840Y-96630860D02*
X147268840Y-96630860D01*
X144608840Y-95360860D02*
X144608840Y-94030860D01*
X144608840Y-94030860D02*
X145938840Y-94030860D01*
%TO.C,J6*%
X140883840Y-95305860D02*
X142213840Y-95305860D01*
X140883840Y-96635860D02*
X140883840Y-95305860D01*
X140883840Y-97905860D02*
X143543840Y-97905860D01*
X143543840Y-97905860D02*
X143543840Y-158925860D01*
X140883840Y-97905860D02*
X140883840Y-158925860D01*
X140883840Y-158925860D02*
X143543840Y-158925860D01*
D13*
%TO.C,H2*%
X122694000Y-77972360D02*
X122194000Y-77972360D01*
X122694000Y-80972360D02*
X122694000Y-77972360D01*
X122194000Y-80972360D02*
X122694000Y-80972360D01*
X122194000Y-75722360D02*
X122194000Y-83222360D01*
X127274000Y-75722360D02*
X122194000Y-75722360D01*
X132274000Y-75722360D02*
X127274000Y-75722360D01*
X127274000Y-83222360D02*
X122194000Y-83222360D01*
X132274000Y-83222360D02*
X127274000Y-83222360D01*
%TO.C,H1*%
X132274000Y-305122360D02*
X127274000Y-305122360D01*
X127274000Y-305122360D02*
X122194000Y-305122360D01*
X132274000Y-297622360D02*
X127274000Y-297622360D01*
X127274000Y-297622360D02*
X122194000Y-297622360D01*
X122194000Y-297622360D02*
X122194000Y-305122360D01*
X122194000Y-302872360D02*
X122694000Y-302872360D01*
X122694000Y-302872360D02*
X122694000Y-299872360D01*
X122694000Y-299872360D02*
X122194000Y-299872360D01*
D14*
%TO.C,J13*%
X137158840Y-285453500D02*
X139818840Y-285453500D01*
X137158840Y-224433500D02*
X137158840Y-285453500D01*
X139818840Y-224433500D02*
X139818840Y-285453500D01*
X137158840Y-224433500D02*
X139818840Y-224433500D01*
X137158840Y-223163500D02*
X137158840Y-221833500D01*
X137158840Y-221833500D02*
X138488840Y-221833500D01*
%TO.C,J14*%
X144608840Y-285453500D02*
X147268840Y-285453500D01*
X144608840Y-224433500D02*
X144608840Y-285453500D01*
X147268840Y-224433500D02*
X147268840Y-285453500D01*
X144608840Y-224433500D02*
X147268840Y-224433500D01*
X144608840Y-223163500D02*
X144608840Y-221833500D01*
X144608840Y-221833500D02*
X145938840Y-221833500D01*
%TO.C,J15*%
X133433840Y-223108500D02*
X134763840Y-223108500D01*
X133433840Y-224438500D02*
X133433840Y-223108500D01*
X133433840Y-225708500D02*
X136093840Y-225708500D01*
X136093840Y-225708500D02*
X136093840Y-286728500D01*
X133433840Y-225708500D02*
X133433840Y-286728500D01*
X133433840Y-286728500D02*
X136093840Y-286728500D01*
%TO.C,J16*%
X140883840Y-223108500D02*
X142213840Y-223108500D01*
X140883840Y-224438500D02*
X140883840Y-223108500D01*
X140883840Y-225708500D02*
X143543840Y-225708500D01*
X143543840Y-225708500D02*
X143543840Y-286728500D01*
X140883840Y-225708500D02*
X140883840Y-286728500D01*
X140883840Y-286728500D02*
X143543840Y-286728500D01*
%TO.C,J1*%
D11*
X125903006Y-86701380D02*
X125903006Y-87415666D01*
X125855387Y-87558523D01*
X125760149Y-87653761D01*
X125617292Y-87701380D01*
X125522054Y-87701380D01*
X126903006Y-87701380D02*
X126331578Y-87701380D01*
X126617292Y-87701380D02*
X126617292Y-86701380D01*
X126522054Y-86844238D01*
X126426816Y-86939476D01*
X126331578Y-86987095D01*
%TO.C,J11*%
X125425936Y-214493860D02*
X125425936Y-215208146D01*
X125378317Y-215351003D01*
X125283079Y-215446241D01*
X125140221Y-215493860D01*
X125044983Y-215493860D01*
X126425936Y-215493860D02*
X125854507Y-215493860D01*
X126140221Y-215493860D02*
X126140221Y-214493860D01*
X126044983Y-214636718D01*
X125949745Y-214731956D01*
X125854507Y-214779575D01*
X127378317Y-215493860D02*
X126806888Y-215493860D01*
X127092602Y-215493860D02*
X127092602Y-214493860D01*
X126997364Y-214636718D01*
X126902126Y-214731956D01*
X126806888Y-214779575D01*
%TO.C,J2*%
X343730906Y-86697940D02*
X343730906Y-87412226D01*
X343683287Y-87555083D01*
X343588049Y-87650321D01*
X343445192Y-87697940D01*
X343349954Y-87697940D01*
X344159478Y-86793179D02*
X344207097Y-86745560D01*
X344302335Y-86697940D01*
X344540430Y-86697940D01*
X344635668Y-86745560D01*
X344683287Y-86793179D01*
X344730906Y-86888417D01*
X344730906Y-86983655D01*
X344683287Y-87126512D01*
X344111859Y-87697940D01*
X344730906Y-87697940D01*
%TO.C,J12*%
X343253796Y-214488780D02*
X343253796Y-215203066D01*
X343206177Y-215345923D01*
X343110939Y-215441161D01*
X342968081Y-215488780D01*
X342872843Y-215488780D01*
X344253796Y-215488780D02*
X343682367Y-215488780D01*
X343968081Y-215488780D02*
X343968081Y-214488780D01*
X343872843Y-214631638D01*
X343777605Y-214726876D01*
X343682367Y-214774495D01*
X344634748Y-214584019D02*
X344682367Y-214536400D01*
X344777605Y-214488780D01*
X345015700Y-214488780D01*
X345110939Y-214536400D01*
X345158558Y-214584019D01*
X345206177Y-214679257D01*
X345206177Y-214774495D01*
X345158558Y-214917352D01*
X344587129Y-215488780D01*
X345206177Y-215488780D01*
%TO.C,H2*%
X136026380Y-80234264D02*
X135026380Y-80234264D01*
X135502571Y-80234264D02*
X135502571Y-79662836D01*
X136026380Y-79662836D02*
X135026380Y-79662836D01*
X135121619Y-79234264D02*
X135074000Y-79186645D01*
X135026380Y-79091407D01*
X135026380Y-78853312D01*
X135074000Y-78758074D01*
X135121619Y-78710455D01*
X135216857Y-78662836D01*
X135312095Y-78662836D01*
X135454952Y-78710455D01*
X136026380Y-79281883D01*
X136026380Y-78662836D01*
%TO.C,H1*%
X135326380Y-302134264D02*
X134326380Y-302134264D01*
X134802571Y-302134264D02*
X134802571Y-301562836D01*
X135326380Y-301562836D02*
X134326380Y-301562836D01*
X135326380Y-300562836D02*
X135326380Y-301134264D01*
X135326380Y-300848550D02*
X134326380Y-300848550D01*
X134469238Y-300943788D01*
X134564476Y-301039026D01*
X134612095Y-301134264D01*
%TD*%
M02*
