G04 #@! TF.FileFunction,Legend,Top*
%FSLAX46Y46*%
G04 Gerber Fmt 4.6, Leading zero omitted, Abs format (unit mm)*
G04 Created by KiCad (PCBNEW 4.0.7-e2-6376~61~ubuntu18.04.1) date Tue Sep  1 21:44:30 2020*
%MOMM*%
%LPD*%
G01*
G04 APERTURE LIST*
%ADD10C,0.100000*%
%ADD11C,0.150000*%
%ADD12C,0.300000*%
%ADD13C,0.200000*%
%ADD14C,0.120000*%
G04 APERTURE END LIST*
D10*
D11*
X195060819Y-94201195D02*
X195060819Y-94772624D01*
X194060819Y-94486909D02*
X195060819Y-94486909D01*
X195060819Y-95010719D02*
X194060819Y-95677386D01*
X195060819Y-95677386D02*
X194060819Y-95010719D01*
X194965581Y-96010719D02*
X195013200Y-96058338D01*
X195060819Y-96153576D01*
X195060819Y-96391672D01*
X195013200Y-96486910D01*
X194965581Y-96534529D01*
X194870343Y-96582148D01*
X194775105Y-96582148D01*
X194632248Y-96534529D01*
X194060819Y-95963100D01*
X194060819Y-96582148D01*
X194727486Y-97439291D02*
X194060819Y-97439291D01*
X195108438Y-97201195D02*
X194394152Y-96963100D01*
X194394152Y-97582148D01*
X194441771Y-97963100D02*
X194441771Y-98725005D01*
X194060819Y-99725005D02*
X194060819Y-99153576D01*
X194060819Y-99439290D02*
X195060819Y-99439290D01*
X194917962Y-99344052D01*
X194822724Y-99248814D01*
X194775105Y-99153576D01*
X195060819Y-100344052D02*
X195060819Y-100439291D01*
X195013200Y-100534529D01*
X194965581Y-100582148D01*
X194870343Y-100629767D01*
X194679867Y-100677386D01*
X194441771Y-100677386D01*
X194251295Y-100629767D01*
X194156057Y-100582148D01*
X194108438Y-100534529D01*
X194060819Y-100439291D01*
X194060819Y-100344052D01*
X194108438Y-100248814D01*
X194156057Y-100201195D01*
X194251295Y-100153576D01*
X194441771Y-100105957D01*
X194679867Y-100105957D01*
X194870343Y-100153576D01*
X194965581Y-100201195D01*
X195013200Y-100248814D01*
X195060819Y-100344052D01*
X195060819Y-101296433D02*
X195060819Y-101391672D01*
X195013200Y-101486910D01*
X194965581Y-101534529D01*
X194870343Y-101582148D01*
X194679867Y-101629767D01*
X194441771Y-101629767D01*
X194251295Y-101582148D01*
X194156057Y-101534529D01*
X194108438Y-101486910D01*
X194060819Y-101391672D01*
X194060819Y-101296433D01*
X194108438Y-101201195D01*
X194156057Y-101153576D01*
X194251295Y-101105957D01*
X194441771Y-101058338D01*
X194679867Y-101058338D01*
X194870343Y-101105957D01*
X194965581Y-101153576D01*
X195013200Y-101201195D01*
X195060819Y-101296433D01*
X194060819Y-102629767D02*
X194537010Y-102296433D01*
X194060819Y-102058338D02*
X195060819Y-102058338D01*
X195060819Y-102439291D01*
X195013200Y-102534529D01*
X194965581Y-102582148D01*
X194870343Y-102629767D01*
X194727486Y-102629767D01*
X194632248Y-102582148D01*
X194584629Y-102534529D01*
X194537010Y-102439291D01*
X194537010Y-102058338D01*
X158938981Y-102725005D02*
X158938981Y-102153576D01*
X159938981Y-102439291D02*
X158938981Y-102439291D01*
X158938981Y-101915481D02*
X159938981Y-101248814D01*
X158938981Y-101248814D02*
X159938981Y-101915481D01*
X159034219Y-100915481D02*
X158986600Y-100867862D01*
X158938981Y-100772624D01*
X158938981Y-100534528D01*
X158986600Y-100439290D01*
X159034219Y-100391671D01*
X159129457Y-100344052D01*
X159224695Y-100344052D01*
X159367552Y-100391671D01*
X159938981Y-100963100D01*
X159938981Y-100344052D01*
X158938981Y-99439290D02*
X158938981Y-99915481D01*
X159415171Y-99963100D01*
X159367552Y-99915481D01*
X159319933Y-99820243D01*
X159319933Y-99582147D01*
X159367552Y-99486909D01*
X159415171Y-99439290D01*
X159510410Y-99391671D01*
X159748505Y-99391671D01*
X159843743Y-99439290D01*
X159891362Y-99486909D01*
X159938981Y-99582147D01*
X159938981Y-99820243D01*
X159891362Y-99915481D01*
X159843743Y-99963100D01*
X159558029Y-98963100D02*
X159558029Y-98201195D01*
X159938981Y-97201195D02*
X159938981Y-97772624D01*
X159938981Y-97486910D02*
X158938981Y-97486910D01*
X159081838Y-97582148D01*
X159177076Y-97677386D01*
X159224695Y-97772624D01*
X158938981Y-96582148D02*
X158938981Y-96486909D01*
X158986600Y-96391671D01*
X159034219Y-96344052D01*
X159129457Y-96296433D01*
X159319933Y-96248814D01*
X159558029Y-96248814D01*
X159748505Y-96296433D01*
X159843743Y-96344052D01*
X159891362Y-96391671D01*
X159938981Y-96486909D01*
X159938981Y-96582148D01*
X159891362Y-96677386D01*
X159843743Y-96725005D01*
X159748505Y-96772624D01*
X159558029Y-96820243D01*
X159319933Y-96820243D01*
X159129457Y-96772624D01*
X159034219Y-96725005D01*
X158986600Y-96677386D01*
X158938981Y-96582148D01*
X158938981Y-95629767D02*
X158938981Y-95534528D01*
X158986600Y-95439290D01*
X159034219Y-95391671D01*
X159129457Y-95344052D01*
X159319933Y-95296433D01*
X159558029Y-95296433D01*
X159748505Y-95344052D01*
X159843743Y-95391671D01*
X159891362Y-95439290D01*
X159938981Y-95534528D01*
X159938981Y-95629767D01*
X159891362Y-95725005D01*
X159843743Y-95772624D01*
X159748505Y-95820243D01*
X159558029Y-95867862D01*
X159319933Y-95867862D01*
X159129457Y-95820243D01*
X159034219Y-95772624D01*
X158986600Y-95725005D01*
X158938981Y-95629767D01*
X159938981Y-94867862D02*
X158938981Y-94867862D01*
X158938981Y-94486909D01*
X158986600Y-94391671D01*
X159034219Y-94344052D01*
X159129457Y-94296433D01*
X159272314Y-94296433D01*
X159367552Y-94344052D01*
X159415171Y-94391671D01*
X159462790Y-94486909D01*
X159462790Y-94867862D01*
D12*
X171342857Y-64482142D02*
X171414286Y-64267856D01*
X171485714Y-64196428D01*
X171628571Y-64124999D01*
X171842857Y-64124999D01*
X171985714Y-64196428D01*
X172057143Y-64267856D01*
X172128571Y-64410714D01*
X172128571Y-64982142D01*
X170628571Y-64982142D01*
X170628571Y-64482142D01*
X170700000Y-64339285D01*
X170771429Y-64267856D01*
X170914286Y-64196428D01*
X171057143Y-64196428D01*
X171200000Y-64267856D01*
X171271429Y-64339285D01*
X171342857Y-64482142D01*
X171342857Y-64982142D01*
X170771429Y-63553571D02*
X170700000Y-63482142D01*
X170628571Y-63339285D01*
X170628571Y-62982142D01*
X170700000Y-62839285D01*
X170771429Y-62767856D01*
X170914286Y-62696428D01*
X171057143Y-62696428D01*
X171271429Y-62767856D01*
X172128571Y-63624999D01*
X172128571Y-62696428D01*
X174917857Y-64482142D02*
X174989286Y-64267856D01*
X175060714Y-64196428D01*
X175203571Y-64124999D01*
X175417857Y-64124999D01*
X175560714Y-64196428D01*
X175632143Y-64267856D01*
X175703571Y-64410714D01*
X175703571Y-64982142D01*
X174203571Y-64982142D01*
X174203571Y-64482142D01*
X174275000Y-64339285D01*
X174346429Y-64267856D01*
X174489286Y-64196428D01*
X174632143Y-64196428D01*
X174775000Y-64267856D01*
X174846429Y-64339285D01*
X174917857Y-64482142D01*
X174917857Y-64982142D01*
X175703571Y-62696428D02*
X175703571Y-63553571D01*
X175703571Y-63124999D02*
X174203571Y-63124999D01*
X174417857Y-63267856D01*
X174560714Y-63410714D01*
X174632143Y-63553571D01*
X179025000Y-64946428D02*
X179025000Y-64232142D01*
X179453571Y-65089285D02*
X177953571Y-64589285D01*
X179453571Y-64089285D01*
X178096429Y-63660714D02*
X178025000Y-63589285D01*
X177953571Y-63446428D01*
X177953571Y-63089285D01*
X178025000Y-62946428D01*
X178096429Y-62874999D01*
X178239286Y-62803571D01*
X178382143Y-62803571D01*
X178596429Y-62874999D01*
X179453571Y-63732142D01*
X179453571Y-62803571D01*
X182775000Y-64946428D02*
X182775000Y-64232142D01*
X183203571Y-65089285D02*
X181703571Y-64589285D01*
X183203571Y-64089285D01*
X183203571Y-62803571D02*
X183203571Y-63660714D01*
X183203571Y-63232142D02*
X181703571Y-63232142D01*
X181917857Y-63374999D01*
X182060714Y-63517857D01*
X182132143Y-63660714D01*
X182950000Y-135610714D02*
X182950000Y-134896428D01*
X183378571Y-135753571D02*
X181878571Y-135253571D01*
X183378571Y-134753571D01*
X182378571Y-133610714D02*
X183378571Y-133610714D01*
X181807143Y-133967857D02*
X182878571Y-134325000D01*
X182878571Y-133396428D01*
X183378571Y-132753572D02*
X183378571Y-132467857D01*
X183307143Y-132325000D01*
X183235714Y-132253572D01*
X183021429Y-132110714D01*
X182735714Y-132039286D01*
X182164286Y-132039286D01*
X182021429Y-132110714D01*
X181950000Y-132182143D01*
X181878571Y-132325000D01*
X181878571Y-132610714D01*
X181950000Y-132753572D01*
X182021429Y-132825000D01*
X182164286Y-132896429D01*
X182521429Y-132896429D01*
X182664286Y-132825000D01*
X182735714Y-132753572D01*
X182807143Y-132610714D01*
X182807143Y-132325000D01*
X182735714Y-132182143D01*
X182664286Y-132110714D01*
X182521429Y-132039286D01*
X179250000Y-135610714D02*
X179250000Y-134896428D01*
X179678571Y-135753571D02*
X178178571Y-135253571D01*
X179678571Y-134753571D01*
X178178571Y-133539285D02*
X178178571Y-134253571D01*
X178892857Y-134325000D01*
X178821429Y-134253571D01*
X178750000Y-134110714D01*
X178750000Y-133753571D01*
X178821429Y-133610714D01*
X178892857Y-133539285D01*
X179035714Y-133467857D01*
X179392857Y-133467857D01*
X179535714Y-133539285D01*
X179607143Y-133610714D01*
X179678571Y-133753571D01*
X179678571Y-134110714D01*
X179607143Y-134253571D01*
X179535714Y-134325000D01*
X178178571Y-132539286D02*
X178178571Y-132396429D01*
X178250000Y-132253572D01*
X178321429Y-132182143D01*
X178464286Y-132110714D01*
X178750000Y-132039286D01*
X179107143Y-132039286D01*
X179392857Y-132110714D01*
X179535714Y-132182143D01*
X179607143Y-132253572D01*
X179678571Y-132396429D01*
X179678571Y-132539286D01*
X179607143Y-132682143D01*
X179535714Y-132753572D01*
X179392857Y-132825000D01*
X179107143Y-132896429D01*
X178750000Y-132896429D01*
X178464286Y-132825000D01*
X178321429Y-132753572D01*
X178250000Y-132682143D01*
X178178571Y-132539286D01*
X175117857Y-135146428D02*
X175189286Y-134932142D01*
X175260714Y-134860714D01*
X175403571Y-134789285D01*
X175617857Y-134789285D01*
X175760714Y-134860714D01*
X175832143Y-134932142D01*
X175903571Y-135075000D01*
X175903571Y-135646428D01*
X174403571Y-135646428D01*
X174403571Y-135146428D01*
X174475000Y-135003571D01*
X174546429Y-134932142D01*
X174689286Y-134860714D01*
X174832143Y-134860714D01*
X174975000Y-134932142D01*
X175046429Y-135003571D01*
X175117857Y-135146428D01*
X175117857Y-135646428D01*
X174903571Y-133503571D02*
X175903571Y-133503571D01*
X174332143Y-133860714D02*
X175403571Y-134217857D01*
X175403571Y-133289285D01*
X175903571Y-132646429D02*
X175903571Y-132360714D01*
X175832143Y-132217857D01*
X175760714Y-132146429D01*
X175546429Y-132003571D01*
X175260714Y-131932143D01*
X174689286Y-131932143D01*
X174546429Y-132003571D01*
X174475000Y-132075000D01*
X174403571Y-132217857D01*
X174403571Y-132503571D01*
X174475000Y-132646429D01*
X174546429Y-132717857D01*
X174689286Y-132789286D01*
X175046429Y-132789286D01*
X175189286Y-132717857D01*
X175260714Y-132646429D01*
X175332143Y-132503571D01*
X175332143Y-132217857D01*
X175260714Y-132075000D01*
X175189286Y-132003571D01*
X175046429Y-131932143D01*
X171342857Y-135146428D02*
X171414286Y-134932142D01*
X171485714Y-134860714D01*
X171628571Y-134789285D01*
X171842857Y-134789285D01*
X171985714Y-134860714D01*
X172057143Y-134932142D01*
X172128571Y-135075000D01*
X172128571Y-135646428D01*
X170628571Y-135646428D01*
X170628571Y-135146428D01*
X170700000Y-135003571D01*
X170771429Y-134932142D01*
X170914286Y-134860714D01*
X171057143Y-134860714D01*
X171200000Y-134932142D01*
X171271429Y-135003571D01*
X171342857Y-135146428D01*
X171342857Y-135646428D01*
X170628571Y-133432142D02*
X170628571Y-134146428D01*
X171342857Y-134217857D01*
X171271429Y-134146428D01*
X171200000Y-134003571D01*
X171200000Y-133646428D01*
X171271429Y-133503571D01*
X171342857Y-133432142D01*
X171485714Y-133360714D01*
X171842857Y-133360714D01*
X171985714Y-133432142D01*
X172057143Y-133503571D01*
X172128571Y-133646428D01*
X172128571Y-134003571D01*
X172057143Y-134146428D01*
X171985714Y-134217857D01*
X170628571Y-132432143D02*
X170628571Y-132289286D01*
X170700000Y-132146429D01*
X170771429Y-132075000D01*
X170914286Y-132003571D01*
X171200000Y-131932143D01*
X171557143Y-131932143D01*
X171842857Y-132003571D01*
X171985714Y-132075000D01*
X172057143Y-132146429D01*
X172128571Y-132289286D01*
X172128571Y-132432143D01*
X172057143Y-132575000D01*
X171985714Y-132646429D01*
X171842857Y-132717857D01*
X171557143Y-132789286D01*
X171200000Y-132789286D01*
X170914286Y-132717857D01*
X170771429Y-132646429D01*
X170700000Y-132575000D01*
X170628571Y-132432143D01*
D13*
X202444000Y-64858000D02*
X202444000Y-131152000D01*
X202444000Y-64858000D02*
X203206000Y-64096000D01*
X203206000Y-63588000D02*
X203206000Y-64096000D01*
X202063000Y-62445000D02*
X195713000Y-62445000D01*
X202063000Y-133565000D02*
X195713000Y-133565000D01*
X203206000Y-132422000D02*
X203206000Y-131914000D01*
X203206000Y-131914000D02*
X202444000Y-131152000D01*
X202063000Y-133565000D02*
X203206000Y-132422000D01*
X202063000Y-62445000D02*
X203206000Y-63588000D01*
X186315000Y-98005000D02*
X186315000Y-59905000D01*
X186315000Y-59905000D02*
X195713000Y-59905000D01*
X195713000Y-59905000D02*
X195713000Y-98005000D01*
X195713000Y-98005000D02*
X195713000Y-136105000D01*
X195713000Y-136105000D02*
X186315000Y-136105000D01*
X186315000Y-136105000D02*
X186315000Y-98005000D01*
X158187000Y-59905000D02*
X151837000Y-59905000D01*
X151837000Y-59905000D02*
X151837000Y-136105000D01*
X151837000Y-136105000D02*
X158187000Y-136105000D01*
X167585000Y-98005000D02*
X167585000Y-59905000D01*
X167585000Y-59905000D02*
X158187000Y-59905000D01*
X158187000Y-136105000D02*
X167585000Y-136105000D01*
X167585000Y-136105000D02*
X167585000Y-98005000D01*
D14*
X173745000Y-129815000D02*
X176405000Y-129815000D01*
X173745000Y-68795000D02*
X173745000Y-129815000D01*
X176405000Y-68795000D02*
X176405000Y-129815000D01*
X173745000Y-68795000D02*
X176405000Y-68795000D01*
X173745000Y-67525000D02*
X173745000Y-66195000D01*
X173745000Y-66195000D02*
X175075000Y-66195000D01*
X181195000Y-129815000D02*
X183855000Y-129815000D01*
X181195000Y-68795000D02*
X181195000Y-129815000D01*
X183855000Y-68795000D02*
X183855000Y-129815000D01*
X181195000Y-68795000D02*
X183855000Y-68795000D01*
X181195000Y-67525000D02*
X181195000Y-66195000D01*
X181195000Y-66195000D02*
X182525000Y-66195000D01*
X170020000Y-131090000D02*
X172680000Y-131090000D01*
X170020000Y-70070000D02*
X170020000Y-131090000D01*
X172680000Y-70070000D02*
X172680000Y-131090000D01*
X170020000Y-70070000D02*
X172680000Y-70070000D01*
X170020000Y-68800000D02*
X170020000Y-67470000D01*
X170020000Y-67470000D02*
X171350000Y-67470000D01*
X177470000Y-131090000D02*
X180130000Y-131090000D01*
X177470000Y-70070000D02*
X177470000Y-131090000D01*
X180130000Y-70070000D02*
X180130000Y-131090000D01*
X177470000Y-70070000D02*
X180130000Y-70070000D01*
X177470000Y-68800000D02*
X177470000Y-67470000D01*
X177470000Y-67470000D02*
X178800000Y-67470000D01*
D11*
X184777381Y-61058333D02*
X185491667Y-61058333D01*
X185634524Y-61105953D01*
X185729762Y-61201191D01*
X185777381Y-61344048D01*
X185777381Y-61439286D01*
X184872619Y-60629762D02*
X184825000Y-60582143D01*
X184777381Y-60486905D01*
X184777381Y-60248809D01*
X184825000Y-60153571D01*
X184872619Y-60105952D01*
X184967857Y-60058333D01*
X185063095Y-60058333D01*
X185205952Y-60105952D01*
X185777381Y-60677381D01*
X185777381Y-60058333D01*
X167977381Y-61033333D02*
X168691667Y-61033333D01*
X168834524Y-61080953D01*
X168929762Y-61176191D01*
X168977381Y-61319048D01*
X168977381Y-61414286D01*
X168977381Y-60033333D02*
X168977381Y-60604762D01*
X168977381Y-60319048D02*
X167977381Y-60319048D01*
X168120238Y-60414286D01*
X168215476Y-60509524D01*
X168263095Y-60604762D01*
X172016667Y-65752381D02*
X172016667Y-66466667D01*
X171969047Y-66609524D01*
X171873809Y-66704762D01*
X171730952Y-66752381D01*
X171635714Y-66752381D01*
X172397619Y-65752381D02*
X173016667Y-65752381D01*
X172683333Y-66133333D01*
X172826191Y-66133333D01*
X172921429Y-66180952D01*
X172969048Y-66228571D01*
X173016667Y-66323810D01*
X173016667Y-66561905D01*
X172969048Y-66657143D01*
X172921429Y-66704762D01*
X172826191Y-66752381D01*
X172540476Y-66752381D01*
X172445238Y-66704762D01*
X172397619Y-66657143D01*
X184577381Y-66808333D02*
X185291667Y-66808333D01*
X185434524Y-66855953D01*
X185529762Y-66951191D01*
X185577381Y-67094048D01*
X185577381Y-67189286D01*
X184910714Y-65903571D02*
X185577381Y-65903571D01*
X184529762Y-66141667D02*
X185244048Y-66379762D01*
X185244048Y-65760714D01*
X168277381Y-68183333D02*
X168991667Y-68183333D01*
X169134524Y-68230953D01*
X169229762Y-68326191D01*
X169277381Y-68469048D01*
X169277381Y-68564286D01*
X168277381Y-67230952D02*
X168277381Y-67707143D01*
X168753571Y-67754762D01*
X168705952Y-67707143D01*
X168658333Y-67611905D01*
X168658333Y-67373809D01*
X168705952Y-67278571D01*
X168753571Y-67230952D01*
X168848810Y-67183333D01*
X169086905Y-67183333D01*
X169182143Y-67230952D01*
X169229762Y-67278571D01*
X169277381Y-67373809D01*
X169277381Y-67611905D01*
X169229762Y-67707143D01*
X169182143Y-67754762D01*
X179541667Y-65727381D02*
X179541667Y-66441667D01*
X179494047Y-66584524D01*
X179398809Y-66679762D01*
X179255952Y-66727381D01*
X179160714Y-66727381D01*
X180446429Y-65727381D02*
X180255952Y-65727381D01*
X180160714Y-65775000D01*
X180113095Y-65822619D01*
X180017857Y-65965476D01*
X179970238Y-66155952D01*
X179970238Y-66536905D01*
X180017857Y-66632143D01*
X180065476Y-66679762D01*
X180160714Y-66727381D01*
X180351191Y-66727381D01*
X180446429Y-66679762D01*
X180494048Y-66632143D01*
X180541667Y-66536905D01*
X180541667Y-66298810D01*
X180494048Y-66203571D01*
X180446429Y-66155952D01*
X180351191Y-66108333D01*
X180160714Y-66108333D01*
X180065476Y-66155952D01*
X180017857Y-66203571D01*
X179970238Y-66298810D01*
M02*
