M48
; DRILL file {KiCad 5.1.12-84ad8e8a86~92~ubuntu20.04.1} date 2022-06-08T18:54:38 CEST
; FORMAT={-:-/ absolute / inch / decimal}
; #@! TF.CreationDate,2022-06-08T18:54:38+02:00
; #@! TF.GenerationSoftware,Kicad,Pcbnew,5.1.12-84ad8e8a86~92~ubuntu20.04.1
; #@! TF.FileFunction,Plated,1,4,PTH
FMAT,2
INCH
T1C0.0315
T2C0.0394
T3C0.0748
T4C0.0866
%
G90
G05
T1
X4.9074Y-8.8362
X4.9074Y-8.9362
X4.9074Y-9.0362
X4.9074Y-9.1362
X4.9074Y-9.2362
X4.9074Y-9.3362
X4.9074Y-9.4362
X4.9074Y-9.5362
X4.9074Y-9.6362
X4.9074Y-9.7362
X4.9074Y-9.8362
X4.9074Y-9.9362
X4.9074Y-10.0362
X4.9074Y-10.1362
X4.9074Y-10.2362
X4.9074Y-10.3362
X4.9074Y-10.4362
X4.9074Y-10.5362
X4.9074Y-10.6362
X4.9074Y-10.7362
X4.9074Y-10.8362
X4.9074Y-10.9362
X4.9074Y-11.0362
X4.9074Y-11.1362
X4.9074Y-11.2362
X4.9074Y-3.805
X4.9074Y-3.905
X4.9074Y-4.005
X4.9074Y-4.105
X4.9074Y-4.205
X4.9074Y-4.305
X4.9074Y-4.405
X4.9074Y-4.505
X4.9074Y-4.605
X4.9074Y-4.705
X4.9074Y-4.805
X4.9074Y-4.905
X4.9074Y-5.005
X4.9074Y-5.105
X4.9074Y-5.205
X4.9074Y-5.305
X4.9074Y-5.405
X4.9074Y-5.505
X4.9074Y-5.605
X4.9074Y-5.705
X4.9074Y-5.805
X4.9074Y-5.905
X4.9074Y-6.005
X4.9074Y-6.105
X4.9074Y-6.205
X4.9824Y-8.7862
X4.9824Y-8.8862
X4.9824Y-8.9862
X4.9824Y-9.0862
X4.9824Y-9.1862
X4.9824Y-9.2862
X4.9824Y-9.3862
X4.9824Y-9.4862
X4.9824Y-9.5862
X4.9824Y-9.6862
X4.9824Y-9.7862
X4.9824Y-9.8862
X4.9824Y-9.9862
X4.9824Y-10.0862
X4.9824Y-10.1862
X4.9824Y-10.2862
X4.9824Y-10.3862
X4.9824Y-10.4862
X4.9824Y-10.5862
X4.9824Y-10.6862
X4.9824Y-10.7862
X4.9824Y-10.8862
X4.9824Y-10.9862
X4.9824Y-11.0862
X4.9824Y-11.1862
X4.9824Y-3.755
X4.9824Y-3.855
X4.9824Y-3.955
X4.9824Y-4.055
X4.9824Y-4.155
X4.9824Y-4.255
X4.9824Y-4.355
X4.9824Y-4.455
X4.9824Y-4.555
X4.9824Y-4.655
X4.9824Y-4.755
X4.9824Y-4.855
X4.9824Y-4.955
X4.9824Y-5.055
X4.9824Y-5.155
X4.9824Y-5.255
X4.9824Y-5.355
X4.9824Y-5.455
X4.9824Y-5.555
X4.9824Y-5.655
X4.9824Y-5.755
X4.9824Y-5.855
X4.9824Y-5.955
X4.9824Y-6.055
X4.9824Y-6.155
X5.0574Y-8.8362
X5.0574Y-8.9362
X5.0574Y-9.0362
X5.0574Y-9.1362
X5.0574Y-9.2362
X5.0574Y-9.3362
X5.0574Y-9.4362
X5.0574Y-9.5362
X5.0574Y-9.6362
X5.0574Y-9.7362
X5.0574Y-9.8362
X5.0574Y-9.9362
X5.0574Y-10.0362
X5.0574Y-10.1362
X5.0574Y-10.2362
X5.0574Y-10.3362
X5.0574Y-10.4362
X5.0574Y-10.5362
X5.0574Y-10.6362
X5.0574Y-10.7362
X5.0574Y-10.8362
X5.0574Y-10.9362
X5.0574Y-11.0362
X5.0574Y-11.1362
X5.0574Y-11.2362
X5.0574Y-3.805
X5.0574Y-3.905
X5.0574Y-4.005
X5.0574Y-4.105
X5.0574Y-4.205
X5.0574Y-4.305
X5.0574Y-4.405
X5.0574Y-4.505
X5.0574Y-4.605
X5.0574Y-4.705
X5.0574Y-4.805
X5.0574Y-4.905
X5.0574Y-5.005
X5.0574Y-5.105
X5.0574Y-5.205
X5.0574Y-5.305
X5.0574Y-5.405
X5.0574Y-5.505
X5.0574Y-5.605
X5.0574Y-5.705
X5.0574Y-5.805
X5.0574Y-5.905
X5.0574Y-6.005
X5.0574Y-6.105
X5.0574Y-6.205
X5.1324Y-8.7862
X5.1324Y-8.8862
X5.1324Y-8.9862
X5.1324Y-9.0862
X5.1324Y-9.1862
X5.1324Y-9.2862
X5.1324Y-9.3862
X5.1324Y-9.4862
X5.1324Y-9.5862
X5.1324Y-9.6862
X5.1324Y-9.7862
X5.1324Y-9.8862
X5.1324Y-9.9862
X5.1324Y-10.0862
X5.1324Y-10.1862
X5.1324Y-10.2862
X5.1324Y-10.3862
X5.1324Y-10.4862
X5.1324Y-10.5862
X5.1324Y-10.6862
X5.1324Y-10.7862
X5.1324Y-10.8862
X5.1324Y-10.9862
X5.1324Y-11.0862
X5.1324Y-11.1862
X5.1324Y-3.755
X5.1324Y-3.855
X5.1324Y-3.955
X5.1324Y-4.055
X5.1324Y-4.155
X5.1324Y-4.255
X5.1324Y-4.355
X5.1324Y-4.455
X5.1324Y-4.555
X5.1324Y-4.655
X5.1324Y-4.755
X5.1324Y-4.855
X5.1324Y-4.955
X5.1324Y-5.055
X5.1324Y-5.155
X5.1324Y-5.255
X5.1324Y-5.355
X5.1324Y-5.455
X5.1324Y-5.555
X5.1324Y-5.655
X5.1324Y-5.755
X5.1324Y-5.855
X5.1324Y-5.955
X5.1324Y-6.055
X5.1324Y-6.155
X13.3808Y-8.786
X13.3808Y-8.886
X13.3808Y-8.986
X13.3808Y-9.086
X13.3808Y-9.186
X13.3808Y-9.286
X13.3808Y-9.386
X13.3808Y-9.486
X13.3808Y-9.586
X13.3808Y-9.686
X13.3808Y-9.786
X13.3808Y-9.886
X13.3808Y-9.986
X13.3808Y-10.086
X13.3808Y-10.186
X13.3808Y-10.286
X13.3808Y-10.386
X13.3808Y-10.486
X13.3808Y-10.586
X13.3808Y-10.686
X13.3808Y-10.786
X13.3808Y-10.886
X13.3808Y-10.986
X13.3808Y-11.086
X13.3808Y-11.186
X13.3808Y-3.7549
X13.3808Y-3.8549
X13.3808Y-3.9549
X13.3808Y-4.0549
X13.3808Y-4.1549
X13.3808Y-4.2549
X13.3808Y-4.3549
X13.3808Y-4.4549
X13.3808Y-4.5549
X13.3808Y-4.6549
X13.3808Y-4.7549
X13.3808Y-4.8549
X13.3808Y-4.9549
X13.3808Y-5.0549
X13.3808Y-5.1549
X13.3808Y-5.2549
X13.3808Y-5.3549
X13.3808Y-5.4549
X13.3808Y-5.5549
X13.3808Y-5.6549
X13.3808Y-5.7549
X13.3808Y-5.8549
X13.3808Y-5.9549
X13.3808Y-6.0549
X13.3808Y-6.1549
X13.4558Y-8.836
X13.4558Y-8.936
X13.4558Y-9.036
X13.4558Y-9.136
X13.4558Y-9.236
X13.4558Y-9.336
X13.4558Y-9.436
X13.4558Y-9.536
X13.4558Y-9.636
X13.4558Y-9.736
X13.4558Y-9.836
X13.4558Y-9.936
X13.4558Y-10.036
X13.4558Y-10.136
X13.4558Y-10.236
X13.4558Y-10.336
X13.4558Y-10.436
X13.4558Y-10.536
X13.4558Y-10.636
X13.4558Y-10.736
X13.4558Y-10.836
X13.4558Y-10.936
X13.4558Y-11.036
X13.4558Y-11.136
X13.4558Y-11.236
X13.4558Y-3.8049
X13.4558Y-3.9049
X13.4558Y-4.0049
X13.4558Y-4.1049
X13.4558Y-4.2049
X13.4558Y-4.3049
X13.4558Y-4.4049
X13.4558Y-4.5049
X13.4558Y-4.6049
X13.4558Y-4.7049
X13.4558Y-4.8049
X13.4558Y-4.9049
X13.4558Y-5.0049
X13.4558Y-5.1049
X13.4558Y-5.2049
X13.4558Y-5.3049
X13.4558Y-5.4049
X13.4558Y-5.5049
X13.4558Y-5.6049
X13.4558Y-5.7049
X13.4558Y-5.8049
X13.4558Y-5.9049
X13.4558Y-6.0049
X13.4558Y-6.1049
X13.4558Y-6.2049
X13.5308Y-8.786
X13.5308Y-8.886
X13.5308Y-8.986
X13.5308Y-9.086
X13.5308Y-9.186
X13.5308Y-9.286
X13.5308Y-9.386
X13.5308Y-9.486
X13.5308Y-9.586
X13.5308Y-9.686
X13.5308Y-9.786
X13.5308Y-9.886
X13.5308Y-9.986
X13.5308Y-10.086
X13.5308Y-10.186
X13.5308Y-10.286
X13.5308Y-10.386
X13.5308Y-10.486
X13.5308Y-10.586
X13.5308Y-10.686
X13.5308Y-10.786
X13.5308Y-10.886
X13.5308Y-10.986
X13.5308Y-11.086
X13.5308Y-11.186
X13.5308Y-3.7549
X13.5308Y-3.8549
X13.5308Y-3.9549
X13.5308Y-4.0549
X13.5308Y-4.1549
X13.5308Y-4.2549
X13.5308Y-4.3549
X13.5308Y-4.4549
X13.5308Y-4.5549
X13.5308Y-4.6549
X13.5308Y-4.7549
X13.5308Y-4.8549
X13.5308Y-4.9549
X13.5308Y-5.0549
X13.5308Y-5.1549
X13.5308Y-5.2549
X13.5308Y-5.3549
X13.5308Y-5.4549
X13.5308Y-5.5549
X13.5308Y-5.6549
X13.5308Y-5.7549
X13.5308Y-5.8549
X13.5308Y-5.9549
X13.5308Y-6.0549
X13.5308Y-6.1549
X13.6058Y-8.836
X13.6058Y-8.936
X13.6058Y-9.036
X13.6058Y-9.136
X13.6058Y-9.236
X13.6058Y-9.336
X13.6058Y-9.436
X13.6058Y-9.536
X13.6058Y-9.636
X13.6058Y-9.736
X13.6058Y-9.836
X13.6058Y-9.936
X13.6058Y-10.036
X13.6058Y-10.136
X13.6058Y-10.236
X13.6058Y-10.336
X13.6058Y-10.436
X13.6058Y-10.536
X13.6058Y-10.636
X13.6058Y-10.736
X13.6058Y-10.836
X13.6058Y-10.936
X13.6058Y-11.036
X13.6058Y-11.136
X13.6058Y-11.236
X13.6058Y-3.8049
X13.6058Y-3.9049
X13.6058Y-4.0049
X13.6058Y-4.1049
X13.6058Y-4.2049
X13.6058Y-4.3049
X13.6058Y-4.4049
X13.6058Y-4.5049
X13.6058Y-4.6049
X13.6058Y-4.7049
X13.6058Y-4.8049
X13.6058Y-4.9049
X13.6058Y-5.0049
X13.6058Y-5.1049
X13.6058Y-5.2049
X13.6058Y-5.3049
X13.6058Y-5.4049
X13.6058Y-5.5049
X13.6058Y-5.6049
X13.6058Y-5.7049
X13.6058Y-5.8049
X13.6058Y-5.9049
X13.6058Y-6.0049
X13.6058Y-6.1049
X13.6058Y-6.2049
T2
X5.3057Y-3.8046
X5.3057Y-3.9046
X5.3057Y-4.0046
X5.3057Y-4.1046
X5.3057Y-4.2046
X5.3057Y-4.3046
X5.3057Y-4.4046
X5.3057Y-4.5046
X5.3057Y-4.6046
X5.3057Y-4.7046
X5.3057Y-4.8046
X5.3057Y-4.9046
X5.3057Y-5.0046
X5.3057Y-5.1046
X5.3057Y-5.2046
X5.3057Y-5.3046
X5.3057Y-5.4046
X5.3057Y-5.5046
X5.3057Y-5.6046
X5.3057Y-5.7046
X5.3057Y-5.8046
X5.3057Y-5.9046
X5.3057Y-6.0046
X5.3057Y-6.1046
X5.3057Y-6.2046
X5.3057Y-8.8362
X5.3057Y-8.9362
X5.3057Y-9.0362
X5.3057Y-9.1362
X5.3057Y-9.2362
X5.3057Y-9.3362
X5.3057Y-9.4362
X5.3057Y-9.5362
X5.3057Y-9.6362
X5.3057Y-9.7362
X5.3057Y-9.8362
X5.3057Y-9.9362
X5.3057Y-10.0362
X5.3057Y-10.1362
X5.3057Y-10.2362
X5.3057Y-10.3362
X5.3057Y-10.4362
X5.3057Y-10.5362
X5.3057Y-10.6362
X5.3057Y-10.7362
X5.3057Y-10.8362
X5.3057Y-10.9362
X5.3057Y-11.0362
X5.3057Y-11.1362
X5.3057Y-11.2362
X5.4523Y-3.7544
X5.4523Y-3.8544
X5.4523Y-3.9544
X5.4523Y-4.0544
X5.4523Y-4.1544
X5.4523Y-4.2544
X5.4523Y-4.3544
X5.4523Y-4.4544
X5.4523Y-4.5544
X5.4523Y-4.6544
X5.4523Y-4.7544
X5.4523Y-4.8544
X5.4523Y-4.9544
X5.4523Y-5.0544
X5.4523Y-5.1544
X5.4523Y-5.2544
X5.4523Y-5.3544
X5.4523Y-5.4544
X5.4523Y-5.5544
X5.4523Y-5.6544
X5.4523Y-5.7544
X5.4523Y-5.8544
X5.4523Y-5.9544
X5.4523Y-6.0544
X5.4523Y-6.1544
X5.4523Y-8.786
X5.4523Y-8.886
X5.4523Y-8.986
X5.4523Y-9.086
X5.4523Y-9.186
X5.4523Y-9.286
X5.4523Y-9.386
X5.4523Y-9.486
X5.4523Y-9.586
X5.4523Y-9.686
X5.4523Y-9.786
X5.4523Y-9.886
X5.4523Y-9.986
X5.4523Y-10.086
X5.4523Y-10.186
X5.4523Y-10.286
X5.4523Y-10.386
X5.4523Y-10.486
X5.4523Y-10.586
X5.4523Y-10.686
X5.4523Y-10.786
X5.4523Y-10.886
X5.4523Y-10.986
X5.4523Y-11.086
X5.4523Y-11.186
X5.599Y-3.8046
X5.599Y-3.9046
X5.599Y-4.0046
X5.599Y-4.1046
X5.599Y-4.2046
X5.599Y-4.3046
X5.599Y-4.4046
X5.599Y-4.5046
X5.599Y-4.6046
X5.599Y-4.7046
X5.599Y-4.8046
X5.599Y-4.9046
X5.599Y-5.0046
X5.599Y-5.1046
X5.599Y-5.2046
X5.599Y-5.3046
X5.599Y-5.4046
X5.599Y-5.5046
X5.599Y-5.6046
X5.599Y-5.7046
X5.599Y-5.8046
X5.599Y-5.9046
X5.599Y-6.0046
X5.599Y-6.1046
X5.599Y-6.2046
X5.599Y-8.8362
X5.599Y-8.9362
X5.599Y-9.0362
X5.599Y-9.1362
X5.599Y-9.2362
X5.599Y-9.3362
X5.599Y-9.4362
X5.599Y-9.5362
X5.599Y-9.6362
X5.599Y-9.7362
X5.599Y-9.8362
X5.599Y-9.9362
X5.599Y-10.0362
X5.599Y-10.1362
X5.599Y-10.2362
X5.599Y-10.3362
X5.599Y-10.4362
X5.599Y-10.5362
X5.599Y-10.6362
X5.599Y-10.7362
X5.599Y-10.8362
X5.599Y-10.9362
X5.599Y-11.0362
X5.599Y-11.1362
X5.599Y-11.2362
X5.7456Y-3.7544
X5.7456Y-3.8544
X5.7456Y-3.9544
X5.7456Y-4.0544
X5.7456Y-4.1544
X5.7456Y-4.2544
X5.7456Y-4.3544
X5.7456Y-4.4544
X5.7456Y-4.5544
X5.7456Y-4.6544
X5.7456Y-4.7544
X5.7456Y-4.8544
X5.7456Y-4.9544
X5.7456Y-5.0544
X5.7456Y-5.1544
X5.7456Y-5.2544
X5.7456Y-5.3544
X5.7456Y-5.4544
X5.7456Y-5.5544
X5.7456Y-5.6544
X5.7456Y-5.7544
X5.7456Y-5.8544
X5.7456Y-5.9544
X5.7456Y-6.0544
X5.7456Y-6.1544
X5.7456Y-8.786
X5.7456Y-8.886
X5.7456Y-8.986
X5.7456Y-9.086
X5.7456Y-9.186
X5.7456Y-9.286
X5.7456Y-9.386
X5.7456Y-9.486
X5.7456Y-9.586
X5.7456Y-9.686
X5.7456Y-9.786
X5.7456Y-9.886
X5.7456Y-9.986
X5.7456Y-10.086
X5.7456Y-10.186
X5.7456Y-10.286
X5.7456Y-10.386
X5.7456Y-10.486
X5.7456Y-10.586
X5.7456Y-10.686
X5.7456Y-10.786
X5.7456Y-10.886
X5.7456Y-10.986
X5.7456Y-11.086
X5.7456Y-11.186
T3
X5.0108Y-2.9812
X5.0108Y-3.2765
X5.0108Y-11.7174
X5.0108Y-12.0127
X5.2076Y-2.9812
X5.2076Y-3.2765
X5.2076Y-11.7174
X5.2076Y-12.0127
T4
X4.9074Y-8.5862
X4.9074Y-11.4362
X4.9074Y-3.555
X4.9074Y-6.405
X13.6058Y-8.586
X13.6058Y-11.436
X13.6058Y-3.5549
X13.6058Y-6.4049
T0
M30
