M48
;DRILL file {KiCad 4.0.7-e2-6376~61~ubuntu18.04.1} date Tue Sep  1 21:44:32 2020
;FORMAT={-:-/ absolute / inch / decimal}
FMAT,2
INCH,TZ
T1C0.031
T2C0.039
%
G90
G05
M72
T1
X6.3478Y-2.7085
X6.3478Y-2.8085
X6.3478Y-2.9085
X6.3478Y-3.0085
X6.3478Y-3.1085
X6.3478Y-3.2085
X6.3478Y-3.3085
X6.3478Y-3.4085
X6.3478Y-3.5085
X6.3478Y-3.6085
X6.3478Y-3.7085
X6.3478Y-3.8085
X6.3478Y-3.9085
X6.3478Y-4.0085
X6.3478Y-4.1085
X6.3478Y-4.2085
X6.3478Y-4.3085
X6.3478Y-4.4085
X6.3478Y-4.5085
X6.3478Y-4.6085
X6.3478Y-4.7085
X6.3478Y-4.8085
X6.3478Y-4.9085
X6.3478Y-5.0085
X6.3478Y-5.1085
X6.4228Y-2.6585
X6.4228Y-2.7585
X6.4228Y-2.8585
X6.4228Y-2.9585
X6.4228Y-3.0585
X6.4228Y-3.1585
X6.4228Y-3.2585
X6.4228Y-3.3585
X6.4228Y-3.4585
X6.4228Y-3.5585
X6.4228Y-3.6585
X6.4228Y-3.7585
X6.4228Y-3.8585
X6.4228Y-3.9585
X6.4228Y-4.0585
X6.4228Y-4.1585
X6.4228Y-4.2585
X6.4228Y-4.3585
X6.4228Y-4.4585
X6.4228Y-4.5585
X6.4228Y-4.6585
X6.4228Y-4.7585
X6.4228Y-4.8585
X6.4228Y-4.9585
X6.4228Y-5.0585
X6.4978Y-2.7085
X6.4978Y-2.8085
X6.4978Y-2.9085
X6.4978Y-3.0085
X6.4978Y-3.1085
X6.4978Y-3.2085
X6.4978Y-3.3085
X6.4978Y-3.4085
X6.4978Y-3.5085
X6.4978Y-3.6085
X6.4978Y-3.7085
X6.4978Y-3.8085
X6.4978Y-3.9085
X6.4978Y-4.0085
X6.4978Y-4.1085
X6.4978Y-4.2085
X6.4978Y-4.3085
X6.4978Y-4.4085
X6.4978Y-4.5085
X6.4978Y-4.6085
X6.4978Y-4.7085
X6.4978Y-4.8085
X6.4978Y-4.9085
X6.4978Y-5.0085
X6.4978Y-5.1085
X6.5728Y-2.6585
X6.5728Y-2.7585
X6.5728Y-2.8585
X6.5728Y-2.9585
X6.5728Y-3.0585
X6.5728Y-3.1585
X6.5728Y-3.2585
X6.5728Y-3.3585
X6.5728Y-3.4585
X6.5728Y-3.5585
X6.5728Y-3.6585
X6.5728Y-3.7585
X6.5728Y-3.8585
X6.5728Y-3.9585
X6.5728Y-4.0585
X6.5728Y-4.1585
X6.5728Y-4.2585
X6.5728Y-4.3585
X6.5728Y-4.4585
X6.5728Y-4.5585
X6.5728Y-4.6585
X6.5728Y-4.7585
X6.5728Y-4.8585
X6.5728Y-4.9585
X6.5728Y-5.0585
X7.3602Y-2.6585
X7.3602Y-2.7585
X7.3602Y-2.8585
X7.3602Y-2.9585
X7.3602Y-3.0585
X7.3602Y-3.1585
X7.3602Y-3.2585
X7.3602Y-3.3585
X7.3602Y-3.4585
X7.3602Y-3.5585
X7.3602Y-3.6585
X7.3602Y-3.7585
X7.3602Y-3.8585
X7.3602Y-3.9585
X7.3602Y-4.0585
X7.3602Y-4.1585
X7.3602Y-4.2585
X7.3602Y-4.3585
X7.3602Y-4.4585
X7.3602Y-4.5585
X7.3602Y-4.6585
X7.3602Y-4.7585
X7.3602Y-4.8585
X7.3602Y-4.9585
X7.3602Y-5.0585
X7.4352Y-2.7085
X7.4352Y-2.8085
X7.4352Y-2.9085
X7.4352Y-3.0085
X7.4352Y-3.1085
X7.4352Y-3.2085
X7.4352Y-3.3085
X7.4352Y-3.4085
X7.4352Y-3.5085
X7.4352Y-3.6085
X7.4352Y-3.7085
X7.4352Y-3.8085
X7.4352Y-3.9085
X7.4352Y-4.0085
X7.4352Y-4.1085
X7.4352Y-4.2085
X7.4352Y-4.3085
X7.4352Y-4.4085
X7.4352Y-4.5085
X7.4352Y-4.6085
X7.4352Y-4.7085
X7.4352Y-4.8085
X7.4352Y-4.9085
X7.4352Y-5.0085
X7.4352Y-5.1085
X7.5102Y-2.6585
X7.5102Y-2.7585
X7.5102Y-2.8585
X7.5102Y-2.9585
X7.5102Y-3.0585
X7.5102Y-3.1585
X7.5102Y-3.2585
X7.5102Y-3.3585
X7.5102Y-3.4585
X7.5102Y-3.5585
X7.5102Y-3.6585
X7.5102Y-3.7585
X7.5102Y-3.8585
X7.5102Y-3.9585
X7.5102Y-4.0585
X7.5102Y-4.1585
X7.5102Y-4.2585
X7.5102Y-4.3585
X7.5102Y-4.4585
X7.5102Y-4.5585
X7.5102Y-4.6585
X7.5102Y-4.7585
X7.5102Y-4.8585
X7.5102Y-4.9585
X7.5102Y-5.0585
X7.5852Y-2.7085
X7.5852Y-2.8085
X7.5852Y-2.9085
X7.5852Y-3.0085
X7.5852Y-3.1085
X7.5852Y-3.2085
X7.5852Y-3.3085
X7.5852Y-3.4085
X7.5852Y-3.5085
X7.5852Y-3.6085
X7.5852Y-3.7085
X7.5852Y-3.8085
X7.5852Y-3.9085
X7.5852Y-4.0085
X7.5852Y-4.1085
X7.5852Y-4.2085
X7.5852Y-4.3085
X7.5852Y-4.4085
X7.5852Y-4.5085
X7.5852Y-4.6085
X7.5852Y-4.7085
X7.5852Y-4.8085
X7.5852Y-4.9085
X7.5852Y-5.0085
X7.5852Y-5.1085
T2
X6.7461Y-2.7087
X6.7461Y-2.8087
X6.7461Y-2.9087
X6.7461Y-3.0087
X6.7461Y-3.1087
X6.7461Y-3.2087
X6.7461Y-3.3087
X6.7461Y-3.4087
X6.7461Y-3.5087
X6.7461Y-3.6087
X6.7461Y-3.7087
X6.7461Y-3.8087
X6.7461Y-3.9087
X6.7461Y-4.0087
X6.7461Y-4.1087
X6.7461Y-4.2087
X6.7461Y-4.3087
X6.7461Y-4.4087
X6.7461Y-4.5087
X6.7461Y-4.6087
X6.7461Y-4.7087
X6.7461Y-4.8087
X6.7461Y-4.9087
X6.7461Y-5.0087
X6.7461Y-5.1087
X6.8927Y-2.6585
X6.8927Y-2.7585
X6.8927Y-2.8585
X6.8927Y-2.9585
X6.8927Y-3.0585
X6.8927Y-3.1585
X6.8927Y-3.2585
X6.8927Y-3.3585
X6.8927Y-3.4585
X6.8927Y-3.5585
X6.8927Y-3.6585
X6.8927Y-3.7585
X6.8927Y-3.8585
X6.8927Y-3.9585
X6.8927Y-4.0585
X6.8927Y-4.1585
X6.8927Y-4.2585
X6.8927Y-4.3585
X6.8927Y-4.4585
X6.8927Y-4.5585
X6.8927Y-4.6585
X6.8927Y-4.7585
X6.8927Y-4.8585
X6.8927Y-4.9585
X6.8927Y-5.0585
X7.0394Y-2.7087
X7.0394Y-2.8087
X7.0394Y-2.9087
X7.0394Y-3.0087
X7.0394Y-3.1087
X7.0394Y-3.2087
X7.0394Y-3.3087
X7.0394Y-3.4087
X7.0394Y-3.5087
X7.0394Y-3.6087
X7.0394Y-3.7087
X7.0394Y-3.8087
X7.0394Y-3.9087
X7.0394Y-4.0087
X7.0394Y-4.1087
X7.0394Y-4.2087
X7.0394Y-4.3087
X7.0394Y-4.4087
X7.0394Y-4.5087
X7.0394Y-4.6087
X7.0394Y-4.7087
X7.0394Y-4.8087
X7.0394Y-4.9087
X7.0394Y-5.0087
X7.0394Y-5.1087
X7.186Y-2.6585
X7.186Y-2.7585
X7.186Y-2.8585
X7.186Y-2.9585
X7.186Y-3.0585
X7.186Y-3.1585
X7.186Y-3.2585
X7.186Y-3.3585
X7.186Y-3.4585
X7.186Y-3.5585
X7.186Y-3.6585
X7.186Y-3.7585
X7.186Y-3.8585
X7.186Y-3.9585
X7.186Y-4.0585
X7.186Y-4.1585
X7.186Y-4.2585
X7.186Y-4.3585
X7.186Y-4.4585
X7.186Y-4.5585
X7.186Y-4.6585
X7.186Y-4.7585
X7.186Y-4.8585
X7.186Y-4.9585
X7.186Y-5.0585
T0
M30
