%TF.GenerationSoftware,KiCad,Pcbnew,5.1.12-84ad8e8a86~92~ubuntu20.04.1*%
%TF.CreationDate,2022-06-08T18:54:32+02:00*%
%TF.ProjectId,bvm-a-card-breakout,62766d2d-612d-4636-9172-642d62726561,rev?*%
%TF.SameCoordinates,Original*%
%TF.FileFunction,Copper,L1,Top*%
%TF.FilePolarity,Positive*%
%FSLAX46Y46*%
G04 Gerber Fmt 4.6, Leading zero omitted, Abs format (unit mm)*
G04 Created by KiCad (PCBNEW 5.1.12-84ad8e8a86~92~ubuntu20.04.1) date 2022-06-08 18:54:32*
%MOMM*%
%LPD*%
G01*
G04 APERTURE LIST*
%TA.AperFunction,ComponentPad*%
%ADD10C,3.200000*%
%TD*%
%TA.AperFunction,ComponentPad*%
%ADD11C,1.400000*%
%TD*%
%TA.AperFunction,ComponentPad*%
%ADD12O,1.700000X1.700000*%
%TD*%
%TA.AperFunction,ComponentPad*%
%ADD13R,1.700000X1.700000*%
%TD*%
%TA.AperFunction,ComponentPad*%
%ADD14C,2.600000*%
%TD*%
%TA.AperFunction,Conductor*%
%ADD15C,0.250000*%
%TD*%
%TA.AperFunction,Conductor*%
%ADD16C,0.400000*%
%TD*%
G04 APERTURE END LIST*
D10*
%TO.P,J1,S*%
%TO.N,N/C*%
X124648840Y-162687000D03*
X124648840Y-90297000D03*
D11*
%TO.P,J1,B2*%
%TO.N,B2*%
X124648840Y-96647000D03*
%TO.P,J1,B4*%
%TO.N,B4*%
X124648840Y-99187000D03*
%TO.P,J1,B6*%
%TO.N,B6*%
X124648840Y-101727000D03*
%TO.P,J1,B8*%
%TO.N,B8*%
X124648840Y-104267000D03*
%TO.P,J1,B10*%
%TO.N,B10*%
X124648840Y-106807000D03*
%TO.P,J1,B12*%
%TO.N,B12*%
X124648840Y-109347000D03*
%TO.P,J1,B14*%
%TO.N,B14*%
X124648840Y-111887000D03*
%TO.P,J1,B16*%
%TO.N,B16*%
X124648840Y-114427000D03*
%TO.P,J1,B18*%
%TO.N,B18*%
X124648840Y-116967000D03*
%TO.P,J1,B20*%
%TO.N,B20*%
X124648840Y-119507000D03*
%TO.P,J1,B22*%
%TO.N,B22*%
X124648840Y-122047000D03*
%TO.P,J1,B24*%
%TO.N,B24*%
X124648840Y-124587000D03*
%TO.P,J1,B26*%
%TO.N,B26*%
X124648840Y-127127000D03*
%TO.P,J1,B28*%
%TO.N,B28*%
X124648840Y-129667000D03*
%TO.P,J1,B30*%
%TO.N,B30*%
X124648840Y-132207000D03*
%TO.P,J1,B32*%
%TO.N,B32*%
X124648840Y-134747000D03*
%TO.P,J1,B34*%
%TO.N,B34*%
X124648840Y-137287000D03*
%TO.P,J1,B36*%
%TO.N,B36*%
X124648840Y-139827000D03*
%TO.P,J1,B38*%
%TO.N,B38*%
X124648840Y-142367000D03*
%TO.P,J1,B40*%
%TO.N,B40*%
X124648840Y-144907000D03*
%TO.P,J1,B42*%
%TO.N,B42*%
X124648840Y-147447000D03*
%TO.P,J1,B44*%
%TO.N,B44*%
X124648840Y-149987000D03*
%TO.P,J1,B46*%
%TO.N,B46*%
X124648840Y-152527000D03*
%TO.P,J1,B48*%
%TO.N,B48*%
X124648840Y-155067000D03*
%TO.P,J1,B50*%
%TO.N,B50*%
X124648840Y-157607000D03*
%TO.P,J1,A1*%
%TO.N,A1*%
X130363840Y-95377000D03*
%TO.P,J1,A3*%
%TO.N,A3*%
X130363840Y-97917000D03*
%TO.P,J1,A5*%
%TO.N,A5*%
X130363840Y-100457000D03*
%TO.P,J1,A7*%
%TO.N,A7*%
X130363840Y-102997000D03*
%TO.P,J1,A9*%
%TO.N,A9*%
X130363840Y-105537000D03*
%TO.P,J1,A11*%
%TO.N,A11*%
X130363840Y-108077000D03*
%TO.P,J1,A13*%
%TO.N,A13*%
X130363840Y-110617000D03*
%TO.P,J1,A15*%
%TO.N,A15*%
X130363840Y-113157000D03*
%TO.P,J1,A17*%
%TO.N,A17*%
X130363840Y-115697000D03*
%TO.P,J1,A19*%
%TO.N,A19*%
X130363840Y-118237000D03*
%TO.P,J1,A21*%
%TO.N,A21*%
X130363840Y-120777000D03*
%TO.P,J1,A23*%
%TO.N,A23*%
X130363840Y-123317000D03*
%TO.P,J1,A25*%
%TO.N,A25*%
X130363840Y-125857000D03*
%TO.P,J1,A27*%
%TO.N,A27*%
X130363840Y-128397000D03*
%TO.P,J1,A29*%
%TO.N,A29*%
X130363840Y-130937000D03*
%TO.P,J1,A31*%
%TO.N,A31*%
X130363840Y-133477000D03*
%TO.P,J1,A33*%
%TO.N,A33*%
X130363840Y-136017000D03*
%TO.P,J1,A35*%
%TO.N,A35*%
X130363840Y-138557000D03*
%TO.P,J1,A37*%
%TO.N,A37*%
X130363840Y-141097000D03*
%TO.P,J1,A39*%
%TO.N,A39*%
X130363840Y-143637000D03*
%TO.P,J1,A41*%
%TO.N,A41*%
X130363840Y-146177000D03*
%TO.P,J1,A43*%
%TO.N,A43*%
X130363840Y-148717000D03*
%TO.P,J1,A45*%
%TO.N,A45*%
X130363840Y-151257000D03*
%TO.P,J1,A47*%
%TO.N,A47*%
X130363840Y-153797000D03*
%TO.P,J1,A49*%
%TO.N,A49*%
X130363840Y-156337000D03*
%TO.P,J1,A2*%
%TO.N,A2*%
X128458840Y-96647000D03*
%TO.P,J1,A4*%
%TO.N,A4*%
X128458840Y-99187000D03*
%TO.P,J1,A6*%
%TO.N,A6*%
X128458840Y-101727000D03*
%TO.P,J1,A8*%
%TO.N,A8*%
X128458840Y-104267000D03*
%TO.P,J1,A10*%
%TO.N,A10*%
X128458840Y-106807000D03*
%TO.P,J1,A12*%
%TO.N,A12*%
X128458840Y-109347000D03*
%TO.P,J1,A14*%
%TO.N,A14*%
X128458840Y-111887000D03*
%TO.P,J1,A16*%
%TO.N,A16*%
X128458840Y-114427000D03*
%TO.P,J1,A18*%
%TO.N,A18*%
X128458840Y-116967000D03*
%TO.P,J1,A20*%
%TO.N,A20*%
X128458840Y-119507000D03*
%TO.P,J1,A22*%
%TO.N,A22*%
X128458840Y-122047000D03*
%TO.P,J1,A24*%
%TO.N,A24*%
X128458840Y-124587000D03*
%TO.P,J1,A26*%
%TO.N,A26*%
X128458840Y-127127000D03*
%TO.P,J1,A28*%
%TO.N,A28*%
X128458840Y-129667000D03*
%TO.P,J1,A30*%
%TO.N,A30*%
X128458840Y-132207000D03*
%TO.P,J1,A32*%
%TO.N,A32*%
X128458840Y-134747000D03*
%TO.P,J1,A34*%
%TO.N,A34*%
X128458840Y-137287000D03*
%TO.P,J1,A36*%
%TO.N,A36*%
X128458840Y-139827000D03*
%TO.P,J1,A38*%
%TO.N,A38*%
X128458840Y-142367000D03*
%TO.P,J1,A40*%
%TO.N,A40*%
X128458840Y-144907000D03*
%TO.P,J1,A42*%
%TO.N,A42*%
X128458840Y-147447000D03*
%TO.P,J1,A44*%
%TO.N,A44*%
X128458840Y-149987000D03*
%TO.P,J1,A46*%
%TO.N,A46*%
X128458840Y-152527000D03*
%TO.P,J1,A48*%
%TO.N,A48*%
X128458840Y-155067000D03*
%TO.P,J1,A50*%
%TO.N,A50*%
X128458840Y-157607000D03*
%TO.P,J1,B1*%
%TO.N,B1*%
X126553840Y-95377000D03*
%TO.P,J1,B3*%
%TO.N,B3*%
X126553840Y-97917000D03*
%TO.P,J1,B5*%
%TO.N,B5*%
X126553840Y-100457000D03*
%TO.P,J1,B7*%
%TO.N,B7*%
X126553840Y-102997000D03*
%TO.P,J1,B9*%
%TO.N,B9*%
X126553840Y-105537000D03*
%TO.P,J1,B11*%
%TO.N,B11*%
X126553840Y-108077000D03*
%TO.P,J1,B13*%
%TO.N,B13*%
X126553840Y-110617000D03*
%TO.P,J1,B15*%
%TO.N,B15*%
X126553840Y-113157000D03*
%TO.P,J1,B17*%
%TO.N,B17*%
X126553840Y-115697000D03*
%TO.P,J1,B19*%
%TO.N,B19*%
X126553840Y-118237000D03*
%TO.P,J1,B21*%
%TO.N,B21*%
X126553840Y-120777000D03*
%TO.P,J1,B23*%
%TO.N,B23*%
X126553840Y-123317000D03*
%TO.P,J1,B25*%
%TO.N,B25*%
X126553840Y-125857000D03*
%TO.P,J1,B27*%
%TO.N,B27*%
X126553840Y-128397000D03*
%TO.P,J1,B29*%
%TO.N,B29*%
X126553840Y-130937000D03*
%TO.P,J1,B31*%
%TO.N,B31*%
X126553840Y-133477000D03*
%TO.P,J1,B33*%
%TO.N,B33*%
X126553840Y-136017000D03*
%TO.P,J1,B35*%
%TO.N,B35*%
X126553840Y-138557000D03*
%TO.P,J1,B37*%
%TO.N,B37*%
X126553840Y-141097000D03*
%TO.P,J1,B39*%
%TO.N,B39*%
X126553840Y-143637000D03*
%TO.P,J1,B41*%
%TO.N,B41*%
X126553840Y-146177000D03*
%TO.P,J1,B43*%
%TO.N,B43*%
X126553840Y-148717000D03*
%TO.P,J1,B45*%
%TO.N,B45*%
X126553840Y-151257000D03*
%TO.P,J1,B47*%
%TO.N,B47*%
X126553840Y-153797000D03*
%TO.P,J1,B49*%
%TO.N,B49*%
X126553840Y-156337000D03*
%TD*%
%TO.P,J11,B49*%
%TO.N,B49_2*%
X126552960Y-284129480D03*
%TO.P,J11,B47*%
%TO.N,B47_2*%
X126552960Y-281589480D03*
%TO.P,J11,B45*%
%TO.N,B45_2*%
X126552960Y-279049480D03*
%TO.P,J11,B43*%
%TO.N,B43_2*%
X126552960Y-276509480D03*
%TO.P,J11,B41*%
%TO.N,B41_2*%
X126552960Y-273969480D03*
%TO.P,J11,B39*%
%TO.N,B39_2*%
X126552960Y-271429480D03*
%TO.P,J11,B37*%
%TO.N,B37_2*%
X126552960Y-268889480D03*
%TO.P,J11,B35*%
%TO.N,B35_2*%
X126552960Y-266349480D03*
%TO.P,J11,B33*%
%TO.N,B33_2*%
X126552960Y-263809480D03*
%TO.P,J11,B31*%
%TO.N,B31_2*%
X126552960Y-261269480D03*
%TO.P,J11,B29*%
%TO.N,B29_2*%
X126552960Y-258729480D03*
%TO.P,J11,B27*%
%TO.N,B27_2*%
X126552960Y-256189480D03*
%TO.P,J11,B25*%
%TO.N,B25_2*%
X126552960Y-253649480D03*
%TO.P,J11,B23*%
%TO.N,B23_2*%
X126552960Y-251109480D03*
%TO.P,J11,B21*%
%TO.N,B21_2*%
X126552960Y-248569480D03*
%TO.P,J11,B19*%
%TO.N,B19_2*%
X126552960Y-246029480D03*
%TO.P,J11,B17*%
%TO.N,B17_2*%
X126552960Y-243489480D03*
%TO.P,J11,B15*%
%TO.N,B15_2*%
X126552960Y-240949480D03*
%TO.P,J11,B13*%
%TO.N,B13_2*%
X126552960Y-238409480D03*
%TO.P,J11,B11*%
%TO.N,B11_2*%
X126552960Y-235869480D03*
%TO.P,J11,B9*%
%TO.N,B9_2*%
X126552960Y-233329480D03*
%TO.P,J11,B7*%
%TO.N,B7_2*%
X126552960Y-230789480D03*
%TO.P,J11,B5*%
%TO.N,B5_2*%
X126552960Y-228249480D03*
%TO.P,J11,B3*%
%TO.N,B3_2*%
X126552960Y-225709480D03*
%TO.P,J11,B1*%
%TO.N,B1_2*%
X126552960Y-223169480D03*
%TO.P,J11,A50*%
%TO.N,A50_2*%
X128457960Y-285399480D03*
%TO.P,J11,A48*%
%TO.N,A48_2*%
X128457960Y-282859480D03*
%TO.P,J11,A46*%
%TO.N,A46_2*%
X128457960Y-280319480D03*
%TO.P,J11,A44*%
%TO.N,A44_2*%
X128457960Y-277779480D03*
%TO.P,J11,A42*%
%TO.N,A42_2*%
X128457960Y-275239480D03*
%TO.P,J11,A40*%
%TO.N,A40_2*%
X128457960Y-272699480D03*
%TO.P,J11,A38*%
%TO.N,A38_2*%
X128457960Y-270159480D03*
%TO.P,J11,A36*%
%TO.N,A36_2*%
X128457960Y-267619480D03*
%TO.P,J11,A34*%
%TO.N,A34_2*%
X128457960Y-265079480D03*
%TO.P,J11,A32*%
%TO.N,A32_2*%
X128457960Y-262539480D03*
%TO.P,J11,A30*%
%TO.N,A30_2*%
X128457960Y-259999480D03*
%TO.P,J11,A28*%
%TO.N,A28_2*%
X128457960Y-257459480D03*
%TO.P,J11,A26*%
%TO.N,A26_2*%
X128457960Y-254919480D03*
%TO.P,J11,A24*%
%TO.N,A24_2*%
X128457960Y-252379480D03*
%TO.P,J11,A22*%
%TO.N,A22_2*%
X128457960Y-249839480D03*
%TO.P,J11,A20*%
%TO.N,A20_2*%
X128457960Y-247299480D03*
%TO.P,J11,A18*%
%TO.N,A18_2*%
X128457960Y-244759480D03*
%TO.P,J11,A16*%
%TO.N,A16_2*%
X128457960Y-242219480D03*
%TO.P,J11,A14*%
%TO.N,A14_2*%
X128457960Y-239679480D03*
%TO.P,J11,A12*%
%TO.N,A12_2*%
X128457960Y-237139480D03*
%TO.P,J11,A10*%
%TO.N,A10_2*%
X128457960Y-234599480D03*
%TO.P,J11,A8*%
%TO.N,A8_2*%
X128457960Y-232059480D03*
%TO.P,J11,A6*%
%TO.N,A6_2*%
X128457960Y-229519480D03*
%TO.P,J11,A4*%
%TO.N,A4_2*%
X128457960Y-226979480D03*
%TO.P,J11,A2*%
%TO.N,A2_2*%
X128457960Y-224439480D03*
%TO.P,J11,A49*%
%TO.N,A49_2*%
X130362960Y-284129480D03*
%TO.P,J11,A47*%
%TO.N,A47_2*%
X130362960Y-281589480D03*
%TO.P,J11,A45*%
%TO.N,A45_2*%
X130362960Y-279049480D03*
%TO.P,J11,A43*%
%TO.N,A43_2*%
X130362960Y-276509480D03*
%TO.P,J11,A41*%
%TO.N,A41_2*%
X130362960Y-273969480D03*
%TO.P,J11,A39*%
%TO.N,A39_2*%
X130362960Y-271429480D03*
%TO.P,J11,A37*%
%TO.N,A37_2*%
X130362960Y-268889480D03*
%TO.P,J11,A35*%
%TO.N,A35_2*%
X130362960Y-266349480D03*
%TO.P,J11,A33*%
%TO.N,A33_2*%
X130362960Y-263809480D03*
%TO.P,J11,A31*%
%TO.N,A31_2*%
X130362960Y-261269480D03*
%TO.P,J11,A29*%
%TO.N,A29_2*%
X130362960Y-258729480D03*
%TO.P,J11,A27*%
%TO.N,A27_2*%
X130362960Y-256189480D03*
%TO.P,J11,A25*%
%TO.N,A25_2*%
X130362960Y-253649480D03*
%TO.P,J11,A23*%
%TO.N,A23_2*%
X130362960Y-251109480D03*
%TO.P,J11,A21*%
%TO.N,A21_2*%
X130362960Y-248569480D03*
%TO.P,J11,A19*%
%TO.N,A19_2*%
X130362960Y-246029480D03*
%TO.P,J11,A17*%
%TO.N,A17_2*%
X130362960Y-243489480D03*
%TO.P,J11,A15*%
%TO.N,A15_2*%
X130362960Y-240949480D03*
%TO.P,J11,A13*%
%TO.N,A13_2*%
X130362960Y-238409480D03*
%TO.P,J11,A11*%
%TO.N,A11_2*%
X130362960Y-235869480D03*
%TO.P,J11,A9*%
%TO.N,A9_2*%
X130362960Y-233329480D03*
%TO.P,J11,A7*%
%TO.N,A7_2*%
X130362960Y-230789480D03*
%TO.P,J11,A5*%
%TO.N,A5_2*%
X130362960Y-228249480D03*
%TO.P,J11,A3*%
%TO.N,A3_2*%
X130362960Y-225709480D03*
%TO.P,J11,A1*%
%TO.N,A1_2*%
X130362960Y-223169480D03*
%TO.P,J11,B50*%
%TO.N,B50_2*%
X124647960Y-285399480D03*
%TO.P,J11,B48*%
%TO.N,B48_2*%
X124647960Y-282859480D03*
%TO.P,J11,B46*%
%TO.N,B46_2*%
X124647960Y-280319480D03*
%TO.P,J11,B44*%
%TO.N,B44_2*%
X124647960Y-277779480D03*
%TO.P,J11,B42*%
%TO.N,B42_2*%
X124647960Y-275239480D03*
%TO.P,J11,B40*%
%TO.N,B40_2*%
X124647960Y-272699480D03*
%TO.P,J11,B38*%
%TO.N,B38_2*%
X124647960Y-270159480D03*
%TO.P,J11,B36*%
%TO.N,B36_2*%
X124647960Y-267619480D03*
%TO.P,J11,B34*%
%TO.N,B34_2*%
X124647960Y-265079480D03*
%TO.P,J11,B32*%
%TO.N,B32_2*%
X124647960Y-262539480D03*
%TO.P,J11,B30*%
%TO.N,B30_2*%
X124647960Y-259999480D03*
%TO.P,J11,B28*%
%TO.N,B28_2*%
X124647960Y-257459480D03*
%TO.P,J11,B26*%
%TO.N,B26_2*%
X124647960Y-254919480D03*
%TO.P,J11,B24*%
%TO.N,B24_2*%
X124647960Y-252379480D03*
%TO.P,J11,B22*%
%TO.N,B22_2*%
X124647960Y-249839480D03*
%TO.P,J11,B20*%
%TO.N,B20_2*%
X124647960Y-247299480D03*
%TO.P,J11,B18*%
%TO.N,B18_2*%
X124647960Y-244759480D03*
%TO.P,J11,B16*%
%TO.N,B16_2*%
X124647960Y-242219480D03*
%TO.P,J11,B14*%
%TO.N,B14_2*%
X124647960Y-239679480D03*
%TO.P,J11,B12*%
%TO.N,B12_2*%
X124647960Y-237139480D03*
%TO.P,J11,B10*%
%TO.N,B10_2*%
X124647960Y-234599480D03*
%TO.P,J11,B8*%
%TO.N,B8_2*%
X124647960Y-232059480D03*
%TO.P,J11,B6*%
%TO.N,B6_2*%
X124647960Y-229519480D03*
%TO.P,J11,B4*%
%TO.N,B4_2*%
X124647960Y-226979480D03*
%TO.P,J11,B2*%
%TO.N,B2_2*%
X124647960Y-224439480D03*
D10*
%TO.P,J11,S*%
%TO.N,N/C*%
X124647960Y-218089480D03*
X124647960Y-290479480D03*
%TD*%
%TO.P,J2,S*%
%TO.N,N/C*%
X345588240Y-162683560D03*
X345588240Y-90293560D03*
D11*
%TO.P,J2,B2*%
%TO.N,B2*%
X345588240Y-96643560D03*
%TO.P,J2,B4*%
%TO.N,B4*%
X345588240Y-99183560D03*
%TO.P,J2,B6*%
%TO.N,B6*%
X345588240Y-101723560D03*
%TO.P,J2,B8*%
%TO.N,B8*%
X345588240Y-104263560D03*
%TO.P,J2,B10*%
%TO.N,B10*%
X345588240Y-106803560D03*
%TO.P,J2,B12*%
%TO.N,B12*%
X345588240Y-109343560D03*
%TO.P,J2,B14*%
%TO.N,B14*%
X345588240Y-111883560D03*
%TO.P,J2,B16*%
%TO.N,B16*%
X345588240Y-114423560D03*
%TO.P,J2,B18*%
%TO.N,B18*%
X345588240Y-116963560D03*
%TO.P,J2,B20*%
%TO.N,B20*%
X345588240Y-119503560D03*
%TO.P,J2,B22*%
%TO.N,B22*%
X345588240Y-122043560D03*
%TO.P,J2,B24*%
%TO.N,B24*%
X345588240Y-124583560D03*
%TO.P,J2,B26*%
%TO.N,B26*%
X345588240Y-127123560D03*
%TO.P,J2,B28*%
%TO.N,B28*%
X345588240Y-129663560D03*
%TO.P,J2,B30*%
%TO.N,B30*%
X345588240Y-132203560D03*
%TO.P,J2,B32*%
%TO.N,B32*%
X345588240Y-134743560D03*
%TO.P,J2,B34*%
%TO.N,B34*%
X345588240Y-137283560D03*
%TO.P,J2,B36*%
%TO.N,B36*%
X345588240Y-139823560D03*
%TO.P,J2,B38*%
%TO.N,B38*%
X345588240Y-142363560D03*
%TO.P,J2,B40*%
%TO.N,B40*%
X345588240Y-144903560D03*
%TO.P,J2,B42*%
%TO.N,B42*%
X345588240Y-147443560D03*
%TO.P,J2,B44*%
%TO.N,B44*%
X345588240Y-149983560D03*
%TO.P,J2,B46*%
%TO.N,B46*%
X345588240Y-152523560D03*
%TO.P,J2,B48*%
%TO.N,B48*%
X345588240Y-155063560D03*
%TO.P,J2,B50*%
%TO.N,B50*%
X345588240Y-157603560D03*
%TO.P,J2,A1*%
%TO.N,A1*%
X339873240Y-95373560D03*
%TO.P,J2,A3*%
%TO.N,A3*%
X339873240Y-97913560D03*
%TO.P,J2,A5*%
%TO.N,A5*%
X339873240Y-100453560D03*
%TO.P,J2,A7*%
%TO.N,A7*%
X339873240Y-102993560D03*
%TO.P,J2,A9*%
%TO.N,A9*%
X339873240Y-105533560D03*
%TO.P,J2,A11*%
%TO.N,A11*%
X339873240Y-108073560D03*
%TO.P,J2,A13*%
%TO.N,A13*%
X339873240Y-110613560D03*
%TO.P,J2,A15*%
%TO.N,A15*%
X339873240Y-113153560D03*
%TO.P,J2,A17*%
%TO.N,A17*%
X339873240Y-115693560D03*
%TO.P,J2,A19*%
%TO.N,A19*%
X339873240Y-118233560D03*
%TO.P,J2,A21*%
%TO.N,A21*%
X339873240Y-120773560D03*
%TO.P,J2,A23*%
%TO.N,A23*%
X339873240Y-123313560D03*
%TO.P,J2,A25*%
%TO.N,A25*%
X339873240Y-125853560D03*
%TO.P,J2,A27*%
%TO.N,A27*%
X339873240Y-128393560D03*
%TO.P,J2,A29*%
%TO.N,A29*%
X339873240Y-130933560D03*
%TO.P,J2,A31*%
%TO.N,A31*%
X339873240Y-133473560D03*
%TO.P,J2,A33*%
%TO.N,A33*%
X339873240Y-136013560D03*
%TO.P,J2,A35*%
%TO.N,A35*%
X339873240Y-138553560D03*
%TO.P,J2,A37*%
%TO.N,A37*%
X339873240Y-141093560D03*
%TO.P,J2,A39*%
%TO.N,A39*%
X339873240Y-143633560D03*
%TO.P,J2,A41*%
%TO.N,A41*%
X339873240Y-146173560D03*
%TO.P,J2,A43*%
%TO.N,A43*%
X339873240Y-148713560D03*
%TO.P,J2,A45*%
%TO.N,A45*%
X339873240Y-151253560D03*
%TO.P,J2,A47*%
%TO.N,A47*%
X339873240Y-153793560D03*
%TO.P,J2,A49*%
%TO.N,A49*%
X339873240Y-156333560D03*
%TO.P,J2,A2*%
%TO.N,A2*%
X341778240Y-96643560D03*
%TO.P,J2,A4*%
%TO.N,A4*%
X341778240Y-99183560D03*
%TO.P,J2,A6*%
%TO.N,A6*%
X341778240Y-101723560D03*
%TO.P,J2,A8*%
%TO.N,A8*%
X341778240Y-104263560D03*
%TO.P,J2,A10*%
%TO.N,A10*%
X341778240Y-106803560D03*
%TO.P,J2,A12*%
%TO.N,A12*%
X341778240Y-109343560D03*
%TO.P,J2,A14*%
%TO.N,A14*%
X341778240Y-111883560D03*
%TO.P,J2,A16*%
%TO.N,A16*%
X341778240Y-114423560D03*
%TO.P,J2,A18*%
%TO.N,A18*%
X341778240Y-116963560D03*
%TO.P,J2,A20*%
%TO.N,A20*%
X341778240Y-119503560D03*
%TO.P,J2,A22*%
%TO.N,A22*%
X341778240Y-122043560D03*
%TO.P,J2,A24*%
%TO.N,A24*%
X341778240Y-124583560D03*
%TO.P,J2,A26*%
%TO.N,A26*%
X341778240Y-127123560D03*
%TO.P,J2,A28*%
%TO.N,A28*%
X341778240Y-129663560D03*
%TO.P,J2,A30*%
%TO.N,A30*%
X341778240Y-132203560D03*
%TO.P,J2,A32*%
%TO.N,A32*%
X341778240Y-134743560D03*
%TO.P,J2,A34*%
%TO.N,A34*%
X341778240Y-137283560D03*
%TO.P,J2,A36*%
%TO.N,A36*%
X341778240Y-139823560D03*
%TO.P,J2,A38*%
%TO.N,A38*%
X341778240Y-142363560D03*
%TO.P,J2,A40*%
%TO.N,A40*%
X341778240Y-144903560D03*
%TO.P,J2,A42*%
%TO.N,A42*%
X341778240Y-147443560D03*
%TO.P,J2,A44*%
%TO.N,A44*%
X341778240Y-149983560D03*
%TO.P,J2,A46*%
%TO.N,A46*%
X341778240Y-152523560D03*
%TO.P,J2,A48*%
%TO.N,A48*%
X341778240Y-155063560D03*
%TO.P,J2,A50*%
%TO.N,A50*%
X341778240Y-157603560D03*
%TO.P,J2,B1*%
%TO.N,B1*%
X343683240Y-95373560D03*
%TO.P,J2,B3*%
%TO.N,B3*%
X343683240Y-97913560D03*
%TO.P,J2,B5*%
%TO.N,B5*%
X343683240Y-100453560D03*
%TO.P,J2,B7*%
%TO.N,B7*%
X343683240Y-102993560D03*
%TO.P,J2,B9*%
%TO.N,B9*%
X343683240Y-105533560D03*
%TO.P,J2,B11*%
%TO.N,B11*%
X343683240Y-108073560D03*
%TO.P,J2,B13*%
%TO.N,B13*%
X343683240Y-110613560D03*
%TO.P,J2,B15*%
%TO.N,B15*%
X343683240Y-113153560D03*
%TO.P,J2,B17*%
%TO.N,B17*%
X343683240Y-115693560D03*
%TO.P,J2,B19*%
%TO.N,B19*%
X343683240Y-118233560D03*
%TO.P,J2,B21*%
%TO.N,B21*%
X343683240Y-120773560D03*
%TO.P,J2,B23*%
%TO.N,B23*%
X343683240Y-123313560D03*
%TO.P,J2,B25*%
%TO.N,B25*%
X343683240Y-125853560D03*
%TO.P,J2,B27*%
%TO.N,B27*%
X343683240Y-128393560D03*
%TO.P,J2,B29*%
%TO.N,B29*%
X343683240Y-130933560D03*
%TO.P,J2,B31*%
%TO.N,B31*%
X343683240Y-133473560D03*
%TO.P,J2,B33*%
%TO.N,B33*%
X343683240Y-136013560D03*
%TO.P,J2,B35*%
%TO.N,B35*%
X343683240Y-138553560D03*
%TO.P,J2,B37*%
%TO.N,B37*%
X343683240Y-141093560D03*
%TO.P,J2,B39*%
%TO.N,B39*%
X343683240Y-143633560D03*
%TO.P,J2,B41*%
%TO.N,B41*%
X343683240Y-146173560D03*
%TO.P,J2,B43*%
%TO.N,B43*%
X343683240Y-148713560D03*
%TO.P,J2,B45*%
%TO.N,B45*%
X343683240Y-151253560D03*
%TO.P,J2,B47*%
%TO.N,B47*%
X343683240Y-153793560D03*
%TO.P,J2,B49*%
%TO.N,B49*%
X343683240Y-156333560D03*
%TD*%
D10*
%TO.P,J12,S*%
%TO.N,N/C*%
X345587320Y-290474400D03*
X345587320Y-218084400D03*
D11*
%TO.P,J12,B2*%
%TO.N,B2_2*%
X345587320Y-224434400D03*
%TO.P,J12,B4*%
%TO.N,B4_2*%
X345587320Y-226974400D03*
%TO.P,J12,B6*%
%TO.N,B6_2*%
X345587320Y-229514400D03*
%TO.P,J12,B8*%
%TO.N,B8_2*%
X345587320Y-232054400D03*
%TO.P,J12,B10*%
%TO.N,B10_2*%
X345587320Y-234594400D03*
%TO.P,J12,B12*%
%TO.N,B12_2*%
X345587320Y-237134400D03*
%TO.P,J12,B14*%
%TO.N,B14_2*%
X345587320Y-239674400D03*
%TO.P,J12,B16*%
%TO.N,B16_2*%
X345587320Y-242214400D03*
%TO.P,J12,B18*%
%TO.N,B18_2*%
X345587320Y-244754400D03*
%TO.P,J12,B20*%
%TO.N,B20_2*%
X345587320Y-247294400D03*
%TO.P,J12,B22*%
%TO.N,B22_2*%
X345587320Y-249834400D03*
%TO.P,J12,B24*%
%TO.N,B24_2*%
X345587320Y-252374400D03*
%TO.P,J12,B26*%
%TO.N,B26_2*%
X345587320Y-254914400D03*
%TO.P,J12,B28*%
%TO.N,B28_2*%
X345587320Y-257454400D03*
%TO.P,J12,B30*%
%TO.N,B30_2*%
X345587320Y-259994400D03*
%TO.P,J12,B32*%
%TO.N,B32_2*%
X345587320Y-262534400D03*
%TO.P,J12,B34*%
%TO.N,B34_2*%
X345587320Y-265074400D03*
%TO.P,J12,B36*%
%TO.N,B36_2*%
X345587320Y-267614400D03*
%TO.P,J12,B38*%
%TO.N,B38_2*%
X345587320Y-270154400D03*
%TO.P,J12,B40*%
%TO.N,B40_2*%
X345587320Y-272694400D03*
%TO.P,J12,B42*%
%TO.N,B42_2*%
X345587320Y-275234400D03*
%TO.P,J12,B44*%
%TO.N,B44_2*%
X345587320Y-277774400D03*
%TO.P,J12,B46*%
%TO.N,B46_2*%
X345587320Y-280314400D03*
%TO.P,J12,B48*%
%TO.N,B48_2*%
X345587320Y-282854400D03*
%TO.P,J12,B50*%
%TO.N,B50_2*%
X345587320Y-285394400D03*
%TO.P,J12,A1*%
%TO.N,A1_2*%
X339872320Y-223164400D03*
%TO.P,J12,A3*%
%TO.N,A3_2*%
X339872320Y-225704400D03*
%TO.P,J12,A5*%
%TO.N,A5_2*%
X339872320Y-228244400D03*
%TO.P,J12,A7*%
%TO.N,A7_2*%
X339872320Y-230784400D03*
%TO.P,J12,A9*%
%TO.N,A9_2*%
X339872320Y-233324400D03*
%TO.P,J12,A11*%
%TO.N,A11_2*%
X339872320Y-235864400D03*
%TO.P,J12,A13*%
%TO.N,A13_2*%
X339872320Y-238404400D03*
%TO.P,J12,A15*%
%TO.N,A15_2*%
X339872320Y-240944400D03*
%TO.P,J12,A17*%
%TO.N,A17_2*%
X339872320Y-243484400D03*
%TO.P,J12,A19*%
%TO.N,A19_2*%
X339872320Y-246024400D03*
%TO.P,J12,A21*%
%TO.N,A21_2*%
X339872320Y-248564400D03*
%TO.P,J12,A23*%
%TO.N,A23_2*%
X339872320Y-251104400D03*
%TO.P,J12,A25*%
%TO.N,A25_2*%
X339872320Y-253644400D03*
%TO.P,J12,A27*%
%TO.N,A27_2*%
X339872320Y-256184400D03*
%TO.P,J12,A29*%
%TO.N,A29_2*%
X339872320Y-258724400D03*
%TO.P,J12,A31*%
%TO.N,A31_2*%
X339872320Y-261264400D03*
%TO.P,J12,A33*%
%TO.N,A33_2*%
X339872320Y-263804400D03*
%TO.P,J12,A35*%
%TO.N,A35_2*%
X339872320Y-266344400D03*
%TO.P,J12,A37*%
%TO.N,A37_2*%
X339872320Y-268884400D03*
%TO.P,J12,A39*%
%TO.N,A39_2*%
X339872320Y-271424400D03*
%TO.P,J12,A41*%
%TO.N,A41_2*%
X339872320Y-273964400D03*
%TO.P,J12,A43*%
%TO.N,A43_2*%
X339872320Y-276504400D03*
%TO.P,J12,A45*%
%TO.N,A45_2*%
X339872320Y-279044400D03*
%TO.P,J12,A47*%
%TO.N,A47_2*%
X339872320Y-281584400D03*
%TO.P,J12,A49*%
%TO.N,A49_2*%
X339872320Y-284124400D03*
%TO.P,J12,A2*%
%TO.N,A2_2*%
X341777320Y-224434400D03*
%TO.P,J12,A4*%
%TO.N,A4_2*%
X341777320Y-226974400D03*
%TO.P,J12,A6*%
%TO.N,A6_2*%
X341777320Y-229514400D03*
%TO.P,J12,A8*%
%TO.N,A8_2*%
X341777320Y-232054400D03*
%TO.P,J12,A10*%
%TO.N,A10_2*%
X341777320Y-234594400D03*
%TO.P,J12,A12*%
%TO.N,A12_2*%
X341777320Y-237134400D03*
%TO.P,J12,A14*%
%TO.N,A14_2*%
X341777320Y-239674400D03*
%TO.P,J12,A16*%
%TO.N,A16_2*%
X341777320Y-242214400D03*
%TO.P,J12,A18*%
%TO.N,A18_2*%
X341777320Y-244754400D03*
%TO.P,J12,A20*%
%TO.N,A20_2*%
X341777320Y-247294400D03*
%TO.P,J12,A22*%
%TO.N,A22_2*%
X341777320Y-249834400D03*
%TO.P,J12,A24*%
%TO.N,A24_2*%
X341777320Y-252374400D03*
%TO.P,J12,A26*%
%TO.N,A26_2*%
X341777320Y-254914400D03*
%TO.P,J12,A28*%
%TO.N,A28_2*%
X341777320Y-257454400D03*
%TO.P,J12,A30*%
%TO.N,A30_2*%
X341777320Y-259994400D03*
%TO.P,J12,A32*%
%TO.N,A32_2*%
X341777320Y-262534400D03*
%TO.P,J12,A34*%
%TO.N,A34_2*%
X341777320Y-265074400D03*
%TO.P,J12,A36*%
%TO.N,A36_2*%
X341777320Y-267614400D03*
%TO.P,J12,A38*%
%TO.N,A38_2*%
X341777320Y-270154400D03*
%TO.P,J12,A40*%
%TO.N,A40_2*%
X341777320Y-272694400D03*
%TO.P,J12,A42*%
%TO.N,A42_2*%
X341777320Y-275234400D03*
%TO.P,J12,A44*%
%TO.N,A44_2*%
X341777320Y-277774400D03*
%TO.P,J12,A46*%
%TO.N,A46_2*%
X341777320Y-280314400D03*
%TO.P,J12,A48*%
%TO.N,A48_2*%
X341777320Y-282854400D03*
%TO.P,J12,A50*%
%TO.N,A50_2*%
X341777320Y-285394400D03*
%TO.P,J12,B1*%
%TO.N,B1_2*%
X343682320Y-223164400D03*
%TO.P,J12,B3*%
%TO.N,B3_2*%
X343682320Y-225704400D03*
%TO.P,J12,B5*%
%TO.N,B5_2*%
X343682320Y-228244400D03*
%TO.P,J12,B7*%
%TO.N,B7_2*%
X343682320Y-230784400D03*
%TO.P,J12,B9*%
%TO.N,B9_2*%
X343682320Y-233324400D03*
%TO.P,J12,B11*%
%TO.N,B11_2*%
X343682320Y-235864400D03*
%TO.P,J12,B13*%
%TO.N,B13_2*%
X343682320Y-238404400D03*
%TO.P,J12,B15*%
%TO.N,B15_2*%
X343682320Y-240944400D03*
%TO.P,J12,B17*%
%TO.N,B17_2*%
X343682320Y-243484400D03*
%TO.P,J12,B19*%
%TO.N,B19_2*%
X343682320Y-246024400D03*
%TO.P,J12,B21*%
%TO.N,B21_2*%
X343682320Y-248564400D03*
%TO.P,J12,B23*%
%TO.N,B23_2*%
X343682320Y-251104400D03*
%TO.P,J12,B25*%
%TO.N,B25_2*%
X343682320Y-253644400D03*
%TO.P,J12,B27*%
%TO.N,B27_2*%
X343682320Y-256184400D03*
%TO.P,J12,B29*%
%TO.N,B29_2*%
X343682320Y-258724400D03*
%TO.P,J12,B31*%
%TO.N,B31_2*%
X343682320Y-261264400D03*
%TO.P,J12,B33*%
%TO.N,B33_2*%
X343682320Y-263804400D03*
%TO.P,J12,B35*%
%TO.N,B35_2*%
X343682320Y-266344400D03*
%TO.P,J12,B37*%
%TO.N,B37_2*%
X343682320Y-268884400D03*
%TO.P,J12,B39*%
%TO.N,B39_2*%
X343682320Y-271424400D03*
%TO.P,J12,B41*%
%TO.N,B41_2*%
X343682320Y-273964400D03*
%TO.P,J12,B43*%
%TO.N,B43_2*%
X343682320Y-276504400D03*
%TO.P,J12,B45*%
%TO.N,B45_2*%
X343682320Y-279044400D03*
%TO.P,J12,B47*%
%TO.N,B47_2*%
X343682320Y-281584400D03*
%TO.P,J12,B49*%
%TO.N,B49_2*%
X343682320Y-284124400D03*
%TD*%
D12*
%TO.P,J3,25*%
%TO.N,B49*%
X138488840Y-156320860D03*
%TO.P,J3,24*%
%TO.N,B47*%
X138488840Y-153780860D03*
%TO.P,J3,23*%
%TO.N,B45*%
X138488840Y-151240860D03*
%TO.P,J3,22*%
%TO.N,B43*%
X138488840Y-148700860D03*
%TO.P,J3,21*%
%TO.N,B41*%
X138488840Y-146160860D03*
%TO.P,J3,20*%
%TO.N,B39*%
X138488840Y-143620860D03*
%TO.P,J3,19*%
%TO.N,B37*%
X138488840Y-141080860D03*
%TO.P,J3,18*%
%TO.N,B35*%
X138488840Y-138540860D03*
%TO.P,J3,17*%
%TO.N,B33*%
X138488840Y-136000860D03*
%TO.P,J3,16*%
%TO.N,B31*%
X138488840Y-133460860D03*
%TO.P,J3,15*%
%TO.N,B29*%
X138488840Y-130920860D03*
%TO.P,J3,14*%
%TO.N,B27*%
X138488840Y-128380860D03*
%TO.P,J3,13*%
%TO.N,B25*%
X138488840Y-125840860D03*
%TO.P,J3,12*%
%TO.N,B23*%
X138488840Y-123300860D03*
%TO.P,J3,11*%
%TO.N,B21*%
X138488840Y-120760860D03*
%TO.P,J3,10*%
%TO.N,B19*%
X138488840Y-118220860D03*
%TO.P,J3,9*%
%TO.N,B17*%
X138488840Y-115680860D03*
%TO.P,J3,8*%
%TO.N,B15*%
X138488840Y-113140860D03*
%TO.P,J3,7*%
%TO.N,B13*%
X138488840Y-110600860D03*
%TO.P,J3,6*%
%TO.N,B11*%
X138488840Y-108060860D03*
%TO.P,J3,5*%
%TO.N,B9*%
X138488840Y-105520860D03*
%TO.P,J3,4*%
%TO.N,B7*%
X138488840Y-102980860D03*
%TO.P,J3,3*%
%TO.N,B5*%
X138488840Y-100440860D03*
%TO.P,J3,2*%
%TO.N,B3*%
X138488840Y-97900860D03*
D13*
%TO.P,J3,1*%
%TO.N,B1*%
X138488840Y-95360860D03*
%TD*%
%TO.P,J5,1*%
%TO.N,B2*%
X134763840Y-96635860D03*
D12*
%TO.P,J5,2*%
%TO.N,B4*%
X134763840Y-99175860D03*
%TO.P,J5,3*%
%TO.N,B6*%
X134763840Y-101715860D03*
%TO.P,J5,4*%
%TO.N,B8*%
X134763840Y-104255860D03*
%TO.P,J5,5*%
%TO.N,B10*%
X134763840Y-106795860D03*
%TO.P,J5,6*%
%TO.N,B12*%
X134763840Y-109335860D03*
%TO.P,J5,7*%
%TO.N,B14*%
X134763840Y-111875860D03*
%TO.P,J5,8*%
%TO.N,B16*%
X134763840Y-114415860D03*
%TO.P,J5,9*%
%TO.N,B18*%
X134763840Y-116955860D03*
%TO.P,J5,10*%
%TO.N,B20*%
X134763840Y-119495860D03*
%TO.P,J5,11*%
%TO.N,B22*%
X134763840Y-122035860D03*
%TO.P,J5,12*%
%TO.N,B24*%
X134763840Y-124575860D03*
%TO.P,J5,13*%
%TO.N,B26*%
X134763840Y-127115860D03*
%TO.P,J5,14*%
%TO.N,B28*%
X134763840Y-129655860D03*
%TO.P,J5,15*%
%TO.N,B30*%
X134763840Y-132195860D03*
%TO.P,J5,16*%
%TO.N,B32*%
X134763840Y-134735860D03*
%TO.P,J5,17*%
%TO.N,B34*%
X134763840Y-137275860D03*
%TO.P,J5,18*%
%TO.N,B36*%
X134763840Y-139815860D03*
%TO.P,J5,19*%
%TO.N,B38*%
X134763840Y-142355860D03*
%TO.P,J5,20*%
%TO.N,B40*%
X134763840Y-144895860D03*
%TO.P,J5,21*%
%TO.N,B42*%
X134763840Y-147435860D03*
%TO.P,J5,22*%
%TO.N,B44*%
X134763840Y-149975860D03*
%TO.P,J5,23*%
%TO.N,B46*%
X134763840Y-152515860D03*
%TO.P,J5,24*%
%TO.N,B48*%
X134763840Y-155055860D03*
%TO.P,J5,25*%
%TO.N,B50*%
X134763840Y-157595860D03*
%TD*%
%TO.P,J4,25*%
%TO.N,A49*%
X145938840Y-156320860D03*
%TO.P,J4,24*%
%TO.N,A47*%
X145938840Y-153780860D03*
%TO.P,J4,23*%
%TO.N,A45*%
X145938840Y-151240860D03*
%TO.P,J4,22*%
%TO.N,A43*%
X145938840Y-148700860D03*
%TO.P,J4,21*%
%TO.N,A41*%
X145938840Y-146160860D03*
%TO.P,J4,20*%
%TO.N,A39*%
X145938840Y-143620860D03*
%TO.P,J4,19*%
%TO.N,A37*%
X145938840Y-141080860D03*
%TO.P,J4,18*%
%TO.N,A35*%
X145938840Y-138540860D03*
%TO.P,J4,17*%
%TO.N,A33*%
X145938840Y-136000860D03*
%TO.P,J4,16*%
%TO.N,A31*%
X145938840Y-133460860D03*
%TO.P,J4,15*%
%TO.N,A29*%
X145938840Y-130920860D03*
%TO.P,J4,14*%
%TO.N,A27*%
X145938840Y-128380860D03*
%TO.P,J4,13*%
%TO.N,A25*%
X145938840Y-125840860D03*
%TO.P,J4,12*%
%TO.N,A23*%
X145938840Y-123300860D03*
%TO.P,J4,11*%
%TO.N,A21*%
X145938840Y-120760860D03*
%TO.P,J4,10*%
%TO.N,A19*%
X145938840Y-118220860D03*
%TO.P,J4,9*%
%TO.N,A17*%
X145938840Y-115680860D03*
%TO.P,J4,8*%
%TO.N,A15*%
X145938840Y-113140860D03*
%TO.P,J4,7*%
%TO.N,A13*%
X145938840Y-110600860D03*
%TO.P,J4,6*%
%TO.N,A11*%
X145938840Y-108060860D03*
%TO.P,J4,5*%
%TO.N,A9*%
X145938840Y-105520860D03*
%TO.P,J4,4*%
%TO.N,A7*%
X145938840Y-102980860D03*
%TO.P,J4,3*%
%TO.N,A5*%
X145938840Y-100440860D03*
%TO.P,J4,2*%
%TO.N,A3*%
X145938840Y-97900860D03*
D13*
%TO.P,J4,1*%
%TO.N,A1*%
X145938840Y-95360860D03*
%TD*%
%TO.P,J6,1*%
%TO.N,A2*%
X142213840Y-96635860D03*
D12*
%TO.P,J6,2*%
%TO.N,A4*%
X142213840Y-99175860D03*
%TO.P,J6,3*%
%TO.N,A6*%
X142213840Y-101715860D03*
%TO.P,J6,4*%
%TO.N,A8*%
X142213840Y-104255860D03*
%TO.P,J6,5*%
%TO.N,A10*%
X142213840Y-106795860D03*
%TO.P,J6,6*%
%TO.N,A12*%
X142213840Y-109335860D03*
%TO.P,J6,7*%
%TO.N,A14*%
X142213840Y-111875860D03*
%TO.P,J6,8*%
%TO.N,A16*%
X142213840Y-114415860D03*
%TO.P,J6,9*%
%TO.N,A18*%
X142213840Y-116955860D03*
%TO.P,J6,10*%
%TO.N,A20*%
X142213840Y-119495860D03*
%TO.P,J6,11*%
%TO.N,A22*%
X142213840Y-122035860D03*
%TO.P,J6,12*%
%TO.N,A24*%
X142213840Y-124575860D03*
%TO.P,J6,13*%
%TO.N,A26*%
X142213840Y-127115860D03*
%TO.P,J6,14*%
%TO.N,A28*%
X142213840Y-129655860D03*
%TO.P,J6,15*%
%TO.N,A30*%
X142213840Y-132195860D03*
%TO.P,J6,16*%
%TO.N,A32*%
X142213840Y-134735860D03*
%TO.P,J6,17*%
%TO.N,A34*%
X142213840Y-137275860D03*
%TO.P,J6,18*%
%TO.N,A36*%
X142213840Y-139815860D03*
%TO.P,J6,19*%
%TO.N,A38*%
X142213840Y-142355860D03*
%TO.P,J6,20*%
%TO.N,A40*%
X142213840Y-144895860D03*
%TO.P,J6,21*%
%TO.N,A42*%
X142213840Y-147435860D03*
%TO.P,J6,22*%
%TO.N,A44*%
X142213840Y-149975860D03*
%TO.P,J6,23*%
%TO.N,A46*%
X142213840Y-152515860D03*
%TO.P,J6,24*%
%TO.N,A48*%
X142213840Y-155055860D03*
%TO.P,J6,25*%
%TO.N,A50*%
X142213840Y-157595860D03*
%TD*%
D14*
%TO.P,H2,S*%
%TO.N,N/C*%
X127274000Y-75722360D03*
X132274000Y-75722360D03*
X132274000Y-83222360D03*
X127274000Y-83222360D03*
%TD*%
%TO.P,H1,S*%
%TO.N,N/C*%
X127274000Y-305122360D03*
X132274000Y-305122360D03*
X132274000Y-297622360D03*
X127274000Y-297622360D03*
%TD*%
D12*
%TO.P,J13,25*%
%TO.N,B49_2*%
X138488840Y-284123500D03*
%TO.P,J13,24*%
%TO.N,B47_2*%
X138488840Y-281583500D03*
%TO.P,J13,23*%
%TO.N,B45_2*%
X138488840Y-279043500D03*
%TO.P,J13,22*%
%TO.N,B43_2*%
X138488840Y-276503500D03*
%TO.P,J13,21*%
%TO.N,B41_2*%
X138488840Y-273963500D03*
%TO.P,J13,20*%
%TO.N,B39_2*%
X138488840Y-271423500D03*
%TO.P,J13,19*%
%TO.N,B37_2*%
X138488840Y-268883500D03*
%TO.P,J13,18*%
%TO.N,B35_2*%
X138488840Y-266343500D03*
%TO.P,J13,17*%
%TO.N,B33_2*%
X138488840Y-263803500D03*
%TO.P,J13,16*%
%TO.N,B31_2*%
X138488840Y-261263500D03*
%TO.P,J13,15*%
%TO.N,B29_2*%
X138488840Y-258723500D03*
%TO.P,J13,14*%
%TO.N,B27_2*%
X138488840Y-256183500D03*
%TO.P,J13,13*%
%TO.N,B25_2*%
X138488840Y-253643500D03*
%TO.P,J13,12*%
%TO.N,B23_2*%
X138488840Y-251103500D03*
%TO.P,J13,11*%
%TO.N,B21_2*%
X138488840Y-248563500D03*
%TO.P,J13,10*%
%TO.N,B19_2*%
X138488840Y-246023500D03*
%TO.P,J13,9*%
%TO.N,B17_2*%
X138488840Y-243483500D03*
%TO.P,J13,8*%
%TO.N,B15_2*%
X138488840Y-240943500D03*
%TO.P,J13,7*%
%TO.N,B13_2*%
X138488840Y-238403500D03*
%TO.P,J13,6*%
%TO.N,B11_2*%
X138488840Y-235863500D03*
%TO.P,J13,5*%
%TO.N,B9_2*%
X138488840Y-233323500D03*
%TO.P,J13,4*%
%TO.N,B7_2*%
X138488840Y-230783500D03*
%TO.P,J13,3*%
%TO.N,B5_2*%
X138488840Y-228243500D03*
%TO.P,J13,2*%
%TO.N,B3_2*%
X138488840Y-225703500D03*
D13*
%TO.P,J13,1*%
%TO.N,B1_2*%
X138488840Y-223163500D03*
%TD*%
D12*
%TO.P,J14,25*%
%TO.N,A49_2*%
X145938840Y-284123500D03*
%TO.P,J14,24*%
%TO.N,A47_2*%
X145938840Y-281583500D03*
%TO.P,J14,23*%
%TO.N,A45_2*%
X145938840Y-279043500D03*
%TO.P,J14,22*%
%TO.N,A43_2*%
X145938840Y-276503500D03*
%TO.P,J14,21*%
%TO.N,A41_2*%
X145938840Y-273963500D03*
%TO.P,J14,20*%
%TO.N,A39_2*%
X145938840Y-271423500D03*
%TO.P,J14,19*%
%TO.N,A37_2*%
X145938840Y-268883500D03*
%TO.P,J14,18*%
%TO.N,A35_2*%
X145938840Y-266343500D03*
%TO.P,J14,17*%
%TO.N,A33_2*%
X145938840Y-263803500D03*
%TO.P,J14,16*%
%TO.N,A31_2*%
X145938840Y-261263500D03*
%TO.P,J14,15*%
%TO.N,A29_2*%
X145938840Y-258723500D03*
%TO.P,J14,14*%
%TO.N,A27_2*%
X145938840Y-256183500D03*
%TO.P,J14,13*%
%TO.N,A25_2*%
X145938840Y-253643500D03*
%TO.P,J14,12*%
%TO.N,A23_2*%
X145938840Y-251103500D03*
%TO.P,J14,11*%
%TO.N,A21_2*%
X145938840Y-248563500D03*
%TO.P,J14,10*%
%TO.N,A19_2*%
X145938840Y-246023500D03*
%TO.P,J14,9*%
%TO.N,A17_2*%
X145938840Y-243483500D03*
%TO.P,J14,8*%
%TO.N,A15_2*%
X145938840Y-240943500D03*
%TO.P,J14,7*%
%TO.N,A13_2*%
X145938840Y-238403500D03*
%TO.P,J14,6*%
%TO.N,A11_2*%
X145938840Y-235863500D03*
%TO.P,J14,5*%
%TO.N,A9_2*%
X145938840Y-233323500D03*
%TO.P,J14,4*%
%TO.N,A7_2*%
X145938840Y-230783500D03*
%TO.P,J14,3*%
%TO.N,A5_2*%
X145938840Y-228243500D03*
%TO.P,J14,2*%
%TO.N,A3_2*%
X145938840Y-225703500D03*
D13*
%TO.P,J14,1*%
%TO.N,A1_2*%
X145938840Y-223163500D03*
%TD*%
%TO.P,J15,1*%
%TO.N,B2_2*%
X134763840Y-224438500D03*
D12*
%TO.P,J15,2*%
%TO.N,B4_2*%
X134763840Y-226978500D03*
%TO.P,J15,3*%
%TO.N,B6_2*%
X134763840Y-229518500D03*
%TO.P,J15,4*%
%TO.N,B8_2*%
X134763840Y-232058500D03*
%TO.P,J15,5*%
%TO.N,B10_2*%
X134763840Y-234598500D03*
%TO.P,J15,6*%
%TO.N,B12_2*%
X134763840Y-237138500D03*
%TO.P,J15,7*%
%TO.N,B14_2*%
X134763840Y-239678500D03*
%TO.P,J15,8*%
%TO.N,B16_2*%
X134763840Y-242218500D03*
%TO.P,J15,9*%
%TO.N,B18_2*%
X134763840Y-244758500D03*
%TO.P,J15,10*%
%TO.N,B20_2*%
X134763840Y-247298500D03*
%TO.P,J15,11*%
%TO.N,B22_2*%
X134763840Y-249838500D03*
%TO.P,J15,12*%
%TO.N,B24_2*%
X134763840Y-252378500D03*
%TO.P,J15,13*%
%TO.N,B26_2*%
X134763840Y-254918500D03*
%TO.P,J15,14*%
%TO.N,B28_2*%
X134763840Y-257458500D03*
%TO.P,J15,15*%
%TO.N,B30_2*%
X134763840Y-259998500D03*
%TO.P,J15,16*%
%TO.N,B32_2*%
X134763840Y-262538500D03*
%TO.P,J15,17*%
%TO.N,B34_2*%
X134763840Y-265078500D03*
%TO.P,J15,18*%
%TO.N,B36_2*%
X134763840Y-267618500D03*
%TO.P,J15,19*%
%TO.N,B38_2*%
X134763840Y-270158500D03*
%TO.P,J15,20*%
%TO.N,B40_2*%
X134763840Y-272698500D03*
%TO.P,J15,21*%
%TO.N,B42_2*%
X134763840Y-275238500D03*
%TO.P,J15,22*%
%TO.N,B44_2*%
X134763840Y-277778500D03*
%TO.P,J15,23*%
%TO.N,B46_2*%
X134763840Y-280318500D03*
%TO.P,J15,24*%
%TO.N,B48_2*%
X134763840Y-282858500D03*
%TO.P,J15,25*%
%TO.N,B50_2*%
X134763840Y-285398500D03*
%TD*%
D13*
%TO.P,J16,1*%
%TO.N,A2_2*%
X142213840Y-224438500D03*
D12*
%TO.P,J16,2*%
%TO.N,A4_2*%
X142213840Y-226978500D03*
%TO.P,J16,3*%
%TO.N,A6_2*%
X142213840Y-229518500D03*
%TO.P,J16,4*%
%TO.N,A8_2*%
X142213840Y-232058500D03*
%TO.P,J16,5*%
%TO.N,A10_2*%
X142213840Y-234598500D03*
%TO.P,J16,6*%
%TO.N,A12_2*%
X142213840Y-237138500D03*
%TO.P,J16,7*%
%TO.N,A14_2*%
X142213840Y-239678500D03*
%TO.P,J16,8*%
%TO.N,A16_2*%
X142213840Y-242218500D03*
%TO.P,J16,9*%
%TO.N,A18_2*%
X142213840Y-244758500D03*
%TO.P,J16,10*%
%TO.N,A20_2*%
X142213840Y-247298500D03*
%TO.P,J16,11*%
%TO.N,A22_2*%
X142213840Y-249838500D03*
%TO.P,J16,12*%
%TO.N,A24_2*%
X142213840Y-252378500D03*
%TO.P,J16,13*%
%TO.N,A26_2*%
X142213840Y-254918500D03*
%TO.P,J16,14*%
%TO.N,A28_2*%
X142213840Y-257458500D03*
%TO.P,J16,15*%
%TO.N,A30_2*%
X142213840Y-259998500D03*
%TO.P,J16,16*%
%TO.N,A32_2*%
X142213840Y-262538500D03*
%TO.P,J16,17*%
%TO.N,A34_2*%
X142213840Y-265078500D03*
%TO.P,J16,18*%
%TO.N,A36_2*%
X142213840Y-267618500D03*
%TO.P,J16,19*%
%TO.N,A38_2*%
X142213840Y-270158500D03*
%TO.P,J16,20*%
%TO.N,A40_2*%
X142213840Y-272698500D03*
%TO.P,J16,21*%
%TO.N,A42_2*%
X142213840Y-275238500D03*
%TO.P,J16,22*%
%TO.N,A44_2*%
X142213840Y-277778500D03*
%TO.P,J16,23*%
%TO.N,A46_2*%
X142213840Y-280318500D03*
%TO.P,J16,24*%
%TO.N,A48_2*%
X142213840Y-282858500D03*
%TO.P,J16,25*%
%TO.N,A50_2*%
X142213840Y-285398500D03*
%TD*%
D15*
%TO.N,A49*%
X339871460Y-156261860D02*
X339871460Y-156182260D01*
D16*
%TO.N,B50*%
X124646300Y-157593400D02*
X126316300Y-157593400D01*
X132751300Y-157598400D02*
X134761300Y-157598400D01*
X131486300Y-158863400D02*
X132751300Y-157598400D01*
X127586300Y-158863400D02*
X131486300Y-158863400D01*
X126316300Y-157593400D02*
X127586300Y-158863400D01*
X138676100Y-158953200D02*
X344225900Y-158953200D01*
X137321300Y-157598400D02*
X138676100Y-158953200D01*
X134761300Y-157598400D02*
X137321300Y-157598400D01*
X344225900Y-158953200D02*
X345585700Y-157593400D01*
%TO.N,B48*%
X124646300Y-155053400D02*
X126871300Y-155053400D01*
X130056300Y-155058400D02*
X134761300Y-155058400D01*
X128911300Y-153913400D02*
X130056300Y-155058400D01*
X128011300Y-153913400D02*
X128911300Y-153913400D01*
X126871300Y-155053400D02*
X128011300Y-153913400D01*
X147558760Y-155676600D02*
X338356360Y-155676600D01*
X134761300Y-155058400D02*
X139406300Y-155058400D01*
X143586300Y-156338400D02*
X144861300Y-155063400D01*
X146945560Y-155063400D02*
X147558760Y-155676600D01*
X342220700Y-153888400D02*
X343385700Y-155053400D01*
X340195700Y-155063400D02*
X341370700Y-153888400D01*
X341370700Y-153888400D02*
X342220700Y-153888400D01*
X140686300Y-156338400D02*
X143586300Y-156338400D01*
X343385700Y-155053400D02*
X345585700Y-155053400D01*
X144861300Y-155063400D02*
X146945560Y-155063400D01*
X338356360Y-155676600D02*
X338969560Y-155063400D01*
X139406300Y-155058400D02*
X140686300Y-156338400D01*
X338969560Y-155063400D02*
X340195700Y-155063400D01*
%TO.N,B46*%
X342145700Y-151313400D02*
X343345700Y-152513400D01*
X124646300Y-152513400D02*
X126886300Y-152513400D01*
X130041300Y-152518400D02*
X134761300Y-152518400D01*
X128886300Y-151363400D02*
X130041300Y-152518400D01*
X128036300Y-151363400D02*
X128886300Y-151363400D01*
X126886300Y-152513400D02*
X128036300Y-151363400D01*
X341395700Y-151313400D02*
X342145700Y-151313400D01*
X340195700Y-152513400D02*
X341395700Y-151313400D01*
X143611300Y-153788400D02*
X144886300Y-152513400D01*
X343345700Y-152513400D02*
X345585700Y-152513400D01*
X147838160Y-153149300D02*
X338363560Y-153149300D01*
X338999460Y-152513400D02*
X340195700Y-152513400D01*
X338363560Y-153149300D02*
X338999460Y-152513400D01*
X140911300Y-153788400D02*
X143611300Y-153788400D01*
X139641300Y-152518400D02*
X140911300Y-153788400D01*
X147202260Y-152513400D02*
X147838160Y-153149300D01*
X144886300Y-152513400D02*
X147202260Y-152513400D01*
X134761300Y-152518400D02*
X139641300Y-152518400D01*
%TO.N,B44*%
X343355700Y-149973400D02*
X345585700Y-149973400D01*
X342195700Y-148813400D02*
X343355700Y-149973400D01*
X341345700Y-148813400D02*
X342195700Y-148813400D01*
X124646300Y-149973400D02*
X126886600Y-149973400D01*
X126886600Y-149973400D02*
X128096600Y-148763400D01*
X128096600Y-148763400D02*
X128836300Y-148763400D01*
X128836300Y-148763400D02*
X130051300Y-149978400D01*
X340195700Y-149963400D02*
X341345700Y-148813400D01*
X139726300Y-149978400D02*
X140986300Y-151238400D01*
X140986300Y-151238400D02*
X143586300Y-151238400D01*
X143586300Y-151238400D02*
X144861300Y-149963400D01*
X144861300Y-149963400D02*
X146912860Y-149963400D01*
X146912860Y-149963400D02*
X147546060Y-150596600D01*
X130051300Y-149978400D02*
X139726300Y-149978400D01*
X147546060Y-150596600D02*
X338477860Y-150596600D01*
X338477860Y-150596600D02*
X339111060Y-149963400D01*
X339111060Y-149963400D02*
X340195700Y-149963400D01*
%TO.N,B42*%
X340195700Y-147438400D02*
X341345700Y-146288400D01*
X343365700Y-147433400D02*
X345585700Y-147433400D01*
X147927060Y-148069300D02*
X338147660Y-148069300D01*
X124646300Y-147433400D02*
X126866300Y-147433400D01*
X130036300Y-147438400D02*
X134761300Y-147438400D01*
X128886300Y-146288400D02*
X130036300Y-147438400D01*
X128011300Y-146288400D02*
X128886300Y-146288400D01*
X126866300Y-147433400D02*
X128011300Y-146288400D01*
X140811300Y-148713400D02*
X143436300Y-148713400D01*
X139536300Y-147438400D02*
X140811300Y-148713400D01*
X144711300Y-147438400D02*
X147296160Y-147438400D01*
X143436300Y-148713400D02*
X144711300Y-147438400D01*
X342220700Y-146288400D02*
X343365700Y-147433400D01*
X147296160Y-147438400D02*
X147927060Y-148069300D01*
X341345700Y-146288400D02*
X342220700Y-146288400D01*
X134761300Y-147438400D02*
X139536300Y-147438400D01*
X338147660Y-148069300D02*
X338778560Y-147438400D01*
X338778560Y-147438400D02*
X340195700Y-147438400D01*
%TO.N,B40*%
X144986300Y-144888400D02*
X146867060Y-144888400D01*
X124646300Y-144893400D02*
X126881300Y-144893400D01*
X130021300Y-144898400D02*
X134761300Y-144898400D01*
X128811300Y-143688400D02*
X130021300Y-144898400D01*
X128086300Y-143688400D02*
X128811300Y-143688400D01*
X126881300Y-144893400D02*
X128086300Y-143688400D01*
X343375700Y-144893400D02*
X345585700Y-144893400D01*
X342220700Y-143738400D02*
X343375700Y-144893400D01*
X146867060Y-144888400D02*
X147507960Y-145529300D01*
X341345700Y-143738400D02*
X342220700Y-143738400D01*
X340195700Y-144888400D02*
X341345700Y-143738400D01*
X140961300Y-146163400D02*
X143711300Y-146163400D01*
X338953660Y-144888400D02*
X340195700Y-144888400D01*
X143711300Y-146163400D02*
X144986300Y-144888400D01*
X147507960Y-145529300D02*
X338312760Y-145529300D01*
X338312760Y-145529300D02*
X338953660Y-144888400D01*
X139696300Y-144898400D02*
X140961300Y-146163400D01*
X134761300Y-144898400D02*
X139696300Y-144898400D01*
%TO.N,B38*%
X124646300Y-142353400D02*
X126896300Y-142353400D01*
X130056300Y-142358400D02*
X134761300Y-142358400D01*
X128886300Y-141188400D02*
X130056300Y-142358400D01*
X128061300Y-141188400D02*
X128886300Y-141188400D01*
X126896300Y-142353400D02*
X128061300Y-141188400D01*
X338312760Y-142976600D02*
X338925960Y-142363400D01*
X340170700Y-142363400D02*
X341370700Y-141163400D01*
X342145700Y-141163400D02*
X343335700Y-142353400D01*
X144711300Y-142363400D02*
X147136060Y-142363400D01*
X139481300Y-142358400D02*
X140761300Y-143638400D01*
X147749260Y-142976600D02*
X338312760Y-142976600D01*
X147136060Y-142363400D02*
X147749260Y-142976600D01*
X338925960Y-142363400D02*
X340170700Y-142363400D01*
X143436300Y-143638400D02*
X144711300Y-142363400D01*
X140761300Y-143638400D02*
X143436300Y-143638400D01*
X343335700Y-142353400D02*
X345585700Y-142353400D01*
X134761300Y-142358400D02*
X139481300Y-142358400D01*
X341370700Y-141163400D02*
X342145700Y-141163400D01*
%TO.N,B36*%
X124646300Y-139813400D02*
X126886300Y-139813400D01*
X130041300Y-139818400D02*
X134761300Y-139818400D01*
X128911300Y-138688400D02*
X130041300Y-139818400D01*
X128011300Y-138688400D02*
X128911300Y-138688400D01*
X126886300Y-139813400D02*
X128011300Y-138688400D01*
X342220700Y-138663400D02*
X343370700Y-139813400D01*
X338959560Y-139813400D02*
X340195700Y-139813400D01*
X139841300Y-139818400D02*
X141111300Y-141088400D01*
X134761300Y-139818400D02*
X139841300Y-139818400D01*
X338336360Y-140436600D02*
X338959560Y-139813400D01*
X144761300Y-139813400D02*
X147189560Y-139813400D01*
X343370700Y-139813400D02*
X345585700Y-139813400D01*
X341345700Y-138663400D02*
X342220700Y-138663400D01*
X340195700Y-139813400D02*
X341345700Y-138663400D01*
X147812760Y-140436600D02*
X338336360Y-140436600D01*
X147189560Y-139813400D02*
X147812760Y-140436600D01*
X143486300Y-141088400D02*
X144761300Y-139813400D01*
X141111300Y-141088400D02*
X143486300Y-141088400D01*
%TO.N,B34*%
X342220700Y-136138400D02*
X343355700Y-137273400D01*
X341335880Y-136138400D02*
X342220700Y-136138400D01*
X343355700Y-137273400D02*
X345585700Y-137273400D01*
X340210880Y-137263400D02*
X341335880Y-136138400D01*
X124646300Y-137273400D02*
X126876300Y-137273400D01*
X126876300Y-137273400D02*
X128011300Y-136138400D01*
X147711160Y-137909300D02*
X338122260Y-137909300D01*
X338122260Y-137909300D02*
X338717360Y-137314200D01*
X128911300Y-136138400D02*
X130051300Y-137278400D01*
X130051300Y-137278400D02*
X139751300Y-137278400D01*
X147065260Y-137263400D02*
X147711160Y-137909300D01*
X139751300Y-137278400D02*
X141036300Y-138563400D01*
X143786300Y-138563400D02*
X145086300Y-137263400D01*
X128011300Y-136138400D02*
X128911300Y-136138400D01*
X145086300Y-137263400D02*
X147065260Y-137263400D01*
X338717360Y-137263400D02*
X340210880Y-137263400D01*
X141036300Y-138563400D02*
X143786300Y-138563400D01*
X338717360Y-137314200D02*
X338717360Y-137263400D01*
%TO.N,B32*%
X338676960Y-134738400D02*
X340170700Y-134738400D01*
X124646300Y-134733400D02*
X126866300Y-134733400D01*
X340170700Y-134738400D02*
X341320700Y-133588400D01*
X126866300Y-134733400D02*
X128011300Y-133588400D01*
X342208760Y-133588400D02*
X343353760Y-134733400D01*
X146915160Y-134738400D02*
X147546060Y-135369300D01*
X128911300Y-133588400D02*
X130061300Y-134738400D01*
X130061300Y-134738400D02*
X139686300Y-134738400D01*
X343353760Y-134733400D02*
X345585700Y-134733400D01*
X338676960Y-134789200D02*
X338676960Y-134738400D01*
X341320700Y-133588400D02*
X342208760Y-133588400D01*
X139686300Y-134738400D02*
X140961300Y-136013400D01*
X140961300Y-136013400D02*
X143561300Y-136013400D01*
X338096860Y-135369300D02*
X338676960Y-134789200D01*
X143561300Y-136013400D02*
X144836300Y-134738400D01*
X144836300Y-134738400D02*
X146915160Y-134738400D01*
X128011300Y-133588400D02*
X128911300Y-133588400D01*
X147546060Y-135369300D02*
X338096860Y-135369300D01*
%TO.N,B30*%
X340195700Y-132188400D02*
X341320700Y-131063400D01*
X140911300Y-133463400D02*
X143511300Y-133463400D01*
X341320700Y-131063400D02*
X342245700Y-131063400D01*
X126881300Y-132193400D02*
X128036300Y-131038400D01*
X128036300Y-131038400D02*
X128874320Y-131038400D01*
X342245700Y-131063400D02*
X343375700Y-132193400D01*
X128874320Y-131038400D02*
X130034320Y-132198400D01*
X343375700Y-132193400D02*
X345585700Y-132193400D01*
X130034320Y-132198400D02*
X139646300Y-132198400D01*
X139646300Y-132198400D02*
X140911300Y-133463400D01*
X124646300Y-132193400D02*
X126881300Y-132193400D01*
X143511300Y-133463400D02*
X144786300Y-132188400D01*
X144786300Y-132188400D02*
X146943260Y-132188400D01*
X146943260Y-132188400D02*
X147571460Y-132816600D01*
X147571460Y-132816600D02*
X338504160Y-132816600D01*
X338504160Y-132816600D02*
X339132360Y-132188400D01*
X339132360Y-132188400D02*
X340195700Y-132188400D01*
%TO.N,B28*%
X144861300Y-129663400D02*
X147021760Y-129663400D01*
X134761300Y-129658400D02*
X139681300Y-129658400D01*
X124646300Y-129653400D02*
X126871300Y-129653400D01*
X130031300Y-129658400D02*
X134761300Y-129658400D01*
X128886300Y-128513400D02*
X130031300Y-129658400D01*
X128011300Y-128513400D02*
X128886300Y-128513400D01*
X126871300Y-129653400D02*
X128011300Y-128513400D01*
X340195700Y-129663400D02*
X341370700Y-128488400D01*
X147021760Y-129663400D02*
X147647660Y-130289300D01*
X140961300Y-130938400D02*
X143586300Y-130938400D01*
X343360700Y-129653400D02*
X345585700Y-129653400D01*
X338312760Y-130289300D02*
X338938660Y-129663400D01*
X147647660Y-130289300D02*
X338312760Y-130289300D01*
X338938660Y-129663400D02*
X340195700Y-129663400D01*
X342195700Y-128488400D02*
X343360700Y-129653400D01*
X139681300Y-129658400D02*
X140961300Y-130938400D01*
X143586300Y-130938400D02*
X144861300Y-129663400D01*
X341370700Y-128488400D02*
X342195700Y-128488400D01*
%TO.N,B26*%
X124646300Y-127113400D02*
X126886300Y-127113400D01*
X130066300Y-127118400D02*
X134761300Y-127118400D01*
X128936300Y-125988400D02*
X130066300Y-127118400D01*
X128011300Y-125988400D02*
X128936300Y-125988400D01*
X126886300Y-127113400D02*
X128011300Y-125988400D01*
X139691300Y-127118400D02*
X140961300Y-128388400D01*
X140961300Y-128388400D02*
X143511300Y-128388400D01*
X147457160Y-127723900D02*
X338272860Y-127723900D01*
X338883360Y-127113400D02*
X340195700Y-127113400D01*
X144786300Y-127113400D02*
X146846660Y-127113400D01*
X340195700Y-127113400D02*
X341320700Y-125988400D01*
X143511300Y-128388400D02*
X144786300Y-127113400D01*
X341320700Y-125988400D02*
X342220700Y-125988400D01*
X338272860Y-127723900D02*
X338883360Y-127113400D01*
X146846660Y-127113400D02*
X147457160Y-127723900D01*
X342220700Y-125988400D02*
X343345700Y-127113400D01*
X134761300Y-127118400D02*
X139691300Y-127118400D01*
X343345700Y-127113400D02*
X345585700Y-127113400D01*
%TO.N,B24*%
X342195700Y-123413400D02*
X343355700Y-124573400D01*
X128001680Y-123463400D02*
X128936300Y-123463400D01*
X128936300Y-123463400D02*
X130051300Y-124578400D01*
X147204560Y-124588400D02*
X147812760Y-125196600D01*
X139701300Y-124578400D02*
X140961300Y-125838400D01*
X343355700Y-124573400D02*
X345585700Y-124573400D01*
X341370700Y-123413400D02*
X342195700Y-123413400D01*
X144836300Y-124588400D02*
X147204560Y-124588400D01*
X130051300Y-124578400D02*
X139701300Y-124578400D01*
X147812760Y-125196600D02*
X338134960Y-125196600D01*
X140961300Y-125838400D02*
X143586300Y-125838400D01*
X124646300Y-124573400D02*
X126891680Y-124573400D01*
X126891680Y-124573400D02*
X128001680Y-123463400D01*
X143586300Y-125838400D02*
X144836300Y-124588400D01*
X338743160Y-124588400D02*
X340195700Y-124588400D01*
X340195700Y-124588400D02*
X341370700Y-123413400D01*
X338134960Y-125196600D02*
X338743160Y-124588400D01*
%TO.N,B22*%
X124646300Y-122033400D02*
X126866300Y-122033400D01*
X130036300Y-122038400D02*
X134761300Y-122038400D01*
X128886300Y-120888400D02*
X130036300Y-122038400D01*
X128011300Y-120888400D02*
X128886300Y-120888400D01*
X126866300Y-122033400D02*
X128011300Y-120888400D01*
X147685760Y-122643900D02*
X338439760Y-122643900D01*
X340195700Y-122038400D02*
X341345700Y-120888400D01*
X341345700Y-120888400D02*
X342220700Y-120888400D01*
X143611300Y-123313400D02*
X144886300Y-122038400D01*
X141086300Y-123313400D02*
X143611300Y-123313400D01*
X147080260Y-122038400D02*
X147685760Y-122643900D01*
X144886300Y-122038400D02*
X147080260Y-122038400D01*
X343365700Y-122033400D02*
X345585700Y-122033400D01*
X342220700Y-120888400D02*
X343365700Y-122033400D01*
X339045260Y-122038400D02*
X340195700Y-122038400D01*
X139811300Y-122038400D02*
X141086300Y-123313400D01*
X338439760Y-122643900D02*
X339045260Y-122038400D01*
X134761300Y-122038400D02*
X139811300Y-122038400D01*
%TO.N,B20*%
X342195700Y-118338400D02*
X343350700Y-119493400D01*
X124646300Y-119493400D02*
X126856300Y-119493400D01*
X128914560Y-118363400D02*
X130049560Y-119498400D01*
X126856300Y-119493400D02*
X127986300Y-118363400D01*
X144711300Y-119488400D02*
X147146460Y-119488400D01*
X127986300Y-118363400D02*
X128914560Y-118363400D01*
X130049560Y-119498400D02*
X139721300Y-119498400D01*
X340195700Y-119488400D02*
X341345700Y-118338400D01*
X139721300Y-119498400D02*
X140986300Y-120763400D01*
X341345700Y-118338400D02*
X342195700Y-118338400D01*
X338775860Y-119488400D02*
X340195700Y-119488400D01*
X140986300Y-120763400D02*
X143436300Y-120763400D01*
X143436300Y-120763400D02*
X144711300Y-119488400D01*
X343350700Y-119493400D02*
X345585700Y-119493400D01*
X147146460Y-119488400D02*
X147774660Y-120116600D01*
X147774660Y-120116600D02*
X338147660Y-120116600D01*
X338147660Y-120116600D02*
X338775860Y-119488400D01*
%TO.N,B18*%
X340220700Y-116938400D02*
X341370700Y-115788400D01*
X128911300Y-115813400D02*
X130056300Y-116958400D01*
X341370700Y-115788400D02*
X342195700Y-115788400D01*
X126886600Y-116953400D02*
X128026600Y-115813400D01*
X338388960Y-117563900D02*
X339014460Y-116938400D01*
X124646300Y-116953400D02*
X126886600Y-116953400D01*
X128026600Y-115813400D02*
X128911300Y-115813400D01*
X130056300Y-116958400D02*
X139706300Y-116958400D01*
X342195700Y-115788400D02*
X343360700Y-116953400D01*
X139706300Y-116958400D02*
X140961300Y-118213400D01*
X343360700Y-116953400D02*
X345585700Y-116953400D01*
X140961300Y-118213400D02*
X143611300Y-118213400D01*
X144886300Y-116938400D02*
X146996760Y-116938400D01*
X339014460Y-116938400D02*
X340220700Y-116938400D01*
X143611300Y-118213400D02*
X144886300Y-116938400D01*
X146996760Y-116938400D02*
X147622260Y-117563900D01*
X147622260Y-117563900D02*
X338388960Y-117563900D01*
%TO.N,B16*%
X124646300Y-114413400D02*
X126886300Y-114413400D01*
X130066300Y-114418400D02*
X134761300Y-114418400D01*
X128936300Y-113288400D02*
X130066300Y-114418400D01*
X128011300Y-113288400D02*
X128936300Y-113288400D01*
X126886300Y-114413400D02*
X128011300Y-113288400D01*
X139766300Y-114418400D02*
X141036300Y-115688400D01*
X338312760Y-115036600D02*
X338847060Y-114502300D01*
X147634960Y-115036600D02*
X338312760Y-115036600D01*
X338847060Y-114502300D02*
X338847060Y-114413400D01*
X147011760Y-114413400D02*
X147634960Y-115036600D01*
X338847060Y-114413400D02*
X340195700Y-114413400D01*
X343370700Y-114413400D02*
X345585700Y-114413400D01*
X342145700Y-113188400D02*
X343370700Y-114413400D01*
X341420700Y-113188400D02*
X342145700Y-113188400D01*
X340195700Y-114413400D02*
X341420700Y-113188400D01*
X143586300Y-115688400D02*
X144861300Y-114413400D01*
X144861300Y-114413400D02*
X147011760Y-114413400D01*
X141036300Y-115688400D02*
X143586300Y-115688400D01*
X134761300Y-114418400D02*
X139766300Y-114418400D01*
%TO.N,B14*%
X340195700Y-111863400D02*
X341320700Y-110738400D01*
X143636300Y-113163400D02*
X144936300Y-111863400D01*
X124646300Y-111873400D02*
X126876300Y-111873400D01*
X130051300Y-111878400D02*
X134761300Y-111878400D01*
X128886300Y-110713400D02*
X130051300Y-111878400D01*
X128036300Y-110713400D02*
X128886300Y-110713400D01*
X126876300Y-111873400D02*
X128036300Y-110713400D01*
X343355700Y-111873400D02*
X345585700Y-111873400D01*
X147558760Y-112509300D02*
X338528660Y-112509300D01*
X139926300Y-111878400D02*
X141211300Y-113163400D01*
X342220700Y-110738400D02*
X343355700Y-111873400D01*
X141211300Y-113163400D02*
X143636300Y-113163400D01*
X134761300Y-111878400D02*
X139926300Y-111878400D01*
X144936300Y-111863400D02*
X146912860Y-111863400D01*
X341320700Y-110738400D02*
X342220700Y-110738400D01*
X339174560Y-111863400D02*
X340195700Y-111863400D01*
X338528660Y-112509300D02*
X339174560Y-111863400D01*
X146912860Y-111863400D02*
X147558760Y-112509300D01*
%TO.N,B12*%
X342214530Y-108188400D02*
X343359530Y-109333400D01*
X343359530Y-109333400D02*
X345585700Y-109333400D01*
X341320700Y-108188400D02*
X342214530Y-108188400D01*
X340170700Y-109338400D02*
X341320700Y-108188400D01*
X124646300Y-109333400D02*
X126866300Y-109333400D01*
X126866300Y-109333400D02*
X127986300Y-108213400D01*
X127986300Y-108213400D02*
X128936300Y-108213400D01*
X141186300Y-110613400D02*
X143611300Y-110613400D01*
X143611300Y-110613400D02*
X144886300Y-109338400D01*
X130061300Y-109338400D02*
X139911300Y-109338400D01*
X338867460Y-109338400D02*
X340170700Y-109338400D01*
X139911300Y-109338400D02*
X141186300Y-110613400D01*
X144886300Y-109338400D02*
X147283460Y-109338400D01*
X128936300Y-108213400D02*
X130061300Y-109338400D01*
X147901660Y-109956600D02*
X338249260Y-109956600D01*
X147283460Y-109338400D02*
X147901660Y-109956600D01*
X338249260Y-109956600D02*
X338867460Y-109338400D01*
%TO.N,B10*%
X340195700Y-106788400D02*
X341345700Y-105638400D01*
X124646300Y-106793400D02*
X126856300Y-106793400D01*
X130046300Y-106798400D02*
X134761300Y-106798400D01*
X128936300Y-105688400D02*
X130046300Y-106798400D01*
X127961300Y-105688400D02*
X128936300Y-105688400D01*
X126856300Y-106793400D02*
X127961300Y-105688400D01*
X147596860Y-107429300D02*
X338237460Y-107429300D01*
X146955960Y-106788400D02*
X147596860Y-107429300D01*
X338878360Y-106788400D02*
X340195700Y-106788400D01*
X343375700Y-106793400D02*
X345585700Y-106793400D01*
X139821300Y-106798400D02*
X141086300Y-108063400D01*
X342220700Y-105638400D02*
X343375700Y-106793400D01*
X338237460Y-107429300D02*
X338878360Y-106788400D01*
X141086300Y-108063400D02*
X143811300Y-108063400D01*
X134761300Y-106798400D02*
X139821300Y-106798400D01*
X341345700Y-105638400D02*
X342220700Y-105638400D01*
X143811300Y-108063400D02*
X145086300Y-106788400D01*
X145086300Y-106788400D02*
X146955960Y-106788400D01*
%TO.N,B8*%
X341320700Y-103138400D02*
X342220700Y-103138400D01*
X340195700Y-104263400D02*
X341320700Y-103138400D01*
X124646300Y-104253400D02*
X126881520Y-104253400D01*
X126881520Y-104253400D02*
X128021520Y-103113400D01*
X128021520Y-103113400D02*
X128886300Y-103113400D01*
X143611300Y-105538400D02*
X144886300Y-104263400D01*
X144886300Y-104263400D02*
X147110660Y-104263400D01*
X130031300Y-104258400D02*
X139531300Y-104258400D01*
X139531300Y-104258400D02*
X140811300Y-105538400D01*
X338096860Y-104863900D02*
X338697360Y-104263400D01*
X342220700Y-103138400D02*
X343335700Y-104253400D01*
X140811300Y-105538400D02*
X143611300Y-105538400D01*
X147110660Y-104263400D02*
X147711160Y-104863900D01*
X343335700Y-104253400D02*
X345585700Y-104253400D01*
X147711160Y-104863900D02*
X338096860Y-104863900D01*
X128886300Y-103113400D02*
X130031300Y-104258400D01*
X338697360Y-104263400D02*
X340195700Y-104263400D01*
%TO.N,B6*%
X124646300Y-101713400D02*
X126861300Y-101713400D01*
X130041300Y-101718400D02*
X134761300Y-101718400D01*
X128836300Y-100513400D02*
X130041300Y-101718400D01*
X128061300Y-100513400D02*
X128836300Y-100513400D01*
X126861300Y-101713400D02*
X128061300Y-100513400D01*
X341395700Y-100513400D02*
X342145700Y-100513400D01*
X339062960Y-101713400D02*
X340195700Y-101713400D01*
X134761300Y-101718400D02*
X139791300Y-101718400D01*
X342145700Y-100513400D02*
X343345700Y-101713400D01*
X139791300Y-101718400D02*
X141061300Y-102988400D01*
X143486300Y-102988400D02*
X144761300Y-101713400D01*
X141061300Y-102988400D02*
X143486300Y-102988400D01*
X144761300Y-101713400D02*
X147011760Y-101713400D01*
X343345700Y-101713400D02*
X345585700Y-101713400D01*
X147634960Y-102336600D02*
X338439760Y-102336600D01*
X147011760Y-101713400D02*
X147634960Y-102336600D01*
X340195700Y-101713400D02*
X341395700Y-100513400D01*
X338439760Y-102336600D02*
X339062960Y-101713400D01*
%TO.N,B4*%
X342270700Y-98063400D02*
X343380700Y-99173400D01*
X340170700Y-99188400D02*
X341295700Y-98063400D01*
X124646300Y-99173400D02*
X126886600Y-99173400D01*
X147115660Y-99188400D02*
X147723860Y-99796600D01*
X339035260Y-99188400D02*
X340170700Y-99188400D01*
X341295700Y-98063400D02*
X342270700Y-98063400D01*
X126886600Y-99173400D02*
X128021600Y-98038400D01*
X128911300Y-98038400D02*
X130051300Y-99178400D01*
X130051300Y-99178400D02*
X140251300Y-99178400D01*
X140251300Y-99178400D02*
X141536300Y-100463400D01*
X143411300Y-100463400D02*
X144686300Y-99188400D01*
X343380700Y-99173400D02*
X345585700Y-99173400D01*
X128021600Y-98038400D02*
X128911300Y-98038400D01*
X141536300Y-100463400D02*
X143411300Y-100463400D01*
X144686300Y-99188400D02*
X147115660Y-99188400D01*
X147723860Y-99796600D02*
X338427060Y-99796600D01*
X338427060Y-99796600D02*
X339035260Y-99188400D01*
%TO.N,B2*%
X343358840Y-96633400D02*
X345585700Y-96633400D01*
X341345700Y-95463400D02*
X342188840Y-95463400D01*
X342188840Y-95463400D02*
X343358840Y-96633400D01*
X124646300Y-96633400D02*
X126866300Y-96633400D01*
X140811300Y-97913400D02*
X143561300Y-97913400D01*
X338939160Y-96638400D02*
X340170700Y-96638400D01*
X126866300Y-96633400D02*
X127986300Y-95513400D01*
X146965960Y-96638400D02*
X147571460Y-97243900D01*
X147571460Y-97243900D02*
X338333660Y-97243900D01*
X127986300Y-95513400D02*
X128936300Y-95513400D01*
X130061300Y-96638400D02*
X139536300Y-96638400D01*
X340170700Y-96638400D02*
X341345700Y-95463400D01*
X128936300Y-95513400D02*
X130061300Y-96638400D01*
X144836300Y-96638400D02*
X146965960Y-96638400D01*
X139536300Y-96638400D02*
X140811300Y-97913400D01*
X143561300Y-97913400D02*
X144836300Y-96638400D01*
X338333660Y-97243900D02*
X338939160Y-96638400D01*
D15*
%TO.N,A49_2*%
X339874000Y-284061960D02*
X339874000Y-283982360D01*
D16*
%TO.N,B50_2*%
X124648840Y-285393500D02*
X126318840Y-285393500D01*
X132753840Y-285398500D02*
X134763840Y-285398500D01*
X131488840Y-286663500D02*
X132753840Y-285398500D01*
X127588840Y-286663500D02*
X131488840Y-286663500D01*
X126318840Y-285393500D02*
X127588840Y-286663500D01*
X344228440Y-286753300D02*
X345588240Y-285393500D01*
X138678640Y-286753300D02*
X344228440Y-286753300D01*
X137323840Y-285398500D02*
X138678640Y-286753300D01*
X134763840Y-285398500D02*
X137323840Y-285398500D01*
%TO.N,B48_2*%
X124648840Y-282853500D02*
X126873840Y-282853500D01*
X130058840Y-282858500D02*
X134763840Y-282858500D01*
X128913840Y-281713500D02*
X130058840Y-282858500D01*
X128013840Y-281713500D02*
X128913840Y-281713500D01*
X126873840Y-282853500D02*
X128013840Y-281713500D01*
X342223240Y-281688500D02*
X343388240Y-282853500D01*
X341373240Y-281688500D02*
X342223240Y-281688500D01*
X338972100Y-282863500D02*
X340198240Y-282863500D01*
X340198240Y-282863500D02*
X341373240Y-281688500D01*
X147561300Y-283476700D02*
X338358900Y-283476700D01*
X338358900Y-283476700D02*
X338972100Y-282863500D01*
X146948100Y-282863500D02*
X147561300Y-283476700D01*
X144863840Y-282863500D02*
X146948100Y-282863500D01*
X143588840Y-284138500D02*
X144863840Y-282863500D01*
X140688840Y-284138500D02*
X143588840Y-284138500D01*
X343388240Y-282853500D02*
X345588240Y-282853500D01*
X139408840Y-282858500D02*
X140688840Y-284138500D01*
X134763840Y-282858500D02*
X139408840Y-282858500D01*
%TO.N,B46_2*%
X124648840Y-280313500D02*
X126888840Y-280313500D01*
X130043840Y-280318500D02*
X134763840Y-280318500D01*
X128888840Y-279163500D02*
X130043840Y-280318500D01*
X128038840Y-279163500D02*
X128888840Y-279163500D01*
X126888840Y-280313500D02*
X128038840Y-279163500D01*
X342148240Y-279113500D02*
X343348240Y-280313500D01*
X341398240Y-279113500D02*
X342148240Y-279113500D01*
X339002000Y-280313500D02*
X340198240Y-280313500D01*
X338366100Y-280949400D02*
X339002000Y-280313500D01*
X147204800Y-280313500D02*
X147840700Y-280949400D01*
X144888840Y-280313500D02*
X147204800Y-280313500D01*
X340198240Y-280313500D02*
X341398240Y-279113500D01*
X143613840Y-281588500D02*
X144888840Y-280313500D01*
X343348240Y-280313500D02*
X345588240Y-280313500D01*
X147840700Y-280949400D02*
X338366100Y-280949400D01*
X140913840Y-281588500D02*
X143613840Y-281588500D01*
X139643840Y-280318500D02*
X140913840Y-281588500D01*
X134763840Y-280318500D02*
X139643840Y-280318500D01*
%TO.N,B44_2*%
X124648840Y-277773500D02*
X126853840Y-277773500D01*
X130053840Y-277778500D02*
X134763840Y-277778500D01*
X128838840Y-276563500D02*
X130053840Y-277778500D01*
X128063840Y-276563500D02*
X128838840Y-276563500D01*
X126853840Y-277773500D02*
X128063840Y-276563500D01*
X341348240Y-276613500D02*
X342198240Y-276613500D01*
X342198240Y-276613500D02*
X343358240Y-277773500D01*
X147548600Y-278396700D02*
X338480400Y-278396700D01*
X340198240Y-277763500D02*
X341348240Y-276613500D01*
X339113600Y-277763500D02*
X340198240Y-277763500D01*
X146915400Y-277763500D02*
X147548600Y-278396700D01*
X143588840Y-279038500D02*
X144863840Y-277763500D01*
X343358240Y-277773500D02*
X345588240Y-277773500D01*
X338480400Y-278396700D02*
X339113600Y-277763500D01*
X140988840Y-279038500D02*
X143588840Y-279038500D01*
X139728840Y-277778500D02*
X140988840Y-279038500D01*
X144863840Y-277763500D02*
X146915400Y-277763500D01*
X134763840Y-277778500D02*
X139728840Y-277778500D01*
%TO.N,B42_2*%
X124648840Y-275233500D02*
X126868840Y-275233500D01*
X130038840Y-275238500D02*
X134763840Y-275238500D01*
X128888840Y-274088500D02*
X130038840Y-275238500D01*
X128013840Y-274088500D02*
X128888840Y-274088500D01*
X126868840Y-275233500D02*
X128013840Y-274088500D01*
X342223240Y-274088500D02*
X343368240Y-275233500D01*
X343368240Y-275233500D02*
X345588240Y-275233500D01*
X340198240Y-275238500D02*
X341348240Y-274088500D01*
X338150200Y-275869400D02*
X338781100Y-275238500D01*
X147929600Y-275869400D02*
X338150200Y-275869400D01*
X147298700Y-275238500D02*
X147929600Y-275869400D01*
X338781100Y-275238500D02*
X340198240Y-275238500D01*
X144713840Y-275238500D02*
X147298700Y-275238500D01*
X143438840Y-276513500D02*
X144713840Y-275238500D01*
X140813840Y-276513500D02*
X143438840Y-276513500D01*
X139538840Y-275238500D02*
X140813840Y-276513500D01*
X341348240Y-274088500D02*
X342223240Y-274088500D01*
X134763840Y-275238500D02*
X139538840Y-275238500D01*
%TO.N,B40_2*%
X124648840Y-272693500D02*
X126883840Y-272693500D01*
X130023840Y-272698500D02*
X134763840Y-272698500D01*
X128813840Y-271488500D02*
X130023840Y-272698500D01*
X128088840Y-271488500D02*
X128813840Y-271488500D01*
X126883840Y-272693500D02*
X128088840Y-271488500D01*
X343378240Y-272693500D02*
X345588240Y-272693500D01*
X342223240Y-271538500D02*
X343378240Y-272693500D01*
X338956200Y-272688500D02*
X340198240Y-272688500D01*
X147510500Y-273329400D02*
X338315300Y-273329400D01*
X341348240Y-271538500D02*
X342223240Y-271538500D01*
X338315300Y-273329400D02*
X338956200Y-272688500D01*
X146869600Y-272688500D02*
X147510500Y-273329400D01*
X144988840Y-272688500D02*
X146869600Y-272688500D01*
X143713840Y-273963500D02*
X144988840Y-272688500D01*
X340198240Y-272688500D02*
X341348240Y-271538500D01*
X140963840Y-273963500D02*
X143713840Y-273963500D01*
X139698840Y-272698500D02*
X140963840Y-273963500D01*
X134763840Y-272698500D02*
X139698840Y-272698500D01*
%TO.N,B38_2*%
X124648840Y-270153500D02*
X126898840Y-270153500D01*
X130058840Y-270158500D02*
X134763840Y-270158500D01*
X128888840Y-268988500D02*
X130058840Y-270158500D01*
X128063840Y-268988500D02*
X128888840Y-268988500D01*
X126898840Y-270153500D02*
X128063840Y-268988500D01*
X343338240Y-270153500D02*
X345588240Y-270153500D01*
X342148240Y-268963500D02*
X343338240Y-270153500D01*
X341373240Y-268963500D02*
X342148240Y-268963500D01*
X338928500Y-270163500D02*
X340173240Y-270163500D01*
X338315300Y-270776700D02*
X338928500Y-270163500D01*
X340173240Y-270163500D02*
X341373240Y-268963500D01*
X147751800Y-270776700D02*
X338315300Y-270776700D01*
X147138600Y-270163500D02*
X147751800Y-270776700D01*
X144713840Y-270163500D02*
X147138600Y-270163500D01*
X139483840Y-270158500D02*
X140763840Y-271438500D01*
X143438840Y-271438500D02*
X144713840Y-270163500D01*
X140763840Y-271438500D02*
X143438840Y-271438500D01*
X134763840Y-270158500D02*
X139483840Y-270158500D01*
%TO.N,B36_2*%
X124648840Y-267613500D02*
X126888840Y-267613500D01*
X130043840Y-267618500D02*
X134763840Y-267618500D01*
X128913840Y-266488500D02*
X130043840Y-267618500D01*
X128013840Y-266488500D02*
X128913840Y-266488500D01*
X126888840Y-267613500D02*
X128013840Y-266488500D01*
X342223240Y-266463500D02*
X343373240Y-267613500D01*
X341348240Y-266463500D02*
X342223240Y-266463500D01*
X340198240Y-267613500D02*
X341348240Y-266463500D01*
X147815300Y-268236700D02*
X338338900Y-268236700D01*
X147192100Y-267613500D02*
X147815300Y-268236700D01*
X144763840Y-267613500D02*
X147192100Y-267613500D01*
X343373240Y-267613500D02*
X345588240Y-267613500D01*
X338962100Y-267613500D02*
X340198240Y-267613500D01*
X338338900Y-268236700D02*
X338962100Y-267613500D01*
X143488840Y-268888500D02*
X144763840Y-267613500D01*
X141113840Y-268888500D02*
X143488840Y-268888500D01*
X139843840Y-267618500D02*
X141113840Y-268888500D01*
X134763840Y-267618500D02*
X139843840Y-267618500D01*
%TO.N,B34_2*%
X124648840Y-265073500D02*
X126878840Y-265073500D01*
X130053840Y-265078500D02*
X134763840Y-265078500D01*
X128913840Y-263938500D02*
X130053840Y-265078500D01*
X128013840Y-263938500D02*
X128913840Y-263938500D01*
X126878840Y-265073500D02*
X128013840Y-263938500D01*
X343358240Y-265073500D02*
X345588240Y-265073500D01*
X134763840Y-265078500D02*
X139753840Y-265078500D01*
X145088840Y-265063500D02*
X147067800Y-265063500D01*
X338719900Y-265114300D02*
X338719900Y-265063500D01*
X139753840Y-265078500D02*
X141038840Y-266363500D01*
X147713700Y-265709400D02*
X338124800Y-265709400D01*
X143788840Y-266363500D02*
X145088840Y-265063500D01*
X147067800Y-265063500D02*
X147713700Y-265709400D01*
X338124800Y-265709400D02*
X338719900Y-265114300D01*
X342223240Y-263938500D02*
X343358240Y-265073500D01*
X141038840Y-266363500D02*
X143788840Y-266363500D01*
X338719900Y-265063500D02*
X340173240Y-265063500D01*
X340173240Y-265063500D02*
X341298240Y-263938500D01*
X341298240Y-263938500D02*
X342223240Y-263938500D01*
%TO.N,B32_2*%
X124648840Y-262533500D02*
X126868840Y-262533500D01*
X130063840Y-262538500D02*
X134763840Y-262538500D01*
X128913840Y-261388500D02*
X130063840Y-262538500D01*
X128013840Y-261388500D02*
X128913840Y-261388500D01*
X126868840Y-262533500D02*
X128013840Y-261388500D01*
X343393240Y-262533500D02*
X345588240Y-262533500D01*
X134763840Y-262538500D02*
X139688840Y-262538500D01*
X140963840Y-263813500D02*
X143563840Y-263813500D01*
X144838840Y-262538500D02*
X146917700Y-262538500D01*
X139688840Y-262538500D02*
X140963840Y-263813500D01*
X338099400Y-263169400D02*
X338679500Y-262589300D01*
X143563840Y-263813500D02*
X144838840Y-262538500D01*
X338679500Y-262589300D02*
X338679500Y-262538500D01*
X342248240Y-261388500D02*
X343393240Y-262533500D01*
X147548600Y-263169400D02*
X338099400Y-263169400D01*
X338679500Y-262538500D02*
X340173240Y-262538500D01*
X340173240Y-262538500D02*
X341323240Y-261388500D01*
X146917700Y-262538500D02*
X147548600Y-263169400D01*
X341323240Y-261388500D02*
X342248240Y-261388500D01*
%TO.N,B30_2*%
X126883840Y-259993500D02*
X128038840Y-258838500D01*
X124648840Y-259993500D02*
X126883840Y-259993500D01*
X130073840Y-259998500D02*
X134763840Y-259998500D01*
X128913840Y-258838500D02*
X130073840Y-259998500D01*
X128038840Y-258838500D02*
X128913840Y-258838500D01*
X341323240Y-258863500D02*
X342248240Y-258863500D01*
X340198240Y-259988500D02*
X341323240Y-258863500D01*
X342248240Y-258863500D02*
X343378240Y-259993500D01*
X338506700Y-260616700D02*
X339134900Y-259988500D01*
X343378240Y-259993500D02*
X345588240Y-259993500D01*
X339134900Y-259988500D02*
X340198240Y-259988500D01*
X147574000Y-260616700D02*
X338506700Y-260616700D01*
X146945800Y-259988500D02*
X147574000Y-260616700D01*
X144788840Y-259988500D02*
X146945800Y-259988500D01*
X143513840Y-261263500D02*
X144788840Y-259988500D01*
X140913840Y-261263500D02*
X143513840Y-261263500D01*
X139648840Y-259998500D02*
X140913840Y-261263500D01*
X134763840Y-259998500D02*
X139648840Y-259998500D01*
%TO.N,B28_2*%
X124648840Y-257453500D02*
X126873840Y-257453500D01*
X130033840Y-257458500D02*
X134763840Y-257458500D01*
X128888840Y-256313500D02*
X130033840Y-257458500D01*
X128013840Y-256313500D02*
X128888840Y-256313500D01*
X126873840Y-257453500D02*
X128013840Y-256313500D01*
X343363240Y-257453500D02*
X345588240Y-257453500D01*
X342198240Y-256288500D02*
X343363240Y-257453500D01*
X341373240Y-256288500D02*
X342198240Y-256288500D01*
X338941200Y-257463500D02*
X340198240Y-257463500D01*
X340198240Y-257463500D02*
X341373240Y-256288500D01*
X338315300Y-258089400D02*
X338941200Y-257463500D01*
X147650200Y-258089400D02*
X338315300Y-258089400D01*
X147024300Y-257463500D02*
X147650200Y-258089400D01*
X144863840Y-257463500D02*
X147024300Y-257463500D01*
X140963840Y-258738500D02*
X143588840Y-258738500D01*
X139683840Y-257458500D02*
X140963840Y-258738500D01*
X143588840Y-258738500D02*
X144863840Y-257463500D01*
X134763840Y-257458500D02*
X139683840Y-257458500D01*
%TO.N,B26_2*%
X124648840Y-254913500D02*
X126888840Y-254913500D01*
X130068840Y-254918500D02*
X134763840Y-254918500D01*
X128938840Y-253788500D02*
X130068840Y-254918500D01*
X128013840Y-253788500D02*
X128938840Y-253788500D01*
X126888840Y-254913500D02*
X128013840Y-253788500D01*
X343348240Y-254913500D02*
X345588240Y-254913500D01*
X338885900Y-254913500D02*
X340198240Y-254913500D01*
X338275400Y-255524000D02*
X338885900Y-254913500D01*
X147459700Y-255524000D02*
X338275400Y-255524000D01*
X146849200Y-254913500D02*
X147459700Y-255524000D01*
X342223240Y-253788500D02*
X343348240Y-254913500D01*
X144788840Y-254913500D02*
X146849200Y-254913500D01*
X340198240Y-254913500D02*
X341323240Y-253788500D01*
X143513840Y-256188500D02*
X144788840Y-254913500D01*
X341323240Y-253788500D02*
X342223240Y-253788500D01*
X139693840Y-254918500D02*
X140963840Y-256188500D01*
X140963840Y-256188500D02*
X143513840Y-256188500D01*
X134763840Y-254918500D02*
X139693840Y-254918500D01*
%TO.N,B24_2*%
X124648840Y-252373500D02*
X126853840Y-252373500D01*
X130053840Y-252378500D02*
X134763840Y-252378500D01*
X128938840Y-251263500D02*
X130053840Y-252378500D01*
X127963840Y-251263500D02*
X128938840Y-251263500D01*
X126853840Y-252373500D02*
X127963840Y-251263500D01*
X343358240Y-252373500D02*
X345588240Y-252373500D01*
X342198240Y-251213500D02*
X343358240Y-252373500D01*
X341373240Y-251213500D02*
X342198240Y-251213500D01*
X338745700Y-252388500D02*
X340198240Y-252388500D01*
X338137500Y-252996700D02*
X338745700Y-252388500D01*
X340198240Y-252388500D02*
X341373240Y-251213500D01*
X147815300Y-252996700D02*
X338137500Y-252996700D01*
X147207100Y-252388500D02*
X147815300Y-252996700D01*
X144838840Y-252388500D02*
X147207100Y-252388500D01*
X143588840Y-253638500D02*
X144838840Y-252388500D01*
X140963840Y-253638500D02*
X143588840Y-253638500D01*
X139703840Y-252378500D02*
X140963840Y-253638500D01*
X134763840Y-252378500D02*
X139703840Y-252378500D01*
%TO.N,B22_2*%
X124648840Y-249833500D02*
X126868840Y-249833500D01*
X130038840Y-249838500D02*
X134763840Y-249838500D01*
X128888840Y-248688500D02*
X130038840Y-249838500D01*
X128013840Y-248688500D02*
X128888840Y-248688500D01*
X126868840Y-249833500D02*
X128013840Y-248688500D01*
X147688300Y-250444000D02*
X338442300Y-250444000D01*
X341348240Y-248688500D02*
X342223240Y-248688500D01*
X340198240Y-249838500D02*
X341348240Y-248688500D01*
X147082800Y-249838500D02*
X147688300Y-250444000D01*
X144888840Y-249838500D02*
X147082800Y-249838500D01*
X143613840Y-251113500D02*
X144888840Y-249838500D01*
X141088840Y-251113500D02*
X143613840Y-251113500D01*
X339047800Y-249838500D02*
X340198240Y-249838500D01*
X139813840Y-249838500D02*
X141088840Y-251113500D01*
X343368240Y-249833500D02*
X345588240Y-249833500D01*
X342223240Y-248688500D02*
X343368240Y-249833500D01*
X338442300Y-250444000D02*
X339047800Y-249838500D01*
X134763840Y-249838500D02*
X139813840Y-249838500D01*
%TO.N,B20_2*%
X124648840Y-247293500D02*
X126858840Y-247293500D01*
X130073840Y-247298500D02*
X134763840Y-247298500D01*
X128938840Y-246163500D02*
X130073840Y-247298500D01*
X127988840Y-246163500D02*
X128938840Y-246163500D01*
X126858840Y-247293500D02*
X127988840Y-246163500D01*
X343353240Y-247293500D02*
X345588240Y-247293500D01*
X342198240Y-246138500D02*
X343353240Y-247293500D01*
X338150200Y-247916700D02*
X338778400Y-247288500D01*
X147777200Y-247916700D02*
X338150200Y-247916700D01*
X147149000Y-247288500D02*
X147777200Y-247916700D01*
X144713840Y-247288500D02*
X147149000Y-247288500D01*
X143438840Y-248563500D02*
X144713840Y-247288500D01*
X340198240Y-247288500D02*
X341348240Y-246138500D01*
X140988840Y-248563500D02*
X143438840Y-248563500D01*
X341348240Y-246138500D02*
X342198240Y-246138500D01*
X338778400Y-247288500D02*
X340198240Y-247288500D01*
X139723840Y-247298500D02*
X140988840Y-248563500D01*
X134763840Y-247298500D02*
X139723840Y-247298500D01*
%TO.N,B18_2*%
X124648840Y-244753500D02*
X126848840Y-244753500D01*
X130058840Y-244758500D02*
X134763840Y-244758500D01*
X128913840Y-243613500D02*
X130058840Y-244758500D01*
X127988840Y-243613500D02*
X128913840Y-243613500D01*
X126848840Y-244753500D02*
X127988840Y-243613500D01*
X338391500Y-245364000D02*
X339017000Y-244738500D01*
X147624800Y-245364000D02*
X338391500Y-245364000D01*
X146999300Y-244738500D02*
X147624800Y-245364000D01*
X342198240Y-243588500D02*
X343363240Y-244753500D01*
X340223240Y-244738500D02*
X341373240Y-243588500D01*
X144888840Y-244738500D02*
X146999300Y-244738500D01*
X343363240Y-244753500D02*
X345588240Y-244753500D01*
X143613840Y-246013500D02*
X144888840Y-244738500D01*
X339017000Y-244738500D02*
X340223240Y-244738500D01*
X140963840Y-246013500D02*
X143613840Y-246013500D01*
X341373240Y-243588500D02*
X342198240Y-243588500D01*
X139708840Y-244758500D02*
X140963840Y-246013500D01*
X134763840Y-244758500D02*
X139708840Y-244758500D01*
%TO.N,B16_2*%
X124648840Y-242213500D02*
X126888840Y-242213500D01*
X130068840Y-242218500D02*
X134763840Y-242218500D01*
X128938840Y-241088500D02*
X130068840Y-242218500D01*
X128013840Y-241088500D02*
X128938840Y-241088500D01*
X126888840Y-242213500D02*
X128013840Y-241088500D01*
X134763840Y-242218500D02*
X139768840Y-242218500D01*
X340198240Y-242213500D02*
X341423240Y-240988500D01*
X139768840Y-242218500D02*
X141038840Y-243488500D01*
X141038840Y-243488500D02*
X143588840Y-243488500D01*
X143588840Y-243488500D02*
X144863840Y-242213500D01*
X144863840Y-242213500D02*
X147014300Y-242213500D01*
X338315300Y-242836700D02*
X338849600Y-242302400D01*
X147637500Y-242836700D02*
X338315300Y-242836700D01*
X338849600Y-242213500D02*
X340198240Y-242213500D01*
X343373240Y-242213500D02*
X345588240Y-242213500D01*
X338849600Y-242302400D02*
X338849600Y-242213500D01*
X147014300Y-242213500D02*
X147637500Y-242836700D01*
X342148240Y-240988500D02*
X343373240Y-242213500D01*
X341423240Y-240988500D02*
X342148240Y-240988500D01*
%TO.N,B14_2*%
X124648840Y-239673500D02*
X126878840Y-239673500D01*
X130053840Y-239678500D02*
X134763840Y-239678500D01*
X128888840Y-238513500D02*
X130053840Y-239678500D01*
X128038840Y-238513500D02*
X128888840Y-238513500D01*
X126878840Y-239673500D02*
X128038840Y-238513500D01*
X341323240Y-238538500D02*
X342223240Y-238538500D01*
X340198240Y-239663500D02*
X341323240Y-238538500D01*
X343358240Y-239673500D02*
X345588240Y-239673500D01*
X339177100Y-239663500D02*
X340198240Y-239663500D01*
X147561300Y-240309400D02*
X338531200Y-240309400D01*
X146915400Y-239663500D02*
X147561300Y-240309400D01*
X144938840Y-239663500D02*
X146915400Y-239663500D01*
X342223240Y-238538500D02*
X343358240Y-239673500D01*
X338531200Y-240309400D02*
X339177100Y-239663500D01*
X143638840Y-240963500D02*
X144938840Y-239663500D01*
X141213840Y-240963500D02*
X143638840Y-240963500D01*
X139928840Y-239678500D02*
X141213840Y-240963500D01*
X134763840Y-239678500D02*
X139928840Y-239678500D01*
%TO.N,B12_2*%
X124648840Y-237133500D02*
X126868840Y-237133500D01*
X130063840Y-237138500D02*
X134763840Y-237138500D01*
X128938840Y-236013500D02*
X130063840Y-237138500D01*
X127988840Y-236013500D02*
X128938840Y-236013500D01*
X126868840Y-237133500D02*
X127988840Y-236013500D01*
X342248240Y-235988500D02*
X343393240Y-237133500D01*
X341323240Y-235988500D02*
X342248240Y-235988500D01*
X340173240Y-237138500D02*
X341323240Y-235988500D01*
X147904200Y-237756700D02*
X338251800Y-237756700D01*
X338870000Y-237138500D02*
X340173240Y-237138500D01*
X147286000Y-237138500D02*
X147904200Y-237756700D01*
X343393240Y-237133500D02*
X345588240Y-237133500D01*
X144888840Y-237138500D02*
X147286000Y-237138500D01*
X143613840Y-238413500D02*
X144888840Y-237138500D01*
X139913840Y-237138500D02*
X141188840Y-238413500D01*
X338251800Y-237756700D02*
X338870000Y-237138500D01*
X141188840Y-238413500D02*
X143613840Y-238413500D01*
X134763840Y-237138500D02*
X139913840Y-237138500D01*
%TO.N,B10_2*%
X124648840Y-234593500D02*
X126858840Y-234593500D01*
X130048840Y-234598500D02*
X134763840Y-234598500D01*
X128938840Y-233488500D02*
X130048840Y-234598500D01*
X127963840Y-233488500D02*
X128938840Y-233488500D01*
X126858840Y-234593500D02*
X127963840Y-233488500D01*
X342223240Y-233438500D02*
X343378240Y-234593500D01*
X341348240Y-233438500D02*
X342223240Y-233438500D01*
X340198240Y-234588500D02*
X341348240Y-233438500D01*
X147599400Y-235229400D02*
X338240000Y-235229400D01*
X338880900Y-234588500D02*
X340198240Y-234588500D01*
X338240000Y-235229400D02*
X338880900Y-234588500D01*
X145088840Y-234588500D02*
X146958500Y-234588500D01*
X143813840Y-235863500D02*
X145088840Y-234588500D01*
X141088840Y-235863500D02*
X143813840Y-235863500D01*
X343378240Y-234593500D02*
X345588240Y-234593500D01*
X146958500Y-234588500D02*
X147599400Y-235229400D01*
X139823840Y-234598500D02*
X141088840Y-235863500D01*
X134763840Y-234598500D02*
X139823840Y-234598500D01*
%TO.N,B8_2*%
X124648840Y-232053500D02*
X126848840Y-232053500D01*
X130033840Y-232058500D02*
X134763840Y-232058500D01*
X128888840Y-230913500D02*
X130033840Y-232058500D01*
X127988840Y-230913500D02*
X128888840Y-230913500D01*
X126848840Y-232053500D02*
X127988840Y-230913500D01*
X341323240Y-230938500D02*
X342223240Y-230938500D01*
X338699900Y-232063500D02*
X340198240Y-232063500D01*
X342223240Y-230938500D02*
X343338240Y-232053500D01*
X340198240Y-232063500D02*
X341323240Y-230938500D01*
X338099400Y-232664000D02*
X338699900Y-232063500D01*
X147713700Y-232664000D02*
X338099400Y-232664000D01*
X144888840Y-232063500D02*
X147113200Y-232063500D01*
X143613840Y-233338500D02*
X144888840Y-232063500D01*
X140813840Y-233338500D02*
X143613840Y-233338500D01*
X147113200Y-232063500D02*
X147713700Y-232664000D01*
X139533840Y-232058500D02*
X140813840Y-233338500D01*
X343338240Y-232053500D02*
X345588240Y-232053500D01*
X134763840Y-232058500D02*
X139533840Y-232058500D01*
%TO.N,B6_2*%
X124648840Y-229513500D02*
X126863840Y-229513500D01*
X130043840Y-229518500D02*
X134763840Y-229518500D01*
X128838840Y-228313500D02*
X130043840Y-229518500D01*
X128063840Y-228313500D02*
X128838840Y-228313500D01*
X126863840Y-229513500D02*
X128063840Y-228313500D01*
X341398240Y-228313500D02*
X342148240Y-228313500D01*
X340198240Y-229513500D02*
X341398240Y-228313500D01*
X339065500Y-229513500D02*
X340198240Y-229513500D01*
X338442300Y-230136700D02*
X339065500Y-229513500D01*
X147637500Y-230136700D02*
X338442300Y-230136700D01*
X147014300Y-229513500D02*
X147637500Y-230136700D01*
X144763840Y-229513500D02*
X147014300Y-229513500D01*
X343348240Y-229513500D02*
X345588240Y-229513500D01*
X143488840Y-230788500D02*
X144763840Y-229513500D01*
X141063840Y-230788500D02*
X143488840Y-230788500D01*
X342148240Y-228313500D02*
X343348240Y-229513500D01*
X139793840Y-229518500D02*
X141063840Y-230788500D01*
X134763840Y-229518500D02*
X139793840Y-229518500D01*
%TO.N,B4_2*%
X124648840Y-226973500D02*
X126853840Y-226973500D01*
X130053840Y-226978500D02*
X134763840Y-226978500D01*
X128913840Y-225838500D02*
X130053840Y-226978500D01*
X127988840Y-225838500D02*
X128913840Y-225838500D01*
X126853840Y-226973500D02*
X127988840Y-225838500D01*
X341298240Y-225863500D02*
X342273240Y-225863500D01*
X338429600Y-227596700D02*
X339037800Y-226988500D01*
X147726400Y-227596700D02*
X338429600Y-227596700D01*
X342273240Y-225863500D02*
X343383240Y-226973500D01*
X147118200Y-226988500D02*
X147726400Y-227596700D01*
X144688840Y-226988500D02*
X147118200Y-226988500D01*
X143413840Y-228263500D02*
X144688840Y-226988500D01*
X339037800Y-226988500D02*
X340173240Y-226988500D01*
X141538840Y-228263500D02*
X143413840Y-228263500D01*
X343383240Y-226973500D02*
X345588240Y-226973500D01*
X140253840Y-226978500D02*
X141538840Y-228263500D01*
X340173240Y-226988500D02*
X341298240Y-225863500D01*
X134763840Y-226978500D02*
X140253840Y-226978500D01*
%TO.N,B2_2*%
X124648840Y-224433500D02*
X126868840Y-224433500D01*
X130063840Y-224438500D02*
X134763840Y-224438500D01*
X128938840Y-223313500D02*
X130063840Y-224438500D01*
X127988840Y-223313500D02*
X128938840Y-223313500D01*
X126868840Y-224433500D02*
X127988840Y-223313500D01*
X343393240Y-224433500D02*
X345588240Y-224433500D01*
X341348240Y-223263500D02*
X342223240Y-223263500D01*
X340173240Y-224438500D02*
X341348240Y-223263500D01*
X338941700Y-224438500D02*
X340173240Y-224438500D01*
X342223240Y-223263500D02*
X343393240Y-224433500D01*
X338336200Y-225044000D02*
X338941700Y-224438500D01*
X146968500Y-224438500D02*
X147574000Y-225044000D01*
X144838840Y-224438500D02*
X146968500Y-224438500D01*
X140813840Y-225713500D02*
X143563840Y-225713500D01*
X139538840Y-224438500D02*
X140813840Y-225713500D01*
X147574000Y-225044000D02*
X338336200Y-225044000D01*
X143563840Y-225713500D02*
X144838840Y-224438500D01*
X134763840Y-224438500D02*
X139538840Y-224438500D01*
%TD*%
M02*
