%TF.GenerationSoftware,KiCad,Pcbnew,5.1.12-84ad8e8a86~92~ubuntu20.04.1*%
%TF.CreationDate,2022-06-08T18:54:33+02:00*%
%TF.ProjectId,bvm-a-card-breakout,62766d2d-612d-4636-9172-642d62726561,rev?*%
%TF.SameCoordinates,Original*%
%TF.FileFunction,Soldermask,Bot*%
%TF.FilePolarity,Negative*%
%FSLAX46Y46*%
G04 Gerber Fmt 4.6, Leading zero omitted, Abs format (unit mm)*
G04 Created by KiCad (PCBNEW 5.1.12-84ad8e8a86~92~ubuntu20.04.1) date 2022-06-08 18:54:33*
%MOMM*%
%LPD*%
G01*
G04 APERTURE LIST*
%ADD10C,3.200000*%
%ADD11C,1.400000*%
%ADD12O,1.700000X1.700000*%
%ADD13R,1.700000X1.700000*%
%ADD14C,2.600000*%
G04 APERTURE END LIST*
D10*
%TO.C,J1*%
X124648840Y-162687000D03*
X124648840Y-90297000D03*
D11*
X124648840Y-96647000D03*
X124648840Y-99187000D03*
X124648840Y-101727000D03*
X124648840Y-104267000D03*
X124648840Y-106807000D03*
X124648840Y-109347000D03*
X124648840Y-111887000D03*
X124648840Y-114427000D03*
X124648840Y-116967000D03*
X124648840Y-119507000D03*
X124648840Y-122047000D03*
X124648840Y-124587000D03*
X124648840Y-127127000D03*
X124648840Y-129667000D03*
X124648840Y-132207000D03*
X124648840Y-134747000D03*
X124648840Y-137287000D03*
X124648840Y-139827000D03*
X124648840Y-142367000D03*
X124648840Y-144907000D03*
X124648840Y-147447000D03*
X124648840Y-149987000D03*
X124648840Y-152527000D03*
X124648840Y-155067000D03*
X124648840Y-157607000D03*
X130363840Y-95377000D03*
X130363840Y-97917000D03*
X130363840Y-100457000D03*
X130363840Y-102997000D03*
X130363840Y-105537000D03*
X130363840Y-108077000D03*
X130363840Y-110617000D03*
X130363840Y-113157000D03*
X130363840Y-115697000D03*
X130363840Y-118237000D03*
X130363840Y-120777000D03*
X130363840Y-123317000D03*
X130363840Y-125857000D03*
X130363840Y-128397000D03*
X130363840Y-130937000D03*
X130363840Y-133477000D03*
X130363840Y-136017000D03*
X130363840Y-138557000D03*
X130363840Y-141097000D03*
X130363840Y-143637000D03*
X130363840Y-146177000D03*
X130363840Y-148717000D03*
X130363840Y-151257000D03*
X130363840Y-153797000D03*
X130363840Y-156337000D03*
X128458840Y-96647000D03*
X128458840Y-99187000D03*
X128458840Y-101727000D03*
X128458840Y-104267000D03*
X128458840Y-106807000D03*
X128458840Y-109347000D03*
X128458840Y-111887000D03*
X128458840Y-114427000D03*
X128458840Y-116967000D03*
X128458840Y-119507000D03*
X128458840Y-122047000D03*
X128458840Y-124587000D03*
X128458840Y-127127000D03*
X128458840Y-129667000D03*
X128458840Y-132207000D03*
X128458840Y-134747000D03*
X128458840Y-137287000D03*
X128458840Y-139827000D03*
X128458840Y-142367000D03*
X128458840Y-144907000D03*
X128458840Y-147447000D03*
X128458840Y-149987000D03*
X128458840Y-152527000D03*
X128458840Y-155067000D03*
X128458840Y-157607000D03*
X126553840Y-95377000D03*
X126553840Y-97917000D03*
X126553840Y-100457000D03*
X126553840Y-102997000D03*
X126553840Y-105537000D03*
X126553840Y-108077000D03*
X126553840Y-110617000D03*
X126553840Y-113157000D03*
X126553840Y-115697000D03*
X126553840Y-118237000D03*
X126553840Y-120777000D03*
X126553840Y-123317000D03*
X126553840Y-125857000D03*
X126553840Y-128397000D03*
X126553840Y-130937000D03*
X126553840Y-133477000D03*
X126553840Y-136017000D03*
X126553840Y-138557000D03*
X126553840Y-141097000D03*
X126553840Y-143637000D03*
X126553840Y-146177000D03*
X126553840Y-148717000D03*
X126553840Y-151257000D03*
X126553840Y-153797000D03*
X126553840Y-156337000D03*
%TD*%
%TO.C,J11*%
X126552960Y-284129480D03*
X126552960Y-281589480D03*
X126552960Y-279049480D03*
X126552960Y-276509480D03*
X126552960Y-273969480D03*
X126552960Y-271429480D03*
X126552960Y-268889480D03*
X126552960Y-266349480D03*
X126552960Y-263809480D03*
X126552960Y-261269480D03*
X126552960Y-258729480D03*
X126552960Y-256189480D03*
X126552960Y-253649480D03*
X126552960Y-251109480D03*
X126552960Y-248569480D03*
X126552960Y-246029480D03*
X126552960Y-243489480D03*
X126552960Y-240949480D03*
X126552960Y-238409480D03*
X126552960Y-235869480D03*
X126552960Y-233329480D03*
X126552960Y-230789480D03*
X126552960Y-228249480D03*
X126552960Y-225709480D03*
X126552960Y-223169480D03*
X128457960Y-285399480D03*
X128457960Y-282859480D03*
X128457960Y-280319480D03*
X128457960Y-277779480D03*
X128457960Y-275239480D03*
X128457960Y-272699480D03*
X128457960Y-270159480D03*
X128457960Y-267619480D03*
X128457960Y-265079480D03*
X128457960Y-262539480D03*
X128457960Y-259999480D03*
X128457960Y-257459480D03*
X128457960Y-254919480D03*
X128457960Y-252379480D03*
X128457960Y-249839480D03*
X128457960Y-247299480D03*
X128457960Y-244759480D03*
X128457960Y-242219480D03*
X128457960Y-239679480D03*
X128457960Y-237139480D03*
X128457960Y-234599480D03*
X128457960Y-232059480D03*
X128457960Y-229519480D03*
X128457960Y-226979480D03*
X128457960Y-224439480D03*
X130362960Y-284129480D03*
X130362960Y-281589480D03*
X130362960Y-279049480D03*
X130362960Y-276509480D03*
X130362960Y-273969480D03*
X130362960Y-271429480D03*
X130362960Y-268889480D03*
X130362960Y-266349480D03*
X130362960Y-263809480D03*
X130362960Y-261269480D03*
X130362960Y-258729480D03*
X130362960Y-256189480D03*
X130362960Y-253649480D03*
X130362960Y-251109480D03*
X130362960Y-248569480D03*
X130362960Y-246029480D03*
X130362960Y-243489480D03*
X130362960Y-240949480D03*
X130362960Y-238409480D03*
X130362960Y-235869480D03*
X130362960Y-233329480D03*
X130362960Y-230789480D03*
X130362960Y-228249480D03*
X130362960Y-225709480D03*
X130362960Y-223169480D03*
X124647960Y-285399480D03*
X124647960Y-282859480D03*
X124647960Y-280319480D03*
X124647960Y-277779480D03*
X124647960Y-275239480D03*
X124647960Y-272699480D03*
X124647960Y-270159480D03*
X124647960Y-267619480D03*
X124647960Y-265079480D03*
X124647960Y-262539480D03*
X124647960Y-259999480D03*
X124647960Y-257459480D03*
X124647960Y-254919480D03*
X124647960Y-252379480D03*
X124647960Y-249839480D03*
X124647960Y-247299480D03*
X124647960Y-244759480D03*
X124647960Y-242219480D03*
X124647960Y-239679480D03*
X124647960Y-237139480D03*
X124647960Y-234599480D03*
X124647960Y-232059480D03*
X124647960Y-229519480D03*
X124647960Y-226979480D03*
X124647960Y-224439480D03*
D10*
X124647960Y-218089480D03*
X124647960Y-290479480D03*
%TD*%
%TO.C,J2*%
X345588240Y-162683560D03*
X345588240Y-90293560D03*
D11*
X345588240Y-96643560D03*
X345588240Y-99183560D03*
X345588240Y-101723560D03*
X345588240Y-104263560D03*
X345588240Y-106803560D03*
X345588240Y-109343560D03*
X345588240Y-111883560D03*
X345588240Y-114423560D03*
X345588240Y-116963560D03*
X345588240Y-119503560D03*
X345588240Y-122043560D03*
X345588240Y-124583560D03*
X345588240Y-127123560D03*
X345588240Y-129663560D03*
X345588240Y-132203560D03*
X345588240Y-134743560D03*
X345588240Y-137283560D03*
X345588240Y-139823560D03*
X345588240Y-142363560D03*
X345588240Y-144903560D03*
X345588240Y-147443560D03*
X345588240Y-149983560D03*
X345588240Y-152523560D03*
X345588240Y-155063560D03*
X345588240Y-157603560D03*
X339873240Y-95373560D03*
X339873240Y-97913560D03*
X339873240Y-100453560D03*
X339873240Y-102993560D03*
X339873240Y-105533560D03*
X339873240Y-108073560D03*
X339873240Y-110613560D03*
X339873240Y-113153560D03*
X339873240Y-115693560D03*
X339873240Y-118233560D03*
X339873240Y-120773560D03*
X339873240Y-123313560D03*
X339873240Y-125853560D03*
X339873240Y-128393560D03*
X339873240Y-130933560D03*
X339873240Y-133473560D03*
X339873240Y-136013560D03*
X339873240Y-138553560D03*
X339873240Y-141093560D03*
X339873240Y-143633560D03*
X339873240Y-146173560D03*
X339873240Y-148713560D03*
X339873240Y-151253560D03*
X339873240Y-153793560D03*
X339873240Y-156333560D03*
X341778240Y-96643560D03*
X341778240Y-99183560D03*
X341778240Y-101723560D03*
X341778240Y-104263560D03*
X341778240Y-106803560D03*
X341778240Y-109343560D03*
X341778240Y-111883560D03*
X341778240Y-114423560D03*
X341778240Y-116963560D03*
X341778240Y-119503560D03*
X341778240Y-122043560D03*
X341778240Y-124583560D03*
X341778240Y-127123560D03*
X341778240Y-129663560D03*
X341778240Y-132203560D03*
X341778240Y-134743560D03*
X341778240Y-137283560D03*
X341778240Y-139823560D03*
X341778240Y-142363560D03*
X341778240Y-144903560D03*
X341778240Y-147443560D03*
X341778240Y-149983560D03*
X341778240Y-152523560D03*
X341778240Y-155063560D03*
X341778240Y-157603560D03*
X343683240Y-95373560D03*
X343683240Y-97913560D03*
X343683240Y-100453560D03*
X343683240Y-102993560D03*
X343683240Y-105533560D03*
X343683240Y-108073560D03*
X343683240Y-110613560D03*
X343683240Y-113153560D03*
X343683240Y-115693560D03*
X343683240Y-118233560D03*
X343683240Y-120773560D03*
X343683240Y-123313560D03*
X343683240Y-125853560D03*
X343683240Y-128393560D03*
X343683240Y-130933560D03*
X343683240Y-133473560D03*
X343683240Y-136013560D03*
X343683240Y-138553560D03*
X343683240Y-141093560D03*
X343683240Y-143633560D03*
X343683240Y-146173560D03*
X343683240Y-148713560D03*
X343683240Y-151253560D03*
X343683240Y-153793560D03*
X343683240Y-156333560D03*
%TD*%
D10*
%TO.C,J12*%
X345587320Y-290474400D03*
X345587320Y-218084400D03*
D11*
X345587320Y-224434400D03*
X345587320Y-226974400D03*
X345587320Y-229514400D03*
X345587320Y-232054400D03*
X345587320Y-234594400D03*
X345587320Y-237134400D03*
X345587320Y-239674400D03*
X345587320Y-242214400D03*
X345587320Y-244754400D03*
X345587320Y-247294400D03*
X345587320Y-249834400D03*
X345587320Y-252374400D03*
X345587320Y-254914400D03*
X345587320Y-257454400D03*
X345587320Y-259994400D03*
X345587320Y-262534400D03*
X345587320Y-265074400D03*
X345587320Y-267614400D03*
X345587320Y-270154400D03*
X345587320Y-272694400D03*
X345587320Y-275234400D03*
X345587320Y-277774400D03*
X345587320Y-280314400D03*
X345587320Y-282854400D03*
X345587320Y-285394400D03*
X339872320Y-223164400D03*
X339872320Y-225704400D03*
X339872320Y-228244400D03*
X339872320Y-230784400D03*
X339872320Y-233324400D03*
X339872320Y-235864400D03*
X339872320Y-238404400D03*
X339872320Y-240944400D03*
X339872320Y-243484400D03*
X339872320Y-246024400D03*
X339872320Y-248564400D03*
X339872320Y-251104400D03*
X339872320Y-253644400D03*
X339872320Y-256184400D03*
X339872320Y-258724400D03*
X339872320Y-261264400D03*
X339872320Y-263804400D03*
X339872320Y-266344400D03*
X339872320Y-268884400D03*
X339872320Y-271424400D03*
X339872320Y-273964400D03*
X339872320Y-276504400D03*
X339872320Y-279044400D03*
X339872320Y-281584400D03*
X339872320Y-284124400D03*
X341777320Y-224434400D03*
X341777320Y-226974400D03*
X341777320Y-229514400D03*
X341777320Y-232054400D03*
X341777320Y-234594400D03*
X341777320Y-237134400D03*
X341777320Y-239674400D03*
X341777320Y-242214400D03*
X341777320Y-244754400D03*
X341777320Y-247294400D03*
X341777320Y-249834400D03*
X341777320Y-252374400D03*
X341777320Y-254914400D03*
X341777320Y-257454400D03*
X341777320Y-259994400D03*
X341777320Y-262534400D03*
X341777320Y-265074400D03*
X341777320Y-267614400D03*
X341777320Y-270154400D03*
X341777320Y-272694400D03*
X341777320Y-275234400D03*
X341777320Y-277774400D03*
X341777320Y-280314400D03*
X341777320Y-282854400D03*
X341777320Y-285394400D03*
X343682320Y-223164400D03*
X343682320Y-225704400D03*
X343682320Y-228244400D03*
X343682320Y-230784400D03*
X343682320Y-233324400D03*
X343682320Y-235864400D03*
X343682320Y-238404400D03*
X343682320Y-240944400D03*
X343682320Y-243484400D03*
X343682320Y-246024400D03*
X343682320Y-248564400D03*
X343682320Y-251104400D03*
X343682320Y-253644400D03*
X343682320Y-256184400D03*
X343682320Y-258724400D03*
X343682320Y-261264400D03*
X343682320Y-263804400D03*
X343682320Y-266344400D03*
X343682320Y-268884400D03*
X343682320Y-271424400D03*
X343682320Y-273964400D03*
X343682320Y-276504400D03*
X343682320Y-279044400D03*
X343682320Y-281584400D03*
X343682320Y-284124400D03*
%TD*%
D12*
%TO.C,J3*%
X138488840Y-156320860D03*
X138488840Y-153780860D03*
X138488840Y-151240860D03*
X138488840Y-148700860D03*
X138488840Y-146160860D03*
X138488840Y-143620860D03*
X138488840Y-141080860D03*
X138488840Y-138540860D03*
X138488840Y-136000860D03*
X138488840Y-133460860D03*
X138488840Y-130920860D03*
X138488840Y-128380860D03*
X138488840Y-125840860D03*
X138488840Y-123300860D03*
X138488840Y-120760860D03*
X138488840Y-118220860D03*
X138488840Y-115680860D03*
X138488840Y-113140860D03*
X138488840Y-110600860D03*
X138488840Y-108060860D03*
X138488840Y-105520860D03*
X138488840Y-102980860D03*
X138488840Y-100440860D03*
X138488840Y-97900860D03*
D13*
X138488840Y-95360860D03*
%TD*%
%TO.C,J5*%
X134763840Y-96635860D03*
D12*
X134763840Y-99175860D03*
X134763840Y-101715860D03*
X134763840Y-104255860D03*
X134763840Y-106795860D03*
X134763840Y-109335860D03*
X134763840Y-111875860D03*
X134763840Y-114415860D03*
X134763840Y-116955860D03*
X134763840Y-119495860D03*
X134763840Y-122035860D03*
X134763840Y-124575860D03*
X134763840Y-127115860D03*
X134763840Y-129655860D03*
X134763840Y-132195860D03*
X134763840Y-134735860D03*
X134763840Y-137275860D03*
X134763840Y-139815860D03*
X134763840Y-142355860D03*
X134763840Y-144895860D03*
X134763840Y-147435860D03*
X134763840Y-149975860D03*
X134763840Y-152515860D03*
X134763840Y-155055860D03*
X134763840Y-157595860D03*
%TD*%
%TO.C,J4*%
X145938840Y-156320860D03*
X145938840Y-153780860D03*
X145938840Y-151240860D03*
X145938840Y-148700860D03*
X145938840Y-146160860D03*
X145938840Y-143620860D03*
X145938840Y-141080860D03*
X145938840Y-138540860D03*
X145938840Y-136000860D03*
X145938840Y-133460860D03*
X145938840Y-130920860D03*
X145938840Y-128380860D03*
X145938840Y-125840860D03*
X145938840Y-123300860D03*
X145938840Y-120760860D03*
X145938840Y-118220860D03*
X145938840Y-115680860D03*
X145938840Y-113140860D03*
X145938840Y-110600860D03*
X145938840Y-108060860D03*
X145938840Y-105520860D03*
X145938840Y-102980860D03*
X145938840Y-100440860D03*
X145938840Y-97900860D03*
D13*
X145938840Y-95360860D03*
%TD*%
%TO.C,J6*%
X142213840Y-96635860D03*
D12*
X142213840Y-99175860D03*
X142213840Y-101715860D03*
X142213840Y-104255860D03*
X142213840Y-106795860D03*
X142213840Y-109335860D03*
X142213840Y-111875860D03*
X142213840Y-114415860D03*
X142213840Y-116955860D03*
X142213840Y-119495860D03*
X142213840Y-122035860D03*
X142213840Y-124575860D03*
X142213840Y-127115860D03*
X142213840Y-129655860D03*
X142213840Y-132195860D03*
X142213840Y-134735860D03*
X142213840Y-137275860D03*
X142213840Y-139815860D03*
X142213840Y-142355860D03*
X142213840Y-144895860D03*
X142213840Y-147435860D03*
X142213840Y-149975860D03*
X142213840Y-152515860D03*
X142213840Y-155055860D03*
X142213840Y-157595860D03*
%TD*%
D14*
%TO.C,H2*%
X127274000Y-75722360D03*
X132274000Y-75722360D03*
X132274000Y-83222360D03*
X127274000Y-83222360D03*
%TD*%
%TO.C,H1*%
X127274000Y-305122360D03*
X132274000Y-305122360D03*
X132274000Y-297622360D03*
X127274000Y-297622360D03*
%TD*%
D12*
%TO.C,J13*%
X138488840Y-284123500D03*
X138488840Y-281583500D03*
X138488840Y-279043500D03*
X138488840Y-276503500D03*
X138488840Y-273963500D03*
X138488840Y-271423500D03*
X138488840Y-268883500D03*
X138488840Y-266343500D03*
X138488840Y-263803500D03*
X138488840Y-261263500D03*
X138488840Y-258723500D03*
X138488840Y-256183500D03*
X138488840Y-253643500D03*
X138488840Y-251103500D03*
X138488840Y-248563500D03*
X138488840Y-246023500D03*
X138488840Y-243483500D03*
X138488840Y-240943500D03*
X138488840Y-238403500D03*
X138488840Y-235863500D03*
X138488840Y-233323500D03*
X138488840Y-230783500D03*
X138488840Y-228243500D03*
X138488840Y-225703500D03*
D13*
X138488840Y-223163500D03*
%TD*%
D12*
%TO.C,J14*%
X145938840Y-284123500D03*
X145938840Y-281583500D03*
X145938840Y-279043500D03*
X145938840Y-276503500D03*
X145938840Y-273963500D03*
X145938840Y-271423500D03*
X145938840Y-268883500D03*
X145938840Y-266343500D03*
X145938840Y-263803500D03*
X145938840Y-261263500D03*
X145938840Y-258723500D03*
X145938840Y-256183500D03*
X145938840Y-253643500D03*
X145938840Y-251103500D03*
X145938840Y-248563500D03*
X145938840Y-246023500D03*
X145938840Y-243483500D03*
X145938840Y-240943500D03*
X145938840Y-238403500D03*
X145938840Y-235863500D03*
X145938840Y-233323500D03*
X145938840Y-230783500D03*
X145938840Y-228243500D03*
X145938840Y-225703500D03*
D13*
X145938840Y-223163500D03*
%TD*%
%TO.C,J15*%
X134763840Y-224438500D03*
D12*
X134763840Y-226978500D03*
X134763840Y-229518500D03*
X134763840Y-232058500D03*
X134763840Y-234598500D03*
X134763840Y-237138500D03*
X134763840Y-239678500D03*
X134763840Y-242218500D03*
X134763840Y-244758500D03*
X134763840Y-247298500D03*
X134763840Y-249838500D03*
X134763840Y-252378500D03*
X134763840Y-254918500D03*
X134763840Y-257458500D03*
X134763840Y-259998500D03*
X134763840Y-262538500D03*
X134763840Y-265078500D03*
X134763840Y-267618500D03*
X134763840Y-270158500D03*
X134763840Y-272698500D03*
X134763840Y-275238500D03*
X134763840Y-277778500D03*
X134763840Y-280318500D03*
X134763840Y-282858500D03*
X134763840Y-285398500D03*
%TD*%
D13*
%TO.C,J16*%
X142213840Y-224438500D03*
D12*
X142213840Y-226978500D03*
X142213840Y-229518500D03*
X142213840Y-232058500D03*
X142213840Y-234598500D03*
X142213840Y-237138500D03*
X142213840Y-239678500D03*
X142213840Y-242218500D03*
X142213840Y-244758500D03*
X142213840Y-247298500D03*
X142213840Y-249838500D03*
X142213840Y-252378500D03*
X142213840Y-254918500D03*
X142213840Y-257458500D03*
X142213840Y-259998500D03*
X142213840Y-262538500D03*
X142213840Y-265078500D03*
X142213840Y-267618500D03*
X142213840Y-270158500D03*
X142213840Y-272698500D03*
X142213840Y-275238500D03*
X142213840Y-277778500D03*
X142213840Y-280318500D03*
X142213840Y-282858500D03*
X142213840Y-285398500D03*
%TD*%
M02*
